G75*
%MOIN*%
%OFA0B0*%
%FSLAX25Y25*%
%IPPOS*%
%LPD*%
%AMOC8*
5,1,8,0,0,1.08239X$1,22.5*
%
%ADD10C,0.00000*%
%ADD11C,0.06500*%
%ADD12C,0.07500*%
%ADD13C,0.05943*%
%ADD14C,0.07400*%
%ADD15C,0.05943*%
%ADD16R,0.07400X0.07400*%
%ADD17C,0.06600*%
%ADD18C,0.13000*%
%ADD19C,0.03200*%
%ADD20C,0.01600*%
%ADD21R,0.04362X0.04362*%
D10*
X0001800Y0001800D02*
X0001800Y0221761D01*
X0165501Y0221761D01*
X0165501Y0001800D01*
X0001800Y0001800D01*
D11*
X0091950Y0096800D03*
X0111650Y0096800D03*
X0131800Y0126800D03*
X0131800Y0136800D03*
X0152745Y0139753D03*
X0152745Y0129753D03*
D12*
X0054800Y0021800D03*
X0017800Y0021800D03*
D13*
X0091800Y0037800D03*
X0091800Y0065800D03*
D14*
X0106800Y0066800D03*
X0106800Y0036800D03*
X0096300Y0011800D03*
X0141800Y0016800D03*
X0141800Y0026800D03*
X0141800Y0041800D03*
X0141800Y0051800D03*
X0131800Y0076800D03*
X0151800Y0076800D03*
X0151800Y0106800D03*
X0131800Y0106800D03*
X0131800Y0161800D03*
X0151800Y0161800D03*
X0151800Y0191800D03*
X0131800Y0191800D03*
X0031300Y0206800D03*
D15*
X0088414Y0131701D02*
X0088414Y0125757D01*
X0095107Y0141112D02*
X0095107Y0147055D01*
X0101800Y0131701D02*
X0101800Y0125757D01*
X0108493Y0141112D02*
X0108493Y0147055D01*
X0115186Y0131701D02*
X0115186Y0125757D01*
D16*
X0042300Y0206800D03*
X0107300Y0011800D03*
D17*
X0041721Y0129000D03*
X0041721Y0136800D03*
X0031879Y0136800D03*
X0031879Y0129000D03*
D18*
X0013100Y0147500D03*
X0060500Y0147500D03*
D19*
X0088414Y0128729D02*
X0088414Y0115186D01*
X0101800Y0101800D01*
X0101800Y0071800D01*
X0106800Y0066800D01*
X0126800Y0056800D02*
X0126800Y0021800D01*
X0136800Y0021800D01*
X0141800Y0016800D01*
X0126800Y0006800D02*
X0156800Y0006800D01*
X0161800Y0011800D01*
X0161800Y0066800D01*
X0151800Y0076800D01*
X0141800Y0071800D02*
X0126800Y0056800D01*
X0141800Y0071800D02*
X0141800Y0141800D01*
X0131800Y0151800D01*
X0131800Y0161800D01*
X0131800Y0136800D02*
X0121800Y0136800D01*
X0115186Y0130186D01*
X0115186Y0128729D01*
X0126800Y0111800D02*
X0131800Y0106800D01*
X0126800Y0111800D02*
X0101800Y0111800D01*
X0095107Y0118493D01*
X0095107Y0144083D01*
X0121800Y0096800D02*
X0116800Y0091800D01*
X0116800Y0036800D01*
X0106800Y0036800D01*
X0111800Y0021800D02*
X0096800Y0021800D01*
X0091800Y0026800D01*
X0091800Y0037800D01*
X0111800Y0021800D02*
X0126800Y0006800D01*
D20*
X0128788Y0011600D02*
X0114519Y0025869D01*
X0112755Y0026600D01*
X0098788Y0026600D01*
X0096600Y0028788D01*
X0096600Y0033872D01*
X0097032Y0034304D01*
X0097972Y0036572D01*
X0097972Y0039028D01*
X0097032Y0041296D01*
X0095296Y0043032D01*
X0093028Y0043972D01*
X0090572Y0043972D01*
X0088304Y0043032D01*
X0086568Y0041296D01*
X0085628Y0039028D01*
X0085628Y0036572D01*
X0086568Y0034304D01*
X0087000Y0033872D01*
X0087000Y0025845D01*
X0087731Y0024081D01*
X0092731Y0019081D01*
X0094081Y0017731D01*
X0095327Y0017214D01*
X0095012Y0017165D01*
X0094189Y0016897D01*
X0093417Y0016504D01*
X0092717Y0015995D01*
X0092105Y0015383D01*
X0091596Y0014683D01*
X0091203Y0013911D01*
X0090935Y0013088D01*
X0090800Y0012233D01*
X0090800Y0012000D01*
X0096100Y0012000D01*
X0096100Y0011600D01*
X0096500Y0011600D01*
X0096500Y0006300D01*
X0096733Y0006300D01*
X0097588Y0006435D01*
X0098411Y0006703D01*
X0099183Y0007096D01*
X0099883Y0007605D01*
X0100400Y0008122D01*
X0100400Y0007463D01*
X0100887Y0006287D01*
X0101787Y0005387D01*
X0102722Y0005000D01*
X0005000Y0005000D01*
X0005000Y0141882D01*
X0007605Y0139277D01*
X0011171Y0137800D01*
X0015029Y0137800D01*
X0018595Y0139277D01*
X0021323Y0142005D01*
X0022800Y0145571D01*
X0022800Y0149429D01*
X0021323Y0152995D01*
X0018595Y0155723D01*
X0015029Y0157200D01*
X0011171Y0157200D01*
X0007605Y0155723D01*
X0005000Y0153118D01*
X0005000Y0215000D01*
X0008561Y0218561D01*
X0160039Y0218561D01*
X0162301Y0216299D01*
X0162301Y0073087D01*
X0158700Y0076688D01*
X0158700Y0078172D01*
X0157650Y0080709D01*
X0155709Y0082650D01*
X0153172Y0083700D01*
X0150427Y0083700D01*
X0147891Y0082650D01*
X0146600Y0081358D01*
X0146600Y0102242D01*
X0147891Y0100950D01*
X0150427Y0099900D01*
X0153172Y0099900D01*
X0155709Y0100950D01*
X0157650Y0102891D01*
X0158700Y0105427D01*
X0158700Y0108172D01*
X0157650Y0110709D01*
X0155709Y0112650D01*
X0153172Y0113700D01*
X0150427Y0113700D01*
X0147891Y0112650D01*
X0146600Y0111358D01*
X0146600Y0127733D01*
X0147277Y0126099D01*
X0149091Y0124285D01*
X0151462Y0123303D01*
X0154028Y0123303D01*
X0156399Y0124285D01*
X0158213Y0126099D01*
X0159195Y0128470D01*
X0159195Y0131036D01*
X0158213Y0133406D01*
X0156399Y0135221D01*
X0155571Y0135564D01*
X0156035Y0135901D01*
X0156597Y0136463D01*
X0157064Y0137106D01*
X0157425Y0137814D01*
X0157671Y0138570D01*
X0157795Y0139355D01*
X0157795Y0139753D01*
X0157795Y0140150D01*
X0157671Y0140935D01*
X0157425Y0141691D01*
X0157064Y0142400D01*
X0156597Y0143043D01*
X0156035Y0143605D01*
X0155392Y0144072D01*
X0154683Y0144433D01*
X0153927Y0144678D01*
X0153142Y0144803D01*
X0152745Y0144803D01*
X0152745Y0139753D01*
X0152745Y0139753D01*
X0157795Y0139753D01*
X0152745Y0139753D01*
X0152745Y0139753D01*
X0152745Y0144803D01*
X0152347Y0144803D01*
X0151562Y0144678D01*
X0150806Y0144433D01*
X0150098Y0144072D01*
X0149455Y0143605D01*
X0148893Y0143043D01*
X0148426Y0142400D01*
X0148065Y0141691D01*
X0147819Y0140935D01*
X0147695Y0140150D01*
X0147695Y0139753D01*
X0152745Y0139753D01*
X0152745Y0139753D01*
X0147695Y0139753D01*
X0147695Y0139355D01*
X0147819Y0138570D01*
X0148065Y0137814D01*
X0148426Y0137106D01*
X0148893Y0136463D01*
X0149455Y0135901D01*
X0149919Y0135564D01*
X0149091Y0135221D01*
X0147277Y0133406D01*
X0146600Y0131772D01*
X0146600Y0142755D01*
X0145869Y0144519D01*
X0144519Y0145869D01*
X0136600Y0153788D01*
X0136600Y0156842D01*
X0137650Y0157891D01*
X0138700Y0160427D01*
X0138700Y0163172D01*
X0137650Y0165709D01*
X0135709Y0167650D01*
X0133172Y0168700D01*
X0130427Y0168700D01*
X0127891Y0167650D01*
X0125950Y0165709D01*
X0124900Y0163172D01*
X0124900Y0160427D01*
X0125950Y0157891D01*
X0127000Y0156842D01*
X0127000Y0150845D01*
X0127731Y0149081D01*
X0133900Y0142911D01*
X0133083Y0143250D01*
X0130517Y0143250D01*
X0128146Y0142268D01*
X0127478Y0141600D01*
X0120845Y0141600D01*
X0119081Y0140869D01*
X0117731Y0139519D01*
X0116084Y0137872D01*
X0113958Y0137872D01*
X0113805Y0137809D01*
X0114665Y0139884D01*
X0114665Y0148283D01*
X0113725Y0150551D01*
X0111989Y0152287D01*
X0109721Y0153227D01*
X0107265Y0153227D01*
X0104997Y0152287D01*
X0103261Y0150551D01*
X0102321Y0148283D01*
X0102321Y0139884D01*
X0103261Y0137616D01*
X0104997Y0135880D01*
X0107265Y0134940D01*
X0109721Y0134940D01*
X0109874Y0135004D01*
X0109014Y0132928D01*
X0109014Y0124530D01*
X0109954Y0122262D01*
X0111690Y0120525D01*
X0113958Y0119586D01*
X0116413Y0119586D01*
X0118682Y0120525D01*
X0120418Y0122262D01*
X0121357Y0124530D01*
X0121357Y0129569D01*
X0123788Y0132000D01*
X0127478Y0132000D01*
X0128146Y0131332D01*
X0128974Y0130989D01*
X0128510Y0130652D01*
X0127948Y0130090D01*
X0127481Y0129447D01*
X0127120Y0128739D01*
X0126874Y0127983D01*
X0126750Y0127197D01*
X0126750Y0126800D01*
X0131800Y0126800D01*
X0136850Y0126800D01*
X0136850Y0127197D01*
X0136726Y0127983D01*
X0136480Y0128739D01*
X0136119Y0129447D01*
X0135652Y0130090D01*
X0135090Y0130652D01*
X0134626Y0130989D01*
X0135454Y0131332D01*
X0137000Y0132878D01*
X0137000Y0132878D01*
X0137000Y0111358D01*
X0135709Y0112650D01*
X0133172Y0113700D01*
X0131688Y0113700D01*
X0129519Y0115869D01*
X0127755Y0116600D01*
X0103788Y0116600D01*
X0099907Y0120481D01*
X0099907Y0121367D01*
X0099968Y0121335D01*
X0100683Y0121103D01*
X0101424Y0120986D01*
X0101714Y0120986D01*
X0101714Y0128643D01*
X0101886Y0128643D01*
X0101886Y0120986D01*
X0102176Y0120986D01*
X0102917Y0121103D01*
X0103632Y0121335D01*
X0104301Y0121676D01*
X0104909Y0122118D01*
X0105440Y0122649D01*
X0105881Y0123257D01*
X0106222Y0123926D01*
X0106454Y0124640D01*
X0106572Y0125382D01*
X0106572Y0128643D01*
X0101886Y0128643D01*
X0101886Y0128815D01*
X0106572Y0128815D01*
X0106572Y0132076D01*
X0106454Y0132818D01*
X0106222Y0133532D01*
X0105881Y0134202D01*
X0105440Y0134809D01*
X0104909Y0135340D01*
X0104301Y0135782D01*
X0103632Y0136123D01*
X0102917Y0136355D01*
X0102176Y0136472D01*
X0101886Y0136472D01*
X0101886Y0128815D01*
X0101714Y0128815D01*
X0101714Y0136472D01*
X0101424Y0136472D01*
X0100683Y0136355D01*
X0099968Y0136123D01*
X0099907Y0136092D01*
X0099907Y0137184D01*
X0100339Y0137616D01*
X0101279Y0139884D01*
X0101279Y0148283D01*
X0100339Y0150551D01*
X0098603Y0152287D01*
X0096335Y0153227D01*
X0093879Y0153227D01*
X0091611Y0152287D01*
X0089875Y0150551D01*
X0088935Y0148283D01*
X0088935Y0139884D01*
X0089795Y0137809D01*
X0089642Y0137872D01*
X0087187Y0137872D01*
X0084918Y0136933D01*
X0083182Y0135197D01*
X0082243Y0132928D01*
X0082243Y0124530D01*
X0083182Y0122262D01*
X0083614Y0121829D01*
X0083614Y0114231D01*
X0084345Y0112467D01*
X0093794Y0103017D01*
X0093233Y0103250D01*
X0090667Y0103250D01*
X0088296Y0102268D01*
X0086482Y0100454D01*
X0085500Y0098083D01*
X0085500Y0095517D01*
X0086482Y0093146D01*
X0088296Y0091332D01*
X0090667Y0090350D01*
X0093233Y0090350D01*
X0095604Y0091332D01*
X0097000Y0092728D01*
X0097000Y0070845D01*
X0097731Y0069081D01*
X0099900Y0066912D01*
X0099900Y0065427D01*
X0100950Y0062891D01*
X0102891Y0060950D01*
X0105427Y0059900D01*
X0108172Y0059900D01*
X0110709Y0060950D01*
X0112000Y0062242D01*
X0112000Y0041600D01*
X0111758Y0041600D01*
X0110709Y0042650D01*
X0108172Y0043700D01*
X0105427Y0043700D01*
X0102891Y0042650D01*
X0100950Y0040709D01*
X0099900Y0038172D01*
X0099900Y0035427D01*
X0100950Y0032891D01*
X0102891Y0030950D01*
X0105427Y0029900D01*
X0108172Y0029900D01*
X0110709Y0030950D01*
X0111758Y0032000D01*
X0117755Y0032000D01*
X0119519Y0032731D01*
X0120869Y0034081D01*
X0121600Y0035845D01*
X0121600Y0089812D01*
X0123207Y0091419D01*
X0124618Y0091419D01*
X0125794Y0091906D01*
X0126694Y0092806D01*
X0127181Y0093982D01*
X0127181Y0099618D01*
X0126694Y0100794D01*
X0125794Y0101694D01*
X0124618Y0102181D01*
X0118982Y0102181D01*
X0117806Y0101694D01*
X0116906Y0100794D01*
X0116869Y0100703D01*
X0115304Y0102268D01*
X0112933Y0103250D01*
X0110367Y0103250D01*
X0107996Y0102268D01*
X0106600Y0100872D01*
X0106600Y0102755D01*
X0105869Y0104519D01*
X0104519Y0105869D01*
X0103388Y0107000D01*
X0124812Y0107000D01*
X0124900Y0106912D01*
X0124900Y0105427D01*
X0125950Y0102891D01*
X0127891Y0100950D01*
X0130427Y0099900D01*
X0133172Y0099900D01*
X0135709Y0100950D01*
X0137000Y0102242D01*
X0137000Y0078594D01*
X0136897Y0078911D01*
X0136504Y0079683D01*
X0135995Y0080383D01*
X0135383Y0080995D01*
X0134683Y0081504D01*
X0133911Y0081897D01*
X0133088Y0082165D01*
X0132233Y0082300D01*
X0131886Y0082300D01*
X0131886Y0076886D01*
X0131714Y0076886D01*
X0131714Y0082300D01*
X0131367Y0082300D01*
X0130512Y0082165D01*
X0129689Y0081897D01*
X0128917Y0081504D01*
X0128217Y0080995D01*
X0127605Y0080383D01*
X0127096Y0079683D01*
X0126703Y0078911D01*
X0126435Y0078088D01*
X0126300Y0077233D01*
X0126300Y0076886D01*
X0131714Y0076886D01*
X0131714Y0076714D01*
X0131886Y0076714D01*
X0131886Y0071300D01*
X0132233Y0071300D01*
X0133088Y0071435D01*
X0133911Y0071703D01*
X0134683Y0072096D01*
X0135383Y0072605D01*
X0135995Y0073217D01*
X0136504Y0073917D01*
X0136897Y0074689D01*
X0137000Y0075006D01*
X0137000Y0073788D01*
X0124081Y0060869D01*
X0122731Y0059519D01*
X0122000Y0057755D01*
X0122000Y0020845D01*
X0122731Y0019081D01*
X0124081Y0017731D01*
X0125845Y0017000D01*
X0134812Y0017000D01*
X0134900Y0016912D01*
X0134900Y0015427D01*
X0135950Y0012891D01*
X0137242Y0011600D01*
X0128788Y0011600D01*
X0127399Y0012990D02*
X0135910Y0012990D01*
X0135248Y0014588D02*
X0125800Y0014588D01*
X0124202Y0016187D02*
X0134900Y0016187D01*
X0136300Y0026600D02*
X0131600Y0026600D01*
X0131600Y0054812D01*
X0144519Y0067731D01*
X0145869Y0069081D01*
X0146600Y0070845D01*
X0146600Y0072242D01*
X0147891Y0070950D01*
X0150427Y0069900D01*
X0151912Y0069900D01*
X0157000Y0064812D01*
X0157000Y0013788D01*
X0154812Y0011600D01*
X0146358Y0011600D01*
X0147650Y0012891D01*
X0148700Y0015427D01*
X0148700Y0018172D01*
X0147650Y0020709D01*
X0145709Y0022650D01*
X0145510Y0022732D01*
X0145995Y0023217D01*
X0146504Y0023917D01*
X0146897Y0024689D01*
X0147165Y0025512D01*
X0147300Y0026367D01*
X0147300Y0026800D01*
X0147300Y0027233D01*
X0147165Y0028088D01*
X0146897Y0028911D01*
X0146504Y0029683D01*
X0145995Y0030383D01*
X0145383Y0030995D01*
X0144683Y0031504D01*
X0143911Y0031897D01*
X0143088Y0032165D01*
X0142233Y0032300D01*
X0141800Y0032300D01*
X0141800Y0026800D01*
X0141800Y0026800D01*
X0147300Y0026800D01*
X0141800Y0026800D01*
X0141800Y0026800D01*
X0141800Y0026800D01*
X0136300Y0026800D01*
X0136300Y0027233D01*
X0136435Y0028088D01*
X0136703Y0028911D01*
X0137096Y0029683D01*
X0137605Y0030383D01*
X0138217Y0030995D01*
X0138917Y0031504D01*
X0139689Y0031897D01*
X0140512Y0032165D01*
X0141367Y0032300D01*
X0141800Y0032300D01*
X0141800Y0026800D01*
X0136300Y0026800D01*
X0136300Y0026600D01*
X0136323Y0027376D02*
X0131600Y0027376D01*
X0131600Y0028975D02*
X0136735Y0028975D01*
X0137795Y0030573D02*
X0131600Y0030573D01*
X0131600Y0032172D02*
X0140557Y0032172D01*
X0141800Y0032172D02*
X0141800Y0032172D01*
X0143043Y0032172D02*
X0157000Y0032172D01*
X0157000Y0033770D02*
X0131600Y0033770D01*
X0131600Y0035369D02*
X0157000Y0035369D01*
X0157000Y0036967D02*
X0144430Y0036967D01*
X0144683Y0037096D02*
X0145383Y0037605D01*
X0145995Y0038217D01*
X0146504Y0038917D01*
X0146897Y0039689D01*
X0147165Y0040512D01*
X0147300Y0041367D01*
X0147300Y0041800D01*
X0147300Y0042233D01*
X0147165Y0043088D01*
X0146897Y0043911D01*
X0146504Y0044683D01*
X0145995Y0045383D01*
X0145510Y0045868D01*
X0145709Y0045950D01*
X0147650Y0047891D01*
X0148700Y0050427D01*
X0148700Y0053172D01*
X0147650Y0055709D01*
X0145709Y0057650D01*
X0143172Y0058700D01*
X0140427Y0058700D01*
X0137891Y0057650D01*
X0135950Y0055709D01*
X0134900Y0053172D01*
X0134900Y0050427D01*
X0135950Y0047891D01*
X0137891Y0045950D01*
X0138090Y0045868D01*
X0137605Y0045383D01*
X0137096Y0044683D01*
X0136703Y0043911D01*
X0136435Y0043088D01*
X0136300Y0042233D01*
X0136300Y0041800D01*
X0141800Y0041800D01*
X0147300Y0041800D01*
X0141800Y0041800D01*
X0141800Y0041800D01*
X0141800Y0041800D01*
X0141800Y0036300D01*
X0142233Y0036300D01*
X0143088Y0036435D01*
X0143911Y0036703D01*
X0144683Y0037096D01*
X0146249Y0038566D02*
X0157000Y0038566D01*
X0157000Y0040164D02*
X0147052Y0040164D01*
X0147300Y0041763D02*
X0157000Y0041763D01*
X0157000Y0043361D02*
X0147076Y0043361D01*
X0146303Y0044960D02*
X0157000Y0044960D01*
X0157000Y0046558D02*
X0146316Y0046558D01*
X0147759Y0048157D02*
X0157000Y0048157D01*
X0157000Y0049755D02*
X0148422Y0049755D01*
X0148700Y0051354D02*
X0157000Y0051354D01*
X0157000Y0052952D02*
X0148700Y0052952D01*
X0148129Y0054551D02*
X0157000Y0054551D01*
X0157000Y0056149D02*
X0147209Y0056149D01*
X0145471Y0057748D02*
X0157000Y0057748D01*
X0157000Y0059346D02*
X0136135Y0059346D01*
X0134536Y0057748D02*
X0138129Y0057748D01*
X0136391Y0056149D02*
X0132938Y0056149D01*
X0131600Y0054551D02*
X0135471Y0054551D01*
X0134900Y0052952D02*
X0131600Y0052952D01*
X0131600Y0051354D02*
X0134900Y0051354D01*
X0135178Y0049755D02*
X0131600Y0049755D01*
X0131600Y0048157D02*
X0135841Y0048157D01*
X0137284Y0046558D02*
X0131600Y0046558D01*
X0131600Y0044960D02*
X0137297Y0044960D01*
X0136524Y0043361D02*
X0131600Y0043361D01*
X0131600Y0041763D02*
X0136300Y0041763D01*
X0136300Y0041800D02*
X0136300Y0041367D01*
X0136435Y0040512D01*
X0136703Y0039689D01*
X0137096Y0038917D01*
X0137605Y0038217D01*
X0138217Y0037605D01*
X0138917Y0037096D01*
X0139689Y0036703D01*
X0140512Y0036435D01*
X0141367Y0036300D01*
X0141800Y0036300D01*
X0141800Y0041800D01*
X0141800Y0041800D01*
X0136300Y0041800D01*
X0136548Y0040164D02*
X0131600Y0040164D01*
X0131600Y0038566D02*
X0137351Y0038566D01*
X0139170Y0036967D02*
X0131600Y0036967D01*
X0122000Y0036967D02*
X0121600Y0036967D01*
X0121600Y0038566D02*
X0122000Y0038566D01*
X0122000Y0040164D02*
X0121600Y0040164D01*
X0121600Y0041763D02*
X0122000Y0041763D01*
X0122000Y0043361D02*
X0121600Y0043361D01*
X0121600Y0044960D02*
X0122000Y0044960D01*
X0122000Y0046558D02*
X0121600Y0046558D01*
X0121600Y0048157D02*
X0122000Y0048157D01*
X0122000Y0049755D02*
X0121600Y0049755D01*
X0121600Y0051354D02*
X0122000Y0051354D01*
X0122000Y0052952D02*
X0121600Y0052952D01*
X0121600Y0054551D02*
X0122000Y0054551D01*
X0122000Y0056149D02*
X0121600Y0056149D01*
X0121600Y0057748D02*
X0122000Y0057748D01*
X0121600Y0059346D02*
X0122659Y0059346D01*
X0121600Y0060945D02*
X0124157Y0060945D01*
X0124081Y0060869D02*
X0124081Y0060869D01*
X0125755Y0062543D02*
X0121600Y0062543D01*
X0121600Y0064142D02*
X0127354Y0064142D01*
X0128952Y0065740D02*
X0121600Y0065740D01*
X0121600Y0067339D02*
X0130551Y0067339D01*
X0132149Y0068937D02*
X0121600Y0068937D01*
X0121600Y0070536D02*
X0133748Y0070536D01*
X0134736Y0072134D02*
X0135346Y0072134D01*
X0136370Y0073733D02*
X0136945Y0073733D01*
X0131886Y0073733D02*
X0131714Y0073733D01*
X0131714Y0072134D02*
X0131886Y0072134D01*
X0131714Y0071300D02*
X0131367Y0071300D01*
X0130512Y0071435D01*
X0129689Y0071703D01*
X0128917Y0072096D01*
X0128217Y0072605D01*
X0127605Y0073217D01*
X0127096Y0073917D01*
X0126703Y0074689D01*
X0126435Y0075512D01*
X0126300Y0076367D01*
X0126300Y0076714D01*
X0131714Y0076714D01*
X0131714Y0071300D01*
X0128864Y0072134D02*
X0121600Y0072134D01*
X0121600Y0073733D02*
X0127230Y0073733D01*
X0126494Y0075332D02*
X0121600Y0075332D01*
X0121600Y0076930D02*
X0126300Y0076930D01*
X0126579Y0078529D02*
X0121600Y0078529D01*
X0121600Y0080127D02*
X0127419Y0080127D01*
X0129352Y0081726D02*
X0121600Y0081726D01*
X0121600Y0083324D02*
X0137000Y0083324D01*
X0137000Y0081726D02*
X0134248Y0081726D01*
X0131886Y0081726D02*
X0131714Y0081726D01*
X0131714Y0080127D02*
X0131886Y0080127D01*
X0131886Y0078529D02*
X0131714Y0078529D01*
X0131714Y0076930D02*
X0131886Y0076930D01*
X0131886Y0075332D02*
X0131714Y0075332D01*
X0136181Y0080127D02*
X0137000Y0080127D01*
X0137000Y0084923D02*
X0121600Y0084923D01*
X0121600Y0086521D02*
X0137000Y0086521D01*
X0137000Y0088120D02*
X0121600Y0088120D01*
X0121600Y0089718D02*
X0137000Y0089718D01*
X0137000Y0091317D02*
X0123105Y0091317D01*
X0126739Y0092915D02*
X0137000Y0092915D01*
X0137000Y0094514D02*
X0127181Y0094514D01*
X0127181Y0096112D02*
X0137000Y0096112D01*
X0137000Y0097711D02*
X0127181Y0097711D01*
X0127181Y0099309D02*
X0137000Y0099309D01*
X0137000Y0100908D02*
X0135605Y0100908D01*
X0127995Y0100908D02*
X0126580Y0100908D01*
X0126336Y0102506D02*
X0114729Y0102506D01*
X0116664Y0100908D02*
X0117020Y0100908D01*
X0108571Y0102506D02*
X0106600Y0102506D01*
X0106600Y0100908D02*
X0106636Y0100908D01*
X0106041Y0104105D02*
X0125448Y0104105D01*
X0124900Y0105703D02*
X0104685Y0105703D01*
X0103495Y0116893D02*
X0137000Y0116893D01*
X0137000Y0118491D02*
X0101897Y0118491D01*
X0100298Y0120090D02*
X0112741Y0120090D01*
X0110527Y0121688D02*
X0104317Y0121688D01*
X0105896Y0123287D02*
X0109529Y0123287D01*
X0109014Y0124885D02*
X0106493Y0124885D01*
X0106572Y0126484D02*
X0109014Y0126484D01*
X0109014Y0128082D02*
X0106572Y0128082D01*
X0106572Y0129681D02*
X0109014Y0129681D01*
X0109014Y0131279D02*
X0106572Y0131279D01*
X0106435Y0132878D02*
X0109014Y0132878D01*
X0109655Y0134476D02*
X0105681Y0134476D01*
X0104802Y0136075D02*
X0103726Y0136075D01*
X0103237Y0137673D02*
X0100363Y0137673D01*
X0101025Y0139272D02*
X0102575Y0139272D01*
X0102321Y0140870D02*
X0101279Y0140870D01*
X0101279Y0142469D02*
X0102321Y0142469D01*
X0102321Y0144068D02*
X0101279Y0144068D01*
X0101279Y0145666D02*
X0102321Y0145666D01*
X0102321Y0147265D02*
X0101279Y0147265D01*
X0101038Y0148863D02*
X0102562Y0148863D01*
X0103224Y0150462D02*
X0100376Y0150462D01*
X0098830Y0152060D02*
X0104770Y0152060D01*
X0112216Y0152060D02*
X0127000Y0152060D01*
X0127000Y0153659D02*
X0068059Y0153659D01*
X0068723Y0152995D02*
X0065995Y0155723D01*
X0062429Y0157200D01*
X0058571Y0157200D01*
X0055005Y0155723D01*
X0052277Y0152995D01*
X0050800Y0149429D01*
X0050800Y0145571D01*
X0052277Y0142005D01*
X0055005Y0139277D01*
X0058571Y0137800D01*
X0062429Y0137800D01*
X0065995Y0139277D01*
X0068723Y0142005D01*
X0070200Y0145571D01*
X0070200Y0149429D01*
X0068723Y0152995D01*
X0069110Y0152060D02*
X0091384Y0152060D01*
X0089838Y0150462D02*
X0069772Y0150462D01*
X0070200Y0148863D02*
X0089176Y0148863D01*
X0088935Y0147265D02*
X0070200Y0147265D01*
X0070200Y0145666D02*
X0088935Y0145666D01*
X0088935Y0144068D02*
X0069577Y0144068D01*
X0068915Y0142469D02*
X0088935Y0142469D01*
X0088935Y0140870D02*
X0067588Y0140870D01*
X0065983Y0139272D02*
X0089189Y0139272D01*
X0086706Y0137673D02*
X0048221Y0137673D01*
X0048221Y0138093D02*
X0047232Y0140482D01*
X0045403Y0142310D01*
X0043014Y0143300D01*
X0040428Y0143300D01*
X0038039Y0142310D01*
X0036211Y0140482D01*
X0035955Y0139865D01*
X0035769Y0140122D01*
X0035201Y0140690D01*
X0034552Y0141162D01*
X0033836Y0141526D01*
X0033073Y0141774D01*
X0032280Y0141900D01*
X0031979Y0141900D01*
X0031979Y0136900D01*
X0031779Y0136900D01*
X0031779Y0141900D01*
X0031477Y0141900D01*
X0030684Y0141774D01*
X0029921Y0141526D01*
X0029206Y0141162D01*
X0028556Y0140690D01*
X0027989Y0140122D01*
X0027517Y0139473D01*
X0027152Y0138758D01*
X0026904Y0137994D01*
X0026779Y0137201D01*
X0026779Y0136900D01*
X0031779Y0136900D01*
X0031779Y0136700D01*
X0026779Y0136700D01*
X0026779Y0136399D01*
X0026904Y0135606D01*
X0027152Y0134842D01*
X0027517Y0134127D01*
X0027642Y0133955D01*
X0026368Y0132682D01*
X0025379Y0130293D01*
X0025379Y0127707D01*
X0026368Y0125318D01*
X0028197Y0123490D01*
X0030586Y0122500D01*
X0033172Y0122500D01*
X0035561Y0123490D01*
X0036800Y0124729D01*
X0038039Y0123490D01*
X0040428Y0122500D01*
X0043014Y0122500D01*
X0045403Y0123490D01*
X0047232Y0125318D01*
X0048221Y0127707D01*
X0048221Y0130293D01*
X0047232Y0132682D01*
X0047014Y0132900D01*
X0047232Y0133118D01*
X0048221Y0135507D01*
X0048221Y0138093D01*
X0047733Y0139272D02*
X0055017Y0139272D01*
X0053412Y0140870D02*
X0046843Y0140870D01*
X0045020Y0142469D02*
X0052085Y0142469D01*
X0051423Y0144068D02*
X0022177Y0144068D01*
X0022800Y0145666D02*
X0050800Y0145666D01*
X0050800Y0147265D02*
X0022800Y0147265D01*
X0022800Y0148863D02*
X0050800Y0148863D01*
X0051228Y0150462D02*
X0022372Y0150462D01*
X0021710Y0152060D02*
X0051890Y0152060D01*
X0052941Y0153659D02*
X0020659Y0153659D01*
X0019061Y0155257D02*
X0054539Y0155257D01*
X0057739Y0156856D02*
X0015861Y0156856D01*
X0010339Y0156856D02*
X0005000Y0156856D01*
X0005000Y0158454D02*
X0125717Y0158454D01*
X0125055Y0160053D02*
X0005000Y0160053D01*
X0005000Y0161651D02*
X0124900Y0161651D01*
X0124932Y0163250D02*
X0005000Y0163250D01*
X0005000Y0164848D02*
X0125594Y0164848D01*
X0126689Y0166447D02*
X0005000Y0166447D01*
X0005000Y0168045D02*
X0128847Y0168045D01*
X0134753Y0168045D02*
X0148847Y0168045D01*
X0147891Y0167650D02*
X0145950Y0165709D01*
X0144900Y0163172D01*
X0144900Y0160427D01*
X0145950Y0157891D01*
X0147891Y0155950D01*
X0150427Y0154900D01*
X0153172Y0154900D01*
X0155709Y0155950D01*
X0157650Y0157891D01*
X0158700Y0160427D01*
X0158700Y0163172D01*
X0157650Y0165709D01*
X0155709Y0167650D01*
X0153172Y0168700D01*
X0150427Y0168700D01*
X0147891Y0167650D01*
X0146689Y0166447D02*
X0136911Y0166447D01*
X0138006Y0164848D02*
X0145594Y0164848D01*
X0144932Y0163250D02*
X0138668Y0163250D01*
X0138700Y0161651D02*
X0144900Y0161651D01*
X0145055Y0160053D02*
X0138545Y0160053D01*
X0137883Y0158454D02*
X0145717Y0158454D01*
X0146986Y0156856D02*
X0136614Y0156856D01*
X0136600Y0155257D02*
X0149565Y0155257D01*
X0154035Y0155257D02*
X0162301Y0155257D01*
X0162301Y0153659D02*
X0136730Y0153659D01*
X0138328Y0152060D02*
X0162301Y0152060D01*
X0162301Y0150462D02*
X0139927Y0150462D01*
X0141525Y0148863D02*
X0162301Y0148863D01*
X0162301Y0147265D02*
X0143124Y0147265D01*
X0144722Y0145666D02*
X0162301Y0145666D01*
X0162301Y0144068D02*
X0155398Y0144068D01*
X0157014Y0142469D02*
X0162301Y0142469D01*
X0162301Y0140870D02*
X0157681Y0140870D01*
X0157782Y0139272D02*
X0162301Y0139272D01*
X0162301Y0137673D02*
X0157353Y0137673D01*
X0156209Y0136075D02*
X0162301Y0136075D01*
X0162301Y0134476D02*
X0157143Y0134476D01*
X0158432Y0132878D02*
X0162301Y0132878D01*
X0162301Y0131279D02*
X0159094Y0131279D01*
X0159195Y0129681D02*
X0162301Y0129681D01*
X0162301Y0128082D02*
X0159034Y0128082D01*
X0158372Y0126484D02*
X0162301Y0126484D01*
X0162301Y0124885D02*
X0156999Y0124885D01*
X0162301Y0123287D02*
X0146600Y0123287D01*
X0146600Y0124885D02*
X0148491Y0124885D01*
X0147117Y0126484D02*
X0146600Y0126484D01*
X0146600Y0121688D02*
X0162301Y0121688D01*
X0162301Y0120090D02*
X0146600Y0120090D01*
X0146600Y0118491D02*
X0162301Y0118491D01*
X0162301Y0116893D02*
X0146600Y0116893D01*
X0146600Y0115294D02*
X0162301Y0115294D01*
X0162301Y0113696D02*
X0153183Y0113696D01*
X0150417Y0113696D02*
X0146600Y0113696D01*
X0146600Y0112097D02*
X0147339Y0112097D01*
X0156261Y0112097D02*
X0162301Y0112097D01*
X0162301Y0110499D02*
X0157736Y0110499D01*
X0158399Y0108900D02*
X0162301Y0108900D01*
X0162301Y0107302D02*
X0158700Y0107302D01*
X0158700Y0105703D02*
X0162301Y0105703D01*
X0162301Y0104105D02*
X0158152Y0104105D01*
X0157264Y0102506D02*
X0162301Y0102506D01*
X0162301Y0100908D02*
X0155605Y0100908D01*
X0162301Y0099309D02*
X0146600Y0099309D01*
X0146600Y0097711D02*
X0162301Y0097711D01*
X0162301Y0096112D02*
X0146600Y0096112D01*
X0146600Y0094514D02*
X0162301Y0094514D01*
X0162301Y0092915D02*
X0146600Y0092915D01*
X0146600Y0091317D02*
X0162301Y0091317D01*
X0162301Y0089718D02*
X0146600Y0089718D01*
X0146600Y0088120D02*
X0162301Y0088120D01*
X0162301Y0086521D02*
X0146600Y0086521D01*
X0146600Y0084923D02*
X0162301Y0084923D01*
X0162301Y0083324D02*
X0154080Y0083324D01*
X0156632Y0081726D02*
X0162301Y0081726D01*
X0162301Y0080127D02*
X0157890Y0080127D01*
X0158553Y0078529D02*
X0162301Y0078529D01*
X0162301Y0076930D02*
X0158700Y0076930D01*
X0160057Y0075332D02*
X0162301Y0075332D01*
X0162301Y0073733D02*
X0161655Y0073733D01*
X0156071Y0065740D02*
X0142529Y0065740D01*
X0140930Y0064142D02*
X0157000Y0064142D01*
X0157000Y0062543D02*
X0139332Y0062543D01*
X0137733Y0060945D02*
X0157000Y0060945D01*
X0154473Y0067339D02*
X0144127Y0067339D01*
X0144519Y0067731D02*
X0144519Y0067731D01*
X0145726Y0068937D02*
X0152874Y0068937D01*
X0148892Y0070536D02*
X0146472Y0070536D01*
X0146600Y0072134D02*
X0146707Y0072134D01*
X0146600Y0081726D02*
X0146968Y0081726D01*
X0146600Y0083324D02*
X0149520Y0083324D01*
X0147995Y0100908D02*
X0146600Y0100908D01*
X0137000Y0112097D02*
X0136261Y0112097D01*
X0137000Y0113696D02*
X0133183Y0113696D01*
X0130094Y0115294D02*
X0137000Y0115294D01*
X0137000Y0120090D02*
X0117630Y0120090D01*
X0119845Y0121688D02*
X0137000Y0121688D01*
X0137000Y0123287D02*
X0135429Y0123287D01*
X0135652Y0123510D02*
X0136119Y0124153D01*
X0136480Y0124861D01*
X0136726Y0125617D01*
X0136850Y0126403D01*
X0136850Y0126800D01*
X0131800Y0126800D01*
X0131800Y0126800D01*
X0131800Y0121750D01*
X0132197Y0121750D01*
X0132983Y0121874D01*
X0133739Y0122120D01*
X0134447Y0122481D01*
X0135090Y0122948D01*
X0135652Y0123510D01*
X0136488Y0124885D02*
X0137000Y0124885D01*
X0137000Y0126484D02*
X0136850Y0126484D01*
X0136693Y0128082D02*
X0137000Y0128082D01*
X0137000Y0129681D02*
X0135949Y0129681D01*
X0135327Y0131279D02*
X0137000Y0131279D01*
X0131800Y0126800D02*
X0131800Y0126800D01*
X0131800Y0126800D01*
X0131800Y0121750D01*
X0131403Y0121750D01*
X0130617Y0121874D01*
X0129861Y0122120D01*
X0129153Y0122481D01*
X0128510Y0122948D01*
X0127948Y0123510D01*
X0127481Y0124153D01*
X0127120Y0124861D01*
X0126874Y0125617D01*
X0126750Y0126403D01*
X0126750Y0126800D01*
X0131800Y0126800D01*
X0131800Y0126484D02*
X0131800Y0126484D01*
X0131800Y0124885D02*
X0131800Y0124885D01*
X0131800Y0123287D02*
X0131800Y0123287D01*
X0128171Y0123287D02*
X0120843Y0123287D01*
X0121357Y0124885D02*
X0127112Y0124885D01*
X0126750Y0126484D02*
X0121357Y0126484D01*
X0121357Y0128082D02*
X0126907Y0128082D01*
X0127651Y0129681D02*
X0121469Y0129681D01*
X0123068Y0131279D02*
X0128273Y0131279D01*
X0128632Y0142469D02*
X0114665Y0142469D01*
X0114665Y0140870D02*
X0119084Y0140870D01*
X0117484Y0139272D02*
X0114411Y0139272D01*
X0114665Y0144068D02*
X0132744Y0144068D01*
X0131146Y0145666D02*
X0114665Y0145666D01*
X0114665Y0147265D02*
X0129547Y0147265D01*
X0127949Y0148863D02*
X0114424Y0148863D01*
X0113762Y0150462D02*
X0127159Y0150462D01*
X0127000Y0155257D02*
X0066461Y0155257D01*
X0063261Y0156856D02*
X0126986Y0156856D01*
X0146056Y0144068D02*
X0150092Y0144068D01*
X0148476Y0142469D02*
X0146600Y0142469D01*
X0146600Y0140870D02*
X0147809Y0140870D01*
X0147708Y0139272D02*
X0146600Y0139272D01*
X0146600Y0137673D02*
X0148137Y0137673D01*
X0149281Y0136075D02*
X0146600Y0136075D01*
X0146600Y0134476D02*
X0148347Y0134476D01*
X0147058Y0132878D02*
X0146600Y0132878D01*
X0152745Y0140870D02*
X0152745Y0140870D01*
X0152745Y0142469D02*
X0152745Y0142469D01*
X0152745Y0144068D02*
X0152745Y0144068D01*
X0156614Y0156856D02*
X0162301Y0156856D01*
X0162301Y0158454D02*
X0157883Y0158454D01*
X0158545Y0160053D02*
X0162301Y0160053D01*
X0162301Y0161651D02*
X0158700Y0161651D01*
X0158668Y0163250D02*
X0162301Y0163250D01*
X0162301Y0164848D02*
X0158006Y0164848D01*
X0156911Y0166447D02*
X0162301Y0166447D01*
X0162301Y0168045D02*
X0154753Y0168045D01*
X0162301Y0169644D02*
X0005000Y0169644D01*
X0005000Y0171242D02*
X0162301Y0171242D01*
X0162301Y0172841D02*
X0005000Y0172841D01*
X0005000Y0174439D02*
X0162301Y0174439D01*
X0162301Y0176038D02*
X0005000Y0176038D01*
X0005000Y0177636D02*
X0162301Y0177636D01*
X0162301Y0179235D02*
X0005000Y0179235D01*
X0005000Y0180833D02*
X0162301Y0180833D01*
X0162301Y0182432D02*
X0005000Y0182432D01*
X0005000Y0184030D02*
X0162301Y0184030D01*
X0162301Y0185629D02*
X0154932Y0185629D01*
X0155709Y0185950D02*
X0153172Y0184900D01*
X0150427Y0184900D01*
X0147891Y0185950D01*
X0145950Y0187891D01*
X0144900Y0190427D01*
X0144900Y0193172D01*
X0145950Y0195709D01*
X0147891Y0197650D01*
X0150427Y0198700D01*
X0153172Y0198700D01*
X0155709Y0197650D01*
X0157650Y0195709D01*
X0158700Y0193172D01*
X0158700Y0190427D01*
X0157650Y0187891D01*
X0155709Y0185950D01*
X0156985Y0187227D02*
X0162301Y0187227D01*
X0162301Y0188826D02*
X0158037Y0188826D01*
X0158699Y0190424D02*
X0162301Y0190424D01*
X0162301Y0192023D02*
X0158700Y0192023D01*
X0158514Y0193621D02*
X0162301Y0193621D01*
X0162301Y0195220D02*
X0157852Y0195220D01*
X0156540Y0196818D02*
X0162301Y0196818D01*
X0162301Y0198417D02*
X0153856Y0198417D01*
X0149744Y0198417D02*
X0133856Y0198417D01*
X0133172Y0198700D02*
X0130427Y0198700D01*
X0127891Y0197650D01*
X0125950Y0195709D01*
X0124900Y0193172D01*
X0124900Y0190427D01*
X0125950Y0187891D01*
X0127891Y0185950D01*
X0130427Y0184900D01*
X0133172Y0184900D01*
X0135709Y0185950D01*
X0137650Y0187891D01*
X0138700Y0190427D01*
X0138700Y0193172D01*
X0137650Y0195709D01*
X0135709Y0197650D01*
X0133172Y0198700D01*
X0129744Y0198417D02*
X0005000Y0198417D01*
X0005000Y0200015D02*
X0037685Y0200015D01*
X0037963Y0199900D02*
X0046637Y0199900D01*
X0047813Y0200387D01*
X0048713Y0201287D01*
X0049200Y0202463D01*
X0049200Y0211137D01*
X0048713Y0212313D01*
X0047813Y0213213D01*
X0046637Y0213700D01*
X0037963Y0213700D01*
X0036787Y0213213D01*
X0035887Y0212313D01*
X0035400Y0211137D01*
X0035400Y0210478D01*
X0034883Y0210995D01*
X0034183Y0211504D01*
X0033411Y0211897D01*
X0032588Y0212165D01*
X0031733Y0212300D01*
X0031500Y0212300D01*
X0031500Y0207000D01*
X0031100Y0207000D01*
X0031100Y0212300D01*
X0030867Y0212300D01*
X0030012Y0212165D01*
X0029189Y0211897D01*
X0028417Y0211504D01*
X0027717Y0210995D01*
X0027105Y0210383D01*
X0026596Y0209683D01*
X0026203Y0208911D01*
X0025935Y0208088D01*
X0025800Y0207233D01*
X0025800Y0207000D01*
X0031100Y0207000D01*
X0031100Y0206600D01*
X0031500Y0206600D01*
X0031500Y0201300D01*
X0031733Y0201300D01*
X0032588Y0201435D01*
X0033411Y0201703D01*
X0034183Y0202096D01*
X0034883Y0202605D01*
X0035400Y0203122D01*
X0035400Y0202463D01*
X0035887Y0201287D01*
X0036787Y0200387D01*
X0037963Y0199900D01*
X0035752Y0201614D02*
X0033137Y0201614D01*
X0031500Y0201614D02*
X0031100Y0201614D01*
X0031100Y0201300D02*
X0031100Y0206600D01*
X0025800Y0206600D01*
X0025800Y0206367D01*
X0025935Y0205512D01*
X0026203Y0204689D01*
X0026596Y0203917D01*
X0027105Y0203217D01*
X0027717Y0202605D01*
X0028417Y0202096D01*
X0029189Y0201703D01*
X0030012Y0201435D01*
X0030867Y0201300D01*
X0031100Y0201300D01*
X0029463Y0201614D02*
X0005000Y0201614D01*
X0005000Y0203212D02*
X0027109Y0203212D01*
X0026163Y0204811D02*
X0005000Y0204811D01*
X0005000Y0206409D02*
X0025800Y0206409D01*
X0025923Y0208008D02*
X0005000Y0208008D01*
X0005000Y0209606D02*
X0026557Y0209606D01*
X0028006Y0211205D02*
X0005000Y0211205D01*
X0005000Y0212803D02*
X0036378Y0212803D01*
X0035428Y0211205D02*
X0034594Y0211205D01*
X0031500Y0211205D02*
X0031100Y0211205D01*
X0031100Y0209606D02*
X0031500Y0209606D01*
X0031500Y0208008D02*
X0031100Y0208008D01*
X0031100Y0206409D02*
X0031500Y0206409D01*
X0031500Y0204811D02*
X0031100Y0204811D01*
X0031100Y0203212D02*
X0031500Y0203212D01*
X0046915Y0200015D02*
X0162301Y0200015D01*
X0162301Y0201614D02*
X0048848Y0201614D01*
X0049200Y0203212D02*
X0162301Y0203212D01*
X0162301Y0204811D02*
X0049200Y0204811D01*
X0049200Y0206409D02*
X0162301Y0206409D01*
X0162301Y0208008D02*
X0049200Y0208008D01*
X0049200Y0209606D02*
X0162301Y0209606D01*
X0162301Y0211205D02*
X0049172Y0211205D01*
X0048222Y0212803D02*
X0162301Y0212803D01*
X0162301Y0214402D02*
X0005000Y0214402D01*
X0006001Y0216001D02*
X0162301Y0216001D01*
X0161001Y0217599D02*
X0007599Y0217599D01*
X0005000Y0196818D02*
X0127060Y0196818D01*
X0125748Y0195220D02*
X0005000Y0195220D01*
X0005000Y0193621D02*
X0125086Y0193621D01*
X0124900Y0192023D02*
X0005000Y0192023D01*
X0005000Y0190424D02*
X0124901Y0190424D01*
X0125563Y0188826D02*
X0005000Y0188826D01*
X0005000Y0187227D02*
X0126615Y0187227D01*
X0128668Y0185629D02*
X0005000Y0185629D01*
X0005000Y0155257D02*
X0007139Y0155257D01*
X0005541Y0153659D02*
X0005000Y0153659D01*
X0005000Y0140870D02*
X0006012Y0140870D01*
X0005000Y0139272D02*
X0007617Y0139272D01*
X0005000Y0137673D02*
X0026854Y0137673D01*
X0026830Y0136075D02*
X0005000Y0136075D01*
X0005000Y0134476D02*
X0027339Y0134476D01*
X0026564Y0132878D02*
X0005000Y0132878D01*
X0005000Y0131279D02*
X0025787Y0131279D01*
X0025379Y0129681D02*
X0005000Y0129681D01*
X0005000Y0128082D02*
X0025379Y0128082D01*
X0025885Y0126484D02*
X0005000Y0126484D01*
X0005000Y0124885D02*
X0026801Y0124885D01*
X0028686Y0123287D02*
X0005000Y0123287D01*
X0005000Y0121688D02*
X0083614Y0121688D01*
X0083614Y0120090D02*
X0005000Y0120090D01*
X0005000Y0118491D02*
X0083614Y0118491D01*
X0083614Y0116893D02*
X0005000Y0116893D01*
X0005000Y0115294D02*
X0083614Y0115294D01*
X0083836Y0113696D02*
X0005000Y0113696D01*
X0005000Y0112097D02*
X0084714Y0112097D01*
X0086313Y0110499D02*
X0005000Y0110499D01*
X0005000Y0108900D02*
X0087912Y0108900D01*
X0089510Y0107302D02*
X0005000Y0107302D01*
X0005000Y0105703D02*
X0091109Y0105703D01*
X0092707Y0104105D02*
X0005000Y0104105D01*
X0005000Y0102506D02*
X0088871Y0102506D01*
X0086936Y0100908D02*
X0005000Y0100908D01*
X0005000Y0099309D02*
X0086008Y0099309D01*
X0085500Y0097711D02*
X0005000Y0097711D01*
X0005000Y0096112D02*
X0085500Y0096112D01*
X0085916Y0094514D02*
X0005000Y0094514D01*
X0005000Y0092915D02*
X0086713Y0092915D01*
X0088333Y0091317D02*
X0005000Y0091317D01*
X0005000Y0089718D02*
X0097000Y0089718D01*
X0097000Y0088120D02*
X0005000Y0088120D01*
X0005000Y0086521D02*
X0097000Y0086521D01*
X0097000Y0084923D02*
X0005000Y0084923D01*
X0005000Y0083324D02*
X0097000Y0083324D01*
X0097000Y0081726D02*
X0005000Y0081726D01*
X0005000Y0080127D02*
X0097000Y0080127D01*
X0097000Y0078529D02*
X0005000Y0078529D01*
X0005000Y0076930D02*
X0097000Y0076930D01*
X0097000Y0075332D02*
X0005000Y0075332D01*
X0005000Y0073733D02*
X0097000Y0073733D01*
X0097000Y0072134D02*
X0005000Y0072134D01*
X0005000Y0070536D02*
X0087808Y0070536D01*
X0088304Y0071032D02*
X0086568Y0069296D01*
X0085628Y0067028D01*
X0085628Y0064572D01*
X0086568Y0062304D01*
X0088304Y0060568D01*
X0090572Y0059628D01*
X0093028Y0059628D01*
X0095296Y0060568D01*
X0097032Y0062304D01*
X0097972Y0064572D01*
X0097972Y0067028D01*
X0097032Y0069296D01*
X0095296Y0071032D01*
X0093028Y0071972D01*
X0090572Y0071972D01*
X0088304Y0071032D01*
X0086419Y0068937D02*
X0005000Y0068937D01*
X0005000Y0067339D02*
X0085757Y0067339D01*
X0085628Y0065740D02*
X0005000Y0065740D01*
X0005000Y0064142D02*
X0085807Y0064142D01*
X0086469Y0062543D02*
X0005000Y0062543D01*
X0005000Y0060945D02*
X0087927Y0060945D01*
X0095673Y0060945D02*
X0102905Y0060945D01*
X0101298Y0062543D02*
X0097131Y0062543D01*
X0097793Y0064142D02*
X0100432Y0064142D01*
X0099900Y0065740D02*
X0097972Y0065740D01*
X0097843Y0067339D02*
X0099473Y0067339D01*
X0097874Y0068937D02*
X0097181Y0068937D01*
X0097128Y0070536D02*
X0095792Y0070536D01*
X0110695Y0060945D02*
X0112000Y0060945D01*
X0112000Y0059346D02*
X0005000Y0059346D01*
X0005000Y0057748D02*
X0112000Y0057748D01*
X0112000Y0056149D02*
X0005000Y0056149D01*
X0005000Y0054551D02*
X0112000Y0054551D01*
X0112000Y0052952D02*
X0005000Y0052952D01*
X0005000Y0051354D02*
X0112000Y0051354D01*
X0112000Y0049755D02*
X0005000Y0049755D01*
X0005000Y0048157D02*
X0112000Y0048157D01*
X0112000Y0046558D02*
X0005000Y0046558D01*
X0005000Y0044960D02*
X0112000Y0044960D01*
X0112000Y0043361D02*
X0108990Y0043361D01*
X0111595Y0041763D02*
X0112000Y0041763D01*
X0104610Y0043361D02*
X0094501Y0043361D01*
X0096565Y0041763D02*
X0102005Y0041763D01*
X0100725Y0040164D02*
X0097501Y0040164D01*
X0097972Y0038566D02*
X0100063Y0038566D01*
X0099900Y0036967D02*
X0097972Y0036967D01*
X0097473Y0035369D02*
X0099924Y0035369D01*
X0100586Y0033770D02*
X0096600Y0033770D01*
X0096600Y0032172D02*
X0101670Y0032172D01*
X0103802Y0030573D02*
X0096600Y0030573D01*
X0096600Y0028975D02*
X0122000Y0028975D01*
X0122000Y0030573D02*
X0109798Y0030573D01*
X0114611Y0025778D02*
X0122000Y0025778D01*
X0122000Y0027376D02*
X0098012Y0027376D01*
X0092428Y0019384D02*
X0059798Y0019384D01*
X0059943Y0019670D02*
X0060213Y0020500D01*
X0060350Y0021363D01*
X0060350Y0021714D01*
X0054886Y0021714D01*
X0054886Y0021886D01*
X0060350Y0021886D01*
X0060350Y0022237D01*
X0060213Y0023100D01*
X0059943Y0023930D01*
X0059547Y0024709D01*
X0059033Y0025416D01*
X0058416Y0026033D01*
X0057709Y0026547D01*
X0056930Y0026943D01*
X0056100Y0027213D01*
X0055237Y0027350D01*
X0054886Y0027350D01*
X0054886Y0021886D01*
X0054714Y0021886D01*
X0054714Y0027350D01*
X0054363Y0027350D01*
X0053500Y0027213D01*
X0052670Y0026943D01*
X0051891Y0026547D01*
X0051184Y0026033D01*
X0050567Y0025416D01*
X0050053Y0024709D01*
X0049657Y0023930D01*
X0049387Y0023100D01*
X0049250Y0022237D01*
X0049250Y0021886D01*
X0054714Y0021886D01*
X0054714Y0021714D01*
X0054886Y0021714D01*
X0054886Y0016250D01*
X0055237Y0016250D01*
X0056100Y0016387D01*
X0056930Y0016657D01*
X0057709Y0017053D01*
X0058416Y0017567D01*
X0059033Y0018184D01*
X0059547Y0018891D01*
X0059943Y0019670D01*
X0060290Y0020982D02*
X0090830Y0020982D01*
X0089231Y0022581D02*
X0060296Y0022581D01*
X0059817Y0024179D02*
X0087690Y0024179D01*
X0087028Y0025778D02*
X0058671Y0025778D01*
X0054886Y0025778D02*
X0054714Y0025778D01*
X0054714Y0024179D02*
X0054886Y0024179D01*
X0054886Y0022581D02*
X0054714Y0022581D01*
X0054714Y0021714D02*
X0049250Y0021714D01*
X0049250Y0021363D01*
X0049387Y0020500D01*
X0049657Y0019670D01*
X0050053Y0018891D01*
X0050567Y0018184D01*
X0051184Y0017567D01*
X0051891Y0017053D01*
X0052670Y0016657D01*
X0053500Y0016387D01*
X0054363Y0016250D01*
X0054714Y0016250D01*
X0054714Y0021714D01*
X0054714Y0020982D02*
X0054886Y0020982D01*
X0054886Y0019384D02*
X0054714Y0019384D01*
X0054714Y0017785D02*
X0054886Y0017785D01*
X0058634Y0017785D02*
X0094027Y0017785D01*
X0092980Y0016187D02*
X0022015Y0016187D01*
X0021737Y0015908D02*
X0023692Y0017863D01*
X0024750Y0020418D01*
X0024750Y0023182D01*
X0023692Y0025737D01*
X0021737Y0027692D01*
X0019182Y0028750D01*
X0016418Y0028750D01*
X0013863Y0027692D01*
X0011908Y0025737D01*
X0010850Y0023182D01*
X0010850Y0020418D01*
X0011908Y0017863D01*
X0013863Y0015908D01*
X0016418Y0014850D01*
X0019182Y0014850D01*
X0021737Y0015908D01*
X0023614Y0017785D02*
X0050966Y0017785D01*
X0049802Y0019384D02*
X0024322Y0019384D01*
X0024750Y0020982D02*
X0049310Y0020982D01*
X0049304Y0022581D02*
X0024750Y0022581D01*
X0024337Y0024179D02*
X0049783Y0024179D01*
X0050929Y0025778D02*
X0023651Y0025778D01*
X0022053Y0027376D02*
X0087000Y0027376D01*
X0087000Y0028975D02*
X0005000Y0028975D01*
X0005000Y0030573D02*
X0087000Y0030573D01*
X0087000Y0032172D02*
X0005000Y0032172D01*
X0005000Y0033770D02*
X0087000Y0033770D01*
X0086127Y0035369D02*
X0005000Y0035369D01*
X0005000Y0036967D02*
X0085628Y0036967D01*
X0085628Y0038566D02*
X0005000Y0038566D01*
X0005000Y0040164D02*
X0086099Y0040164D01*
X0087035Y0041763D02*
X0005000Y0041763D01*
X0005000Y0043361D02*
X0089099Y0043361D01*
X0091548Y0014588D02*
X0005000Y0014588D01*
X0005000Y0012990D02*
X0090920Y0012990D01*
X0090800Y0011600D02*
X0090800Y0011367D01*
X0090935Y0010512D01*
X0091203Y0009689D01*
X0091596Y0008917D01*
X0092105Y0008217D01*
X0092717Y0007605D01*
X0093417Y0007096D01*
X0094189Y0006703D01*
X0095012Y0006435D01*
X0095867Y0006300D01*
X0096100Y0006300D01*
X0096100Y0011600D01*
X0090800Y0011600D01*
X0090800Y0011391D02*
X0005000Y0011391D01*
X0005000Y0009793D02*
X0091169Y0009793D01*
X0092128Y0008194D02*
X0005000Y0008194D01*
X0005000Y0006596D02*
X0094519Y0006596D01*
X0096100Y0006596D02*
X0096500Y0006596D01*
X0098081Y0006596D02*
X0100759Y0006596D01*
X0096500Y0008194D02*
X0096100Y0008194D01*
X0096100Y0009793D02*
X0096500Y0009793D01*
X0096500Y0011391D02*
X0096100Y0011391D01*
X0116209Y0024179D02*
X0122000Y0024179D01*
X0122000Y0022581D02*
X0117808Y0022581D01*
X0119406Y0020982D02*
X0122000Y0020982D01*
X0122605Y0019384D02*
X0121005Y0019384D01*
X0122603Y0017785D02*
X0124027Y0017785D01*
X0122000Y0032172D02*
X0118169Y0032172D01*
X0120558Y0033770D02*
X0122000Y0033770D01*
X0122000Y0035369D02*
X0121403Y0035369D01*
X0141800Y0036967D02*
X0141800Y0036967D01*
X0141800Y0038566D02*
X0141800Y0038566D01*
X0141800Y0040164D02*
X0141800Y0040164D01*
X0141800Y0041763D02*
X0141800Y0041763D01*
X0141800Y0030573D02*
X0141800Y0030573D01*
X0141800Y0028975D02*
X0141800Y0028975D01*
X0141800Y0027376D02*
X0141800Y0027376D01*
X0145805Y0030573D02*
X0157000Y0030573D01*
X0157000Y0028975D02*
X0146865Y0028975D01*
X0147277Y0027376D02*
X0157000Y0027376D01*
X0157000Y0025778D02*
X0147207Y0025778D01*
X0146637Y0024179D02*
X0157000Y0024179D01*
X0157000Y0022581D02*
X0145777Y0022581D01*
X0147376Y0020982D02*
X0157000Y0020982D01*
X0157000Y0019384D02*
X0148198Y0019384D01*
X0148700Y0017785D02*
X0157000Y0017785D01*
X0157000Y0016187D02*
X0148700Y0016187D01*
X0148352Y0014588D02*
X0157000Y0014588D01*
X0156201Y0012990D02*
X0147690Y0012990D01*
X0097000Y0091317D02*
X0095567Y0091317D01*
X0101714Y0121688D02*
X0101886Y0121688D01*
X0101886Y0123287D02*
X0101714Y0123287D01*
X0101714Y0124885D02*
X0101886Y0124885D01*
X0101886Y0126484D02*
X0101714Y0126484D01*
X0101714Y0128082D02*
X0101886Y0128082D01*
X0101886Y0129681D02*
X0101714Y0129681D01*
X0101714Y0131279D02*
X0101886Y0131279D01*
X0101886Y0132878D02*
X0101714Y0132878D01*
X0101714Y0134476D02*
X0101886Y0134476D01*
X0101886Y0136075D02*
X0101714Y0136075D01*
X0084060Y0136075D02*
X0048221Y0136075D01*
X0047794Y0134476D02*
X0082884Y0134476D01*
X0082243Y0132878D02*
X0047036Y0132878D01*
X0047813Y0131279D02*
X0082243Y0131279D01*
X0082243Y0129681D02*
X0048221Y0129681D01*
X0048221Y0128082D02*
X0082243Y0128082D01*
X0082243Y0126484D02*
X0047715Y0126484D01*
X0046799Y0124885D02*
X0082243Y0124885D01*
X0082757Y0123287D02*
X0044914Y0123287D01*
X0038529Y0123287D02*
X0035071Y0123287D01*
X0031979Y0137673D02*
X0031779Y0137673D01*
X0031779Y0139272D02*
X0031979Y0139272D01*
X0031979Y0140870D02*
X0031779Y0140870D01*
X0028805Y0140870D02*
X0020188Y0140870D01*
X0021515Y0142469D02*
X0038422Y0142469D01*
X0036599Y0140870D02*
X0034953Y0140870D01*
X0027414Y0139272D02*
X0018583Y0139272D01*
X0013547Y0027376D02*
X0005000Y0027376D01*
X0005000Y0025778D02*
X0011949Y0025778D01*
X0011263Y0024179D02*
X0005000Y0024179D01*
X0005000Y0022581D02*
X0010850Y0022581D01*
X0010850Y0020982D02*
X0005000Y0020982D01*
X0005000Y0019384D02*
X0011278Y0019384D01*
X0011986Y0017785D02*
X0005000Y0017785D01*
X0005000Y0016187D02*
X0013585Y0016187D01*
X0134932Y0185629D02*
X0148668Y0185629D01*
X0146615Y0187227D02*
X0136985Y0187227D01*
X0138037Y0188826D02*
X0145563Y0188826D01*
X0144901Y0190424D02*
X0138699Y0190424D01*
X0138700Y0192023D02*
X0144900Y0192023D01*
X0145086Y0193621D02*
X0138514Y0193621D01*
X0137852Y0195220D02*
X0145748Y0195220D01*
X0147060Y0196818D02*
X0136540Y0196818D01*
D21*
X0121800Y0096800D03*
M02*
