G75*
%MOIN*%
%OFA0B0*%
%FSLAX25Y25*%
%IPPOS*%
%LPD*%
%AMOC8*
5,1,8,0,0,1.08239X$1,22.5*
%
%ADD10C,0.07071*%
%ADD11C,0.07211*%
%ADD12C,0.07300*%
%ADD13C,0.08300*%
%ADD14C,0.06743*%
%ADD15C,0.00500*%
%ADD16C,0.06743*%
%ADD17R,0.08200X0.08200*%
%ADD18C,0.08200*%
%ADD19C,0.07400*%
%ADD20C,0.13800*%
%ADD21C,0.08062*%
%ADD22C,0.08246*%
%ADD23R,0.05162X0.05162*%
D10*
X0152745Y0129753D03*
D11*
X0152745Y0139753D03*
D12*
X0131800Y0136800D03*
X0131800Y0126800D03*
X0111650Y0096800D03*
X0091950Y0096800D03*
D13*
X0017800Y0021800D03*
X0054800Y0021800D03*
D14*
X0091800Y0037800D03*
X0091800Y0065800D03*
D15*
X0138112Y0052515D02*
X0138313Y0053214D01*
X0138648Y0053860D01*
X0139102Y0054428D01*
X0139658Y0054897D01*
X0140294Y0055248D01*
X0140987Y0055469D01*
X0141710Y0055550D01*
X0142370Y0055500D01*
X0143011Y0055336D01*
X0143614Y0055064D01*
X0144160Y0054691D01*
X0144634Y0054229D01*
X0145019Y0053691D01*
X0145306Y0053095D01*
X0145485Y0052458D01*
X0145550Y0051800D01*
X0145483Y0051142D01*
X0145303Y0050505D01*
X0145014Y0049910D01*
X0144627Y0049373D01*
X0144152Y0048912D01*
X0143605Y0048541D01*
X0143001Y0048270D01*
X0142360Y0048108D01*
X0141700Y0048060D01*
X0140981Y0048138D01*
X0140291Y0048356D01*
X0139656Y0048704D01*
X0139102Y0049169D01*
X0138649Y0049733D01*
X0138315Y0050375D01*
X0138113Y0051069D01*
X0138050Y0051790D01*
X0138112Y0052515D01*
X0138150Y0052648D02*
X0145432Y0052648D01*
X0145516Y0052150D02*
X0138081Y0052150D01*
X0138062Y0051651D02*
X0145535Y0051651D01*
X0145484Y0051153D02*
X0138106Y0051153D01*
X0138234Y0050654D02*
X0145345Y0050654D01*
X0145133Y0050156D02*
X0138429Y0050156D01*
X0138710Y0049657D02*
X0144832Y0049657D01*
X0144406Y0049159D02*
X0139114Y0049159D01*
X0139736Y0048660D02*
X0143781Y0048660D01*
X0142572Y0048162D02*
X0140908Y0048162D01*
X0140987Y0045469D02*
X0141710Y0045550D01*
X0142370Y0045500D01*
X0143011Y0045336D01*
X0143614Y0045064D01*
X0144160Y0044691D01*
X0144634Y0044229D01*
X0145019Y0043691D01*
X0145306Y0043095D01*
X0145485Y0042458D01*
X0145550Y0041800D01*
X0145483Y0041142D01*
X0145303Y0040505D01*
X0145014Y0039910D01*
X0144627Y0039373D01*
X0144152Y0038912D01*
X0143605Y0038541D01*
X0143001Y0038270D01*
X0142360Y0038108D01*
X0141700Y0038060D01*
X0140981Y0038138D01*
X0140291Y0038356D01*
X0139656Y0038704D01*
X0139102Y0039169D01*
X0138649Y0039733D01*
X0138315Y0040375D01*
X0138113Y0041069D01*
X0138050Y0041790D01*
X0138112Y0042515D01*
X0138313Y0043214D01*
X0138648Y0043860D01*
X0139102Y0044428D01*
X0139658Y0044897D01*
X0140294Y0045248D01*
X0140987Y0045469D01*
X0140153Y0045170D02*
X0143378Y0045170D01*
X0144180Y0044672D02*
X0139391Y0044672D01*
X0138898Y0044173D02*
X0144673Y0044173D01*
X0145027Y0043675D02*
X0138552Y0043675D01*
X0138303Y0043176D02*
X0145267Y0043176D01*
X0145423Y0042678D02*
X0138159Y0042678D01*
X0138083Y0042179D02*
X0145513Y0042179D01*
X0145538Y0041681D02*
X0138060Y0041681D01*
X0138103Y0041182D02*
X0145487Y0041182D01*
X0145353Y0040684D02*
X0138225Y0040684D01*
X0138414Y0040185D02*
X0145148Y0040185D01*
X0144853Y0039687D02*
X0138686Y0039687D01*
X0139087Y0039188D02*
X0144437Y0039188D01*
X0143825Y0038690D02*
X0139682Y0038690D01*
X0140813Y0038191D02*
X0142690Y0038191D01*
X0141900Y0030540D02*
X0141240Y0030492D01*
X0140599Y0030330D01*
X0139995Y0030059D01*
X0139448Y0029688D01*
X0138973Y0029227D01*
X0138586Y0028690D01*
X0138297Y0028095D01*
X0138117Y0027458D01*
X0138050Y0026800D01*
X0138115Y0026142D01*
X0138294Y0025505D01*
X0138581Y0024909D01*
X0138966Y0024371D01*
X0139440Y0023909D01*
X0139986Y0023536D01*
X0140589Y0023264D01*
X0141230Y0023100D01*
X0141890Y0023050D01*
X0142613Y0023131D01*
X0143306Y0023352D01*
X0143942Y0023703D01*
X0144498Y0024172D01*
X0144952Y0024740D01*
X0145287Y0025386D01*
X0145488Y0026085D01*
X0145550Y0026810D01*
X0145487Y0027531D01*
X0145285Y0028225D01*
X0144951Y0028867D01*
X0144498Y0029431D01*
X0143944Y0029896D01*
X0143309Y0030244D01*
X0142619Y0030462D01*
X0141900Y0030540D01*
X0143362Y0030215D02*
X0140342Y0030215D01*
X0139490Y0029717D02*
X0144158Y0029717D01*
X0144669Y0029218D02*
X0138967Y0029218D01*
X0138607Y0028720D02*
X0145027Y0028720D01*
X0145286Y0028221D02*
X0138359Y0028221D01*
X0138192Y0027723D02*
X0145431Y0027723D01*
X0145514Y0027224D02*
X0138093Y0027224D01*
X0138057Y0026726D02*
X0145543Y0026726D01*
X0145500Y0026227D02*
X0138107Y0026227D01*
X0138231Y0025729D02*
X0145385Y0025729D01*
X0145206Y0025230D02*
X0138426Y0025230D01*
X0138708Y0024732D02*
X0144945Y0024732D01*
X0144547Y0024233D02*
X0139108Y0024233D01*
X0139695Y0023734D02*
X0143980Y0023734D01*
X0142942Y0023236D02*
X0140698Y0023236D01*
X0141240Y0020492D02*
X0141900Y0020540D01*
X0142619Y0020462D01*
X0143309Y0020244D01*
X0143944Y0019896D01*
X0144498Y0019431D01*
X0144951Y0018867D01*
X0145285Y0018225D01*
X0145487Y0017531D01*
X0145550Y0016810D01*
X0145488Y0016085D01*
X0145287Y0015386D01*
X0144952Y0014740D01*
X0144498Y0014172D01*
X0143942Y0013703D01*
X0143306Y0013352D01*
X0142613Y0013131D01*
X0141890Y0013050D01*
X0141230Y0013100D01*
X0140589Y0013264D01*
X0139986Y0013536D01*
X0139440Y0013909D01*
X0138966Y0014371D01*
X0138581Y0014909D01*
X0138294Y0015505D01*
X0138115Y0016142D01*
X0138050Y0016800D01*
X0138117Y0017458D01*
X0138297Y0018095D01*
X0138586Y0018690D01*
X0138973Y0019227D01*
X0139448Y0019688D01*
X0139995Y0020059D01*
X0140599Y0020330D01*
X0141240Y0020492D01*
X0140409Y0020245D02*
X0143307Y0020245D01*
X0144122Y0019746D02*
X0139534Y0019746D01*
X0138995Y0019248D02*
X0144645Y0019248D01*
X0145012Y0018749D02*
X0138628Y0018749D01*
X0138373Y0018251D02*
X0145271Y0018251D01*
X0145422Y0017752D02*
X0138200Y0017752D01*
X0138096Y0017254D02*
X0145511Y0017254D01*
X0145545Y0016755D02*
X0138054Y0016755D01*
X0138104Y0016257D02*
X0145503Y0016257D01*
X0145394Y0015758D02*
X0138223Y0015758D01*
X0138412Y0015260D02*
X0145221Y0015260D01*
X0144963Y0014761D02*
X0138686Y0014761D01*
X0139077Y0014263D02*
X0144571Y0014263D01*
X0144015Y0013764D02*
X0139652Y0013764D01*
X0140584Y0013266D02*
X0143035Y0013266D01*
X0145281Y0053147D02*
X0138294Y0053147D01*
X0138537Y0053645D02*
X0145042Y0053645D01*
X0144695Y0054144D02*
X0138875Y0054144D01*
X0139356Y0054642D02*
X0144210Y0054642D01*
X0143444Y0055141D02*
X0140099Y0055141D01*
D16*
X0115186Y0125757D02*
X0115186Y0131701D01*
X0108493Y0141112D02*
X0108493Y0147055D01*
X0101800Y0131701D02*
X0101800Y0125757D01*
X0095107Y0141112D02*
X0095107Y0147055D01*
X0088414Y0131701D02*
X0088414Y0125757D01*
D17*
X0042300Y0206800D03*
X0107300Y0011800D03*
D18*
X0096300Y0011800D03*
X0031300Y0206800D03*
D19*
X0031879Y0136800D03*
X0031879Y0129000D03*
X0041721Y0129000D03*
X0041721Y0136800D03*
D20*
X0060500Y0147500D03*
X0013100Y0147500D03*
D21*
X0106800Y0036800D03*
X0131800Y0076800D03*
X0151800Y0106800D03*
X0151800Y0161800D03*
X0131800Y0161800D03*
D22*
X0131800Y0191800D03*
X0151800Y0191800D03*
X0131800Y0106800D03*
X0151800Y0076800D03*
X0106800Y0066800D03*
D23*
X0121800Y0096800D03*
M02*
