G75*
%MOIN*%
%OFA0B0*%
%FSLAX25Y25*%
%IPPOS*%
%LPD*%
%AMOC8*
5,1,8,0,0,1.08239X$1,22.5*
%
%ADD10C,0.07071*%
%ADD11C,0.07211*%
%ADD12C,0.07300*%
%ADD13C,0.08300*%
%ADD14C,0.06743*%
%ADD15C,0.00500*%
%ADD16C,0.06743*%
%ADD17R,0.08200X0.08200*%
%ADD18C,0.08200*%
%ADD19C,0.07400*%
%ADD20C,0.13800*%
%ADD21C,0.08062*%
%ADD22C,0.08246*%
%ADD23R,0.05162X0.05162*%
D10*
X0153945Y0131453D03*
D11*
X0153945Y0141453D03*
D12*
X0133000Y0138500D03*
X0133000Y0128500D03*
X0112850Y0098500D03*
X0093150Y0098500D03*
D13*
X0019000Y0023500D03*
X0056000Y0023500D03*
D14*
X0093000Y0039500D03*
X0093000Y0067500D03*
D15*
X0139312Y0054215D02*
X0139250Y0053490D01*
X0139313Y0052769D01*
X0139515Y0052075D01*
X0139849Y0051433D01*
X0140302Y0050869D01*
X0140856Y0050404D01*
X0141491Y0050056D01*
X0142181Y0049838D01*
X0142900Y0049760D01*
X0143560Y0049808D01*
X0144201Y0049970D01*
X0144805Y0050241D01*
X0145352Y0050612D01*
X0145827Y0051073D01*
X0146214Y0051610D01*
X0146503Y0052205D01*
X0146683Y0052842D01*
X0146750Y0053500D01*
X0146685Y0054158D01*
X0146506Y0054795D01*
X0146219Y0055391D01*
X0145834Y0055929D01*
X0145360Y0056391D01*
X0144814Y0056764D01*
X0144211Y0057036D01*
X0143570Y0057200D01*
X0142910Y0057250D01*
X0142187Y0057169D01*
X0141494Y0056948D01*
X0140858Y0056597D01*
X0140302Y0056128D01*
X0139848Y0055560D01*
X0139513Y0054914D01*
X0139312Y0054215D01*
X0139350Y0054348D02*
X0146632Y0054348D01*
X0146716Y0053850D02*
X0139281Y0053850D01*
X0139262Y0053351D02*
X0146735Y0053351D01*
X0146684Y0052853D02*
X0139306Y0052853D01*
X0139434Y0052354D02*
X0146545Y0052354D01*
X0146333Y0051856D02*
X0139629Y0051856D01*
X0139910Y0051357D02*
X0146032Y0051357D01*
X0145606Y0050859D02*
X0140314Y0050859D01*
X0140936Y0050360D02*
X0144981Y0050360D01*
X0143772Y0049862D02*
X0142108Y0049862D01*
X0142187Y0047169D02*
X0142910Y0047250D01*
X0143570Y0047200D01*
X0144211Y0047036D01*
X0144814Y0046764D01*
X0145360Y0046391D01*
X0145834Y0045929D01*
X0146219Y0045391D01*
X0146506Y0044795D01*
X0146685Y0044158D01*
X0146750Y0043500D01*
X0146683Y0042842D01*
X0146503Y0042205D01*
X0146214Y0041610D01*
X0145827Y0041073D01*
X0145352Y0040612D01*
X0144805Y0040241D01*
X0144201Y0039970D01*
X0143560Y0039808D01*
X0142900Y0039760D01*
X0142181Y0039838D01*
X0141491Y0040056D01*
X0140856Y0040404D01*
X0140302Y0040869D01*
X0139849Y0041433D01*
X0139515Y0042075D01*
X0139313Y0042769D01*
X0139250Y0043490D01*
X0139312Y0044215D01*
X0139513Y0044914D01*
X0139848Y0045560D01*
X0140302Y0046128D01*
X0140858Y0046597D01*
X0141494Y0046948D01*
X0142187Y0047169D01*
X0141353Y0046870D02*
X0144578Y0046870D01*
X0145380Y0046372D02*
X0140591Y0046372D01*
X0140098Y0045873D02*
X0145873Y0045873D01*
X0146227Y0045375D02*
X0139752Y0045375D01*
X0139503Y0044876D02*
X0146467Y0044876D01*
X0146623Y0044378D02*
X0139359Y0044378D01*
X0139283Y0043879D02*
X0146713Y0043879D01*
X0146738Y0043381D02*
X0139260Y0043381D01*
X0139303Y0042882D02*
X0146687Y0042882D01*
X0146553Y0042384D02*
X0139425Y0042384D01*
X0139614Y0041885D02*
X0146348Y0041885D01*
X0146053Y0041387D02*
X0139886Y0041387D01*
X0140287Y0040888D02*
X0145637Y0040888D01*
X0145025Y0040390D02*
X0140882Y0040390D01*
X0142013Y0039891D02*
X0143890Y0039891D01*
X0143100Y0032240D02*
X0142440Y0032192D01*
X0141799Y0032030D01*
X0141195Y0031759D01*
X0140648Y0031388D01*
X0140173Y0030927D01*
X0139786Y0030390D01*
X0139497Y0029795D01*
X0139317Y0029158D01*
X0139250Y0028500D01*
X0139315Y0027842D01*
X0139494Y0027205D01*
X0139781Y0026609D01*
X0140166Y0026071D01*
X0140640Y0025609D01*
X0141186Y0025236D01*
X0141789Y0024964D01*
X0142430Y0024800D01*
X0143090Y0024750D01*
X0143813Y0024831D01*
X0144506Y0025052D01*
X0145142Y0025403D01*
X0145698Y0025872D01*
X0146152Y0026440D01*
X0146487Y0027086D01*
X0146688Y0027785D01*
X0146750Y0028510D01*
X0146687Y0029231D01*
X0146485Y0029925D01*
X0146151Y0030567D01*
X0145698Y0031131D01*
X0145144Y0031596D01*
X0144509Y0031944D01*
X0143819Y0032162D01*
X0143100Y0032240D01*
X0144562Y0031915D02*
X0141542Y0031915D01*
X0140690Y0031417D02*
X0145358Y0031417D01*
X0145869Y0030918D02*
X0140167Y0030918D01*
X0139807Y0030420D02*
X0146227Y0030420D01*
X0146486Y0029921D02*
X0139559Y0029921D01*
X0139392Y0029423D02*
X0146631Y0029423D01*
X0146714Y0028924D02*
X0139293Y0028924D01*
X0139257Y0028426D02*
X0146743Y0028426D01*
X0146700Y0027927D02*
X0139307Y0027927D01*
X0139431Y0027429D02*
X0146585Y0027429D01*
X0146406Y0026930D02*
X0139626Y0026930D01*
X0139908Y0026432D02*
X0146145Y0026432D01*
X0145747Y0025933D02*
X0140308Y0025933D01*
X0140895Y0025434D02*
X0145180Y0025434D01*
X0144142Y0024936D02*
X0141898Y0024936D01*
X0142440Y0022192D02*
X0143100Y0022240D01*
X0143819Y0022162D01*
X0144509Y0021944D01*
X0145144Y0021596D01*
X0145698Y0021131D01*
X0146151Y0020567D01*
X0146485Y0019925D01*
X0146687Y0019231D01*
X0146750Y0018510D01*
X0146688Y0017785D01*
X0146487Y0017086D01*
X0146152Y0016440D01*
X0145698Y0015872D01*
X0145142Y0015403D01*
X0144506Y0015052D01*
X0143813Y0014831D01*
X0143090Y0014750D01*
X0142430Y0014800D01*
X0141789Y0014964D01*
X0141186Y0015236D01*
X0140640Y0015609D01*
X0140166Y0016071D01*
X0139781Y0016609D01*
X0139494Y0017205D01*
X0139315Y0017842D01*
X0139250Y0018500D01*
X0139317Y0019158D01*
X0139497Y0019795D01*
X0139786Y0020390D01*
X0140173Y0020927D01*
X0140648Y0021388D01*
X0141195Y0021759D01*
X0141799Y0022030D01*
X0142440Y0022192D01*
X0141609Y0021945D02*
X0144507Y0021945D01*
X0145322Y0021446D02*
X0140734Y0021446D01*
X0140195Y0020948D02*
X0145845Y0020948D01*
X0146212Y0020449D02*
X0139828Y0020449D01*
X0139573Y0019951D02*
X0146471Y0019951D01*
X0146622Y0019452D02*
X0139400Y0019452D01*
X0139296Y0018954D02*
X0146711Y0018954D01*
X0146745Y0018455D02*
X0139254Y0018455D01*
X0139304Y0017957D02*
X0146703Y0017957D01*
X0146594Y0017458D02*
X0139423Y0017458D01*
X0139612Y0016960D02*
X0146421Y0016960D01*
X0146163Y0016461D02*
X0139886Y0016461D01*
X0140277Y0015963D02*
X0145771Y0015963D01*
X0145215Y0015464D02*
X0140852Y0015464D01*
X0141784Y0014966D02*
X0144235Y0014966D01*
X0146481Y0054847D02*
X0139494Y0054847D01*
X0139737Y0055345D02*
X0146242Y0055345D01*
X0145895Y0055844D02*
X0140075Y0055844D01*
X0140556Y0056342D02*
X0145410Y0056342D01*
X0144644Y0056841D02*
X0141299Y0056841D01*
D16*
X0116386Y0127457D02*
X0116386Y0133401D01*
X0109693Y0142812D02*
X0109693Y0148755D01*
X0103000Y0133401D02*
X0103000Y0127457D01*
X0096307Y0142812D02*
X0096307Y0148755D01*
X0089614Y0133401D02*
X0089614Y0127457D01*
D17*
X0043500Y0208500D03*
X0108500Y0013500D03*
D18*
X0097500Y0013500D03*
X0032500Y0208500D03*
D19*
X0033079Y0138500D03*
X0033079Y0130700D03*
X0042921Y0130700D03*
X0042921Y0138500D03*
D20*
X0061700Y0149200D03*
X0014300Y0149200D03*
D21*
X0108000Y0038500D03*
X0133000Y0078500D03*
X0153000Y0108500D03*
X0153000Y0163500D03*
X0133000Y0163500D03*
D22*
X0133000Y0193500D03*
X0153000Y0193500D03*
X0133000Y0108500D03*
X0153000Y0078500D03*
X0108000Y0068500D03*
D23*
X0123000Y0098500D03*
M02*
