G75*
%MOIN*%
%OFA0B0*%
%FSLAX25Y25*%
%IPPOS*%
%LPD*%
%AMOC8*
5,1,8,0,0,1.08239X$1,22.5*
%
%ADD10R,0.00100X0.00100*%
%ADD11R,0.00200X0.00100*%
%ADD12R,0.00300X0.00100*%
%ADD13R,0.00400X0.00100*%
%ADD14R,0.00500X0.00100*%
%ADD15R,0.00600X0.00100*%
%ADD16R,0.00700X0.00100*%
%ADD17R,0.00800X0.00100*%
%ADD18R,0.01000X0.00100*%
%ADD19R,0.01200X0.00100*%
%ADD20R,0.01400X0.00100*%
%ADD21R,0.01600X0.00100*%
%ADD22R,0.01800X0.00100*%
%ADD23R,0.01900X0.00100*%
%ADD24R,0.02000X0.00100*%
%ADD25R,0.02200X0.00100*%
%ADD26R,0.02400X0.00100*%
%ADD27R,0.02600X0.00100*%
%ADD28R,0.02800X0.00100*%
%ADD29R,0.02900X0.00100*%
%ADD30R,0.03100X0.00100*%
%ADD31R,0.03200X0.00100*%
%ADD32R,0.03400X0.00100*%
%ADD33R,0.03600X0.00100*%
%ADD34R,0.03800X0.00100*%
%ADD35R,0.04000X0.00100*%
%ADD36R,0.04200X0.00100*%
%ADD37R,0.04400X0.00100*%
%ADD38R,0.04600X0.00100*%
%ADD39R,0.04800X0.00100*%
%ADD40R,0.05000X0.00100*%
%ADD41R,0.05200X0.00100*%
%ADD42R,0.05500X0.00100*%
%ADD43R,0.05800X0.00100*%
%ADD44R,0.06000X0.00100*%
%ADD45R,0.06300X0.00100*%
%ADD46R,0.06600X0.00100*%
%ADD47R,0.06800X0.00100*%
%ADD48R,0.07200X0.00100*%
%ADD49R,0.07400X0.00100*%
%ADD50R,0.07800X0.00100*%
%ADD51R,0.08200X0.00100*%
%ADD52R,0.08600X0.00100*%
%ADD53R,0.08900X0.00100*%
%ADD54R,0.09300X0.00100*%
%ADD55R,0.09800X0.00100*%
%ADD56R,0.10200X0.00100*%
%ADD57R,0.10600X0.00100*%
%ADD58R,0.11100X0.00100*%
%ADD59R,0.11600X0.00100*%
%ADD60R,0.12200X0.00100*%
%ADD61R,0.12800X0.00100*%
%ADD62R,0.13400X0.00100*%
%ADD63R,0.14100X0.00100*%
%ADD64R,0.15000X0.00100*%
%ADD65R,0.15800X0.00100*%
%ADD66R,0.16700X0.00100*%
%ADD67R,0.17800X0.00100*%
%ADD68R,0.19000X0.00100*%
%ADD69R,0.20600X0.00100*%
%ADD70R,0.23000X0.00100*%
%ADD71R,0.33600X0.00100*%
%ADD72R,0.33500X0.00100*%
%ADD73R,0.33400X0.00100*%
%ADD74R,0.33300X0.00100*%
%ADD75R,0.33200X0.00100*%
%ADD76R,0.33700X0.00100*%
%ADD77R,0.33800X0.00100*%
%ADD78R,0.34000X0.00100*%
%ADD79R,0.34200X0.00100*%
%ADD80R,0.34400X0.00100*%
%ADD81R,0.34600X0.00100*%
%ADD82R,0.34700X0.00100*%
%ADD83R,0.34800X0.00100*%
%ADD84R,0.35000X0.00100*%
%ADD85R,0.35100X0.00100*%
%ADD86R,0.35200X0.00100*%
%ADD87R,0.35400X0.00100*%
%ADD88R,0.35500X0.00100*%
%ADD89R,0.35600X0.00100*%
%ADD90R,0.35800X0.00100*%
%ADD91R,0.36000X0.00100*%
%ADD92R,0.14700X0.00100*%
%ADD93R,0.04500X0.00100*%
%ADD94R,0.14300X0.00100*%
%ADD95R,0.14000X0.00100*%
%ADD96R,0.03900X0.00100*%
%ADD97R,0.13900X0.00100*%
%ADD98R,0.13600X0.00100*%
%ADD99R,0.03700X0.00100*%
%ADD100R,0.13300X0.00100*%
%ADD101R,0.13000X0.00100*%
%ADD102R,0.12700X0.00100*%
%ADD103R,0.03500X0.00100*%
%ADD104R,0.12500X0.00100*%
%ADD105R,0.12400X0.00100*%
%ADD106R,0.03300X0.00100*%
%ADD107R,0.12600X0.00100*%
%ADD108R,0.12900X0.00100*%
%ADD109R,0.13100X0.00100*%
%ADD110R,0.13200X0.00100*%
%ADD111R,0.13500X0.00100*%
%ADD112R,0.13800X0.00100*%
%ADD113R,0.14200X0.00100*%
%ADD114R,0.14400X0.00100*%
%ADD115R,0.14500X0.00100*%
%ADD116R,0.14600X0.00100*%
%ADD117R,0.14800X0.00100*%
%ADD118R,0.14900X0.00100*%
%ADD119R,0.15100X0.00100*%
%ADD120R,0.15400X0.00100*%
%ADD121R,0.15600X0.00100*%
%ADD122R,0.15700X0.00100*%
%ADD123R,0.15900X0.00100*%
%ADD124R,0.16200X0.00100*%
%ADD125R,0.16100X0.00100*%
%ADD126C,0.00000*%
%ADD127C,0.00800*%
%ADD128C,0.00100*%
%ADD129C,0.00600*%
%ADD130C,0.00500*%
D10*
X0030500Y0023800D03*
X0031800Y0039000D03*
X0031800Y0039100D03*
X0031800Y0039200D03*
X0029100Y0039100D03*
X0045300Y0030700D03*
D11*
X0031750Y0038900D03*
X0029150Y0038900D03*
X0029150Y0039000D03*
X0029150Y0038800D03*
X0030450Y0024000D03*
X0030450Y0023900D03*
D12*
X0030500Y0024100D03*
X0031800Y0038600D03*
X0031800Y0038700D03*
X0031800Y0038800D03*
X0029100Y0038700D03*
D13*
X0029150Y0038600D03*
X0029150Y0038500D03*
X0029150Y0038400D03*
X0029150Y0038300D03*
X0031750Y0038400D03*
X0031750Y0038500D03*
X0030450Y0024300D03*
X0030450Y0024200D03*
D14*
X0030500Y0024400D03*
X0029200Y0038200D03*
X0031800Y0038200D03*
X0031800Y0038300D03*
D15*
X0031750Y0038100D03*
X0031750Y0038000D03*
X0031750Y0037900D03*
X0031750Y0037800D03*
X0029150Y0037900D03*
X0029150Y0038000D03*
X0029150Y0038100D03*
X0030450Y0024600D03*
X0030450Y0024500D03*
D16*
X0030500Y0024700D03*
X0029200Y0037700D03*
X0029200Y0037800D03*
X0013900Y0030600D03*
X0047000Y0030600D03*
D17*
X0031750Y0037700D03*
X0030450Y0024900D03*
X0030450Y0024800D03*
D18*
X0030450Y0025000D03*
X0030450Y0025100D03*
D19*
X0030450Y0025200D03*
X0030450Y0025300D03*
D20*
X0030450Y0025400D03*
X0030450Y0025500D03*
D21*
X0030450Y0025600D03*
X0030450Y0025700D03*
X0030450Y0037700D03*
D22*
X0030450Y0025800D03*
X0046450Y0030700D03*
D23*
X0030500Y0025900D03*
X0014500Y0030700D03*
D24*
X0030450Y0026000D03*
D25*
X0030450Y0026100D03*
D26*
X0030450Y0026200D03*
X0030450Y0026300D03*
D27*
X0030450Y0026400D03*
D28*
X0030450Y0026500D03*
D29*
X0030500Y0026600D03*
D30*
X0030500Y0026700D03*
D31*
X0030450Y0026800D03*
D32*
X0030450Y0026900D03*
X0030450Y0037100D03*
X0030450Y0037200D03*
X0030450Y0037300D03*
X0030450Y0037400D03*
X0030450Y0037500D03*
D33*
X0030450Y0036800D03*
X0030450Y0036700D03*
X0030450Y0027000D03*
D34*
X0030450Y0027100D03*
D35*
X0030450Y0027200D03*
D36*
X0030450Y0027300D03*
X0030450Y0036400D03*
D37*
X0030450Y0027400D03*
D38*
X0030450Y0027500D03*
D39*
X0030450Y0027600D03*
D40*
X0030450Y0027700D03*
D41*
X0030450Y0027800D03*
D42*
X0030500Y0027900D03*
D43*
X0030450Y0028000D03*
D44*
X0030450Y0028100D03*
D45*
X0030500Y0028200D03*
D46*
X0030450Y0028300D03*
D47*
X0030450Y0028400D03*
D48*
X0030450Y0028500D03*
D49*
X0030450Y0028600D03*
D50*
X0030450Y0028700D03*
D51*
X0030450Y0028800D03*
D52*
X0030450Y0028900D03*
D53*
X0030500Y0029000D03*
D54*
X0030500Y0029100D03*
D55*
X0030450Y0029200D03*
D56*
X0030450Y0029300D03*
D57*
X0030450Y0029400D03*
D58*
X0030500Y0029500D03*
D59*
X0030450Y0029600D03*
D60*
X0030450Y0029700D03*
D61*
X0030450Y0029800D03*
X0016850Y0038000D03*
X0044150Y0038000D03*
D62*
X0044650Y0038500D03*
X0044750Y0038600D03*
X0030450Y0029900D03*
D63*
X0030500Y0030000D03*
X0045200Y0039000D03*
D64*
X0030450Y0030100D03*
X0015150Y0039500D03*
D65*
X0030450Y0030200D03*
D66*
X0030500Y0030300D03*
D67*
X0030450Y0030400D03*
D68*
X0030450Y0030500D03*
D69*
X0030450Y0030600D03*
D70*
X0030350Y0030700D03*
D71*
X0030450Y0030800D03*
X0030450Y0030900D03*
X0030450Y0031000D03*
X0030450Y0034100D03*
X0030450Y0034200D03*
D72*
X0030500Y0034000D03*
X0030500Y0031100D03*
D73*
X0030450Y0031200D03*
X0030450Y0031300D03*
X0030450Y0031400D03*
X0030450Y0033700D03*
X0030450Y0033800D03*
X0030450Y0033900D03*
D74*
X0030500Y0033600D03*
X0030500Y0031500D03*
D75*
X0030450Y0031600D03*
X0030450Y0031700D03*
X0030450Y0031800D03*
X0030450Y0031900D03*
X0030450Y0032000D03*
X0030450Y0032100D03*
X0030450Y0032200D03*
X0030450Y0032300D03*
X0030450Y0032400D03*
X0030450Y0032500D03*
X0030450Y0032600D03*
X0030450Y0032700D03*
X0030450Y0032800D03*
X0030450Y0032900D03*
X0030450Y0033000D03*
X0030450Y0033100D03*
X0030450Y0033200D03*
X0030450Y0033300D03*
X0030450Y0033400D03*
X0030450Y0033500D03*
D76*
X0030500Y0034300D03*
D77*
X0030450Y0034400D03*
X0030450Y0034500D03*
D78*
X0030450Y0034600D03*
X0030450Y0034700D03*
D79*
X0030450Y0034800D03*
X0030450Y0034900D03*
D80*
X0030450Y0035000D03*
X0030450Y0035100D03*
D81*
X0030450Y0035200D03*
D82*
X0030500Y0035300D03*
D83*
X0030450Y0035400D03*
D84*
X0030450Y0035500D03*
D85*
X0030500Y0035600D03*
D86*
X0030450Y0035700D03*
D87*
X0030450Y0035800D03*
D88*
X0030500Y0035900D03*
D89*
X0030450Y0036000D03*
D90*
X0030450Y0036100D03*
D91*
X0030450Y0036200D03*
D92*
X0019700Y0036300D03*
X0041200Y0036300D03*
D93*
X0030500Y0036300D03*
D94*
X0019400Y0036400D03*
X0015500Y0039200D03*
X0041500Y0036400D03*
X0045300Y0039100D03*
D95*
X0019150Y0036500D03*
X0015750Y0039000D03*
D96*
X0030500Y0036500D03*
D97*
X0041800Y0036500D03*
X0045100Y0038900D03*
X0015800Y0038900D03*
D98*
X0016050Y0038700D03*
X0018950Y0036600D03*
X0042050Y0036600D03*
X0044850Y0038700D03*
D99*
X0030500Y0036600D03*
D100*
X0018700Y0036700D03*
X0016400Y0038400D03*
X0016300Y0038500D03*
X0042300Y0036700D03*
D101*
X0042550Y0036800D03*
X0044350Y0038200D03*
X0018350Y0036800D03*
X0016650Y0038200D03*
D102*
X0016900Y0037900D03*
X0017000Y0037800D03*
X0018100Y0036900D03*
X0042800Y0036900D03*
X0043900Y0037800D03*
X0044000Y0037900D03*
D103*
X0030500Y0037000D03*
X0030500Y0036900D03*
D104*
X0017900Y0037000D03*
X0017800Y0037100D03*
X0017300Y0037500D03*
X0017200Y0037600D03*
X0043000Y0037000D03*
X0043500Y0037400D03*
X0043600Y0037500D03*
X0043700Y0037600D03*
D105*
X0043350Y0037300D03*
X0043250Y0037200D03*
X0043150Y0037100D03*
X0017650Y0037200D03*
X0017550Y0037300D03*
X0017450Y0037400D03*
D106*
X0030500Y0037600D03*
D107*
X0017150Y0037700D03*
X0043850Y0037700D03*
D108*
X0044200Y0038100D03*
X0016700Y0038100D03*
D109*
X0016500Y0038300D03*
X0044400Y0038300D03*
D110*
X0044550Y0038400D03*
D111*
X0016200Y0038600D03*
D112*
X0015950Y0038800D03*
X0044950Y0038800D03*
D113*
X0015650Y0039100D03*
D114*
X0045450Y0039200D03*
D115*
X0015400Y0039300D03*
D116*
X0045550Y0039300D03*
D117*
X0045650Y0039400D03*
X0015250Y0039400D03*
D118*
X0045800Y0039500D03*
D119*
X0045900Y0039600D03*
X0015000Y0039600D03*
D120*
X0014850Y0039700D03*
X0046050Y0039700D03*
D121*
X0014750Y0039800D03*
D122*
X0046200Y0039800D03*
D123*
X0046400Y0039900D03*
X0014600Y0039900D03*
D124*
X0014450Y0040000D03*
D125*
X0046500Y0040000D03*
D126*
X0003100Y0003000D02*
X0003033Y0003000D01*
X0003000Y0003033D01*
X0003000Y0003167D01*
X0003033Y0003200D01*
X0003100Y0003200D01*
X0003133Y0003167D01*
X0003184Y0003133D02*
X0003184Y0003100D01*
X0003218Y0003100D01*
X0003218Y0003133D01*
X0003184Y0003133D01*
X0003184Y0003033D02*
X0003184Y0003000D01*
X0003218Y0003000D01*
X0003218Y0003033D01*
X0003184Y0003033D01*
X0003133Y0003033D02*
X0003100Y0003000D01*
X0003276Y0003000D02*
X0003410Y0003200D01*
X0003460Y0003200D02*
X0003460Y0003033D01*
X0003494Y0003000D01*
X0003560Y0003000D01*
X0003594Y0003033D01*
X0003594Y0003200D01*
X0003678Y0003133D02*
X0003778Y0003133D01*
X0003829Y0003100D02*
X0003862Y0003133D01*
X0003929Y0003133D01*
X0003962Y0003100D01*
X0003962Y0003067D01*
X0003829Y0003067D01*
X0003829Y0003100D02*
X0003829Y0003033D01*
X0003862Y0003000D01*
X0003929Y0003000D01*
X0004013Y0003000D02*
X0004013Y0003133D01*
X0004013Y0003067D02*
X0004080Y0003133D01*
X0004113Y0003133D01*
X0004166Y0003100D02*
X0004200Y0003133D01*
X0004300Y0003133D01*
X0004266Y0003067D02*
X0004200Y0003067D01*
X0004166Y0003100D01*
X0004166Y0003000D02*
X0004266Y0003000D01*
X0004300Y0003033D01*
X0004266Y0003067D01*
X0004350Y0003000D02*
X0004484Y0003200D01*
X0004568Y0003167D02*
X0004601Y0003200D01*
X0004568Y0003167D02*
X0004568Y0003000D01*
X0004535Y0003100D02*
X0004601Y0003100D01*
X0004657Y0003100D02*
X0004791Y0003100D01*
X0004842Y0003133D02*
X0004875Y0003133D01*
X0004875Y0003000D01*
X0004842Y0003000D02*
X0004908Y0003000D01*
X0004964Y0003000D02*
X0004964Y0003133D01*
X0005064Y0003133D01*
X0005098Y0003100D01*
X0005098Y0003000D01*
X0005148Y0003033D02*
X0005182Y0003000D01*
X0005282Y0003000D01*
X0005282Y0002967D02*
X0005282Y0003133D01*
X0005182Y0003133D01*
X0005148Y0003100D01*
X0005148Y0003033D01*
X0005215Y0002933D02*
X0005249Y0002933D01*
X0005282Y0002967D01*
X0005333Y0003100D02*
X0005466Y0003100D01*
X0005517Y0003100D02*
X0005583Y0003100D01*
X0005550Y0003167D02*
X0005583Y0003200D01*
X0005550Y0003167D02*
X0005550Y0003000D01*
X0005640Y0003000D02*
X0005706Y0003000D01*
X0005673Y0003000D02*
X0005673Y0003200D01*
X0005640Y0003200D01*
X0005796Y0003133D02*
X0005862Y0003133D01*
X0005896Y0003100D01*
X0005896Y0003000D01*
X0005796Y0003000D01*
X0005762Y0003033D01*
X0005796Y0003067D01*
X0005896Y0003067D01*
X0005946Y0003133D02*
X0006046Y0003133D01*
X0006080Y0003100D01*
X0006080Y0003033D01*
X0006046Y0003000D01*
X0005946Y0003000D01*
X0005946Y0002933D02*
X0005946Y0003133D01*
X0006131Y0003133D02*
X0006231Y0003133D01*
X0006264Y0003100D01*
X0006264Y0003033D01*
X0006231Y0003000D01*
X0006131Y0003000D01*
X0006131Y0002933D02*
X0006131Y0003133D01*
X0006315Y0003133D02*
X0006315Y0003033D01*
X0006348Y0003000D01*
X0006448Y0003000D01*
X0006448Y0002967D02*
X0006415Y0002933D01*
X0006381Y0002933D01*
X0006448Y0002967D02*
X0006448Y0003133D01*
X0006499Y0003100D02*
X0006632Y0003100D01*
X0006683Y0003133D02*
X0006783Y0003133D01*
X0006816Y0003100D01*
X0006816Y0003033D01*
X0006783Y0003000D01*
X0006683Y0003000D01*
X0006683Y0003200D01*
X0006867Y0003000D02*
X0007001Y0003200D01*
X0007051Y0003200D02*
X0007151Y0003200D01*
X0007185Y0003167D01*
X0007185Y0003033D01*
X0007151Y0003000D01*
X0007051Y0003000D01*
X0007051Y0003200D01*
X0007235Y0003100D02*
X0007269Y0003133D01*
X0007336Y0003133D01*
X0007369Y0003100D01*
X0007369Y0003067D01*
X0007235Y0003067D01*
X0007235Y0003100D02*
X0007235Y0003033D01*
X0007269Y0003000D01*
X0007336Y0003000D01*
X0007420Y0003000D02*
X0007520Y0003000D01*
X0007553Y0003033D01*
X0007520Y0003067D01*
X0007453Y0003067D01*
X0007420Y0003100D01*
X0007453Y0003133D01*
X0007553Y0003133D01*
X0007604Y0003067D02*
X0007704Y0003133D01*
X0007757Y0003133D02*
X0007824Y0003133D01*
X0007791Y0003167D02*
X0007791Y0003033D01*
X0007824Y0003000D01*
X0007880Y0003033D02*
X0007913Y0003000D01*
X0007980Y0003000D01*
X0008013Y0003033D01*
X0008013Y0003100D01*
X0007980Y0003133D01*
X0007913Y0003133D01*
X0007880Y0003100D01*
X0007880Y0003033D01*
X0007704Y0003000D02*
X0007604Y0003067D01*
X0007604Y0003000D02*
X0007604Y0003200D01*
X0008064Y0003133D02*
X0008164Y0003133D01*
X0008198Y0003100D01*
X0008198Y0003033D01*
X0008164Y0003000D01*
X0008064Y0003000D01*
X0008064Y0002933D02*
X0008064Y0003133D01*
X0008248Y0003000D02*
X0008382Y0003200D01*
X0008432Y0003200D02*
X0008533Y0003200D01*
X0008566Y0003167D01*
X0008566Y0003133D01*
X0008533Y0003100D01*
X0008432Y0003100D01*
X0008432Y0003000D02*
X0008533Y0003000D01*
X0008566Y0003033D01*
X0008566Y0003067D01*
X0008533Y0003100D01*
X0008617Y0003033D02*
X0008650Y0003067D01*
X0008750Y0003067D01*
X0008750Y0003100D02*
X0008750Y0003000D01*
X0008650Y0003000D01*
X0008617Y0003033D01*
X0008650Y0003133D02*
X0008717Y0003133D01*
X0008750Y0003100D01*
X0008801Y0003133D02*
X0008868Y0003133D01*
X0008834Y0003167D02*
X0008834Y0003033D01*
X0008868Y0003000D01*
X0008924Y0003000D02*
X0008924Y0003133D01*
X0008957Y0003133D01*
X0008990Y0003100D01*
X0009024Y0003133D01*
X0009057Y0003100D01*
X0009057Y0003000D01*
X0009108Y0003033D02*
X0009141Y0003067D01*
X0009241Y0003067D01*
X0009241Y0003100D02*
X0009241Y0003000D01*
X0009141Y0003000D01*
X0009108Y0003033D01*
X0009141Y0003133D02*
X0009208Y0003133D01*
X0009241Y0003100D01*
X0009292Y0003133D02*
X0009392Y0003133D01*
X0009425Y0003100D01*
X0009425Y0003000D01*
X0009476Y0003000D02*
X0009509Y0003000D01*
X0009509Y0003033D01*
X0009476Y0003033D01*
X0009476Y0003000D01*
X0009568Y0003000D02*
X0009668Y0003000D01*
X0009702Y0003033D01*
X0009702Y0003100D01*
X0009668Y0003133D01*
X0009568Y0003133D01*
X0009568Y0003200D02*
X0009568Y0003000D01*
X0009752Y0003000D02*
X0009752Y0003133D01*
X0009786Y0003133D01*
X0009819Y0003100D01*
X0009852Y0003133D01*
X0009886Y0003100D01*
X0009886Y0003000D01*
X0009936Y0003000D02*
X0010036Y0003000D01*
X0010070Y0003033D01*
X0010070Y0003100D01*
X0010036Y0003133D01*
X0009936Y0003133D01*
X0009936Y0002933D01*
X0009819Y0003000D02*
X0009819Y0003100D01*
X0009292Y0003133D02*
X0009292Y0003000D01*
X0008990Y0003000D02*
X0008990Y0003100D01*
X0008432Y0003000D02*
X0008432Y0003200D01*
X0004875Y0003234D02*
X0004875Y0003200D01*
X0003778Y0003033D02*
X0003745Y0003067D01*
X0003678Y0003067D01*
X0003645Y0003100D01*
X0003678Y0003133D01*
X0003645Y0003000D02*
X0003745Y0003000D01*
X0003778Y0003033D01*
D127*
X0028000Y0023500D02*
X0038000Y0023500D01*
X0048000Y0023500D01*
X0038000Y0023500D02*
X0038000Y0021000D01*
X0038000Y0023500D02*
X0038000Y0026000D01*
X0090000Y0046500D02*
X0093000Y0046500D01*
X0093000Y0043500D01*
X0093000Y0046500D02*
X0096000Y0046500D01*
X0096000Y0060500D01*
X0093000Y0060500D01*
X0090000Y0060500D01*
X0090000Y0046500D01*
X0090500Y0048500D02*
X0095500Y0048500D01*
X0105000Y0043500D02*
X0108000Y0043500D01*
X0108000Y0042500D01*
X0108000Y0043500D02*
X0111000Y0043500D01*
X0111000Y0063500D01*
X0108000Y0063500D01*
X0108000Y0064500D01*
X0108000Y0063500D02*
X0105000Y0063500D01*
X0105000Y0043500D01*
X0093000Y0060500D02*
X0093000Y0063500D01*
X0085500Y0098500D02*
X0085505Y0098929D01*
X0085521Y0099359D01*
X0085547Y0099787D01*
X0085584Y0100215D01*
X0085632Y0100642D01*
X0085689Y0101068D01*
X0085758Y0101492D01*
X0085836Y0101914D01*
X0085925Y0102334D01*
X0086024Y0102752D01*
X0086134Y0103167D01*
X0086254Y0103580D01*
X0086383Y0103989D01*
X0086523Y0104396D01*
X0086673Y0104798D01*
X0086832Y0105197D01*
X0087001Y0105592D01*
X0087180Y0105982D01*
X0087369Y0106368D01*
X0087566Y0106749D01*
X0087773Y0107126D01*
X0087990Y0107497D01*
X0088215Y0107862D01*
X0088449Y0108222D01*
X0088692Y0108577D01*
X0088944Y0108925D01*
X0089204Y0109267D01*
X0089472Y0109602D01*
X0089749Y0109931D01*
X0090033Y0110252D01*
X0090326Y0110567D01*
X0090626Y0110874D01*
X0090933Y0111174D01*
X0091248Y0111467D01*
X0091569Y0111751D01*
X0091898Y0112028D01*
X0092233Y0112296D01*
X0092575Y0112556D01*
X0092923Y0112808D01*
X0093278Y0113051D01*
X0093638Y0113285D01*
X0094003Y0113510D01*
X0094374Y0113727D01*
X0094751Y0113934D01*
X0095132Y0114131D01*
X0095518Y0114320D01*
X0095908Y0114499D01*
X0096303Y0114668D01*
X0096702Y0114827D01*
X0097104Y0114977D01*
X0097511Y0115117D01*
X0097920Y0115246D01*
X0098333Y0115366D01*
X0098748Y0115476D01*
X0099166Y0115575D01*
X0099586Y0115664D01*
X0100008Y0115742D01*
X0100432Y0115811D01*
X0100858Y0115868D01*
X0101285Y0115916D01*
X0101713Y0115953D01*
X0102141Y0115979D01*
X0102571Y0115995D01*
X0103000Y0116000D01*
X0103429Y0115995D01*
X0103859Y0115979D01*
X0104287Y0115953D01*
X0104715Y0115916D01*
X0105142Y0115868D01*
X0105568Y0115811D01*
X0105992Y0115742D01*
X0106414Y0115664D01*
X0106834Y0115575D01*
X0107252Y0115476D01*
X0107667Y0115366D01*
X0108080Y0115246D01*
X0108489Y0115117D01*
X0108896Y0114977D01*
X0109298Y0114827D01*
X0109697Y0114668D01*
X0110092Y0114499D01*
X0110482Y0114320D01*
X0110868Y0114131D01*
X0111249Y0113934D01*
X0111626Y0113727D01*
X0111997Y0113510D01*
X0112362Y0113285D01*
X0112722Y0113051D01*
X0113077Y0112808D01*
X0113425Y0112556D01*
X0113767Y0112296D01*
X0114102Y0112028D01*
X0114431Y0111751D01*
X0114752Y0111467D01*
X0115067Y0111174D01*
X0115374Y0110874D01*
X0115674Y0110567D01*
X0115967Y0110252D01*
X0116251Y0109931D01*
X0116528Y0109602D01*
X0116796Y0109267D01*
X0117056Y0108925D01*
X0117308Y0108577D01*
X0117551Y0108222D01*
X0117785Y0107862D01*
X0118010Y0107497D01*
X0118227Y0107126D01*
X0118434Y0106749D01*
X0118631Y0106368D01*
X0118820Y0105982D01*
X0118999Y0105592D01*
X0119168Y0105197D01*
X0119327Y0104798D01*
X0119477Y0104396D01*
X0119617Y0103989D01*
X0119746Y0103580D01*
X0119866Y0103167D01*
X0119976Y0102752D01*
X0120075Y0102334D01*
X0120164Y0101914D01*
X0120242Y0101492D01*
X0120311Y0101068D01*
X0120368Y0100642D01*
X0120416Y0100215D01*
X0120453Y0099787D01*
X0120479Y0099359D01*
X0120495Y0098929D01*
X0120500Y0098500D01*
X0120495Y0098071D01*
X0120479Y0097641D01*
X0120453Y0097213D01*
X0120416Y0096785D01*
X0120368Y0096358D01*
X0120311Y0095932D01*
X0120242Y0095508D01*
X0120164Y0095086D01*
X0120075Y0094666D01*
X0119976Y0094248D01*
X0119866Y0093833D01*
X0119746Y0093420D01*
X0119617Y0093011D01*
X0119477Y0092604D01*
X0119327Y0092202D01*
X0119168Y0091803D01*
X0118999Y0091408D01*
X0118820Y0091018D01*
X0118631Y0090632D01*
X0118434Y0090251D01*
X0118227Y0089874D01*
X0118010Y0089503D01*
X0117785Y0089138D01*
X0117551Y0088778D01*
X0117308Y0088423D01*
X0117056Y0088075D01*
X0116796Y0087733D01*
X0116528Y0087398D01*
X0116251Y0087069D01*
X0115967Y0086748D01*
X0115674Y0086433D01*
X0115374Y0086126D01*
X0115067Y0085826D01*
X0114752Y0085533D01*
X0114431Y0085249D01*
X0114102Y0084972D01*
X0113767Y0084704D01*
X0113425Y0084444D01*
X0113077Y0084192D01*
X0112722Y0083949D01*
X0112362Y0083715D01*
X0111997Y0083490D01*
X0111626Y0083273D01*
X0111249Y0083066D01*
X0110868Y0082869D01*
X0110482Y0082680D01*
X0110092Y0082501D01*
X0109697Y0082332D01*
X0109298Y0082173D01*
X0108896Y0082023D01*
X0108489Y0081883D01*
X0108080Y0081754D01*
X0107667Y0081634D01*
X0107252Y0081524D01*
X0106834Y0081425D01*
X0106414Y0081336D01*
X0105992Y0081258D01*
X0105568Y0081189D01*
X0105142Y0081132D01*
X0104715Y0081084D01*
X0104287Y0081047D01*
X0103859Y0081021D01*
X0103429Y0081005D01*
X0103000Y0081000D01*
X0102571Y0081005D01*
X0102141Y0081021D01*
X0101713Y0081047D01*
X0101285Y0081084D01*
X0100858Y0081132D01*
X0100432Y0081189D01*
X0100008Y0081258D01*
X0099586Y0081336D01*
X0099166Y0081425D01*
X0098748Y0081524D01*
X0098333Y0081634D01*
X0097920Y0081754D01*
X0097511Y0081883D01*
X0097104Y0082023D01*
X0096702Y0082173D01*
X0096303Y0082332D01*
X0095908Y0082501D01*
X0095518Y0082680D01*
X0095132Y0082869D01*
X0094751Y0083066D01*
X0094374Y0083273D01*
X0094003Y0083490D01*
X0093638Y0083715D01*
X0093278Y0083949D01*
X0092923Y0084192D01*
X0092575Y0084444D01*
X0092233Y0084704D01*
X0091898Y0084972D01*
X0091569Y0085249D01*
X0091248Y0085533D01*
X0090933Y0085826D01*
X0090626Y0086126D01*
X0090326Y0086433D01*
X0090033Y0086748D01*
X0089749Y0087069D01*
X0089472Y0087398D01*
X0089204Y0087733D01*
X0088944Y0088075D01*
X0088692Y0088423D01*
X0088449Y0088778D01*
X0088215Y0089138D01*
X0087990Y0089503D01*
X0087773Y0089874D01*
X0087566Y0090251D01*
X0087369Y0090632D01*
X0087180Y0091018D01*
X0087001Y0091408D01*
X0086832Y0091803D01*
X0086673Y0092202D01*
X0086523Y0092604D01*
X0086383Y0093011D01*
X0086254Y0093420D01*
X0086134Y0093833D01*
X0086024Y0094248D01*
X0085925Y0094666D01*
X0085836Y0095086D01*
X0085758Y0095508D01*
X0085689Y0095932D01*
X0085632Y0096358D01*
X0085584Y0096785D01*
X0085547Y0097213D01*
X0085521Y0097641D01*
X0085505Y0098071D01*
X0085500Y0098500D01*
X0061622Y0125508D02*
X0061622Y0140862D01*
X0061622Y0125508D02*
X0014378Y0125508D01*
X0014378Y0140862D01*
X0014378Y0157398D02*
X0014378Y0172358D01*
X0061622Y0172358D02*
X0061622Y0157398D01*
X0083315Y0158776D02*
X0122685Y0158776D01*
X0122685Y0163106D01*
X0083315Y0163106D01*
X0083315Y0158776D01*
X0130000Y0168500D02*
X0133000Y0168500D01*
X0133000Y0167500D01*
X0133000Y0168500D02*
X0136000Y0168500D01*
X0136000Y0188500D01*
X0133000Y0188500D01*
X0133000Y0189500D01*
X0133000Y0188500D02*
X0130000Y0188500D01*
X0130000Y0168500D01*
X0148945Y0146453D02*
X0158945Y0146453D01*
X0158945Y0126453D01*
X0148945Y0126453D01*
X0148945Y0146453D01*
X0151445Y0136453D02*
X0156445Y0136453D01*
X0135500Y0133500D02*
X0130500Y0133500D01*
X0133000Y0104500D02*
X0133000Y0103500D01*
X0136000Y0103500D01*
X0136000Y0083500D01*
X0133000Y0083500D01*
X0133000Y0082500D01*
X0133000Y0083500D02*
X0130000Y0083500D01*
X0130000Y0103500D01*
X0133000Y0103500D01*
X0150000Y0103500D02*
X0150000Y0083500D01*
X0153000Y0083500D01*
X0153000Y0082500D01*
X0153000Y0083500D02*
X0156000Y0083500D01*
X0156000Y0103500D01*
X0153000Y0103500D01*
X0153000Y0104500D01*
X0153000Y0103500D02*
X0150000Y0103500D01*
X0150500Y0038500D02*
X0135500Y0038500D01*
X0135500Y0033500D02*
X0150500Y0033500D01*
X0153000Y0167500D02*
X0153000Y0168500D01*
X0150000Y0168500D01*
X0150000Y0188500D01*
X0153000Y0188500D01*
X0153000Y0189500D01*
X0153000Y0188500D02*
X0156000Y0188500D01*
X0156000Y0168500D01*
X0153000Y0168500D01*
D128*
X0094950Y0067712D02*
X0093449Y0067712D01*
X0094199Y0067712D02*
X0094199Y0066711D01*
X0093449Y0066711D02*
X0094950Y0066711D01*
X0094950Y0065738D02*
X0093449Y0065738D01*
X0093449Y0065238D02*
X0093449Y0066239D01*
X0093699Y0064766D02*
X0094199Y0064766D01*
X0094450Y0064515D01*
X0094450Y0063765D01*
X0094950Y0063765D02*
X0093449Y0063765D01*
X0093449Y0064515D01*
X0093699Y0064766D01*
X0093699Y0063292D02*
X0094199Y0063292D01*
X0094450Y0063042D01*
X0094450Y0062291D01*
X0094950Y0062291D02*
X0093449Y0062291D01*
X0093449Y0063042D01*
X0093699Y0063292D01*
X0094450Y0062792D02*
X0094950Y0063292D01*
X0094950Y0061819D02*
X0094950Y0060818D01*
X0093449Y0060818D01*
X0093449Y0061819D01*
X0094199Y0061319D02*
X0094199Y0060818D01*
X0093449Y0060346D02*
X0094950Y0060346D01*
X0093449Y0059345D01*
X0094950Y0059345D01*
X0094950Y0058873D02*
X0094950Y0057872D01*
X0093449Y0057872D01*
X0093449Y0058873D01*
X0094199Y0058372D02*
X0094199Y0057872D01*
X0093699Y0057399D02*
X0094700Y0056398D01*
X0094950Y0056398D01*
X0094950Y0057399D01*
X0093699Y0057399D02*
X0093449Y0057399D01*
X0093449Y0056398D01*
X0094199Y0055926D02*
X0094199Y0054925D01*
X0093449Y0054453D02*
X0093449Y0053452D01*
X0094950Y0053452D01*
X0094950Y0054453D01*
X0094199Y0053952D02*
X0094199Y0053452D01*
X0093699Y0052980D02*
X0093449Y0052729D01*
X0093449Y0051979D01*
X0094950Y0051979D01*
X0094950Y0052729D01*
X0094700Y0052980D01*
X0093699Y0052980D01*
X0093699Y0051506D02*
X0093449Y0051256D01*
X0093449Y0050756D01*
X0093699Y0050505D01*
X0094700Y0050505D01*
X0094950Y0050756D01*
X0094950Y0051256D01*
X0094700Y0051506D01*
X0093699Y0051506D01*
X0093449Y0050024D02*
X0093449Y0049523D01*
X0093449Y0049773D02*
X0094950Y0049773D01*
X0094950Y0049523D02*
X0094950Y0050024D01*
X0094700Y0049051D02*
X0093699Y0049051D01*
X0093449Y0048801D01*
X0093449Y0048050D01*
X0094950Y0048050D01*
X0094950Y0048801D01*
X0094700Y0049051D01*
X0150809Y0038171D02*
X0150269Y0038891D01*
X0150270Y0038890D02*
X0150503Y0039071D01*
X0150731Y0039257D01*
X0150955Y0039449D01*
X0151174Y0039646D01*
X0151388Y0039848D01*
X0151597Y0040056D01*
X0151800Y0040269D01*
X0151999Y0040486D01*
X0152192Y0040709D01*
X0152380Y0040936D01*
X0152562Y0041167D01*
X0152739Y0041403D01*
X0152909Y0041644D01*
X0153074Y0041888D01*
X0153232Y0042136D01*
X0153385Y0042388D01*
X0153531Y0042644D01*
X0153671Y0042903D01*
X0153805Y0043166D01*
X0153932Y0043431D01*
X0154053Y0043700D01*
X0154167Y0043972D01*
X0154274Y0044246D01*
X0154375Y0044523D01*
X0154469Y0044802D01*
X0154556Y0045084D01*
X0154636Y0045367D01*
X0154709Y0045653D01*
X0154775Y0045940D01*
X0154834Y0046229D01*
X0154886Y0046519D01*
X0154931Y0046810D01*
X0154969Y0047102D01*
X0154999Y0047395D01*
X0155023Y0047689D01*
X0155039Y0047983D01*
X0155048Y0048277D01*
X0155050Y0048572D01*
X0155044Y0048867D01*
X0155032Y0049161D01*
X0155012Y0049455D01*
X0154985Y0049748D01*
X0154951Y0050041D01*
X0154910Y0050333D01*
X0154861Y0050623D01*
X0154806Y0050913D01*
X0154744Y0051200D01*
X0154674Y0051487D01*
X0154597Y0051771D01*
X0154514Y0052054D01*
X0154424Y0052334D01*
X0154327Y0052612D01*
X0154223Y0052888D01*
X0154112Y0053161D01*
X0153995Y0053431D01*
X0153871Y0053699D01*
X0153741Y0053963D01*
X0153604Y0054224D01*
X0153461Y0054481D01*
X0153311Y0054735D01*
X0153156Y0054986D01*
X0152994Y0055232D01*
X0152827Y0055474D01*
X0152653Y0055712D01*
X0152474Y0055946D01*
X0152289Y0056176D01*
X0152099Y0056400D01*
X0151903Y0056621D01*
X0151702Y0056836D01*
X0151495Y0057046D01*
X0151284Y0057251D01*
X0151067Y0057451D01*
X0150846Y0057646D01*
X0150620Y0057835D01*
X0150390Y0058018D01*
X0150155Y0058196D01*
X0149915Y0058368D01*
X0149672Y0058534D01*
X0149425Y0058694D01*
X0149174Y0058848D01*
X0148919Y0058996D01*
X0148660Y0059138D01*
X0148399Y0059273D01*
X0148134Y0059402D01*
X0147866Y0059524D01*
X0147595Y0059640D01*
X0147321Y0059749D01*
X0147045Y0059851D01*
X0146766Y0059946D01*
X0146485Y0060035D01*
X0146202Y0060117D01*
X0145917Y0060192D01*
X0145630Y0060259D01*
X0145342Y0060320D01*
X0145052Y0060374D01*
X0144761Y0060421D01*
X0144469Y0060460D01*
X0144177Y0060492D01*
X0143883Y0060518D01*
X0143589Y0060536D01*
X0143295Y0060546D01*
X0143000Y0060550D01*
X0142705Y0060546D01*
X0142411Y0060536D01*
X0142117Y0060518D01*
X0141823Y0060492D01*
X0141531Y0060460D01*
X0141239Y0060421D01*
X0140948Y0060374D01*
X0140658Y0060320D01*
X0140370Y0060259D01*
X0140083Y0060192D01*
X0139798Y0060117D01*
X0139515Y0060035D01*
X0139234Y0059946D01*
X0138955Y0059851D01*
X0138679Y0059749D01*
X0138405Y0059640D01*
X0138134Y0059524D01*
X0137866Y0059402D01*
X0137601Y0059273D01*
X0137340Y0059138D01*
X0137081Y0058996D01*
X0136826Y0058848D01*
X0136575Y0058694D01*
X0136328Y0058534D01*
X0136085Y0058368D01*
X0135845Y0058196D01*
X0135610Y0058018D01*
X0135380Y0057835D01*
X0135154Y0057646D01*
X0134933Y0057451D01*
X0134716Y0057251D01*
X0134505Y0057046D01*
X0134298Y0056836D01*
X0134097Y0056621D01*
X0133901Y0056400D01*
X0133711Y0056176D01*
X0133526Y0055946D01*
X0133347Y0055712D01*
X0133173Y0055474D01*
X0133006Y0055232D01*
X0132844Y0054986D01*
X0132689Y0054735D01*
X0132539Y0054481D01*
X0132396Y0054224D01*
X0132259Y0053963D01*
X0132129Y0053699D01*
X0132005Y0053431D01*
X0131888Y0053161D01*
X0131777Y0052888D01*
X0131673Y0052612D01*
X0131576Y0052334D01*
X0131486Y0052054D01*
X0131403Y0051771D01*
X0131326Y0051487D01*
X0131256Y0051200D01*
X0131194Y0050913D01*
X0131139Y0050623D01*
X0131090Y0050333D01*
X0131049Y0050041D01*
X0131015Y0049748D01*
X0130988Y0049455D01*
X0130968Y0049161D01*
X0130956Y0048867D01*
X0130950Y0048572D01*
X0130952Y0048277D01*
X0130961Y0047983D01*
X0130977Y0047689D01*
X0131001Y0047395D01*
X0131031Y0047102D01*
X0131069Y0046810D01*
X0131114Y0046519D01*
X0131166Y0046229D01*
X0131225Y0045940D01*
X0131291Y0045653D01*
X0131364Y0045367D01*
X0131444Y0045084D01*
X0131531Y0044802D01*
X0131625Y0044523D01*
X0131726Y0044246D01*
X0131833Y0043972D01*
X0131947Y0043700D01*
X0132068Y0043431D01*
X0132195Y0043166D01*
X0132329Y0042903D01*
X0132469Y0042644D01*
X0132615Y0042388D01*
X0132768Y0042136D01*
X0132926Y0041888D01*
X0133091Y0041644D01*
X0133261Y0041403D01*
X0133438Y0041167D01*
X0133620Y0040936D01*
X0133808Y0040709D01*
X0134001Y0040486D01*
X0134200Y0040269D01*
X0134403Y0040056D01*
X0134612Y0039848D01*
X0134826Y0039646D01*
X0135045Y0039449D01*
X0135269Y0039257D01*
X0135497Y0039071D01*
X0135730Y0038890D01*
X0135191Y0038171D01*
X0135190Y0038170D01*
X0134940Y0038364D01*
X0134694Y0038564D01*
X0134454Y0038770D01*
X0134219Y0038982D01*
X0133989Y0039200D01*
X0133764Y0039423D01*
X0133545Y0039651D01*
X0133331Y0039885D01*
X0133123Y0040124D01*
X0132921Y0040368D01*
X0132726Y0040617D01*
X0132536Y0040871D01*
X0132353Y0041129D01*
X0132176Y0041391D01*
X0132005Y0041658D01*
X0131841Y0041929D01*
X0131684Y0042204D01*
X0131533Y0042482D01*
X0131389Y0042765D01*
X0131253Y0043050D01*
X0131123Y0043339D01*
X0131000Y0043631D01*
X0130885Y0043926D01*
X0130777Y0044223D01*
X0130676Y0044524D01*
X0130582Y0044826D01*
X0130496Y0045131D01*
X0130417Y0045438D01*
X0130346Y0045746D01*
X0130283Y0046056D01*
X0130227Y0046368D01*
X0130178Y0046681D01*
X0130138Y0046995D01*
X0130105Y0047310D01*
X0130080Y0047626D01*
X0130062Y0047942D01*
X0130052Y0048258D01*
X0130050Y0048575D01*
X0130056Y0048892D01*
X0130069Y0049208D01*
X0130091Y0049524D01*
X0130119Y0049839D01*
X0130156Y0050154D01*
X0130200Y0050467D01*
X0130252Y0050780D01*
X0130312Y0051091D01*
X0130379Y0051400D01*
X0130454Y0051708D01*
X0130536Y0052014D01*
X0130625Y0052317D01*
X0130722Y0052619D01*
X0130827Y0052918D01*
X0130939Y0053214D01*
X0131057Y0053508D01*
X0131183Y0053798D01*
X0131316Y0054085D01*
X0131457Y0054370D01*
X0131604Y0054650D01*
X0131757Y0054927D01*
X0131918Y0055200D01*
X0132085Y0055469D01*
X0132259Y0055734D01*
X0132439Y0055994D01*
X0132625Y0056250D01*
X0132818Y0056501D01*
X0133016Y0056748D01*
X0133221Y0056990D01*
X0133431Y0057226D01*
X0133648Y0057458D01*
X0133870Y0057683D01*
X0134097Y0057904D01*
X0134329Y0058119D01*
X0134567Y0058328D01*
X0134810Y0058531D01*
X0135058Y0058729D01*
X0135310Y0058920D01*
X0135567Y0059105D01*
X0135829Y0059283D01*
X0136095Y0059455D01*
X0136364Y0059621D01*
X0136638Y0059780D01*
X0136916Y0059932D01*
X0137197Y0060077D01*
X0137482Y0060216D01*
X0137770Y0060347D01*
X0138062Y0060471D01*
X0138356Y0060589D01*
X0138653Y0060699D01*
X0138952Y0060801D01*
X0139254Y0060896D01*
X0139558Y0060984D01*
X0139865Y0061065D01*
X0140173Y0061138D01*
X0140483Y0061203D01*
X0140794Y0061261D01*
X0141107Y0061311D01*
X0141421Y0061353D01*
X0141735Y0061388D01*
X0142051Y0061415D01*
X0142367Y0061435D01*
X0142683Y0061446D01*
X0143000Y0061450D01*
X0143317Y0061446D01*
X0143633Y0061435D01*
X0143949Y0061415D01*
X0144265Y0061388D01*
X0144579Y0061353D01*
X0144893Y0061311D01*
X0145206Y0061261D01*
X0145517Y0061203D01*
X0145827Y0061138D01*
X0146135Y0061065D01*
X0146442Y0060984D01*
X0146746Y0060896D01*
X0147048Y0060801D01*
X0147347Y0060699D01*
X0147644Y0060589D01*
X0147938Y0060471D01*
X0148230Y0060347D01*
X0148518Y0060216D01*
X0148803Y0060077D01*
X0149084Y0059932D01*
X0149362Y0059780D01*
X0149636Y0059621D01*
X0149905Y0059455D01*
X0150171Y0059283D01*
X0150433Y0059105D01*
X0150690Y0058920D01*
X0150942Y0058729D01*
X0151190Y0058531D01*
X0151433Y0058328D01*
X0151671Y0058119D01*
X0151903Y0057904D01*
X0152130Y0057683D01*
X0152352Y0057458D01*
X0152569Y0057226D01*
X0152779Y0056990D01*
X0152984Y0056748D01*
X0153182Y0056501D01*
X0153375Y0056250D01*
X0153561Y0055994D01*
X0153741Y0055734D01*
X0153915Y0055469D01*
X0154082Y0055200D01*
X0154243Y0054927D01*
X0154396Y0054650D01*
X0154543Y0054370D01*
X0154684Y0054085D01*
X0154817Y0053798D01*
X0154943Y0053508D01*
X0155061Y0053214D01*
X0155173Y0052918D01*
X0155278Y0052619D01*
X0155375Y0052317D01*
X0155464Y0052014D01*
X0155546Y0051708D01*
X0155621Y0051400D01*
X0155688Y0051091D01*
X0155748Y0050780D01*
X0155800Y0050467D01*
X0155844Y0050154D01*
X0155881Y0049839D01*
X0155909Y0049524D01*
X0155931Y0049208D01*
X0155944Y0048892D01*
X0155950Y0048575D01*
X0155948Y0048258D01*
X0155938Y0047942D01*
X0155920Y0047626D01*
X0155895Y0047310D01*
X0155862Y0046995D01*
X0155822Y0046681D01*
X0155773Y0046368D01*
X0155717Y0046056D01*
X0155654Y0045746D01*
X0155583Y0045438D01*
X0155504Y0045131D01*
X0155418Y0044826D01*
X0155324Y0044524D01*
X0155223Y0044223D01*
X0155115Y0043926D01*
X0155000Y0043631D01*
X0154877Y0043339D01*
X0154747Y0043050D01*
X0154611Y0042765D01*
X0154467Y0042482D01*
X0154316Y0042204D01*
X0154159Y0041929D01*
X0153995Y0041658D01*
X0153824Y0041391D01*
X0153647Y0041129D01*
X0153464Y0040871D01*
X0153274Y0040617D01*
X0153079Y0040368D01*
X0152877Y0040124D01*
X0152669Y0039885D01*
X0152455Y0039651D01*
X0152236Y0039423D01*
X0152011Y0039200D01*
X0151781Y0038982D01*
X0151546Y0038770D01*
X0151306Y0038564D01*
X0151060Y0038364D01*
X0150810Y0038170D01*
X0150754Y0038245D01*
X0151002Y0038438D01*
X0151246Y0038637D01*
X0151484Y0038841D01*
X0151718Y0039051D01*
X0151946Y0039267D01*
X0152169Y0039489D01*
X0152387Y0039716D01*
X0152599Y0039948D01*
X0152805Y0040185D01*
X0153006Y0040427D01*
X0153200Y0040675D01*
X0153388Y0040926D01*
X0153570Y0041183D01*
X0153746Y0041443D01*
X0153915Y0041708D01*
X0154078Y0041977D01*
X0154234Y0042250D01*
X0154384Y0042526D01*
X0154526Y0042806D01*
X0154662Y0043090D01*
X0154791Y0043377D01*
X0154913Y0043667D01*
X0155027Y0043959D01*
X0155135Y0044255D01*
X0155235Y0044553D01*
X0155328Y0044853D01*
X0155413Y0045156D01*
X0155491Y0045460D01*
X0155562Y0045766D01*
X0155625Y0046074D01*
X0155681Y0046384D01*
X0155729Y0046694D01*
X0155769Y0047006D01*
X0155802Y0047319D01*
X0155827Y0047632D01*
X0155844Y0047946D01*
X0155854Y0048260D01*
X0155856Y0048575D01*
X0155850Y0048889D01*
X0155837Y0049203D01*
X0155816Y0049517D01*
X0155787Y0049830D01*
X0155751Y0050142D01*
X0155707Y0050453D01*
X0155655Y0050763D01*
X0155596Y0051072D01*
X0155529Y0051379D01*
X0155455Y0051685D01*
X0155374Y0051988D01*
X0155285Y0052290D01*
X0155188Y0052589D01*
X0155085Y0052886D01*
X0154974Y0053180D01*
X0154856Y0053471D01*
X0154731Y0053760D01*
X0154599Y0054045D01*
X0154460Y0054327D01*
X0154314Y0054605D01*
X0154161Y0054880D01*
X0154002Y0055151D01*
X0153836Y0055418D01*
X0153663Y0055681D01*
X0153485Y0055940D01*
X0153300Y0056194D01*
X0153108Y0056443D01*
X0152911Y0056688D01*
X0152708Y0056928D01*
X0152499Y0057163D01*
X0152284Y0057393D01*
X0152064Y0057617D01*
X0151839Y0057836D01*
X0151608Y0058049D01*
X0151372Y0058257D01*
X0151130Y0058459D01*
X0150885Y0058654D01*
X0150634Y0058844D01*
X0150379Y0059028D01*
X0150119Y0059205D01*
X0149855Y0059376D01*
X0149587Y0059540D01*
X0149315Y0059698D01*
X0149040Y0059849D01*
X0148760Y0059993D01*
X0148478Y0060131D01*
X0148192Y0060261D01*
X0147903Y0060385D01*
X0147610Y0060501D01*
X0147316Y0060610D01*
X0147018Y0060712D01*
X0146719Y0060806D01*
X0146416Y0060894D01*
X0146112Y0060974D01*
X0145807Y0061046D01*
X0145499Y0061111D01*
X0145190Y0061168D01*
X0144879Y0061218D01*
X0144568Y0061260D01*
X0144255Y0061295D01*
X0143942Y0061321D01*
X0143628Y0061341D01*
X0143314Y0061352D01*
X0143000Y0061356D01*
X0142686Y0061352D01*
X0142372Y0061341D01*
X0142058Y0061321D01*
X0141745Y0061295D01*
X0141432Y0061260D01*
X0141121Y0061218D01*
X0140810Y0061168D01*
X0140501Y0061111D01*
X0140193Y0061046D01*
X0139888Y0060974D01*
X0139584Y0060894D01*
X0139281Y0060806D01*
X0138982Y0060712D01*
X0138684Y0060610D01*
X0138390Y0060501D01*
X0138097Y0060385D01*
X0137808Y0060261D01*
X0137522Y0060131D01*
X0137240Y0059993D01*
X0136960Y0059849D01*
X0136685Y0059698D01*
X0136413Y0059540D01*
X0136145Y0059376D01*
X0135881Y0059205D01*
X0135621Y0059028D01*
X0135366Y0058844D01*
X0135115Y0058654D01*
X0134870Y0058459D01*
X0134628Y0058257D01*
X0134392Y0058049D01*
X0134161Y0057836D01*
X0133936Y0057617D01*
X0133716Y0057393D01*
X0133501Y0057163D01*
X0133292Y0056928D01*
X0133089Y0056688D01*
X0132892Y0056443D01*
X0132700Y0056194D01*
X0132515Y0055940D01*
X0132337Y0055681D01*
X0132164Y0055418D01*
X0131998Y0055151D01*
X0131839Y0054880D01*
X0131686Y0054605D01*
X0131540Y0054327D01*
X0131401Y0054045D01*
X0131269Y0053760D01*
X0131144Y0053471D01*
X0131026Y0053180D01*
X0130915Y0052886D01*
X0130812Y0052589D01*
X0130715Y0052290D01*
X0130626Y0051988D01*
X0130545Y0051685D01*
X0130471Y0051379D01*
X0130404Y0051072D01*
X0130345Y0050763D01*
X0130293Y0050453D01*
X0130249Y0050142D01*
X0130213Y0049830D01*
X0130184Y0049517D01*
X0130163Y0049203D01*
X0130150Y0048889D01*
X0130144Y0048575D01*
X0130146Y0048260D01*
X0130156Y0047946D01*
X0130173Y0047632D01*
X0130198Y0047319D01*
X0130231Y0047006D01*
X0130271Y0046694D01*
X0130319Y0046384D01*
X0130375Y0046074D01*
X0130438Y0045766D01*
X0130509Y0045460D01*
X0130587Y0045156D01*
X0130672Y0044853D01*
X0130765Y0044553D01*
X0130865Y0044255D01*
X0130973Y0043959D01*
X0131087Y0043667D01*
X0131209Y0043377D01*
X0131338Y0043090D01*
X0131474Y0042806D01*
X0131616Y0042526D01*
X0131766Y0042250D01*
X0131922Y0041977D01*
X0132085Y0041708D01*
X0132254Y0041443D01*
X0132430Y0041183D01*
X0132612Y0040926D01*
X0132800Y0040675D01*
X0132994Y0040427D01*
X0133195Y0040185D01*
X0133401Y0039948D01*
X0133613Y0039716D01*
X0133831Y0039489D01*
X0134054Y0039267D01*
X0134282Y0039051D01*
X0134516Y0038841D01*
X0134754Y0038637D01*
X0134998Y0038438D01*
X0135246Y0038245D01*
X0135303Y0038320D01*
X0135056Y0038512D01*
X0134814Y0038709D01*
X0134577Y0038912D01*
X0134346Y0039121D01*
X0134119Y0039335D01*
X0133897Y0039555D01*
X0133681Y0039780D01*
X0133471Y0040011D01*
X0133266Y0040246D01*
X0133067Y0040487D01*
X0132874Y0040732D01*
X0132688Y0040982D01*
X0132507Y0041236D01*
X0132332Y0041495D01*
X0132164Y0041758D01*
X0132003Y0042025D01*
X0131848Y0042296D01*
X0131699Y0042570D01*
X0131558Y0042848D01*
X0131423Y0043130D01*
X0131295Y0043414D01*
X0131174Y0043702D01*
X0131060Y0043993D01*
X0130954Y0044286D01*
X0130854Y0044582D01*
X0130762Y0044880D01*
X0130677Y0045180D01*
X0130600Y0045483D01*
X0130530Y0045787D01*
X0130467Y0046092D01*
X0130412Y0046399D01*
X0130364Y0046708D01*
X0130324Y0047017D01*
X0130292Y0047328D01*
X0130267Y0047639D01*
X0130250Y0047950D01*
X0130240Y0048262D01*
X0130238Y0048574D01*
X0130244Y0048886D01*
X0130257Y0049198D01*
X0130278Y0049509D01*
X0130306Y0049820D01*
X0130343Y0050130D01*
X0130386Y0050439D01*
X0130437Y0050747D01*
X0130496Y0051054D01*
X0130562Y0051358D01*
X0130636Y0051662D01*
X0130717Y0051963D01*
X0130805Y0052262D01*
X0130901Y0052559D01*
X0131004Y0052854D01*
X0131114Y0053146D01*
X0131231Y0053435D01*
X0131355Y0053722D01*
X0131486Y0054005D01*
X0131624Y0054285D01*
X0131769Y0054561D01*
X0131921Y0054834D01*
X0132079Y0055103D01*
X0132244Y0055368D01*
X0132415Y0055629D01*
X0132592Y0055885D01*
X0132776Y0056138D01*
X0132966Y0056385D01*
X0133161Y0056628D01*
X0133363Y0056867D01*
X0133571Y0057100D01*
X0133784Y0057328D01*
X0134002Y0057550D01*
X0134226Y0057768D01*
X0134455Y0057979D01*
X0134690Y0058185D01*
X0134929Y0058386D01*
X0135173Y0058580D01*
X0135422Y0058768D01*
X0135675Y0058951D01*
X0135933Y0059127D01*
X0136195Y0059296D01*
X0136461Y0059459D01*
X0136731Y0059616D01*
X0137005Y0059766D01*
X0137282Y0059909D01*
X0137562Y0060046D01*
X0137846Y0060175D01*
X0138133Y0060298D01*
X0138423Y0060413D01*
X0138716Y0060521D01*
X0139011Y0060623D01*
X0139309Y0060717D01*
X0139609Y0060803D01*
X0139910Y0060882D01*
X0140214Y0060954D01*
X0140519Y0061019D01*
X0140826Y0061076D01*
X0141134Y0061125D01*
X0141444Y0061167D01*
X0141754Y0061201D01*
X0142065Y0061228D01*
X0142376Y0061247D01*
X0142688Y0061258D01*
X0143000Y0061262D01*
X0143312Y0061258D01*
X0143624Y0061247D01*
X0143935Y0061228D01*
X0144246Y0061201D01*
X0144556Y0061167D01*
X0144866Y0061125D01*
X0145174Y0061076D01*
X0145481Y0061019D01*
X0145786Y0060954D01*
X0146090Y0060882D01*
X0146391Y0060803D01*
X0146691Y0060717D01*
X0146989Y0060623D01*
X0147284Y0060521D01*
X0147577Y0060413D01*
X0147867Y0060298D01*
X0148154Y0060175D01*
X0148438Y0060046D01*
X0148718Y0059909D01*
X0148995Y0059766D01*
X0149269Y0059616D01*
X0149539Y0059459D01*
X0149805Y0059296D01*
X0150067Y0059127D01*
X0150325Y0058951D01*
X0150578Y0058768D01*
X0150827Y0058580D01*
X0151071Y0058386D01*
X0151310Y0058185D01*
X0151545Y0057979D01*
X0151774Y0057768D01*
X0151998Y0057550D01*
X0152216Y0057328D01*
X0152429Y0057100D01*
X0152637Y0056867D01*
X0152839Y0056628D01*
X0153034Y0056385D01*
X0153224Y0056138D01*
X0153408Y0055885D01*
X0153585Y0055629D01*
X0153756Y0055368D01*
X0153921Y0055103D01*
X0154079Y0054834D01*
X0154231Y0054561D01*
X0154376Y0054285D01*
X0154514Y0054005D01*
X0154645Y0053722D01*
X0154769Y0053435D01*
X0154886Y0053146D01*
X0154996Y0052854D01*
X0155099Y0052559D01*
X0155195Y0052262D01*
X0155283Y0051963D01*
X0155364Y0051662D01*
X0155438Y0051358D01*
X0155504Y0051054D01*
X0155563Y0050747D01*
X0155614Y0050439D01*
X0155657Y0050130D01*
X0155694Y0049820D01*
X0155722Y0049509D01*
X0155743Y0049198D01*
X0155756Y0048886D01*
X0155762Y0048574D01*
X0155760Y0048262D01*
X0155750Y0047950D01*
X0155733Y0047639D01*
X0155708Y0047328D01*
X0155676Y0047017D01*
X0155636Y0046708D01*
X0155588Y0046399D01*
X0155533Y0046092D01*
X0155470Y0045787D01*
X0155400Y0045483D01*
X0155323Y0045180D01*
X0155238Y0044880D01*
X0155146Y0044582D01*
X0155046Y0044286D01*
X0154940Y0043993D01*
X0154826Y0043702D01*
X0154705Y0043414D01*
X0154577Y0043130D01*
X0154442Y0042848D01*
X0154301Y0042570D01*
X0154152Y0042296D01*
X0153997Y0042025D01*
X0153836Y0041758D01*
X0153668Y0041495D01*
X0153493Y0041236D01*
X0153312Y0040982D01*
X0153126Y0040732D01*
X0152933Y0040487D01*
X0152734Y0040246D01*
X0152529Y0040011D01*
X0152319Y0039780D01*
X0152103Y0039555D01*
X0151881Y0039335D01*
X0151654Y0039121D01*
X0151423Y0038912D01*
X0151186Y0038709D01*
X0150944Y0038512D01*
X0150697Y0038320D01*
X0150641Y0038396D01*
X0150886Y0038586D01*
X0151126Y0038781D01*
X0151361Y0038983D01*
X0151591Y0039190D01*
X0151816Y0039403D01*
X0152036Y0039621D01*
X0152250Y0039845D01*
X0152459Y0040074D01*
X0152662Y0040307D01*
X0152860Y0040546D01*
X0153051Y0040789D01*
X0153237Y0041038D01*
X0153416Y0041290D01*
X0153589Y0041547D01*
X0153756Y0041808D01*
X0153917Y0042073D01*
X0154070Y0042342D01*
X0154218Y0042614D01*
X0154358Y0042890D01*
X0154492Y0043170D01*
X0154619Y0043452D01*
X0154739Y0043738D01*
X0154852Y0044026D01*
X0154958Y0044317D01*
X0155056Y0044611D01*
X0155148Y0044907D01*
X0155232Y0045205D01*
X0155309Y0045505D01*
X0155378Y0045807D01*
X0155441Y0046110D01*
X0155495Y0046415D01*
X0155543Y0046721D01*
X0155582Y0047029D01*
X0155614Y0047337D01*
X0155639Y0047645D01*
X0155656Y0047955D01*
X0155666Y0048264D01*
X0155668Y0048574D01*
X0155662Y0048884D01*
X0155649Y0049193D01*
X0155628Y0049502D01*
X0155600Y0049811D01*
X0155564Y0050118D01*
X0155521Y0050425D01*
X0155470Y0050731D01*
X0155412Y0051035D01*
X0155346Y0051338D01*
X0155273Y0051639D01*
X0155193Y0051938D01*
X0155105Y0052235D01*
X0155010Y0052530D01*
X0154908Y0052822D01*
X0154799Y0053112D01*
X0154682Y0053399D01*
X0154559Y0053683D01*
X0154429Y0053964D01*
X0154292Y0054242D01*
X0154148Y0054516D01*
X0153998Y0054787D01*
X0153841Y0055054D01*
X0153677Y0055317D01*
X0153507Y0055576D01*
X0153331Y0055831D01*
X0153149Y0056082D01*
X0152960Y0056327D01*
X0152766Y0056569D01*
X0152566Y0056805D01*
X0152360Y0057036D01*
X0152148Y0057263D01*
X0151931Y0057484D01*
X0151709Y0057699D01*
X0151482Y0057910D01*
X0151249Y0058114D01*
X0151011Y0058313D01*
X0150769Y0058506D01*
X0150522Y0058693D01*
X0150271Y0058874D01*
X0150015Y0059048D01*
X0149755Y0059217D01*
X0149491Y0059379D01*
X0149223Y0059534D01*
X0148951Y0059683D01*
X0148676Y0059825D01*
X0148397Y0059961D01*
X0148116Y0060089D01*
X0147831Y0060211D01*
X0147543Y0060325D01*
X0147252Y0060433D01*
X0146959Y0060533D01*
X0146664Y0060627D01*
X0146366Y0060713D01*
X0146067Y0060791D01*
X0145765Y0060862D01*
X0145462Y0060926D01*
X0145158Y0060983D01*
X0144852Y0061032D01*
X0144545Y0061073D01*
X0144237Y0061107D01*
X0143928Y0061134D01*
X0143619Y0061153D01*
X0143310Y0061164D01*
X0143000Y0061168D01*
X0142690Y0061164D01*
X0142381Y0061153D01*
X0142072Y0061134D01*
X0141763Y0061107D01*
X0141455Y0061073D01*
X0141148Y0061032D01*
X0140842Y0060983D01*
X0140538Y0060926D01*
X0140235Y0060862D01*
X0139933Y0060791D01*
X0139634Y0060713D01*
X0139336Y0060627D01*
X0139041Y0060533D01*
X0138748Y0060433D01*
X0138457Y0060325D01*
X0138169Y0060211D01*
X0137884Y0060089D01*
X0137603Y0059961D01*
X0137324Y0059825D01*
X0137049Y0059683D01*
X0136777Y0059534D01*
X0136509Y0059379D01*
X0136245Y0059217D01*
X0135985Y0059048D01*
X0135729Y0058874D01*
X0135478Y0058693D01*
X0135231Y0058506D01*
X0134989Y0058313D01*
X0134751Y0058114D01*
X0134518Y0057910D01*
X0134291Y0057699D01*
X0134069Y0057484D01*
X0133852Y0057263D01*
X0133640Y0057036D01*
X0133434Y0056805D01*
X0133234Y0056569D01*
X0133040Y0056327D01*
X0132851Y0056082D01*
X0132669Y0055831D01*
X0132493Y0055576D01*
X0132323Y0055317D01*
X0132159Y0055054D01*
X0132002Y0054787D01*
X0131852Y0054516D01*
X0131708Y0054242D01*
X0131571Y0053964D01*
X0131441Y0053683D01*
X0131318Y0053399D01*
X0131201Y0053112D01*
X0131092Y0052822D01*
X0130990Y0052530D01*
X0130895Y0052235D01*
X0130807Y0051938D01*
X0130727Y0051639D01*
X0130654Y0051338D01*
X0130588Y0051035D01*
X0130530Y0050731D01*
X0130479Y0050425D01*
X0130436Y0050118D01*
X0130400Y0049811D01*
X0130372Y0049502D01*
X0130351Y0049193D01*
X0130338Y0048884D01*
X0130332Y0048574D01*
X0130334Y0048264D01*
X0130344Y0047955D01*
X0130361Y0047645D01*
X0130386Y0047337D01*
X0130418Y0047029D01*
X0130457Y0046721D01*
X0130505Y0046415D01*
X0130559Y0046110D01*
X0130622Y0045807D01*
X0130691Y0045505D01*
X0130768Y0045205D01*
X0130852Y0044907D01*
X0130944Y0044611D01*
X0131042Y0044317D01*
X0131148Y0044026D01*
X0131261Y0043738D01*
X0131381Y0043452D01*
X0131508Y0043170D01*
X0131642Y0042890D01*
X0131782Y0042614D01*
X0131930Y0042342D01*
X0132083Y0042073D01*
X0132244Y0041808D01*
X0132411Y0041547D01*
X0132584Y0041290D01*
X0132763Y0041038D01*
X0132949Y0040789D01*
X0133140Y0040546D01*
X0133338Y0040307D01*
X0133541Y0040074D01*
X0133750Y0039845D01*
X0133964Y0039621D01*
X0134184Y0039403D01*
X0134409Y0039190D01*
X0134639Y0038983D01*
X0134874Y0038781D01*
X0135114Y0038586D01*
X0135359Y0038396D01*
X0135416Y0038471D01*
X0135173Y0038659D01*
X0134934Y0038854D01*
X0134701Y0039054D01*
X0134473Y0039259D01*
X0134249Y0039471D01*
X0134031Y0039687D01*
X0133818Y0039909D01*
X0133611Y0040136D01*
X0133409Y0040368D01*
X0133213Y0040605D01*
X0133023Y0040847D01*
X0132839Y0041093D01*
X0132661Y0041344D01*
X0132489Y0041599D01*
X0132324Y0041858D01*
X0132164Y0042121D01*
X0132012Y0042388D01*
X0131865Y0042658D01*
X0131726Y0042932D01*
X0131593Y0043209D01*
X0131467Y0043490D01*
X0131348Y0043773D01*
X0131236Y0044060D01*
X0131131Y0044349D01*
X0131033Y0044640D01*
X0130942Y0044934D01*
X0130859Y0045230D01*
X0130782Y0045527D01*
X0130713Y0045827D01*
X0130652Y0046128D01*
X0130597Y0046431D01*
X0130551Y0046735D01*
X0130511Y0047040D01*
X0130479Y0047345D01*
X0130455Y0047652D01*
X0130438Y0047959D01*
X0130428Y0048266D01*
X0130426Y0048574D01*
X0130432Y0048881D01*
X0130445Y0049188D01*
X0130465Y0049495D01*
X0130494Y0049801D01*
X0130529Y0050107D01*
X0130572Y0050411D01*
X0130623Y0050714D01*
X0130680Y0051016D01*
X0130746Y0051317D01*
X0130818Y0051616D01*
X0130898Y0051912D01*
X0130985Y0052207D01*
X0131079Y0052500D01*
X0131181Y0052790D01*
X0131289Y0053078D01*
X0131404Y0053363D01*
X0131527Y0053645D01*
X0131656Y0053924D01*
X0131792Y0054200D01*
X0131935Y0054472D01*
X0132084Y0054741D01*
X0132240Y0055006D01*
X0132402Y0055267D01*
X0132571Y0055524D01*
X0132746Y0055777D01*
X0132927Y0056025D01*
X0133114Y0056269D01*
X0133307Y0056509D01*
X0133505Y0056743D01*
X0133710Y0056973D01*
X0133920Y0057198D01*
X0134135Y0057417D01*
X0134356Y0057631D01*
X0134581Y0057840D01*
X0134812Y0058043D01*
X0135048Y0058240D01*
X0135289Y0058432D01*
X0135534Y0058617D01*
X0135783Y0058797D01*
X0136037Y0058970D01*
X0136295Y0059137D01*
X0136557Y0059298D01*
X0136823Y0059452D01*
X0137093Y0059600D01*
X0137366Y0059741D01*
X0137643Y0059876D01*
X0137922Y0060003D01*
X0138205Y0060124D01*
X0138491Y0060238D01*
X0138779Y0060344D01*
X0139070Y0060444D01*
X0139363Y0060537D01*
X0139659Y0060622D01*
X0139956Y0060700D01*
X0140255Y0060771D01*
X0140556Y0060834D01*
X0140858Y0060890D01*
X0141162Y0060939D01*
X0141467Y0060980D01*
X0141772Y0061014D01*
X0142078Y0061040D01*
X0142385Y0061059D01*
X0142693Y0061070D01*
X0143000Y0061074D01*
X0143307Y0061070D01*
X0143615Y0061059D01*
X0143922Y0061040D01*
X0144228Y0061014D01*
X0144533Y0060980D01*
X0144838Y0060939D01*
X0145142Y0060890D01*
X0145444Y0060834D01*
X0145745Y0060771D01*
X0146044Y0060700D01*
X0146341Y0060622D01*
X0146637Y0060537D01*
X0146930Y0060444D01*
X0147221Y0060344D01*
X0147509Y0060238D01*
X0147795Y0060124D01*
X0148078Y0060003D01*
X0148357Y0059876D01*
X0148634Y0059741D01*
X0148907Y0059600D01*
X0149177Y0059452D01*
X0149443Y0059298D01*
X0149705Y0059137D01*
X0149963Y0058970D01*
X0150217Y0058797D01*
X0150466Y0058617D01*
X0150711Y0058432D01*
X0150952Y0058240D01*
X0151188Y0058043D01*
X0151419Y0057840D01*
X0151644Y0057631D01*
X0151865Y0057417D01*
X0152080Y0057198D01*
X0152290Y0056973D01*
X0152495Y0056743D01*
X0152693Y0056509D01*
X0152886Y0056269D01*
X0153073Y0056025D01*
X0153254Y0055777D01*
X0153429Y0055524D01*
X0153598Y0055267D01*
X0153760Y0055006D01*
X0153916Y0054741D01*
X0154065Y0054472D01*
X0154208Y0054200D01*
X0154344Y0053924D01*
X0154473Y0053645D01*
X0154596Y0053363D01*
X0154711Y0053078D01*
X0154819Y0052790D01*
X0154921Y0052500D01*
X0155015Y0052207D01*
X0155102Y0051912D01*
X0155182Y0051616D01*
X0155254Y0051317D01*
X0155320Y0051016D01*
X0155377Y0050714D01*
X0155428Y0050411D01*
X0155471Y0050107D01*
X0155506Y0049801D01*
X0155535Y0049495D01*
X0155555Y0049188D01*
X0155568Y0048881D01*
X0155574Y0048574D01*
X0155572Y0048266D01*
X0155562Y0047959D01*
X0155545Y0047652D01*
X0155521Y0047345D01*
X0155489Y0047040D01*
X0155449Y0046735D01*
X0155403Y0046431D01*
X0155348Y0046128D01*
X0155287Y0045827D01*
X0155218Y0045527D01*
X0155141Y0045230D01*
X0155058Y0044934D01*
X0154967Y0044640D01*
X0154869Y0044349D01*
X0154764Y0044060D01*
X0154652Y0043773D01*
X0154533Y0043490D01*
X0154407Y0043209D01*
X0154274Y0042932D01*
X0154135Y0042658D01*
X0153988Y0042388D01*
X0153836Y0042121D01*
X0153676Y0041858D01*
X0153511Y0041599D01*
X0153339Y0041344D01*
X0153161Y0041093D01*
X0152977Y0040847D01*
X0152787Y0040605D01*
X0152591Y0040368D01*
X0152389Y0040136D01*
X0152182Y0039909D01*
X0151969Y0039687D01*
X0151751Y0039471D01*
X0151527Y0039259D01*
X0151299Y0039054D01*
X0151066Y0038854D01*
X0150827Y0038659D01*
X0150584Y0038471D01*
X0150528Y0038546D01*
X0150769Y0038733D01*
X0151006Y0038926D01*
X0151237Y0039125D01*
X0151464Y0039329D01*
X0151686Y0039538D01*
X0151902Y0039753D01*
X0152113Y0039974D01*
X0152319Y0040199D01*
X0152519Y0040429D01*
X0152714Y0040665D01*
X0152902Y0040904D01*
X0153085Y0041149D01*
X0153262Y0041398D01*
X0153432Y0041651D01*
X0153597Y0041908D01*
X0153755Y0042169D01*
X0153906Y0042434D01*
X0154051Y0042702D01*
X0154190Y0042974D01*
X0154322Y0043249D01*
X0154447Y0043528D01*
X0154565Y0043809D01*
X0154676Y0044093D01*
X0154780Y0044380D01*
X0154878Y0044669D01*
X0154968Y0044961D01*
X0155051Y0045254D01*
X0155126Y0045550D01*
X0155195Y0045847D01*
X0155256Y0046146D01*
X0155310Y0046447D01*
X0155356Y0046748D01*
X0155396Y0047051D01*
X0155427Y0047354D01*
X0155452Y0047659D01*
X0155468Y0047963D01*
X0155478Y0048268D01*
X0155480Y0048573D01*
X0155474Y0048878D01*
X0155461Y0049183D01*
X0155441Y0049488D01*
X0155413Y0049792D01*
X0155378Y0050095D01*
X0155335Y0050397D01*
X0155285Y0050698D01*
X0155228Y0050998D01*
X0155163Y0051296D01*
X0155091Y0051592D01*
X0155012Y0051887D01*
X0154925Y0052180D01*
X0154832Y0052470D01*
X0154731Y0052758D01*
X0154623Y0053044D01*
X0154509Y0053327D01*
X0154387Y0053607D01*
X0154259Y0053884D01*
X0154124Y0054157D01*
X0153983Y0054427D01*
X0153834Y0054694D01*
X0153680Y0054957D01*
X0153519Y0055216D01*
X0153351Y0055472D01*
X0153178Y0055723D01*
X0152998Y0055969D01*
X0152812Y0056211D01*
X0152621Y0056449D01*
X0152424Y0056682D01*
X0152221Y0056910D01*
X0152012Y0057133D01*
X0151799Y0057351D01*
X0151580Y0057563D01*
X0151356Y0057770D01*
X0151126Y0057972D01*
X0150892Y0058168D01*
X0150654Y0058358D01*
X0150410Y0058542D01*
X0150163Y0058720D01*
X0149911Y0058892D01*
X0149654Y0059058D01*
X0149394Y0059217D01*
X0149130Y0059371D01*
X0148863Y0059517D01*
X0148592Y0059657D01*
X0148317Y0059791D01*
X0148040Y0059917D01*
X0147759Y0060037D01*
X0147475Y0060150D01*
X0147189Y0060256D01*
X0146901Y0060355D01*
X0146610Y0060447D01*
X0146316Y0060531D01*
X0146021Y0060609D01*
X0145724Y0060679D01*
X0145426Y0060742D01*
X0145126Y0060798D01*
X0144824Y0060846D01*
X0144522Y0060887D01*
X0144219Y0060920D01*
X0143915Y0060946D01*
X0143610Y0060965D01*
X0143305Y0060976D01*
X0143000Y0060980D01*
X0142695Y0060976D01*
X0142390Y0060965D01*
X0142085Y0060946D01*
X0141781Y0060920D01*
X0141478Y0060887D01*
X0141176Y0060846D01*
X0140874Y0060798D01*
X0140574Y0060742D01*
X0140276Y0060679D01*
X0139979Y0060609D01*
X0139684Y0060531D01*
X0139390Y0060447D01*
X0139099Y0060355D01*
X0138811Y0060256D01*
X0138525Y0060150D01*
X0138241Y0060037D01*
X0137960Y0059917D01*
X0137683Y0059791D01*
X0137408Y0059657D01*
X0137137Y0059517D01*
X0136870Y0059371D01*
X0136606Y0059217D01*
X0136346Y0059058D01*
X0136089Y0058892D01*
X0135837Y0058720D01*
X0135590Y0058542D01*
X0135346Y0058358D01*
X0135108Y0058168D01*
X0134874Y0057972D01*
X0134644Y0057770D01*
X0134420Y0057563D01*
X0134201Y0057351D01*
X0133988Y0057133D01*
X0133779Y0056910D01*
X0133576Y0056682D01*
X0133379Y0056449D01*
X0133188Y0056211D01*
X0133002Y0055969D01*
X0132822Y0055723D01*
X0132649Y0055472D01*
X0132481Y0055216D01*
X0132320Y0054957D01*
X0132166Y0054694D01*
X0132017Y0054427D01*
X0131876Y0054157D01*
X0131741Y0053884D01*
X0131613Y0053607D01*
X0131491Y0053327D01*
X0131377Y0053044D01*
X0131269Y0052758D01*
X0131168Y0052470D01*
X0131075Y0052180D01*
X0130988Y0051887D01*
X0130909Y0051592D01*
X0130837Y0051296D01*
X0130772Y0050998D01*
X0130715Y0050698D01*
X0130665Y0050397D01*
X0130622Y0050095D01*
X0130587Y0049792D01*
X0130559Y0049488D01*
X0130539Y0049183D01*
X0130526Y0048878D01*
X0130520Y0048573D01*
X0130522Y0048268D01*
X0130532Y0047963D01*
X0130548Y0047659D01*
X0130573Y0047354D01*
X0130604Y0047051D01*
X0130644Y0046748D01*
X0130690Y0046447D01*
X0130744Y0046146D01*
X0130805Y0045847D01*
X0130874Y0045550D01*
X0130949Y0045254D01*
X0131032Y0044961D01*
X0131122Y0044669D01*
X0131220Y0044380D01*
X0131324Y0044093D01*
X0131435Y0043809D01*
X0131553Y0043528D01*
X0131678Y0043249D01*
X0131810Y0042974D01*
X0131949Y0042702D01*
X0132094Y0042434D01*
X0132245Y0042169D01*
X0132403Y0041908D01*
X0132568Y0041651D01*
X0132738Y0041398D01*
X0132915Y0041149D01*
X0133098Y0040904D01*
X0133286Y0040665D01*
X0133481Y0040429D01*
X0133681Y0040199D01*
X0133887Y0039974D01*
X0134098Y0039753D01*
X0134314Y0039538D01*
X0134536Y0039329D01*
X0134763Y0039125D01*
X0134994Y0038926D01*
X0135231Y0038733D01*
X0135472Y0038546D01*
X0135528Y0038621D01*
X0135289Y0038807D01*
X0135054Y0038998D01*
X0134825Y0039195D01*
X0134600Y0039398D01*
X0134379Y0039606D01*
X0134165Y0039820D01*
X0133955Y0040038D01*
X0133751Y0040262D01*
X0133552Y0040490D01*
X0133359Y0040724D01*
X0133172Y0040962D01*
X0132991Y0041204D01*
X0132815Y0041451D01*
X0132646Y0041702D01*
X0132483Y0041958D01*
X0132326Y0042217D01*
X0132176Y0042480D01*
X0132032Y0042746D01*
X0131894Y0043016D01*
X0131763Y0043289D01*
X0131639Y0043565D01*
X0131522Y0043845D01*
X0131412Y0044127D01*
X0131308Y0044411D01*
X0131212Y0044698D01*
X0131122Y0044988D01*
X0131040Y0045279D01*
X0130965Y0045572D01*
X0130897Y0045868D01*
X0130836Y0046164D01*
X0130783Y0046462D01*
X0130737Y0046762D01*
X0130698Y0047062D01*
X0130666Y0047363D01*
X0130642Y0047665D01*
X0130625Y0047968D01*
X0130616Y0048270D01*
X0130614Y0048573D01*
X0130620Y0048876D01*
X0130633Y0049178D01*
X0130653Y0049481D01*
X0130681Y0049782D01*
X0130716Y0050083D01*
X0130758Y0050383D01*
X0130808Y0050682D01*
X0130865Y0050979D01*
X0130929Y0051275D01*
X0131000Y0051569D01*
X0131079Y0051862D01*
X0131165Y0052152D01*
X0131258Y0052441D01*
X0131357Y0052726D01*
X0131464Y0053010D01*
X0131578Y0053290D01*
X0131698Y0053568D01*
X0131826Y0053843D01*
X0131960Y0054115D01*
X0132100Y0054383D01*
X0132247Y0054648D01*
X0132401Y0054909D01*
X0132561Y0055166D01*
X0132727Y0055419D01*
X0132899Y0055668D01*
X0133077Y0055913D01*
X0133262Y0056154D01*
X0133452Y0056389D01*
X0133647Y0056620D01*
X0133849Y0056847D01*
X0134055Y0057068D01*
X0134268Y0057284D01*
X0134485Y0057495D01*
X0134707Y0057700D01*
X0134935Y0057900D01*
X0135167Y0058095D01*
X0135404Y0058283D01*
X0135646Y0058466D01*
X0135891Y0058643D01*
X0136142Y0058814D01*
X0136396Y0058978D01*
X0136654Y0059137D01*
X0136916Y0059289D01*
X0137181Y0059434D01*
X0137450Y0059573D01*
X0137723Y0059706D01*
X0137998Y0059831D01*
X0138277Y0059950D01*
X0138558Y0060062D01*
X0138842Y0060167D01*
X0139129Y0060266D01*
X0139418Y0060357D01*
X0139709Y0060441D01*
X0140002Y0060518D01*
X0140296Y0060587D01*
X0140593Y0060650D01*
X0140890Y0060705D01*
X0141189Y0060753D01*
X0141489Y0060794D01*
X0141791Y0060827D01*
X0142092Y0060853D01*
X0142395Y0060871D01*
X0142697Y0060882D01*
X0143000Y0060886D01*
X0143303Y0060882D01*
X0143605Y0060871D01*
X0143908Y0060853D01*
X0144209Y0060827D01*
X0144511Y0060794D01*
X0144811Y0060753D01*
X0145110Y0060705D01*
X0145407Y0060650D01*
X0145704Y0060587D01*
X0145998Y0060518D01*
X0146291Y0060441D01*
X0146582Y0060357D01*
X0146871Y0060266D01*
X0147158Y0060167D01*
X0147442Y0060062D01*
X0147723Y0059950D01*
X0148002Y0059831D01*
X0148277Y0059706D01*
X0148550Y0059573D01*
X0148819Y0059434D01*
X0149084Y0059289D01*
X0149346Y0059137D01*
X0149604Y0058978D01*
X0149858Y0058814D01*
X0150109Y0058643D01*
X0150354Y0058466D01*
X0150596Y0058283D01*
X0150833Y0058095D01*
X0151065Y0057900D01*
X0151293Y0057700D01*
X0151515Y0057495D01*
X0151732Y0057284D01*
X0151945Y0057068D01*
X0152151Y0056847D01*
X0152353Y0056620D01*
X0152548Y0056389D01*
X0152738Y0056154D01*
X0152923Y0055913D01*
X0153101Y0055668D01*
X0153273Y0055419D01*
X0153439Y0055166D01*
X0153599Y0054909D01*
X0153753Y0054648D01*
X0153900Y0054383D01*
X0154040Y0054115D01*
X0154174Y0053843D01*
X0154302Y0053568D01*
X0154422Y0053290D01*
X0154536Y0053010D01*
X0154643Y0052726D01*
X0154742Y0052441D01*
X0154835Y0052152D01*
X0154921Y0051862D01*
X0155000Y0051569D01*
X0155071Y0051275D01*
X0155135Y0050979D01*
X0155192Y0050682D01*
X0155242Y0050383D01*
X0155284Y0050083D01*
X0155319Y0049782D01*
X0155347Y0049481D01*
X0155367Y0049178D01*
X0155380Y0048876D01*
X0155386Y0048573D01*
X0155384Y0048270D01*
X0155375Y0047968D01*
X0155358Y0047665D01*
X0155334Y0047363D01*
X0155302Y0047062D01*
X0155263Y0046762D01*
X0155217Y0046462D01*
X0155164Y0046164D01*
X0155103Y0045868D01*
X0155035Y0045572D01*
X0154960Y0045279D01*
X0154878Y0044988D01*
X0154788Y0044698D01*
X0154692Y0044411D01*
X0154588Y0044127D01*
X0154478Y0043845D01*
X0154361Y0043565D01*
X0154237Y0043289D01*
X0154106Y0043016D01*
X0153968Y0042746D01*
X0153824Y0042480D01*
X0153674Y0042217D01*
X0153517Y0041958D01*
X0153354Y0041702D01*
X0153185Y0041451D01*
X0153009Y0041204D01*
X0152828Y0040962D01*
X0152641Y0040724D01*
X0152448Y0040490D01*
X0152249Y0040262D01*
X0152045Y0040038D01*
X0151835Y0039820D01*
X0151621Y0039606D01*
X0151400Y0039398D01*
X0151175Y0039195D01*
X0150946Y0038998D01*
X0150711Y0038807D01*
X0150472Y0038621D01*
X0150415Y0038696D01*
X0150653Y0038881D01*
X0150885Y0039071D01*
X0151114Y0039266D01*
X0151337Y0039467D01*
X0151555Y0039674D01*
X0151769Y0039886D01*
X0151977Y0040103D01*
X0152179Y0040325D01*
X0152376Y0040552D01*
X0152568Y0040783D01*
X0152754Y0041019D01*
X0152934Y0041260D01*
X0153108Y0041505D01*
X0153276Y0041754D01*
X0153438Y0042008D01*
X0153593Y0042265D01*
X0153742Y0042526D01*
X0153885Y0042790D01*
X0154022Y0043058D01*
X0154151Y0043329D01*
X0154274Y0043603D01*
X0154391Y0043880D01*
X0154500Y0044160D01*
X0154603Y0044443D01*
X0154699Y0044727D01*
X0154787Y0045015D01*
X0154869Y0045304D01*
X0154944Y0045595D01*
X0155011Y0045888D01*
X0155072Y0046182D01*
X0155125Y0046478D01*
X0155170Y0046775D01*
X0155209Y0047073D01*
X0155240Y0047372D01*
X0155264Y0047672D01*
X0155281Y0047972D01*
X0155290Y0048272D01*
X0155292Y0048573D01*
X0155286Y0048873D01*
X0155274Y0049174D01*
X0155253Y0049473D01*
X0155226Y0049773D01*
X0155191Y0050071D01*
X0155149Y0050369D01*
X0155100Y0050665D01*
X0155043Y0050960D01*
X0154979Y0051254D01*
X0154909Y0051546D01*
X0154831Y0051836D01*
X0154745Y0052125D01*
X0154653Y0052411D01*
X0154554Y0052695D01*
X0154448Y0052976D01*
X0154335Y0053254D01*
X0154216Y0053530D01*
X0154089Y0053803D01*
X0153956Y0054072D01*
X0153817Y0054338D01*
X0153671Y0054601D01*
X0153519Y0054860D01*
X0153360Y0055116D01*
X0153195Y0055367D01*
X0153024Y0055614D01*
X0152847Y0055857D01*
X0152664Y0056096D01*
X0152476Y0056330D01*
X0152282Y0056559D01*
X0152082Y0056783D01*
X0151877Y0057003D01*
X0151666Y0057217D01*
X0151450Y0057427D01*
X0151230Y0057631D01*
X0151004Y0057829D01*
X0150773Y0058022D01*
X0150538Y0058209D01*
X0150299Y0058391D01*
X0150055Y0058566D01*
X0149806Y0058736D01*
X0149554Y0058899D01*
X0149298Y0059056D01*
X0149038Y0059207D01*
X0148774Y0059351D01*
X0148507Y0059489D01*
X0148237Y0059621D01*
X0147964Y0059745D01*
X0147687Y0059863D01*
X0147408Y0059974D01*
X0147126Y0060079D01*
X0146842Y0060176D01*
X0146555Y0060267D01*
X0146266Y0060350D01*
X0145976Y0060426D01*
X0145683Y0060496D01*
X0145389Y0060558D01*
X0145094Y0060612D01*
X0144797Y0060660D01*
X0144499Y0060700D01*
X0144200Y0060733D01*
X0143901Y0060759D01*
X0143601Y0060777D01*
X0143301Y0060788D01*
X0143000Y0060792D01*
X0142699Y0060788D01*
X0142399Y0060777D01*
X0142099Y0060759D01*
X0141800Y0060733D01*
X0141501Y0060700D01*
X0141203Y0060660D01*
X0140906Y0060612D01*
X0140611Y0060558D01*
X0140317Y0060496D01*
X0140024Y0060426D01*
X0139734Y0060350D01*
X0139445Y0060267D01*
X0139158Y0060176D01*
X0138874Y0060079D01*
X0138592Y0059974D01*
X0138313Y0059863D01*
X0138036Y0059745D01*
X0137763Y0059621D01*
X0137493Y0059489D01*
X0137226Y0059351D01*
X0136962Y0059207D01*
X0136702Y0059056D01*
X0136446Y0058899D01*
X0136194Y0058736D01*
X0135945Y0058566D01*
X0135701Y0058391D01*
X0135462Y0058209D01*
X0135227Y0058022D01*
X0134996Y0057829D01*
X0134770Y0057631D01*
X0134550Y0057427D01*
X0134334Y0057217D01*
X0134123Y0057003D01*
X0133918Y0056783D01*
X0133718Y0056559D01*
X0133524Y0056330D01*
X0133336Y0056096D01*
X0133153Y0055857D01*
X0132976Y0055614D01*
X0132805Y0055367D01*
X0132640Y0055116D01*
X0132481Y0054860D01*
X0132329Y0054601D01*
X0132183Y0054338D01*
X0132044Y0054072D01*
X0131911Y0053803D01*
X0131784Y0053530D01*
X0131665Y0053254D01*
X0131552Y0052976D01*
X0131446Y0052695D01*
X0131347Y0052411D01*
X0131255Y0052125D01*
X0131169Y0051836D01*
X0131091Y0051546D01*
X0131021Y0051254D01*
X0130957Y0050960D01*
X0130900Y0050665D01*
X0130851Y0050369D01*
X0130809Y0050071D01*
X0130774Y0049773D01*
X0130747Y0049473D01*
X0130726Y0049174D01*
X0130714Y0048873D01*
X0130708Y0048573D01*
X0130710Y0048272D01*
X0130719Y0047972D01*
X0130736Y0047672D01*
X0130760Y0047372D01*
X0130791Y0047073D01*
X0130830Y0046775D01*
X0130875Y0046478D01*
X0130928Y0046182D01*
X0130989Y0045888D01*
X0131056Y0045595D01*
X0131131Y0045304D01*
X0131213Y0045015D01*
X0131301Y0044727D01*
X0131397Y0044443D01*
X0131500Y0044160D01*
X0131609Y0043880D01*
X0131726Y0043603D01*
X0131849Y0043329D01*
X0131978Y0043058D01*
X0132115Y0042790D01*
X0132258Y0042526D01*
X0132407Y0042265D01*
X0132562Y0042008D01*
X0132724Y0041754D01*
X0132892Y0041505D01*
X0133066Y0041260D01*
X0133246Y0041019D01*
X0133432Y0040783D01*
X0133624Y0040552D01*
X0133821Y0040325D01*
X0134023Y0040103D01*
X0134231Y0039886D01*
X0134445Y0039674D01*
X0134663Y0039467D01*
X0134886Y0039266D01*
X0135115Y0039071D01*
X0135347Y0038881D01*
X0135585Y0038696D01*
X0135641Y0038772D01*
X0135406Y0038954D01*
X0135175Y0039143D01*
X0134948Y0039337D01*
X0134726Y0039537D01*
X0134510Y0039742D01*
X0134298Y0039952D01*
X0134092Y0040167D01*
X0133891Y0040387D01*
X0133695Y0040613D01*
X0133505Y0040842D01*
X0133321Y0041077D01*
X0133142Y0041316D01*
X0132969Y0041559D01*
X0132803Y0041806D01*
X0132642Y0042058D01*
X0132488Y0042313D01*
X0132340Y0042572D01*
X0132198Y0042834D01*
X0132063Y0043100D01*
X0131934Y0043369D01*
X0131812Y0043641D01*
X0131696Y0043916D01*
X0131587Y0044194D01*
X0131486Y0044474D01*
X0131391Y0044757D01*
X0131303Y0045042D01*
X0131222Y0045329D01*
X0131147Y0045617D01*
X0131081Y0045908D01*
X0131021Y0046200D01*
X0130968Y0046494D01*
X0130923Y0046789D01*
X0130884Y0047084D01*
X0130853Y0047381D01*
X0130830Y0047678D01*
X0130813Y0047976D01*
X0130804Y0048274D01*
X0130802Y0048572D01*
X0130808Y0048871D01*
X0130820Y0049169D01*
X0130840Y0049466D01*
X0130868Y0049763D01*
X0130902Y0050059D01*
X0130944Y0050355D01*
X0130993Y0050649D01*
X0131049Y0050942D01*
X0131112Y0051233D01*
X0131183Y0051523D01*
X0131260Y0051811D01*
X0131344Y0052097D01*
X0131436Y0052381D01*
X0131534Y0052663D01*
X0131639Y0052942D01*
X0131751Y0053218D01*
X0131870Y0053492D01*
X0131995Y0053762D01*
X0132127Y0054030D01*
X0132266Y0054294D01*
X0132411Y0054555D01*
X0132562Y0054812D01*
X0132719Y0055065D01*
X0132883Y0055314D01*
X0133053Y0055560D01*
X0133228Y0055801D01*
X0133410Y0056038D01*
X0133597Y0056270D01*
X0133789Y0056497D01*
X0133988Y0056720D01*
X0134191Y0056938D01*
X0134400Y0057151D01*
X0134614Y0057359D01*
X0134834Y0057561D01*
X0135057Y0057758D01*
X0135286Y0057949D01*
X0135520Y0058135D01*
X0135757Y0058315D01*
X0135999Y0058489D01*
X0136246Y0058657D01*
X0136496Y0058819D01*
X0136750Y0058975D01*
X0137008Y0059125D01*
X0137270Y0059268D01*
X0137535Y0059405D01*
X0137803Y0059536D01*
X0138074Y0059659D01*
X0138349Y0059776D01*
X0138626Y0059887D01*
X0138906Y0059990D01*
X0139188Y0060087D01*
X0139472Y0060177D01*
X0139759Y0060259D01*
X0140047Y0060335D01*
X0140337Y0060404D01*
X0140629Y0060465D01*
X0140922Y0060520D01*
X0141217Y0060567D01*
X0141512Y0060607D01*
X0141809Y0060640D01*
X0142106Y0060665D01*
X0142404Y0060683D01*
X0142702Y0060694D01*
X0143000Y0060698D01*
X0143298Y0060694D01*
X0143596Y0060683D01*
X0143894Y0060665D01*
X0144191Y0060640D01*
X0144488Y0060607D01*
X0144783Y0060567D01*
X0145078Y0060520D01*
X0145371Y0060465D01*
X0145663Y0060404D01*
X0145953Y0060335D01*
X0146241Y0060259D01*
X0146528Y0060177D01*
X0146812Y0060087D01*
X0147094Y0059990D01*
X0147374Y0059887D01*
X0147651Y0059776D01*
X0147926Y0059659D01*
X0148197Y0059536D01*
X0148465Y0059405D01*
X0148730Y0059268D01*
X0148992Y0059125D01*
X0149250Y0058975D01*
X0149504Y0058819D01*
X0149754Y0058657D01*
X0150001Y0058489D01*
X0150243Y0058315D01*
X0150480Y0058135D01*
X0150714Y0057949D01*
X0150943Y0057758D01*
X0151166Y0057561D01*
X0151386Y0057359D01*
X0151600Y0057151D01*
X0151809Y0056938D01*
X0152012Y0056720D01*
X0152211Y0056497D01*
X0152403Y0056270D01*
X0152590Y0056038D01*
X0152772Y0055801D01*
X0152947Y0055560D01*
X0153117Y0055314D01*
X0153281Y0055065D01*
X0153438Y0054812D01*
X0153589Y0054555D01*
X0153734Y0054294D01*
X0153873Y0054030D01*
X0154005Y0053762D01*
X0154130Y0053492D01*
X0154249Y0053218D01*
X0154361Y0052942D01*
X0154466Y0052663D01*
X0154564Y0052381D01*
X0154656Y0052097D01*
X0154740Y0051811D01*
X0154817Y0051523D01*
X0154888Y0051233D01*
X0154951Y0050942D01*
X0155007Y0050649D01*
X0155056Y0050355D01*
X0155098Y0050059D01*
X0155132Y0049763D01*
X0155160Y0049466D01*
X0155180Y0049169D01*
X0155192Y0048871D01*
X0155198Y0048572D01*
X0155196Y0048274D01*
X0155187Y0047976D01*
X0155170Y0047678D01*
X0155147Y0047381D01*
X0155116Y0047084D01*
X0155077Y0046789D01*
X0155032Y0046494D01*
X0154979Y0046200D01*
X0154919Y0045908D01*
X0154853Y0045617D01*
X0154778Y0045329D01*
X0154697Y0045042D01*
X0154609Y0044757D01*
X0154514Y0044474D01*
X0154413Y0044194D01*
X0154304Y0043916D01*
X0154188Y0043641D01*
X0154066Y0043369D01*
X0153937Y0043100D01*
X0153802Y0042834D01*
X0153660Y0042572D01*
X0153512Y0042313D01*
X0153358Y0042058D01*
X0153197Y0041806D01*
X0153031Y0041559D01*
X0152858Y0041316D01*
X0152679Y0041077D01*
X0152495Y0040842D01*
X0152305Y0040613D01*
X0152109Y0040387D01*
X0151908Y0040167D01*
X0151702Y0039952D01*
X0151490Y0039742D01*
X0151274Y0039537D01*
X0151052Y0039337D01*
X0150825Y0039143D01*
X0150594Y0038954D01*
X0150359Y0038772D01*
X0150302Y0038847D01*
X0150536Y0039028D01*
X0150765Y0039215D01*
X0150990Y0039408D01*
X0151210Y0039606D01*
X0151425Y0039809D01*
X0151635Y0040018D01*
X0151840Y0040232D01*
X0152039Y0040450D01*
X0152233Y0040674D01*
X0152422Y0040902D01*
X0152605Y0041134D01*
X0152782Y0041371D01*
X0152953Y0041613D01*
X0153119Y0041858D01*
X0153278Y0042107D01*
X0153431Y0042361D01*
X0153578Y0042617D01*
X0153719Y0042878D01*
X0153853Y0043142D01*
X0153981Y0043409D01*
X0154102Y0043679D01*
X0154217Y0043951D01*
X0154325Y0044227D01*
X0154426Y0044505D01*
X0154520Y0044786D01*
X0154607Y0045068D01*
X0154688Y0045353D01*
X0154761Y0045640D01*
X0154828Y0045928D01*
X0154887Y0046218D01*
X0154939Y0046510D01*
X0154984Y0046802D01*
X0155022Y0047096D01*
X0155053Y0047390D01*
X0155077Y0047685D01*
X0155093Y0047980D01*
X0155102Y0048276D01*
X0155104Y0048572D01*
X0155098Y0048868D01*
X0155086Y0049164D01*
X0155066Y0049459D01*
X0155039Y0049754D01*
X0155005Y0050048D01*
X0154963Y0050341D01*
X0154915Y0050633D01*
X0154859Y0050923D01*
X0154796Y0051212D01*
X0154726Y0051500D01*
X0154649Y0051786D01*
X0154566Y0052070D01*
X0154475Y0052351D01*
X0154377Y0052631D01*
X0154273Y0052908D01*
X0154162Y0053182D01*
X0154044Y0053453D01*
X0153920Y0053722D01*
X0153789Y0053987D01*
X0153651Y0054249D01*
X0153508Y0054508D01*
X0153358Y0054763D01*
X0153201Y0055015D01*
X0153039Y0055262D01*
X0152871Y0055505D01*
X0152696Y0055745D01*
X0152516Y0055980D01*
X0152331Y0056210D01*
X0152139Y0056436D01*
X0151943Y0056657D01*
X0151741Y0056873D01*
X0151533Y0057084D01*
X0151321Y0057290D01*
X0151103Y0057491D01*
X0150881Y0057687D01*
X0150654Y0057877D01*
X0150423Y0058061D01*
X0150187Y0058239D01*
X0149947Y0058412D01*
X0149702Y0058579D01*
X0149454Y0058740D01*
X0149201Y0058895D01*
X0148945Y0059043D01*
X0148686Y0059185D01*
X0148423Y0059321D01*
X0148157Y0059451D01*
X0147888Y0059573D01*
X0147615Y0059690D01*
X0147340Y0059799D01*
X0147063Y0059902D01*
X0146783Y0059998D01*
X0146501Y0060087D01*
X0146216Y0060169D01*
X0145930Y0060244D01*
X0145642Y0060312D01*
X0145353Y0060373D01*
X0145062Y0060427D01*
X0144769Y0060474D01*
X0144476Y0060514D01*
X0144182Y0060546D01*
X0143887Y0060571D01*
X0143592Y0060590D01*
X0143296Y0060600D01*
X0143000Y0060604D01*
X0142704Y0060600D01*
X0142408Y0060590D01*
X0142113Y0060571D01*
X0141818Y0060546D01*
X0141524Y0060514D01*
X0141231Y0060474D01*
X0140938Y0060427D01*
X0140647Y0060373D01*
X0140358Y0060312D01*
X0140070Y0060244D01*
X0139784Y0060169D01*
X0139499Y0060087D01*
X0139217Y0059998D01*
X0138937Y0059902D01*
X0138660Y0059799D01*
X0138385Y0059690D01*
X0138112Y0059573D01*
X0137843Y0059451D01*
X0137577Y0059321D01*
X0137314Y0059185D01*
X0137055Y0059043D01*
X0136799Y0058895D01*
X0136546Y0058740D01*
X0136298Y0058579D01*
X0136053Y0058412D01*
X0135813Y0058239D01*
X0135577Y0058061D01*
X0135346Y0057877D01*
X0135119Y0057687D01*
X0134897Y0057491D01*
X0134679Y0057290D01*
X0134467Y0057084D01*
X0134259Y0056873D01*
X0134057Y0056657D01*
X0133861Y0056436D01*
X0133669Y0056210D01*
X0133484Y0055980D01*
X0133304Y0055745D01*
X0133129Y0055505D01*
X0132961Y0055262D01*
X0132799Y0055015D01*
X0132642Y0054763D01*
X0132492Y0054508D01*
X0132349Y0054249D01*
X0132211Y0053987D01*
X0132080Y0053722D01*
X0131956Y0053453D01*
X0131838Y0053182D01*
X0131727Y0052908D01*
X0131623Y0052631D01*
X0131525Y0052351D01*
X0131434Y0052070D01*
X0131351Y0051786D01*
X0131274Y0051500D01*
X0131204Y0051212D01*
X0131141Y0050923D01*
X0131085Y0050633D01*
X0131037Y0050341D01*
X0130995Y0050048D01*
X0130961Y0049754D01*
X0130934Y0049459D01*
X0130914Y0049164D01*
X0130902Y0048868D01*
X0130896Y0048572D01*
X0130898Y0048276D01*
X0130907Y0047980D01*
X0130923Y0047685D01*
X0130947Y0047390D01*
X0130978Y0047096D01*
X0131016Y0046802D01*
X0131061Y0046510D01*
X0131113Y0046218D01*
X0131172Y0045928D01*
X0131239Y0045640D01*
X0131312Y0045353D01*
X0131393Y0045068D01*
X0131480Y0044786D01*
X0131574Y0044505D01*
X0131675Y0044227D01*
X0131783Y0043951D01*
X0131898Y0043679D01*
X0132019Y0043409D01*
X0132147Y0043142D01*
X0132281Y0042878D01*
X0132422Y0042617D01*
X0132569Y0042361D01*
X0132722Y0042107D01*
X0132881Y0041858D01*
X0133047Y0041613D01*
X0133218Y0041371D01*
X0133395Y0041134D01*
X0133578Y0040902D01*
X0133767Y0040674D01*
X0133961Y0040450D01*
X0134160Y0040232D01*
X0134365Y0040018D01*
X0134575Y0039809D01*
X0134790Y0039606D01*
X0135010Y0039408D01*
X0135235Y0039215D01*
X0135464Y0039028D01*
X0135698Y0038847D01*
X0135191Y0033829D02*
X0135731Y0033109D01*
X0135730Y0033110D02*
X0135497Y0032929D01*
X0135269Y0032743D01*
X0135045Y0032551D01*
X0134826Y0032354D01*
X0134612Y0032152D01*
X0134403Y0031944D01*
X0134200Y0031731D01*
X0134001Y0031514D01*
X0133808Y0031291D01*
X0133620Y0031064D01*
X0133438Y0030833D01*
X0133261Y0030597D01*
X0133091Y0030356D01*
X0132926Y0030112D01*
X0132768Y0029864D01*
X0132615Y0029612D01*
X0132469Y0029356D01*
X0132329Y0029097D01*
X0132195Y0028834D01*
X0132068Y0028569D01*
X0131947Y0028300D01*
X0131833Y0028028D01*
X0131726Y0027754D01*
X0131625Y0027477D01*
X0131531Y0027198D01*
X0131444Y0026916D01*
X0131364Y0026633D01*
X0131291Y0026347D01*
X0131225Y0026060D01*
X0131166Y0025771D01*
X0131114Y0025481D01*
X0131069Y0025190D01*
X0131031Y0024898D01*
X0131001Y0024605D01*
X0130977Y0024311D01*
X0130961Y0024017D01*
X0130952Y0023723D01*
X0130950Y0023428D01*
X0130956Y0023133D01*
X0130968Y0022839D01*
X0130988Y0022545D01*
X0131015Y0022252D01*
X0131049Y0021959D01*
X0131090Y0021667D01*
X0131139Y0021377D01*
X0131194Y0021087D01*
X0131256Y0020800D01*
X0131326Y0020513D01*
X0131403Y0020229D01*
X0131486Y0019946D01*
X0131576Y0019666D01*
X0131673Y0019388D01*
X0131777Y0019112D01*
X0131888Y0018839D01*
X0132005Y0018569D01*
X0132129Y0018301D01*
X0132259Y0018037D01*
X0132396Y0017776D01*
X0132539Y0017519D01*
X0132689Y0017265D01*
X0132844Y0017014D01*
X0133006Y0016768D01*
X0133173Y0016526D01*
X0133347Y0016288D01*
X0133526Y0016054D01*
X0133711Y0015824D01*
X0133901Y0015600D01*
X0134097Y0015379D01*
X0134298Y0015164D01*
X0134505Y0014954D01*
X0134716Y0014749D01*
X0134933Y0014549D01*
X0135154Y0014354D01*
X0135380Y0014165D01*
X0135610Y0013982D01*
X0135845Y0013804D01*
X0136085Y0013632D01*
X0136328Y0013466D01*
X0136575Y0013306D01*
X0136826Y0013152D01*
X0137081Y0013004D01*
X0137340Y0012862D01*
X0137601Y0012727D01*
X0137866Y0012598D01*
X0138134Y0012476D01*
X0138405Y0012360D01*
X0138679Y0012251D01*
X0138955Y0012149D01*
X0139234Y0012054D01*
X0139515Y0011965D01*
X0139798Y0011883D01*
X0140083Y0011808D01*
X0140370Y0011741D01*
X0140658Y0011680D01*
X0140948Y0011626D01*
X0141239Y0011579D01*
X0141531Y0011540D01*
X0141823Y0011508D01*
X0142117Y0011482D01*
X0142411Y0011464D01*
X0142705Y0011454D01*
X0143000Y0011450D01*
X0143295Y0011454D01*
X0143589Y0011464D01*
X0143883Y0011482D01*
X0144177Y0011508D01*
X0144469Y0011540D01*
X0144761Y0011579D01*
X0145052Y0011626D01*
X0145342Y0011680D01*
X0145630Y0011741D01*
X0145917Y0011808D01*
X0146202Y0011883D01*
X0146485Y0011965D01*
X0146766Y0012054D01*
X0147045Y0012149D01*
X0147321Y0012251D01*
X0147595Y0012360D01*
X0147866Y0012476D01*
X0148134Y0012598D01*
X0148399Y0012727D01*
X0148660Y0012862D01*
X0148919Y0013004D01*
X0149174Y0013152D01*
X0149425Y0013306D01*
X0149672Y0013466D01*
X0149915Y0013632D01*
X0150155Y0013804D01*
X0150390Y0013982D01*
X0150620Y0014165D01*
X0150846Y0014354D01*
X0151067Y0014549D01*
X0151284Y0014749D01*
X0151495Y0014954D01*
X0151702Y0015164D01*
X0151903Y0015379D01*
X0152099Y0015600D01*
X0152289Y0015824D01*
X0152474Y0016054D01*
X0152653Y0016288D01*
X0152827Y0016526D01*
X0152994Y0016768D01*
X0153156Y0017014D01*
X0153311Y0017265D01*
X0153461Y0017519D01*
X0153604Y0017776D01*
X0153741Y0018037D01*
X0153871Y0018301D01*
X0153995Y0018569D01*
X0154112Y0018839D01*
X0154223Y0019112D01*
X0154327Y0019388D01*
X0154424Y0019666D01*
X0154514Y0019946D01*
X0154597Y0020229D01*
X0154674Y0020513D01*
X0154744Y0020800D01*
X0154806Y0021087D01*
X0154861Y0021377D01*
X0154910Y0021667D01*
X0154951Y0021959D01*
X0154985Y0022252D01*
X0155012Y0022545D01*
X0155032Y0022839D01*
X0155044Y0023133D01*
X0155050Y0023428D01*
X0155048Y0023723D01*
X0155039Y0024017D01*
X0155023Y0024311D01*
X0154999Y0024605D01*
X0154969Y0024898D01*
X0154931Y0025190D01*
X0154886Y0025481D01*
X0154834Y0025771D01*
X0154775Y0026060D01*
X0154709Y0026347D01*
X0154636Y0026633D01*
X0154556Y0026916D01*
X0154469Y0027198D01*
X0154375Y0027477D01*
X0154274Y0027754D01*
X0154167Y0028028D01*
X0154053Y0028300D01*
X0153932Y0028569D01*
X0153805Y0028834D01*
X0153671Y0029097D01*
X0153531Y0029356D01*
X0153385Y0029612D01*
X0153232Y0029864D01*
X0153074Y0030112D01*
X0152909Y0030356D01*
X0152739Y0030597D01*
X0152562Y0030833D01*
X0152380Y0031064D01*
X0152192Y0031291D01*
X0151999Y0031514D01*
X0151800Y0031731D01*
X0151597Y0031944D01*
X0151388Y0032152D01*
X0151174Y0032354D01*
X0150955Y0032551D01*
X0150731Y0032743D01*
X0150503Y0032929D01*
X0150270Y0033110D01*
X0150809Y0033829D01*
X0150810Y0033830D01*
X0151060Y0033636D01*
X0151306Y0033436D01*
X0151546Y0033230D01*
X0151781Y0033018D01*
X0152011Y0032800D01*
X0152236Y0032577D01*
X0152455Y0032349D01*
X0152669Y0032115D01*
X0152877Y0031876D01*
X0153079Y0031632D01*
X0153274Y0031383D01*
X0153464Y0031129D01*
X0153647Y0030871D01*
X0153824Y0030609D01*
X0153995Y0030342D01*
X0154159Y0030071D01*
X0154316Y0029796D01*
X0154467Y0029518D01*
X0154611Y0029235D01*
X0154747Y0028950D01*
X0154877Y0028661D01*
X0155000Y0028369D01*
X0155115Y0028074D01*
X0155223Y0027777D01*
X0155324Y0027476D01*
X0155418Y0027174D01*
X0155504Y0026869D01*
X0155583Y0026562D01*
X0155654Y0026254D01*
X0155717Y0025944D01*
X0155773Y0025632D01*
X0155822Y0025319D01*
X0155862Y0025005D01*
X0155895Y0024690D01*
X0155920Y0024374D01*
X0155938Y0024058D01*
X0155948Y0023742D01*
X0155950Y0023425D01*
X0155944Y0023108D01*
X0155931Y0022792D01*
X0155909Y0022476D01*
X0155881Y0022161D01*
X0155844Y0021846D01*
X0155800Y0021533D01*
X0155748Y0021220D01*
X0155688Y0020909D01*
X0155621Y0020600D01*
X0155546Y0020292D01*
X0155464Y0019986D01*
X0155375Y0019683D01*
X0155278Y0019381D01*
X0155173Y0019082D01*
X0155061Y0018786D01*
X0154943Y0018492D01*
X0154817Y0018202D01*
X0154684Y0017915D01*
X0154543Y0017630D01*
X0154396Y0017350D01*
X0154243Y0017073D01*
X0154082Y0016800D01*
X0153915Y0016531D01*
X0153741Y0016266D01*
X0153561Y0016006D01*
X0153375Y0015750D01*
X0153182Y0015499D01*
X0152984Y0015252D01*
X0152779Y0015010D01*
X0152569Y0014774D01*
X0152352Y0014542D01*
X0152130Y0014317D01*
X0151903Y0014096D01*
X0151671Y0013881D01*
X0151433Y0013672D01*
X0151190Y0013469D01*
X0150942Y0013271D01*
X0150690Y0013080D01*
X0150433Y0012895D01*
X0150171Y0012717D01*
X0149905Y0012545D01*
X0149636Y0012379D01*
X0149362Y0012220D01*
X0149084Y0012068D01*
X0148803Y0011923D01*
X0148518Y0011784D01*
X0148230Y0011653D01*
X0147938Y0011529D01*
X0147644Y0011411D01*
X0147347Y0011301D01*
X0147048Y0011199D01*
X0146746Y0011104D01*
X0146442Y0011016D01*
X0146135Y0010935D01*
X0145827Y0010862D01*
X0145517Y0010797D01*
X0145206Y0010739D01*
X0144893Y0010689D01*
X0144579Y0010647D01*
X0144265Y0010612D01*
X0143949Y0010585D01*
X0143633Y0010565D01*
X0143317Y0010554D01*
X0143000Y0010550D01*
X0142683Y0010554D01*
X0142367Y0010565D01*
X0142051Y0010585D01*
X0141735Y0010612D01*
X0141421Y0010647D01*
X0141107Y0010689D01*
X0140794Y0010739D01*
X0140483Y0010797D01*
X0140173Y0010862D01*
X0139865Y0010935D01*
X0139558Y0011016D01*
X0139254Y0011104D01*
X0138952Y0011199D01*
X0138653Y0011301D01*
X0138356Y0011411D01*
X0138062Y0011529D01*
X0137770Y0011653D01*
X0137482Y0011784D01*
X0137197Y0011923D01*
X0136916Y0012068D01*
X0136638Y0012220D01*
X0136364Y0012379D01*
X0136095Y0012545D01*
X0135829Y0012717D01*
X0135567Y0012895D01*
X0135310Y0013080D01*
X0135058Y0013271D01*
X0134810Y0013469D01*
X0134567Y0013672D01*
X0134329Y0013881D01*
X0134097Y0014096D01*
X0133870Y0014317D01*
X0133648Y0014542D01*
X0133431Y0014774D01*
X0133221Y0015010D01*
X0133016Y0015252D01*
X0132818Y0015499D01*
X0132625Y0015750D01*
X0132439Y0016006D01*
X0132259Y0016266D01*
X0132085Y0016531D01*
X0131918Y0016800D01*
X0131757Y0017073D01*
X0131604Y0017350D01*
X0131457Y0017630D01*
X0131316Y0017915D01*
X0131183Y0018202D01*
X0131057Y0018492D01*
X0130939Y0018786D01*
X0130827Y0019082D01*
X0130722Y0019381D01*
X0130625Y0019683D01*
X0130536Y0019986D01*
X0130454Y0020292D01*
X0130379Y0020600D01*
X0130312Y0020909D01*
X0130252Y0021220D01*
X0130200Y0021533D01*
X0130156Y0021846D01*
X0130119Y0022161D01*
X0130091Y0022476D01*
X0130069Y0022792D01*
X0130056Y0023108D01*
X0130050Y0023425D01*
X0130052Y0023742D01*
X0130062Y0024058D01*
X0130080Y0024374D01*
X0130105Y0024690D01*
X0130138Y0025005D01*
X0130178Y0025319D01*
X0130227Y0025632D01*
X0130283Y0025944D01*
X0130346Y0026254D01*
X0130417Y0026562D01*
X0130496Y0026869D01*
X0130582Y0027174D01*
X0130676Y0027476D01*
X0130777Y0027777D01*
X0130885Y0028074D01*
X0131000Y0028369D01*
X0131123Y0028661D01*
X0131253Y0028950D01*
X0131389Y0029235D01*
X0131533Y0029518D01*
X0131684Y0029796D01*
X0131841Y0030071D01*
X0132005Y0030342D01*
X0132176Y0030609D01*
X0132353Y0030871D01*
X0132536Y0031129D01*
X0132726Y0031383D01*
X0132921Y0031632D01*
X0133123Y0031876D01*
X0133331Y0032115D01*
X0133545Y0032349D01*
X0133764Y0032577D01*
X0133989Y0032800D01*
X0134219Y0033018D01*
X0134454Y0033230D01*
X0134694Y0033436D01*
X0134940Y0033636D01*
X0135190Y0033830D01*
X0135246Y0033755D01*
X0134998Y0033562D01*
X0134754Y0033363D01*
X0134516Y0033159D01*
X0134282Y0032949D01*
X0134054Y0032733D01*
X0133831Y0032511D01*
X0133613Y0032284D01*
X0133401Y0032052D01*
X0133195Y0031815D01*
X0132994Y0031573D01*
X0132800Y0031325D01*
X0132612Y0031074D01*
X0132430Y0030817D01*
X0132254Y0030557D01*
X0132085Y0030292D01*
X0131922Y0030023D01*
X0131766Y0029750D01*
X0131616Y0029474D01*
X0131474Y0029194D01*
X0131338Y0028910D01*
X0131209Y0028623D01*
X0131087Y0028333D01*
X0130973Y0028041D01*
X0130865Y0027745D01*
X0130765Y0027447D01*
X0130672Y0027147D01*
X0130587Y0026844D01*
X0130509Y0026540D01*
X0130438Y0026234D01*
X0130375Y0025926D01*
X0130319Y0025616D01*
X0130271Y0025306D01*
X0130231Y0024994D01*
X0130198Y0024681D01*
X0130173Y0024368D01*
X0130156Y0024054D01*
X0130146Y0023740D01*
X0130144Y0023425D01*
X0130150Y0023111D01*
X0130163Y0022797D01*
X0130184Y0022483D01*
X0130213Y0022170D01*
X0130249Y0021858D01*
X0130293Y0021547D01*
X0130345Y0021237D01*
X0130404Y0020928D01*
X0130471Y0020621D01*
X0130545Y0020315D01*
X0130626Y0020012D01*
X0130715Y0019710D01*
X0130812Y0019411D01*
X0130915Y0019114D01*
X0131026Y0018820D01*
X0131144Y0018529D01*
X0131269Y0018240D01*
X0131401Y0017955D01*
X0131540Y0017673D01*
X0131686Y0017395D01*
X0131839Y0017120D01*
X0131998Y0016849D01*
X0132164Y0016582D01*
X0132337Y0016319D01*
X0132515Y0016060D01*
X0132700Y0015806D01*
X0132892Y0015557D01*
X0133089Y0015312D01*
X0133292Y0015072D01*
X0133501Y0014837D01*
X0133716Y0014607D01*
X0133936Y0014383D01*
X0134161Y0014164D01*
X0134392Y0013951D01*
X0134628Y0013743D01*
X0134870Y0013541D01*
X0135115Y0013346D01*
X0135366Y0013156D01*
X0135621Y0012972D01*
X0135881Y0012795D01*
X0136145Y0012624D01*
X0136413Y0012460D01*
X0136685Y0012302D01*
X0136960Y0012151D01*
X0137240Y0012007D01*
X0137522Y0011869D01*
X0137808Y0011739D01*
X0138097Y0011615D01*
X0138390Y0011499D01*
X0138684Y0011390D01*
X0138982Y0011288D01*
X0139281Y0011194D01*
X0139584Y0011106D01*
X0139888Y0011026D01*
X0140193Y0010954D01*
X0140501Y0010889D01*
X0140810Y0010832D01*
X0141121Y0010782D01*
X0141432Y0010740D01*
X0141745Y0010705D01*
X0142058Y0010679D01*
X0142372Y0010659D01*
X0142686Y0010648D01*
X0143000Y0010644D01*
X0143314Y0010648D01*
X0143628Y0010659D01*
X0143942Y0010679D01*
X0144255Y0010705D01*
X0144568Y0010740D01*
X0144879Y0010782D01*
X0145190Y0010832D01*
X0145499Y0010889D01*
X0145807Y0010954D01*
X0146112Y0011026D01*
X0146416Y0011106D01*
X0146719Y0011194D01*
X0147018Y0011288D01*
X0147316Y0011390D01*
X0147610Y0011499D01*
X0147903Y0011615D01*
X0148192Y0011739D01*
X0148478Y0011869D01*
X0148760Y0012007D01*
X0149040Y0012151D01*
X0149315Y0012302D01*
X0149587Y0012460D01*
X0149855Y0012624D01*
X0150119Y0012795D01*
X0150379Y0012972D01*
X0150634Y0013156D01*
X0150885Y0013346D01*
X0151130Y0013541D01*
X0151372Y0013743D01*
X0151608Y0013951D01*
X0151839Y0014164D01*
X0152064Y0014383D01*
X0152284Y0014607D01*
X0152499Y0014837D01*
X0152708Y0015072D01*
X0152911Y0015312D01*
X0153108Y0015557D01*
X0153300Y0015806D01*
X0153485Y0016060D01*
X0153663Y0016319D01*
X0153836Y0016582D01*
X0154002Y0016849D01*
X0154161Y0017120D01*
X0154314Y0017395D01*
X0154460Y0017673D01*
X0154599Y0017955D01*
X0154731Y0018240D01*
X0154856Y0018529D01*
X0154974Y0018820D01*
X0155085Y0019114D01*
X0155188Y0019411D01*
X0155285Y0019710D01*
X0155374Y0020012D01*
X0155455Y0020315D01*
X0155529Y0020621D01*
X0155596Y0020928D01*
X0155655Y0021237D01*
X0155707Y0021547D01*
X0155751Y0021858D01*
X0155787Y0022170D01*
X0155816Y0022483D01*
X0155837Y0022797D01*
X0155850Y0023111D01*
X0155856Y0023425D01*
X0155854Y0023740D01*
X0155844Y0024054D01*
X0155827Y0024368D01*
X0155802Y0024681D01*
X0155769Y0024994D01*
X0155729Y0025306D01*
X0155681Y0025616D01*
X0155625Y0025926D01*
X0155562Y0026234D01*
X0155491Y0026540D01*
X0155413Y0026844D01*
X0155328Y0027147D01*
X0155235Y0027447D01*
X0155135Y0027745D01*
X0155027Y0028041D01*
X0154913Y0028333D01*
X0154791Y0028623D01*
X0154662Y0028910D01*
X0154526Y0029194D01*
X0154384Y0029474D01*
X0154234Y0029750D01*
X0154078Y0030023D01*
X0153915Y0030292D01*
X0153746Y0030557D01*
X0153570Y0030817D01*
X0153388Y0031074D01*
X0153200Y0031325D01*
X0153006Y0031573D01*
X0152805Y0031815D01*
X0152599Y0032052D01*
X0152387Y0032284D01*
X0152169Y0032511D01*
X0151946Y0032733D01*
X0151718Y0032949D01*
X0151484Y0033159D01*
X0151246Y0033363D01*
X0151002Y0033562D01*
X0150754Y0033755D01*
X0150697Y0033680D01*
X0150944Y0033488D01*
X0151186Y0033291D01*
X0151423Y0033088D01*
X0151654Y0032879D01*
X0151881Y0032665D01*
X0152103Y0032445D01*
X0152319Y0032220D01*
X0152529Y0031989D01*
X0152734Y0031754D01*
X0152933Y0031513D01*
X0153126Y0031268D01*
X0153312Y0031018D01*
X0153493Y0030764D01*
X0153668Y0030505D01*
X0153836Y0030242D01*
X0153997Y0029975D01*
X0154152Y0029704D01*
X0154301Y0029430D01*
X0154442Y0029152D01*
X0154577Y0028870D01*
X0154705Y0028586D01*
X0154826Y0028298D01*
X0154940Y0028007D01*
X0155046Y0027714D01*
X0155146Y0027418D01*
X0155238Y0027120D01*
X0155323Y0026820D01*
X0155400Y0026517D01*
X0155470Y0026213D01*
X0155533Y0025908D01*
X0155588Y0025601D01*
X0155636Y0025292D01*
X0155676Y0024983D01*
X0155708Y0024672D01*
X0155733Y0024361D01*
X0155750Y0024050D01*
X0155760Y0023738D01*
X0155762Y0023426D01*
X0155756Y0023114D01*
X0155743Y0022802D01*
X0155722Y0022491D01*
X0155694Y0022180D01*
X0155657Y0021870D01*
X0155614Y0021561D01*
X0155563Y0021253D01*
X0155504Y0020946D01*
X0155438Y0020642D01*
X0155364Y0020338D01*
X0155283Y0020037D01*
X0155195Y0019738D01*
X0155099Y0019441D01*
X0154996Y0019146D01*
X0154886Y0018854D01*
X0154769Y0018565D01*
X0154645Y0018278D01*
X0154514Y0017995D01*
X0154376Y0017715D01*
X0154231Y0017439D01*
X0154079Y0017166D01*
X0153921Y0016897D01*
X0153756Y0016632D01*
X0153585Y0016371D01*
X0153408Y0016115D01*
X0153224Y0015862D01*
X0153034Y0015615D01*
X0152839Y0015372D01*
X0152637Y0015133D01*
X0152429Y0014900D01*
X0152216Y0014672D01*
X0151998Y0014450D01*
X0151774Y0014232D01*
X0151545Y0014021D01*
X0151310Y0013815D01*
X0151071Y0013614D01*
X0150827Y0013420D01*
X0150578Y0013232D01*
X0150325Y0013049D01*
X0150067Y0012873D01*
X0149805Y0012704D01*
X0149539Y0012541D01*
X0149269Y0012384D01*
X0148995Y0012234D01*
X0148718Y0012091D01*
X0148438Y0011954D01*
X0148154Y0011825D01*
X0147867Y0011702D01*
X0147577Y0011587D01*
X0147284Y0011479D01*
X0146989Y0011377D01*
X0146691Y0011283D01*
X0146391Y0011197D01*
X0146090Y0011118D01*
X0145786Y0011046D01*
X0145481Y0010981D01*
X0145174Y0010924D01*
X0144866Y0010875D01*
X0144556Y0010833D01*
X0144246Y0010799D01*
X0143935Y0010772D01*
X0143624Y0010753D01*
X0143312Y0010742D01*
X0143000Y0010738D01*
X0142688Y0010742D01*
X0142376Y0010753D01*
X0142065Y0010772D01*
X0141754Y0010799D01*
X0141444Y0010833D01*
X0141134Y0010875D01*
X0140826Y0010924D01*
X0140519Y0010981D01*
X0140214Y0011046D01*
X0139910Y0011118D01*
X0139609Y0011197D01*
X0139309Y0011283D01*
X0139011Y0011377D01*
X0138716Y0011479D01*
X0138423Y0011587D01*
X0138133Y0011702D01*
X0137846Y0011825D01*
X0137562Y0011954D01*
X0137282Y0012091D01*
X0137005Y0012234D01*
X0136731Y0012384D01*
X0136461Y0012541D01*
X0136195Y0012704D01*
X0135933Y0012873D01*
X0135675Y0013049D01*
X0135422Y0013232D01*
X0135173Y0013420D01*
X0134929Y0013614D01*
X0134690Y0013815D01*
X0134455Y0014021D01*
X0134226Y0014232D01*
X0134002Y0014450D01*
X0133784Y0014672D01*
X0133571Y0014900D01*
X0133363Y0015133D01*
X0133161Y0015372D01*
X0132966Y0015615D01*
X0132776Y0015862D01*
X0132592Y0016115D01*
X0132415Y0016371D01*
X0132244Y0016632D01*
X0132079Y0016897D01*
X0131921Y0017166D01*
X0131769Y0017439D01*
X0131624Y0017715D01*
X0131486Y0017995D01*
X0131355Y0018278D01*
X0131231Y0018565D01*
X0131114Y0018854D01*
X0131004Y0019146D01*
X0130901Y0019441D01*
X0130805Y0019738D01*
X0130717Y0020037D01*
X0130636Y0020338D01*
X0130562Y0020642D01*
X0130496Y0020946D01*
X0130437Y0021253D01*
X0130386Y0021561D01*
X0130343Y0021870D01*
X0130306Y0022180D01*
X0130278Y0022491D01*
X0130257Y0022802D01*
X0130244Y0023114D01*
X0130238Y0023426D01*
X0130240Y0023738D01*
X0130250Y0024050D01*
X0130267Y0024361D01*
X0130292Y0024672D01*
X0130324Y0024983D01*
X0130364Y0025292D01*
X0130412Y0025601D01*
X0130467Y0025908D01*
X0130530Y0026213D01*
X0130600Y0026517D01*
X0130677Y0026820D01*
X0130762Y0027120D01*
X0130854Y0027418D01*
X0130954Y0027714D01*
X0131060Y0028007D01*
X0131174Y0028298D01*
X0131295Y0028586D01*
X0131423Y0028870D01*
X0131558Y0029152D01*
X0131699Y0029430D01*
X0131848Y0029704D01*
X0132003Y0029975D01*
X0132164Y0030242D01*
X0132332Y0030505D01*
X0132507Y0030764D01*
X0132688Y0031018D01*
X0132874Y0031268D01*
X0133067Y0031513D01*
X0133266Y0031754D01*
X0133471Y0031989D01*
X0133681Y0032220D01*
X0133897Y0032445D01*
X0134119Y0032665D01*
X0134346Y0032879D01*
X0134577Y0033088D01*
X0134814Y0033291D01*
X0135056Y0033488D01*
X0135303Y0033680D01*
X0135359Y0033604D01*
X0135114Y0033414D01*
X0134874Y0033219D01*
X0134639Y0033017D01*
X0134409Y0032810D01*
X0134184Y0032597D01*
X0133964Y0032379D01*
X0133750Y0032155D01*
X0133541Y0031926D01*
X0133338Y0031693D01*
X0133140Y0031454D01*
X0132949Y0031211D01*
X0132763Y0030962D01*
X0132584Y0030710D01*
X0132411Y0030453D01*
X0132244Y0030192D01*
X0132083Y0029927D01*
X0131930Y0029658D01*
X0131782Y0029386D01*
X0131642Y0029110D01*
X0131508Y0028830D01*
X0131381Y0028548D01*
X0131261Y0028262D01*
X0131148Y0027974D01*
X0131042Y0027683D01*
X0130944Y0027389D01*
X0130852Y0027093D01*
X0130768Y0026795D01*
X0130691Y0026495D01*
X0130622Y0026193D01*
X0130559Y0025890D01*
X0130505Y0025585D01*
X0130457Y0025279D01*
X0130418Y0024971D01*
X0130386Y0024663D01*
X0130361Y0024355D01*
X0130344Y0024045D01*
X0130334Y0023736D01*
X0130332Y0023426D01*
X0130338Y0023116D01*
X0130351Y0022807D01*
X0130372Y0022498D01*
X0130400Y0022189D01*
X0130436Y0021882D01*
X0130479Y0021575D01*
X0130530Y0021269D01*
X0130588Y0020965D01*
X0130654Y0020662D01*
X0130727Y0020361D01*
X0130807Y0020062D01*
X0130895Y0019765D01*
X0130990Y0019470D01*
X0131092Y0019178D01*
X0131201Y0018888D01*
X0131318Y0018601D01*
X0131441Y0018317D01*
X0131571Y0018036D01*
X0131708Y0017758D01*
X0131852Y0017484D01*
X0132002Y0017213D01*
X0132159Y0016946D01*
X0132323Y0016683D01*
X0132493Y0016424D01*
X0132669Y0016169D01*
X0132851Y0015918D01*
X0133040Y0015673D01*
X0133234Y0015431D01*
X0133434Y0015195D01*
X0133640Y0014964D01*
X0133852Y0014737D01*
X0134069Y0014516D01*
X0134291Y0014301D01*
X0134518Y0014090D01*
X0134751Y0013886D01*
X0134989Y0013687D01*
X0135231Y0013494D01*
X0135478Y0013307D01*
X0135729Y0013126D01*
X0135985Y0012952D01*
X0136245Y0012783D01*
X0136509Y0012621D01*
X0136777Y0012466D01*
X0137049Y0012317D01*
X0137324Y0012175D01*
X0137603Y0012039D01*
X0137884Y0011911D01*
X0138169Y0011789D01*
X0138457Y0011675D01*
X0138748Y0011567D01*
X0139041Y0011467D01*
X0139336Y0011373D01*
X0139634Y0011287D01*
X0139933Y0011209D01*
X0140235Y0011138D01*
X0140538Y0011074D01*
X0140842Y0011017D01*
X0141148Y0010968D01*
X0141455Y0010927D01*
X0141763Y0010893D01*
X0142072Y0010866D01*
X0142381Y0010847D01*
X0142690Y0010836D01*
X0143000Y0010832D01*
X0143310Y0010836D01*
X0143619Y0010847D01*
X0143928Y0010866D01*
X0144237Y0010893D01*
X0144545Y0010927D01*
X0144852Y0010968D01*
X0145158Y0011017D01*
X0145462Y0011074D01*
X0145765Y0011138D01*
X0146067Y0011209D01*
X0146366Y0011287D01*
X0146664Y0011373D01*
X0146959Y0011467D01*
X0147252Y0011567D01*
X0147543Y0011675D01*
X0147831Y0011789D01*
X0148116Y0011911D01*
X0148397Y0012039D01*
X0148676Y0012175D01*
X0148951Y0012317D01*
X0149223Y0012466D01*
X0149491Y0012621D01*
X0149755Y0012783D01*
X0150015Y0012952D01*
X0150271Y0013126D01*
X0150522Y0013307D01*
X0150769Y0013494D01*
X0151011Y0013687D01*
X0151249Y0013886D01*
X0151482Y0014090D01*
X0151709Y0014301D01*
X0151931Y0014516D01*
X0152148Y0014737D01*
X0152360Y0014964D01*
X0152566Y0015195D01*
X0152766Y0015431D01*
X0152960Y0015673D01*
X0153149Y0015918D01*
X0153331Y0016169D01*
X0153507Y0016424D01*
X0153677Y0016683D01*
X0153841Y0016946D01*
X0153998Y0017213D01*
X0154148Y0017484D01*
X0154292Y0017758D01*
X0154429Y0018036D01*
X0154559Y0018317D01*
X0154682Y0018601D01*
X0154799Y0018888D01*
X0154908Y0019178D01*
X0155010Y0019470D01*
X0155105Y0019765D01*
X0155193Y0020062D01*
X0155273Y0020361D01*
X0155346Y0020662D01*
X0155412Y0020965D01*
X0155470Y0021269D01*
X0155521Y0021575D01*
X0155564Y0021882D01*
X0155600Y0022189D01*
X0155628Y0022498D01*
X0155649Y0022807D01*
X0155662Y0023116D01*
X0155668Y0023426D01*
X0155666Y0023736D01*
X0155656Y0024045D01*
X0155639Y0024355D01*
X0155614Y0024663D01*
X0155582Y0024971D01*
X0155543Y0025279D01*
X0155495Y0025585D01*
X0155441Y0025890D01*
X0155378Y0026193D01*
X0155309Y0026495D01*
X0155232Y0026795D01*
X0155148Y0027093D01*
X0155056Y0027389D01*
X0154958Y0027683D01*
X0154852Y0027974D01*
X0154739Y0028262D01*
X0154619Y0028548D01*
X0154492Y0028830D01*
X0154358Y0029110D01*
X0154218Y0029386D01*
X0154070Y0029658D01*
X0153917Y0029927D01*
X0153756Y0030192D01*
X0153589Y0030453D01*
X0153416Y0030710D01*
X0153237Y0030962D01*
X0153051Y0031211D01*
X0152860Y0031454D01*
X0152662Y0031693D01*
X0152459Y0031926D01*
X0152250Y0032155D01*
X0152036Y0032379D01*
X0151816Y0032597D01*
X0151591Y0032810D01*
X0151361Y0033017D01*
X0151126Y0033219D01*
X0150886Y0033414D01*
X0150641Y0033604D01*
X0150584Y0033529D01*
X0150827Y0033341D01*
X0151066Y0033146D01*
X0151299Y0032946D01*
X0151527Y0032741D01*
X0151751Y0032529D01*
X0151969Y0032313D01*
X0152182Y0032091D01*
X0152389Y0031864D01*
X0152591Y0031632D01*
X0152787Y0031395D01*
X0152977Y0031153D01*
X0153161Y0030907D01*
X0153339Y0030656D01*
X0153511Y0030401D01*
X0153676Y0030142D01*
X0153836Y0029879D01*
X0153988Y0029612D01*
X0154135Y0029342D01*
X0154274Y0029068D01*
X0154407Y0028791D01*
X0154533Y0028510D01*
X0154652Y0028227D01*
X0154764Y0027940D01*
X0154869Y0027651D01*
X0154967Y0027360D01*
X0155058Y0027066D01*
X0155141Y0026770D01*
X0155218Y0026473D01*
X0155287Y0026173D01*
X0155348Y0025872D01*
X0155403Y0025569D01*
X0155449Y0025265D01*
X0155489Y0024960D01*
X0155521Y0024655D01*
X0155545Y0024348D01*
X0155562Y0024041D01*
X0155572Y0023734D01*
X0155574Y0023426D01*
X0155568Y0023119D01*
X0155555Y0022812D01*
X0155535Y0022505D01*
X0155506Y0022199D01*
X0155471Y0021893D01*
X0155428Y0021589D01*
X0155377Y0021286D01*
X0155320Y0020984D01*
X0155254Y0020683D01*
X0155182Y0020384D01*
X0155102Y0020088D01*
X0155015Y0019793D01*
X0154921Y0019500D01*
X0154819Y0019210D01*
X0154711Y0018922D01*
X0154596Y0018637D01*
X0154473Y0018355D01*
X0154344Y0018076D01*
X0154208Y0017800D01*
X0154065Y0017528D01*
X0153916Y0017259D01*
X0153760Y0016994D01*
X0153598Y0016733D01*
X0153429Y0016476D01*
X0153254Y0016223D01*
X0153073Y0015975D01*
X0152886Y0015731D01*
X0152693Y0015491D01*
X0152495Y0015257D01*
X0152290Y0015027D01*
X0152080Y0014802D01*
X0151865Y0014583D01*
X0151644Y0014369D01*
X0151419Y0014160D01*
X0151188Y0013957D01*
X0150952Y0013760D01*
X0150711Y0013568D01*
X0150466Y0013383D01*
X0150217Y0013203D01*
X0149963Y0013030D01*
X0149705Y0012863D01*
X0149443Y0012702D01*
X0149177Y0012548D01*
X0148907Y0012400D01*
X0148634Y0012259D01*
X0148357Y0012124D01*
X0148078Y0011997D01*
X0147795Y0011876D01*
X0147509Y0011762D01*
X0147221Y0011656D01*
X0146930Y0011556D01*
X0146637Y0011463D01*
X0146341Y0011378D01*
X0146044Y0011300D01*
X0145745Y0011229D01*
X0145444Y0011166D01*
X0145142Y0011110D01*
X0144838Y0011061D01*
X0144533Y0011020D01*
X0144228Y0010986D01*
X0143922Y0010960D01*
X0143615Y0010941D01*
X0143307Y0010930D01*
X0143000Y0010926D01*
X0142693Y0010930D01*
X0142385Y0010941D01*
X0142078Y0010960D01*
X0141772Y0010986D01*
X0141467Y0011020D01*
X0141162Y0011061D01*
X0140858Y0011110D01*
X0140556Y0011166D01*
X0140255Y0011229D01*
X0139956Y0011300D01*
X0139659Y0011378D01*
X0139363Y0011463D01*
X0139070Y0011556D01*
X0138779Y0011656D01*
X0138491Y0011762D01*
X0138205Y0011876D01*
X0137922Y0011997D01*
X0137643Y0012124D01*
X0137366Y0012259D01*
X0137093Y0012400D01*
X0136823Y0012548D01*
X0136557Y0012702D01*
X0136295Y0012863D01*
X0136037Y0013030D01*
X0135783Y0013203D01*
X0135534Y0013383D01*
X0135289Y0013568D01*
X0135048Y0013760D01*
X0134812Y0013957D01*
X0134581Y0014160D01*
X0134356Y0014369D01*
X0134135Y0014583D01*
X0133920Y0014802D01*
X0133710Y0015027D01*
X0133505Y0015257D01*
X0133307Y0015491D01*
X0133114Y0015731D01*
X0132927Y0015975D01*
X0132746Y0016223D01*
X0132571Y0016476D01*
X0132402Y0016733D01*
X0132240Y0016994D01*
X0132084Y0017259D01*
X0131935Y0017528D01*
X0131792Y0017800D01*
X0131656Y0018076D01*
X0131527Y0018355D01*
X0131404Y0018637D01*
X0131289Y0018922D01*
X0131181Y0019210D01*
X0131079Y0019500D01*
X0130985Y0019793D01*
X0130898Y0020088D01*
X0130818Y0020384D01*
X0130746Y0020683D01*
X0130680Y0020984D01*
X0130623Y0021286D01*
X0130572Y0021589D01*
X0130529Y0021893D01*
X0130494Y0022199D01*
X0130465Y0022505D01*
X0130445Y0022812D01*
X0130432Y0023119D01*
X0130426Y0023426D01*
X0130428Y0023734D01*
X0130438Y0024041D01*
X0130455Y0024348D01*
X0130479Y0024655D01*
X0130511Y0024960D01*
X0130551Y0025265D01*
X0130597Y0025569D01*
X0130652Y0025872D01*
X0130713Y0026173D01*
X0130782Y0026473D01*
X0130859Y0026770D01*
X0130942Y0027066D01*
X0131033Y0027360D01*
X0131131Y0027651D01*
X0131236Y0027940D01*
X0131348Y0028227D01*
X0131467Y0028510D01*
X0131593Y0028791D01*
X0131726Y0029068D01*
X0131865Y0029342D01*
X0132012Y0029612D01*
X0132164Y0029879D01*
X0132324Y0030142D01*
X0132489Y0030401D01*
X0132661Y0030656D01*
X0132839Y0030907D01*
X0133023Y0031153D01*
X0133213Y0031395D01*
X0133409Y0031632D01*
X0133611Y0031864D01*
X0133818Y0032091D01*
X0134031Y0032313D01*
X0134249Y0032529D01*
X0134473Y0032741D01*
X0134701Y0032946D01*
X0134934Y0033146D01*
X0135173Y0033341D01*
X0135416Y0033529D01*
X0135472Y0033454D01*
X0135231Y0033267D01*
X0134994Y0033074D01*
X0134763Y0032875D01*
X0134536Y0032671D01*
X0134314Y0032462D01*
X0134098Y0032247D01*
X0133887Y0032026D01*
X0133681Y0031801D01*
X0133481Y0031571D01*
X0133286Y0031335D01*
X0133098Y0031096D01*
X0132915Y0030851D01*
X0132738Y0030602D01*
X0132568Y0030349D01*
X0132403Y0030092D01*
X0132245Y0029831D01*
X0132094Y0029566D01*
X0131949Y0029298D01*
X0131810Y0029026D01*
X0131678Y0028751D01*
X0131553Y0028472D01*
X0131435Y0028191D01*
X0131324Y0027907D01*
X0131220Y0027620D01*
X0131122Y0027331D01*
X0131032Y0027039D01*
X0130949Y0026746D01*
X0130874Y0026450D01*
X0130805Y0026153D01*
X0130744Y0025854D01*
X0130690Y0025553D01*
X0130644Y0025252D01*
X0130604Y0024949D01*
X0130573Y0024646D01*
X0130548Y0024341D01*
X0130532Y0024037D01*
X0130522Y0023732D01*
X0130520Y0023427D01*
X0130526Y0023122D01*
X0130539Y0022817D01*
X0130559Y0022512D01*
X0130587Y0022208D01*
X0130622Y0021905D01*
X0130665Y0021603D01*
X0130715Y0021302D01*
X0130772Y0021002D01*
X0130837Y0020704D01*
X0130909Y0020408D01*
X0130988Y0020113D01*
X0131075Y0019820D01*
X0131168Y0019530D01*
X0131269Y0019242D01*
X0131377Y0018956D01*
X0131491Y0018673D01*
X0131613Y0018393D01*
X0131741Y0018116D01*
X0131876Y0017843D01*
X0132017Y0017573D01*
X0132166Y0017306D01*
X0132320Y0017043D01*
X0132481Y0016784D01*
X0132649Y0016528D01*
X0132822Y0016277D01*
X0133002Y0016031D01*
X0133188Y0015789D01*
X0133379Y0015551D01*
X0133576Y0015318D01*
X0133779Y0015090D01*
X0133988Y0014867D01*
X0134201Y0014649D01*
X0134420Y0014437D01*
X0134644Y0014230D01*
X0134874Y0014028D01*
X0135108Y0013832D01*
X0135346Y0013642D01*
X0135590Y0013458D01*
X0135837Y0013280D01*
X0136089Y0013108D01*
X0136346Y0012942D01*
X0136606Y0012783D01*
X0136870Y0012629D01*
X0137137Y0012483D01*
X0137408Y0012343D01*
X0137683Y0012209D01*
X0137960Y0012083D01*
X0138241Y0011963D01*
X0138525Y0011850D01*
X0138811Y0011744D01*
X0139099Y0011645D01*
X0139390Y0011553D01*
X0139684Y0011469D01*
X0139979Y0011391D01*
X0140276Y0011321D01*
X0140574Y0011258D01*
X0140874Y0011202D01*
X0141176Y0011154D01*
X0141478Y0011113D01*
X0141781Y0011080D01*
X0142085Y0011054D01*
X0142390Y0011035D01*
X0142695Y0011024D01*
X0143000Y0011020D01*
X0143305Y0011024D01*
X0143610Y0011035D01*
X0143915Y0011054D01*
X0144219Y0011080D01*
X0144522Y0011113D01*
X0144824Y0011154D01*
X0145126Y0011202D01*
X0145426Y0011258D01*
X0145724Y0011321D01*
X0146021Y0011391D01*
X0146316Y0011469D01*
X0146610Y0011553D01*
X0146901Y0011645D01*
X0147189Y0011744D01*
X0147475Y0011850D01*
X0147759Y0011963D01*
X0148040Y0012083D01*
X0148317Y0012209D01*
X0148592Y0012343D01*
X0148863Y0012483D01*
X0149130Y0012629D01*
X0149394Y0012783D01*
X0149654Y0012942D01*
X0149911Y0013108D01*
X0150163Y0013280D01*
X0150410Y0013458D01*
X0150654Y0013642D01*
X0150892Y0013832D01*
X0151126Y0014028D01*
X0151356Y0014230D01*
X0151580Y0014437D01*
X0151799Y0014649D01*
X0152012Y0014867D01*
X0152221Y0015090D01*
X0152424Y0015318D01*
X0152621Y0015551D01*
X0152812Y0015789D01*
X0152998Y0016031D01*
X0153178Y0016277D01*
X0153351Y0016528D01*
X0153519Y0016784D01*
X0153680Y0017043D01*
X0153834Y0017306D01*
X0153983Y0017573D01*
X0154124Y0017843D01*
X0154259Y0018116D01*
X0154387Y0018393D01*
X0154509Y0018673D01*
X0154623Y0018956D01*
X0154731Y0019242D01*
X0154832Y0019530D01*
X0154925Y0019820D01*
X0155012Y0020113D01*
X0155091Y0020408D01*
X0155163Y0020704D01*
X0155228Y0021002D01*
X0155285Y0021302D01*
X0155335Y0021603D01*
X0155378Y0021905D01*
X0155413Y0022208D01*
X0155441Y0022512D01*
X0155461Y0022817D01*
X0155474Y0023122D01*
X0155480Y0023427D01*
X0155478Y0023732D01*
X0155468Y0024037D01*
X0155452Y0024341D01*
X0155427Y0024646D01*
X0155396Y0024949D01*
X0155356Y0025252D01*
X0155310Y0025553D01*
X0155256Y0025854D01*
X0155195Y0026153D01*
X0155126Y0026450D01*
X0155051Y0026746D01*
X0154968Y0027039D01*
X0154878Y0027331D01*
X0154780Y0027620D01*
X0154676Y0027907D01*
X0154565Y0028191D01*
X0154447Y0028472D01*
X0154322Y0028751D01*
X0154190Y0029026D01*
X0154051Y0029298D01*
X0153906Y0029566D01*
X0153755Y0029831D01*
X0153597Y0030092D01*
X0153432Y0030349D01*
X0153262Y0030602D01*
X0153085Y0030851D01*
X0152902Y0031096D01*
X0152714Y0031335D01*
X0152519Y0031571D01*
X0152319Y0031801D01*
X0152113Y0032026D01*
X0151902Y0032247D01*
X0151686Y0032462D01*
X0151464Y0032671D01*
X0151237Y0032875D01*
X0151006Y0033074D01*
X0150769Y0033267D01*
X0150528Y0033454D01*
X0150472Y0033379D01*
X0150711Y0033193D01*
X0150946Y0033002D01*
X0151175Y0032805D01*
X0151400Y0032602D01*
X0151621Y0032394D01*
X0151835Y0032180D01*
X0152045Y0031962D01*
X0152249Y0031738D01*
X0152448Y0031510D01*
X0152641Y0031276D01*
X0152828Y0031038D01*
X0153009Y0030796D01*
X0153185Y0030549D01*
X0153354Y0030298D01*
X0153517Y0030042D01*
X0153674Y0029783D01*
X0153824Y0029520D01*
X0153968Y0029254D01*
X0154106Y0028984D01*
X0154237Y0028711D01*
X0154361Y0028435D01*
X0154478Y0028155D01*
X0154588Y0027873D01*
X0154692Y0027589D01*
X0154788Y0027302D01*
X0154878Y0027012D01*
X0154960Y0026721D01*
X0155035Y0026428D01*
X0155103Y0026132D01*
X0155164Y0025836D01*
X0155217Y0025538D01*
X0155263Y0025238D01*
X0155302Y0024938D01*
X0155334Y0024637D01*
X0155358Y0024335D01*
X0155375Y0024032D01*
X0155384Y0023730D01*
X0155386Y0023427D01*
X0155380Y0023124D01*
X0155367Y0022822D01*
X0155347Y0022519D01*
X0155319Y0022218D01*
X0155284Y0021917D01*
X0155242Y0021617D01*
X0155192Y0021318D01*
X0155135Y0021021D01*
X0155071Y0020725D01*
X0155000Y0020431D01*
X0154921Y0020138D01*
X0154835Y0019848D01*
X0154742Y0019559D01*
X0154643Y0019274D01*
X0154536Y0018990D01*
X0154422Y0018710D01*
X0154302Y0018432D01*
X0154174Y0018157D01*
X0154040Y0017885D01*
X0153900Y0017617D01*
X0153753Y0017352D01*
X0153599Y0017091D01*
X0153439Y0016834D01*
X0153273Y0016581D01*
X0153101Y0016332D01*
X0152923Y0016087D01*
X0152738Y0015846D01*
X0152548Y0015611D01*
X0152353Y0015380D01*
X0152151Y0015153D01*
X0151945Y0014932D01*
X0151732Y0014716D01*
X0151515Y0014505D01*
X0151293Y0014300D01*
X0151065Y0014100D01*
X0150833Y0013905D01*
X0150596Y0013717D01*
X0150354Y0013534D01*
X0150109Y0013357D01*
X0149858Y0013186D01*
X0149604Y0013022D01*
X0149346Y0012863D01*
X0149084Y0012711D01*
X0148819Y0012566D01*
X0148550Y0012427D01*
X0148277Y0012294D01*
X0148002Y0012169D01*
X0147723Y0012050D01*
X0147442Y0011938D01*
X0147158Y0011833D01*
X0146871Y0011734D01*
X0146582Y0011643D01*
X0146291Y0011559D01*
X0145998Y0011482D01*
X0145704Y0011413D01*
X0145407Y0011350D01*
X0145110Y0011295D01*
X0144811Y0011247D01*
X0144511Y0011206D01*
X0144209Y0011173D01*
X0143908Y0011147D01*
X0143605Y0011129D01*
X0143303Y0011118D01*
X0143000Y0011114D01*
X0142697Y0011118D01*
X0142395Y0011129D01*
X0142092Y0011147D01*
X0141791Y0011173D01*
X0141489Y0011206D01*
X0141189Y0011247D01*
X0140890Y0011295D01*
X0140593Y0011350D01*
X0140296Y0011413D01*
X0140002Y0011482D01*
X0139709Y0011559D01*
X0139418Y0011643D01*
X0139129Y0011734D01*
X0138842Y0011833D01*
X0138558Y0011938D01*
X0138277Y0012050D01*
X0137998Y0012169D01*
X0137723Y0012294D01*
X0137450Y0012427D01*
X0137181Y0012566D01*
X0136916Y0012711D01*
X0136654Y0012863D01*
X0136396Y0013022D01*
X0136142Y0013186D01*
X0135891Y0013357D01*
X0135646Y0013534D01*
X0135404Y0013717D01*
X0135167Y0013905D01*
X0134935Y0014100D01*
X0134707Y0014300D01*
X0134485Y0014505D01*
X0134268Y0014716D01*
X0134055Y0014932D01*
X0133849Y0015153D01*
X0133647Y0015380D01*
X0133452Y0015611D01*
X0133262Y0015846D01*
X0133077Y0016087D01*
X0132899Y0016332D01*
X0132727Y0016581D01*
X0132561Y0016834D01*
X0132401Y0017091D01*
X0132247Y0017352D01*
X0132100Y0017617D01*
X0131960Y0017885D01*
X0131826Y0018157D01*
X0131698Y0018432D01*
X0131578Y0018710D01*
X0131464Y0018990D01*
X0131357Y0019274D01*
X0131258Y0019559D01*
X0131165Y0019848D01*
X0131079Y0020138D01*
X0131000Y0020431D01*
X0130929Y0020725D01*
X0130865Y0021021D01*
X0130808Y0021318D01*
X0130758Y0021617D01*
X0130716Y0021917D01*
X0130681Y0022218D01*
X0130653Y0022519D01*
X0130633Y0022822D01*
X0130620Y0023124D01*
X0130614Y0023427D01*
X0130616Y0023730D01*
X0130625Y0024032D01*
X0130642Y0024335D01*
X0130666Y0024637D01*
X0130698Y0024938D01*
X0130737Y0025238D01*
X0130783Y0025538D01*
X0130836Y0025836D01*
X0130897Y0026132D01*
X0130965Y0026428D01*
X0131040Y0026721D01*
X0131122Y0027012D01*
X0131212Y0027302D01*
X0131308Y0027589D01*
X0131412Y0027873D01*
X0131522Y0028155D01*
X0131639Y0028435D01*
X0131763Y0028711D01*
X0131894Y0028984D01*
X0132032Y0029254D01*
X0132176Y0029520D01*
X0132326Y0029783D01*
X0132483Y0030042D01*
X0132646Y0030298D01*
X0132815Y0030549D01*
X0132991Y0030796D01*
X0133172Y0031038D01*
X0133359Y0031276D01*
X0133552Y0031510D01*
X0133751Y0031738D01*
X0133955Y0031962D01*
X0134165Y0032180D01*
X0134379Y0032394D01*
X0134600Y0032602D01*
X0134825Y0032805D01*
X0135054Y0033002D01*
X0135289Y0033193D01*
X0135528Y0033379D01*
X0135585Y0033304D01*
X0135347Y0033119D01*
X0135115Y0032929D01*
X0134886Y0032734D01*
X0134663Y0032533D01*
X0134445Y0032326D01*
X0134231Y0032114D01*
X0134023Y0031897D01*
X0133821Y0031675D01*
X0133624Y0031448D01*
X0133432Y0031217D01*
X0133246Y0030981D01*
X0133066Y0030740D01*
X0132892Y0030495D01*
X0132724Y0030246D01*
X0132562Y0029992D01*
X0132407Y0029735D01*
X0132258Y0029474D01*
X0132115Y0029210D01*
X0131978Y0028942D01*
X0131849Y0028671D01*
X0131726Y0028397D01*
X0131609Y0028120D01*
X0131500Y0027840D01*
X0131397Y0027557D01*
X0131301Y0027273D01*
X0131213Y0026985D01*
X0131131Y0026696D01*
X0131056Y0026405D01*
X0130989Y0026112D01*
X0130928Y0025818D01*
X0130875Y0025522D01*
X0130830Y0025225D01*
X0130791Y0024927D01*
X0130760Y0024628D01*
X0130736Y0024328D01*
X0130719Y0024028D01*
X0130710Y0023728D01*
X0130708Y0023427D01*
X0130714Y0023127D01*
X0130726Y0022826D01*
X0130747Y0022527D01*
X0130774Y0022227D01*
X0130809Y0021929D01*
X0130851Y0021631D01*
X0130900Y0021335D01*
X0130957Y0021040D01*
X0131021Y0020746D01*
X0131091Y0020454D01*
X0131169Y0020164D01*
X0131255Y0019875D01*
X0131347Y0019589D01*
X0131446Y0019305D01*
X0131552Y0019024D01*
X0131665Y0018746D01*
X0131784Y0018470D01*
X0131911Y0018197D01*
X0132044Y0017928D01*
X0132183Y0017662D01*
X0132329Y0017399D01*
X0132481Y0017140D01*
X0132640Y0016884D01*
X0132805Y0016633D01*
X0132976Y0016386D01*
X0133153Y0016143D01*
X0133336Y0015904D01*
X0133524Y0015670D01*
X0133718Y0015441D01*
X0133918Y0015217D01*
X0134123Y0014997D01*
X0134334Y0014783D01*
X0134550Y0014573D01*
X0134770Y0014369D01*
X0134996Y0014171D01*
X0135227Y0013978D01*
X0135462Y0013791D01*
X0135701Y0013609D01*
X0135945Y0013434D01*
X0136194Y0013264D01*
X0136446Y0013101D01*
X0136702Y0012944D01*
X0136962Y0012793D01*
X0137226Y0012649D01*
X0137493Y0012511D01*
X0137763Y0012379D01*
X0138036Y0012255D01*
X0138313Y0012137D01*
X0138592Y0012026D01*
X0138874Y0011921D01*
X0139158Y0011824D01*
X0139445Y0011733D01*
X0139734Y0011650D01*
X0140024Y0011574D01*
X0140317Y0011504D01*
X0140611Y0011442D01*
X0140906Y0011388D01*
X0141203Y0011340D01*
X0141501Y0011300D01*
X0141800Y0011267D01*
X0142099Y0011241D01*
X0142399Y0011223D01*
X0142699Y0011212D01*
X0143000Y0011208D01*
X0143301Y0011212D01*
X0143601Y0011223D01*
X0143901Y0011241D01*
X0144200Y0011267D01*
X0144499Y0011300D01*
X0144797Y0011340D01*
X0145094Y0011388D01*
X0145389Y0011442D01*
X0145683Y0011504D01*
X0145976Y0011574D01*
X0146266Y0011650D01*
X0146555Y0011733D01*
X0146842Y0011824D01*
X0147126Y0011921D01*
X0147408Y0012026D01*
X0147687Y0012137D01*
X0147964Y0012255D01*
X0148237Y0012379D01*
X0148507Y0012511D01*
X0148774Y0012649D01*
X0149038Y0012793D01*
X0149298Y0012944D01*
X0149554Y0013101D01*
X0149806Y0013264D01*
X0150055Y0013434D01*
X0150299Y0013609D01*
X0150538Y0013791D01*
X0150773Y0013978D01*
X0151004Y0014171D01*
X0151230Y0014369D01*
X0151450Y0014573D01*
X0151666Y0014783D01*
X0151877Y0014997D01*
X0152082Y0015217D01*
X0152282Y0015441D01*
X0152476Y0015670D01*
X0152664Y0015904D01*
X0152847Y0016143D01*
X0153024Y0016386D01*
X0153195Y0016633D01*
X0153360Y0016884D01*
X0153519Y0017140D01*
X0153671Y0017399D01*
X0153817Y0017662D01*
X0153956Y0017928D01*
X0154089Y0018197D01*
X0154216Y0018470D01*
X0154335Y0018746D01*
X0154448Y0019024D01*
X0154554Y0019305D01*
X0154653Y0019589D01*
X0154745Y0019875D01*
X0154831Y0020164D01*
X0154909Y0020454D01*
X0154979Y0020746D01*
X0155043Y0021040D01*
X0155100Y0021335D01*
X0155149Y0021631D01*
X0155191Y0021929D01*
X0155226Y0022227D01*
X0155253Y0022527D01*
X0155274Y0022826D01*
X0155286Y0023127D01*
X0155292Y0023427D01*
X0155290Y0023728D01*
X0155281Y0024028D01*
X0155264Y0024328D01*
X0155240Y0024628D01*
X0155209Y0024927D01*
X0155170Y0025225D01*
X0155125Y0025522D01*
X0155072Y0025818D01*
X0155011Y0026112D01*
X0154944Y0026405D01*
X0154869Y0026696D01*
X0154787Y0026985D01*
X0154699Y0027273D01*
X0154603Y0027557D01*
X0154500Y0027840D01*
X0154391Y0028120D01*
X0154274Y0028397D01*
X0154151Y0028671D01*
X0154022Y0028942D01*
X0153885Y0029210D01*
X0153742Y0029474D01*
X0153593Y0029735D01*
X0153438Y0029992D01*
X0153276Y0030246D01*
X0153108Y0030495D01*
X0152934Y0030740D01*
X0152754Y0030981D01*
X0152568Y0031217D01*
X0152376Y0031448D01*
X0152179Y0031675D01*
X0151977Y0031897D01*
X0151769Y0032114D01*
X0151555Y0032326D01*
X0151337Y0032533D01*
X0151114Y0032734D01*
X0150885Y0032929D01*
X0150653Y0033119D01*
X0150415Y0033304D01*
X0150359Y0033228D01*
X0150594Y0033046D01*
X0150825Y0032857D01*
X0151052Y0032663D01*
X0151274Y0032463D01*
X0151490Y0032258D01*
X0151702Y0032048D01*
X0151908Y0031833D01*
X0152109Y0031613D01*
X0152305Y0031387D01*
X0152495Y0031158D01*
X0152679Y0030923D01*
X0152858Y0030684D01*
X0153031Y0030441D01*
X0153197Y0030194D01*
X0153358Y0029942D01*
X0153512Y0029687D01*
X0153660Y0029428D01*
X0153802Y0029166D01*
X0153937Y0028900D01*
X0154066Y0028631D01*
X0154188Y0028359D01*
X0154304Y0028084D01*
X0154413Y0027806D01*
X0154514Y0027526D01*
X0154609Y0027243D01*
X0154697Y0026958D01*
X0154778Y0026671D01*
X0154853Y0026383D01*
X0154919Y0026092D01*
X0154979Y0025800D01*
X0155032Y0025506D01*
X0155077Y0025211D01*
X0155116Y0024916D01*
X0155147Y0024619D01*
X0155170Y0024322D01*
X0155187Y0024024D01*
X0155196Y0023726D01*
X0155198Y0023428D01*
X0155192Y0023129D01*
X0155180Y0022831D01*
X0155160Y0022534D01*
X0155132Y0022237D01*
X0155098Y0021941D01*
X0155056Y0021645D01*
X0155007Y0021351D01*
X0154951Y0021058D01*
X0154888Y0020767D01*
X0154817Y0020477D01*
X0154740Y0020189D01*
X0154656Y0019903D01*
X0154564Y0019619D01*
X0154466Y0019337D01*
X0154361Y0019058D01*
X0154249Y0018782D01*
X0154130Y0018508D01*
X0154005Y0018238D01*
X0153873Y0017970D01*
X0153734Y0017706D01*
X0153589Y0017445D01*
X0153438Y0017188D01*
X0153281Y0016935D01*
X0153117Y0016686D01*
X0152947Y0016440D01*
X0152772Y0016199D01*
X0152590Y0015962D01*
X0152403Y0015730D01*
X0152211Y0015503D01*
X0152012Y0015280D01*
X0151809Y0015062D01*
X0151600Y0014849D01*
X0151386Y0014641D01*
X0151166Y0014439D01*
X0150943Y0014242D01*
X0150714Y0014051D01*
X0150480Y0013865D01*
X0150243Y0013685D01*
X0150001Y0013511D01*
X0149754Y0013343D01*
X0149504Y0013181D01*
X0149250Y0013025D01*
X0148992Y0012875D01*
X0148730Y0012732D01*
X0148465Y0012595D01*
X0148197Y0012464D01*
X0147926Y0012341D01*
X0147651Y0012224D01*
X0147374Y0012113D01*
X0147094Y0012010D01*
X0146812Y0011913D01*
X0146528Y0011823D01*
X0146241Y0011741D01*
X0145953Y0011665D01*
X0145663Y0011596D01*
X0145371Y0011535D01*
X0145078Y0011480D01*
X0144783Y0011433D01*
X0144488Y0011393D01*
X0144191Y0011360D01*
X0143894Y0011335D01*
X0143596Y0011317D01*
X0143298Y0011306D01*
X0143000Y0011302D01*
X0142702Y0011306D01*
X0142404Y0011317D01*
X0142106Y0011335D01*
X0141809Y0011360D01*
X0141512Y0011393D01*
X0141217Y0011433D01*
X0140922Y0011480D01*
X0140629Y0011535D01*
X0140337Y0011596D01*
X0140047Y0011665D01*
X0139759Y0011741D01*
X0139472Y0011823D01*
X0139188Y0011913D01*
X0138906Y0012010D01*
X0138626Y0012113D01*
X0138349Y0012224D01*
X0138074Y0012341D01*
X0137803Y0012464D01*
X0137535Y0012595D01*
X0137270Y0012732D01*
X0137008Y0012875D01*
X0136750Y0013025D01*
X0136496Y0013181D01*
X0136246Y0013343D01*
X0135999Y0013511D01*
X0135757Y0013685D01*
X0135520Y0013865D01*
X0135286Y0014051D01*
X0135057Y0014242D01*
X0134834Y0014439D01*
X0134614Y0014641D01*
X0134400Y0014849D01*
X0134191Y0015062D01*
X0133988Y0015280D01*
X0133789Y0015503D01*
X0133597Y0015730D01*
X0133410Y0015962D01*
X0133228Y0016199D01*
X0133053Y0016440D01*
X0132883Y0016686D01*
X0132719Y0016935D01*
X0132562Y0017188D01*
X0132411Y0017445D01*
X0132266Y0017706D01*
X0132127Y0017970D01*
X0131995Y0018238D01*
X0131870Y0018508D01*
X0131751Y0018782D01*
X0131639Y0019058D01*
X0131534Y0019337D01*
X0131436Y0019619D01*
X0131344Y0019903D01*
X0131260Y0020189D01*
X0131183Y0020477D01*
X0131112Y0020767D01*
X0131049Y0021058D01*
X0130993Y0021351D01*
X0130944Y0021645D01*
X0130902Y0021941D01*
X0130868Y0022237D01*
X0130840Y0022534D01*
X0130820Y0022831D01*
X0130808Y0023129D01*
X0130802Y0023428D01*
X0130804Y0023726D01*
X0130813Y0024024D01*
X0130830Y0024322D01*
X0130853Y0024619D01*
X0130884Y0024916D01*
X0130923Y0025211D01*
X0130968Y0025506D01*
X0131021Y0025800D01*
X0131081Y0026092D01*
X0131147Y0026383D01*
X0131222Y0026671D01*
X0131303Y0026958D01*
X0131391Y0027243D01*
X0131486Y0027526D01*
X0131587Y0027806D01*
X0131696Y0028084D01*
X0131812Y0028359D01*
X0131934Y0028631D01*
X0132063Y0028900D01*
X0132198Y0029166D01*
X0132340Y0029428D01*
X0132488Y0029687D01*
X0132642Y0029942D01*
X0132803Y0030194D01*
X0132969Y0030441D01*
X0133142Y0030684D01*
X0133321Y0030923D01*
X0133505Y0031158D01*
X0133695Y0031387D01*
X0133891Y0031613D01*
X0134092Y0031833D01*
X0134298Y0032048D01*
X0134510Y0032258D01*
X0134726Y0032463D01*
X0134948Y0032663D01*
X0135175Y0032857D01*
X0135406Y0033046D01*
X0135641Y0033228D01*
X0135698Y0033153D01*
X0135464Y0032972D01*
X0135235Y0032785D01*
X0135010Y0032592D01*
X0134790Y0032394D01*
X0134575Y0032191D01*
X0134365Y0031982D01*
X0134160Y0031768D01*
X0133961Y0031550D01*
X0133767Y0031326D01*
X0133578Y0031098D01*
X0133395Y0030866D01*
X0133218Y0030629D01*
X0133047Y0030387D01*
X0132881Y0030142D01*
X0132722Y0029893D01*
X0132569Y0029639D01*
X0132422Y0029383D01*
X0132281Y0029122D01*
X0132147Y0028858D01*
X0132019Y0028591D01*
X0131898Y0028321D01*
X0131783Y0028049D01*
X0131675Y0027773D01*
X0131574Y0027495D01*
X0131480Y0027214D01*
X0131393Y0026932D01*
X0131312Y0026647D01*
X0131239Y0026360D01*
X0131172Y0026072D01*
X0131113Y0025782D01*
X0131061Y0025490D01*
X0131016Y0025198D01*
X0130978Y0024904D01*
X0130947Y0024610D01*
X0130923Y0024315D01*
X0130907Y0024020D01*
X0130898Y0023724D01*
X0130896Y0023428D01*
X0130902Y0023132D01*
X0130914Y0022836D01*
X0130934Y0022541D01*
X0130961Y0022246D01*
X0130995Y0021952D01*
X0131037Y0021659D01*
X0131085Y0021367D01*
X0131141Y0021077D01*
X0131204Y0020788D01*
X0131274Y0020500D01*
X0131351Y0020214D01*
X0131434Y0019930D01*
X0131525Y0019649D01*
X0131623Y0019369D01*
X0131727Y0019092D01*
X0131838Y0018818D01*
X0131956Y0018547D01*
X0132080Y0018278D01*
X0132211Y0018013D01*
X0132349Y0017751D01*
X0132492Y0017492D01*
X0132642Y0017237D01*
X0132799Y0016985D01*
X0132961Y0016738D01*
X0133129Y0016495D01*
X0133304Y0016255D01*
X0133484Y0016020D01*
X0133669Y0015790D01*
X0133861Y0015564D01*
X0134057Y0015343D01*
X0134259Y0015127D01*
X0134467Y0014916D01*
X0134679Y0014710D01*
X0134897Y0014509D01*
X0135119Y0014313D01*
X0135346Y0014123D01*
X0135577Y0013939D01*
X0135813Y0013761D01*
X0136053Y0013588D01*
X0136298Y0013421D01*
X0136546Y0013260D01*
X0136799Y0013105D01*
X0137055Y0012957D01*
X0137314Y0012815D01*
X0137577Y0012679D01*
X0137843Y0012549D01*
X0138112Y0012427D01*
X0138385Y0012310D01*
X0138660Y0012201D01*
X0138937Y0012098D01*
X0139217Y0012002D01*
X0139499Y0011913D01*
X0139784Y0011831D01*
X0140070Y0011756D01*
X0140358Y0011688D01*
X0140647Y0011627D01*
X0140938Y0011573D01*
X0141231Y0011526D01*
X0141524Y0011486D01*
X0141818Y0011454D01*
X0142113Y0011429D01*
X0142408Y0011410D01*
X0142704Y0011400D01*
X0143000Y0011396D01*
X0143296Y0011400D01*
X0143592Y0011410D01*
X0143887Y0011429D01*
X0144182Y0011454D01*
X0144476Y0011486D01*
X0144769Y0011526D01*
X0145062Y0011573D01*
X0145353Y0011627D01*
X0145642Y0011688D01*
X0145930Y0011756D01*
X0146216Y0011831D01*
X0146501Y0011913D01*
X0146783Y0012002D01*
X0147063Y0012098D01*
X0147340Y0012201D01*
X0147615Y0012310D01*
X0147888Y0012427D01*
X0148157Y0012549D01*
X0148423Y0012679D01*
X0148686Y0012815D01*
X0148945Y0012957D01*
X0149201Y0013105D01*
X0149454Y0013260D01*
X0149702Y0013421D01*
X0149947Y0013588D01*
X0150187Y0013761D01*
X0150423Y0013939D01*
X0150654Y0014123D01*
X0150881Y0014313D01*
X0151103Y0014509D01*
X0151321Y0014710D01*
X0151533Y0014916D01*
X0151741Y0015127D01*
X0151943Y0015343D01*
X0152139Y0015564D01*
X0152331Y0015790D01*
X0152516Y0016020D01*
X0152696Y0016255D01*
X0152871Y0016495D01*
X0153039Y0016738D01*
X0153201Y0016985D01*
X0153358Y0017237D01*
X0153508Y0017492D01*
X0153651Y0017751D01*
X0153789Y0018013D01*
X0153920Y0018278D01*
X0154044Y0018547D01*
X0154162Y0018818D01*
X0154273Y0019092D01*
X0154377Y0019369D01*
X0154475Y0019649D01*
X0154566Y0019930D01*
X0154649Y0020214D01*
X0154726Y0020500D01*
X0154796Y0020788D01*
X0154859Y0021077D01*
X0154915Y0021367D01*
X0154963Y0021659D01*
X0155005Y0021952D01*
X0155039Y0022246D01*
X0155066Y0022541D01*
X0155086Y0022836D01*
X0155098Y0023132D01*
X0155104Y0023428D01*
X0155102Y0023724D01*
X0155093Y0024020D01*
X0155077Y0024315D01*
X0155053Y0024610D01*
X0155022Y0024904D01*
X0154984Y0025198D01*
X0154939Y0025490D01*
X0154887Y0025782D01*
X0154828Y0026072D01*
X0154761Y0026360D01*
X0154688Y0026647D01*
X0154607Y0026932D01*
X0154520Y0027214D01*
X0154426Y0027495D01*
X0154325Y0027773D01*
X0154217Y0028049D01*
X0154102Y0028321D01*
X0153981Y0028591D01*
X0153853Y0028858D01*
X0153719Y0029122D01*
X0153578Y0029383D01*
X0153431Y0029639D01*
X0153278Y0029893D01*
X0153119Y0030142D01*
X0152953Y0030387D01*
X0152782Y0030629D01*
X0152605Y0030866D01*
X0152422Y0031098D01*
X0152233Y0031326D01*
X0152039Y0031550D01*
X0151840Y0031768D01*
X0151635Y0031982D01*
X0151425Y0032191D01*
X0151210Y0032394D01*
X0150990Y0032592D01*
X0150765Y0032785D01*
X0150536Y0032972D01*
X0150302Y0033153D01*
D129*
X0133000Y0023500D02*
X0133003Y0023745D01*
X0133012Y0023991D01*
X0133027Y0024236D01*
X0133048Y0024480D01*
X0133075Y0024724D01*
X0133108Y0024967D01*
X0133147Y0025210D01*
X0133192Y0025451D01*
X0133243Y0025691D01*
X0133300Y0025930D01*
X0133362Y0026167D01*
X0133431Y0026403D01*
X0133505Y0026637D01*
X0133585Y0026869D01*
X0133670Y0027099D01*
X0133761Y0027327D01*
X0133858Y0027552D01*
X0133960Y0027776D01*
X0134068Y0027996D01*
X0134181Y0028214D01*
X0134299Y0028429D01*
X0134423Y0028641D01*
X0134551Y0028850D01*
X0134685Y0029056D01*
X0134824Y0029258D01*
X0134968Y0029457D01*
X0135117Y0029652D01*
X0135270Y0029844D01*
X0135428Y0030032D01*
X0135590Y0030216D01*
X0135758Y0030395D01*
X0135929Y0030571D01*
X0136105Y0030742D01*
X0136284Y0030910D01*
X0136468Y0031072D01*
X0136656Y0031230D01*
X0136848Y0031383D01*
X0137043Y0031532D01*
X0137242Y0031676D01*
X0137444Y0031815D01*
X0137650Y0031949D01*
X0137859Y0032077D01*
X0138071Y0032201D01*
X0138286Y0032319D01*
X0138504Y0032432D01*
X0138724Y0032540D01*
X0138948Y0032642D01*
X0139173Y0032739D01*
X0139401Y0032830D01*
X0139631Y0032915D01*
X0139863Y0032995D01*
X0140097Y0033069D01*
X0140333Y0033138D01*
X0140570Y0033200D01*
X0140809Y0033257D01*
X0141049Y0033308D01*
X0141290Y0033353D01*
X0141533Y0033392D01*
X0141776Y0033425D01*
X0142020Y0033452D01*
X0142264Y0033473D01*
X0142509Y0033488D01*
X0142755Y0033497D01*
X0143000Y0033500D01*
X0143245Y0033497D01*
X0143491Y0033488D01*
X0143736Y0033473D01*
X0143980Y0033452D01*
X0144224Y0033425D01*
X0144467Y0033392D01*
X0144710Y0033353D01*
X0144951Y0033308D01*
X0145191Y0033257D01*
X0145430Y0033200D01*
X0145667Y0033138D01*
X0145903Y0033069D01*
X0146137Y0032995D01*
X0146369Y0032915D01*
X0146599Y0032830D01*
X0146827Y0032739D01*
X0147052Y0032642D01*
X0147276Y0032540D01*
X0147496Y0032432D01*
X0147714Y0032319D01*
X0147929Y0032201D01*
X0148141Y0032077D01*
X0148350Y0031949D01*
X0148556Y0031815D01*
X0148758Y0031676D01*
X0148957Y0031532D01*
X0149152Y0031383D01*
X0149344Y0031230D01*
X0149532Y0031072D01*
X0149716Y0030910D01*
X0149895Y0030742D01*
X0150071Y0030571D01*
X0150242Y0030395D01*
X0150410Y0030216D01*
X0150572Y0030032D01*
X0150730Y0029844D01*
X0150883Y0029652D01*
X0151032Y0029457D01*
X0151176Y0029258D01*
X0151315Y0029056D01*
X0151449Y0028850D01*
X0151577Y0028641D01*
X0151701Y0028429D01*
X0151819Y0028214D01*
X0151932Y0027996D01*
X0152040Y0027776D01*
X0152142Y0027552D01*
X0152239Y0027327D01*
X0152330Y0027099D01*
X0152415Y0026869D01*
X0152495Y0026637D01*
X0152569Y0026403D01*
X0152638Y0026167D01*
X0152700Y0025930D01*
X0152757Y0025691D01*
X0152808Y0025451D01*
X0152853Y0025210D01*
X0152892Y0024967D01*
X0152925Y0024724D01*
X0152952Y0024480D01*
X0152973Y0024236D01*
X0152988Y0023991D01*
X0152997Y0023745D01*
X0153000Y0023500D01*
X0152997Y0023255D01*
X0152988Y0023009D01*
X0152973Y0022764D01*
X0152952Y0022520D01*
X0152925Y0022276D01*
X0152892Y0022033D01*
X0152853Y0021790D01*
X0152808Y0021549D01*
X0152757Y0021309D01*
X0152700Y0021070D01*
X0152638Y0020833D01*
X0152569Y0020597D01*
X0152495Y0020363D01*
X0152415Y0020131D01*
X0152330Y0019901D01*
X0152239Y0019673D01*
X0152142Y0019448D01*
X0152040Y0019224D01*
X0151932Y0019004D01*
X0151819Y0018786D01*
X0151701Y0018571D01*
X0151577Y0018359D01*
X0151449Y0018150D01*
X0151315Y0017944D01*
X0151176Y0017742D01*
X0151032Y0017543D01*
X0150883Y0017348D01*
X0150730Y0017156D01*
X0150572Y0016968D01*
X0150410Y0016784D01*
X0150242Y0016605D01*
X0150071Y0016429D01*
X0149895Y0016258D01*
X0149716Y0016090D01*
X0149532Y0015928D01*
X0149344Y0015770D01*
X0149152Y0015617D01*
X0148957Y0015468D01*
X0148758Y0015324D01*
X0148556Y0015185D01*
X0148350Y0015051D01*
X0148141Y0014923D01*
X0147929Y0014799D01*
X0147714Y0014681D01*
X0147496Y0014568D01*
X0147276Y0014460D01*
X0147052Y0014358D01*
X0146827Y0014261D01*
X0146599Y0014170D01*
X0146369Y0014085D01*
X0146137Y0014005D01*
X0145903Y0013931D01*
X0145667Y0013862D01*
X0145430Y0013800D01*
X0145191Y0013743D01*
X0144951Y0013692D01*
X0144710Y0013647D01*
X0144467Y0013608D01*
X0144224Y0013575D01*
X0143980Y0013548D01*
X0143736Y0013527D01*
X0143491Y0013512D01*
X0143245Y0013503D01*
X0143000Y0013500D01*
X0142755Y0013503D01*
X0142509Y0013512D01*
X0142264Y0013527D01*
X0142020Y0013548D01*
X0141776Y0013575D01*
X0141533Y0013608D01*
X0141290Y0013647D01*
X0141049Y0013692D01*
X0140809Y0013743D01*
X0140570Y0013800D01*
X0140333Y0013862D01*
X0140097Y0013931D01*
X0139863Y0014005D01*
X0139631Y0014085D01*
X0139401Y0014170D01*
X0139173Y0014261D01*
X0138948Y0014358D01*
X0138724Y0014460D01*
X0138504Y0014568D01*
X0138286Y0014681D01*
X0138071Y0014799D01*
X0137859Y0014923D01*
X0137650Y0015051D01*
X0137444Y0015185D01*
X0137242Y0015324D01*
X0137043Y0015468D01*
X0136848Y0015617D01*
X0136656Y0015770D01*
X0136468Y0015928D01*
X0136284Y0016090D01*
X0136105Y0016258D01*
X0135929Y0016429D01*
X0135758Y0016605D01*
X0135590Y0016784D01*
X0135428Y0016968D01*
X0135270Y0017156D01*
X0135117Y0017348D01*
X0134968Y0017543D01*
X0134824Y0017742D01*
X0134685Y0017944D01*
X0134551Y0018150D01*
X0134423Y0018359D01*
X0134299Y0018571D01*
X0134181Y0018786D01*
X0134068Y0019004D01*
X0133960Y0019224D01*
X0133858Y0019448D01*
X0133761Y0019673D01*
X0133670Y0019901D01*
X0133585Y0020131D01*
X0133505Y0020363D01*
X0133431Y0020597D01*
X0133362Y0020833D01*
X0133300Y0021070D01*
X0133243Y0021309D01*
X0133192Y0021549D01*
X0133147Y0021790D01*
X0133108Y0022033D01*
X0133075Y0022276D01*
X0133048Y0022520D01*
X0133027Y0022764D01*
X0133012Y0023009D01*
X0133003Y0023255D01*
X0133000Y0023500D01*
X0133000Y0048500D02*
X0133003Y0048745D01*
X0133012Y0048991D01*
X0133027Y0049236D01*
X0133048Y0049480D01*
X0133075Y0049724D01*
X0133108Y0049967D01*
X0133147Y0050210D01*
X0133192Y0050451D01*
X0133243Y0050691D01*
X0133300Y0050930D01*
X0133362Y0051167D01*
X0133431Y0051403D01*
X0133505Y0051637D01*
X0133585Y0051869D01*
X0133670Y0052099D01*
X0133761Y0052327D01*
X0133858Y0052552D01*
X0133960Y0052776D01*
X0134068Y0052996D01*
X0134181Y0053214D01*
X0134299Y0053429D01*
X0134423Y0053641D01*
X0134551Y0053850D01*
X0134685Y0054056D01*
X0134824Y0054258D01*
X0134968Y0054457D01*
X0135117Y0054652D01*
X0135270Y0054844D01*
X0135428Y0055032D01*
X0135590Y0055216D01*
X0135758Y0055395D01*
X0135929Y0055571D01*
X0136105Y0055742D01*
X0136284Y0055910D01*
X0136468Y0056072D01*
X0136656Y0056230D01*
X0136848Y0056383D01*
X0137043Y0056532D01*
X0137242Y0056676D01*
X0137444Y0056815D01*
X0137650Y0056949D01*
X0137859Y0057077D01*
X0138071Y0057201D01*
X0138286Y0057319D01*
X0138504Y0057432D01*
X0138724Y0057540D01*
X0138948Y0057642D01*
X0139173Y0057739D01*
X0139401Y0057830D01*
X0139631Y0057915D01*
X0139863Y0057995D01*
X0140097Y0058069D01*
X0140333Y0058138D01*
X0140570Y0058200D01*
X0140809Y0058257D01*
X0141049Y0058308D01*
X0141290Y0058353D01*
X0141533Y0058392D01*
X0141776Y0058425D01*
X0142020Y0058452D01*
X0142264Y0058473D01*
X0142509Y0058488D01*
X0142755Y0058497D01*
X0143000Y0058500D01*
X0143245Y0058497D01*
X0143491Y0058488D01*
X0143736Y0058473D01*
X0143980Y0058452D01*
X0144224Y0058425D01*
X0144467Y0058392D01*
X0144710Y0058353D01*
X0144951Y0058308D01*
X0145191Y0058257D01*
X0145430Y0058200D01*
X0145667Y0058138D01*
X0145903Y0058069D01*
X0146137Y0057995D01*
X0146369Y0057915D01*
X0146599Y0057830D01*
X0146827Y0057739D01*
X0147052Y0057642D01*
X0147276Y0057540D01*
X0147496Y0057432D01*
X0147714Y0057319D01*
X0147929Y0057201D01*
X0148141Y0057077D01*
X0148350Y0056949D01*
X0148556Y0056815D01*
X0148758Y0056676D01*
X0148957Y0056532D01*
X0149152Y0056383D01*
X0149344Y0056230D01*
X0149532Y0056072D01*
X0149716Y0055910D01*
X0149895Y0055742D01*
X0150071Y0055571D01*
X0150242Y0055395D01*
X0150410Y0055216D01*
X0150572Y0055032D01*
X0150730Y0054844D01*
X0150883Y0054652D01*
X0151032Y0054457D01*
X0151176Y0054258D01*
X0151315Y0054056D01*
X0151449Y0053850D01*
X0151577Y0053641D01*
X0151701Y0053429D01*
X0151819Y0053214D01*
X0151932Y0052996D01*
X0152040Y0052776D01*
X0152142Y0052552D01*
X0152239Y0052327D01*
X0152330Y0052099D01*
X0152415Y0051869D01*
X0152495Y0051637D01*
X0152569Y0051403D01*
X0152638Y0051167D01*
X0152700Y0050930D01*
X0152757Y0050691D01*
X0152808Y0050451D01*
X0152853Y0050210D01*
X0152892Y0049967D01*
X0152925Y0049724D01*
X0152952Y0049480D01*
X0152973Y0049236D01*
X0152988Y0048991D01*
X0152997Y0048745D01*
X0153000Y0048500D01*
X0152997Y0048255D01*
X0152988Y0048009D01*
X0152973Y0047764D01*
X0152952Y0047520D01*
X0152925Y0047276D01*
X0152892Y0047033D01*
X0152853Y0046790D01*
X0152808Y0046549D01*
X0152757Y0046309D01*
X0152700Y0046070D01*
X0152638Y0045833D01*
X0152569Y0045597D01*
X0152495Y0045363D01*
X0152415Y0045131D01*
X0152330Y0044901D01*
X0152239Y0044673D01*
X0152142Y0044448D01*
X0152040Y0044224D01*
X0151932Y0044004D01*
X0151819Y0043786D01*
X0151701Y0043571D01*
X0151577Y0043359D01*
X0151449Y0043150D01*
X0151315Y0042944D01*
X0151176Y0042742D01*
X0151032Y0042543D01*
X0150883Y0042348D01*
X0150730Y0042156D01*
X0150572Y0041968D01*
X0150410Y0041784D01*
X0150242Y0041605D01*
X0150071Y0041429D01*
X0149895Y0041258D01*
X0149716Y0041090D01*
X0149532Y0040928D01*
X0149344Y0040770D01*
X0149152Y0040617D01*
X0148957Y0040468D01*
X0148758Y0040324D01*
X0148556Y0040185D01*
X0148350Y0040051D01*
X0148141Y0039923D01*
X0147929Y0039799D01*
X0147714Y0039681D01*
X0147496Y0039568D01*
X0147276Y0039460D01*
X0147052Y0039358D01*
X0146827Y0039261D01*
X0146599Y0039170D01*
X0146369Y0039085D01*
X0146137Y0039005D01*
X0145903Y0038931D01*
X0145667Y0038862D01*
X0145430Y0038800D01*
X0145191Y0038743D01*
X0144951Y0038692D01*
X0144710Y0038647D01*
X0144467Y0038608D01*
X0144224Y0038575D01*
X0143980Y0038548D01*
X0143736Y0038527D01*
X0143491Y0038512D01*
X0143245Y0038503D01*
X0143000Y0038500D01*
X0142755Y0038503D01*
X0142509Y0038512D01*
X0142264Y0038527D01*
X0142020Y0038548D01*
X0141776Y0038575D01*
X0141533Y0038608D01*
X0141290Y0038647D01*
X0141049Y0038692D01*
X0140809Y0038743D01*
X0140570Y0038800D01*
X0140333Y0038862D01*
X0140097Y0038931D01*
X0139863Y0039005D01*
X0139631Y0039085D01*
X0139401Y0039170D01*
X0139173Y0039261D01*
X0138948Y0039358D01*
X0138724Y0039460D01*
X0138504Y0039568D01*
X0138286Y0039681D01*
X0138071Y0039799D01*
X0137859Y0039923D01*
X0137650Y0040051D01*
X0137444Y0040185D01*
X0137242Y0040324D01*
X0137043Y0040468D01*
X0136848Y0040617D01*
X0136656Y0040770D01*
X0136468Y0040928D01*
X0136284Y0041090D01*
X0136105Y0041258D01*
X0135929Y0041429D01*
X0135758Y0041605D01*
X0135590Y0041784D01*
X0135428Y0041968D01*
X0135270Y0042156D01*
X0135117Y0042348D01*
X0134968Y0042543D01*
X0134824Y0042742D01*
X0134685Y0042944D01*
X0134551Y0043150D01*
X0134423Y0043359D01*
X0134299Y0043571D01*
X0134181Y0043786D01*
X0134068Y0044004D01*
X0133960Y0044224D01*
X0133858Y0044448D01*
X0133761Y0044673D01*
X0133670Y0044901D01*
X0133585Y0045131D01*
X0133505Y0045363D01*
X0133431Y0045597D01*
X0133362Y0045833D01*
X0133300Y0046070D01*
X0133243Y0046309D01*
X0133192Y0046549D01*
X0133147Y0046790D01*
X0133108Y0047033D01*
X0133075Y0047276D01*
X0133048Y0047520D01*
X0133027Y0047764D01*
X0133012Y0048009D01*
X0133003Y0048255D01*
X0133000Y0048500D01*
X0109200Y0048069D02*
X0109200Y0045800D01*
X0106931Y0048069D01*
X0106364Y0048069D01*
X0105797Y0047501D01*
X0105797Y0046367D01*
X0106364Y0045800D01*
X0105797Y0049483D02*
X0109200Y0049483D01*
X0108066Y0049483D02*
X0109200Y0051185D01*
X0108066Y0049483D02*
X0106931Y0051185D01*
X0131931Y0085800D02*
X0130797Y0086934D01*
X0134200Y0086934D01*
X0134200Y0085800D02*
X0134200Y0088069D01*
X0151797Y0089476D02*
X0151797Y0090610D01*
X0152364Y0091178D01*
X0152931Y0091178D01*
X0153499Y0090610D01*
X0154066Y0091178D01*
X0154633Y0091178D01*
X0155200Y0090610D01*
X0155200Y0089476D01*
X0154633Y0088909D01*
X0153499Y0090043D02*
X0153499Y0090610D01*
X0152364Y0088909D02*
X0151797Y0089476D01*
X0154633Y0092592D02*
X0154633Y0093159D01*
X0155200Y0093159D01*
X0155200Y0092592D01*
X0154633Y0092592D01*
X0154633Y0094434D02*
X0152364Y0096702D01*
X0154633Y0096702D01*
X0155200Y0096135D01*
X0155200Y0095001D01*
X0154633Y0094434D01*
X0152364Y0094434D01*
X0151797Y0095001D01*
X0151797Y0096135D01*
X0152364Y0096702D01*
X0153499Y0098117D02*
X0153499Y0099818D01*
X0154066Y0100385D01*
X0154633Y0100385D01*
X0155200Y0099818D01*
X0155200Y0098684D01*
X0154633Y0098117D01*
X0153499Y0098117D01*
X0152364Y0099251D01*
X0151797Y0100385D01*
X0151931Y0170800D02*
X0150797Y0171934D01*
X0154200Y0171934D01*
X0154200Y0170800D02*
X0154200Y0173069D01*
X0154200Y0174483D02*
X0150797Y0174483D01*
X0151931Y0176185D02*
X0153066Y0174483D01*
X0154200Y0176185D01*
X0134200Y0176185D02*
X0133066Y0174483D01*
X0131931Y0176185D01*
X0130797Y0174483D02*
X0134200Y0174483D01*
X0134200Y0173069D02*
X0134200Y0170800D01*
X0134200Y0171934D02*
X0130797Y0171934D01*
X0131931Y0170800D01*
D130*
X0048000Y0196500D02*
X0028000Y0196500D01*
X0028000Y0218500D01*
X0033000Y0218500D01*
X0033000Y0213500D01*
X0043000Y0213500D01*
X0043000Y0218500D01*
X0048000Y0218500D01*
X0048000Y0196500D01*
X0043000Y0218500D02*
X0033000Y0218500D01*
M02*
