G75*
%MOIN*%
%OFA0B0*%
%FSLAX25Y25*%
%IPPOS*%
%LPD*%
%AMOC8*
5,1,8,0,0,1.08239X$1,22.5*
%
%ADD10C,0.00000*%
%ADD11C,0.06500*%
%ADD12C,0.07500*%
%ADD13C,0.05943*%
%ADD14C,0.07400*%
%ADD15C,0.05943*%
%ADD16R,0.07400X0.07400*%
%ADD17C,0.06600*%
%ADD18C,0.13000*%
%ADD19C,0.03200*%
%ADD20C,0.01600*%
%ADD21R,0.04362X0.04362*%
D10*
X0003000Y0003500D02*
X0003000Y0223461D01*
X0166701Y0223461D01*
X0166701Y0003500D01*
X0003000Y0003500D01*
D11*
X0093150Y0098500D03*
X0112850Y0098500D03*
X0133000Y0128500D03*
X0133000Y0138500D03*
X0153945Y0141453D03*
X0153945Y0131453D03*
D12*
X0056000Y0023500D03*
X0019000Y0023500D03*
D13*
X0093000Y0039500D03*
X0093000Y0067500D03*
D14*
X0108000Y0068500D03*
X0108000Y0038500D03*
X0097500Y0013500D03*
X0143000Y0018500D03*
X0143000Y0028500D03*
X0143000Y0043500D03*
X0143000Y0053500D03*
X0133000Y0078500D03*
X0153000Y0078500D03*
X0153000Y0108500D03*
X0133000Y0108500D03*
X0133000Y0163500D03*
X0153000Y0163500D03*
X0153000Y0193500D03*
X0133000Y0193500D03*
X0032500Y0208500D03*
D15*
X0089614Y0133401D02*
X0089614Y0127457D01*
X0096307Y0142812D02*
X0096307Y0148755D01*
X0103000Y0133401D02*
X0103000Y0127457D01*
X0109693Y0142812D02*
X0109693Y0148755D01*
X0116386Y0133401D02*
X0116386Y0127457D01*
D16*
X0043500Y0208500D03*
X0108500Y0013500D03*
D17*
X0042921Y0130700D03*
X0042921Y0138500D03*
X0033079Y0138500D03*
X0033079Y0130700D03*
D18*
X0014300Y0149200D03*
X0061700Y0149200D03*
D19*
X0089614Y0130429D02*
X0089614Y0116886D01*
X0103000Y0103500D01*
X0103000Y0073500D01*
X0108000Y0068500D01*
X0118000Y0093500D02*
X0123000Y0098500D01*
X0118000Y0093500D02*
X0118000Y0038500D01*
X0108000Y0038500D01*
X0113000Y0023500D02*
X0098000Y0023500D01*
X0093000Y0028500D01*
X0093000Y0039500D01*
X0113000Y0023500D02*
X0128000Y0008500D01*
X0158000Y0008500D01*
X0163000Y0013500D01*
X0163000Y0068500D01*
X0153000Y0078500D01*
X0143000Y0073500D02*
X0128000Y0058500D01*
X0128000Y0023500D01*
X0138000Y0023500D01*
X0143000Y0018500D01*
X0143000Y0073500D02*
X0143000Y0143500D01*
X0133000Y0153500D01*
X0133000Y0163500D01*
X0133000Y0138500D02*
X0123000Y0138500D01*
X0116386Y0131886D01*
X0116386Y0130429D01*
X0128000Y0113500D02*
X0133000Y0108500D01*
X0128000Y0113500D02*
X0103000Y0113500D01*
X0096307Y0120193D01*
X0096307Y0145783D01*
D20*
X0090135Y0145768D02*
X0070777Y0145768D01*
X0071400Y0147271D02*
X0069923Y0143705D01*
X0067195Y0140977D01*
X0063629Y0139500D01*
X0059771Y0139500D01*
X0056205Y0140977D01*
X0053477Y0143705D01*
X0052000Y0147271D01*
X0052000Y0151129D01*
X0053477Y0154695D01*
X0056205Y0157423D01*
X0059771Y0158900D01*
X0063629Y0158900D01*
X0067195Y0157423D01*
X0069923Y0154695D01*
X0071400Y0151129D01*
X0071400Y0147271D01*
X0071400Y0147366D02*
X0090135Y0147366D01*
X0090135Y0148965D02*
X0071400Y0148965D01*
X0071400Y0150563D02*
X0090376Y0150563D01*
X0090135Y0149983D02*
X0090135Y0141584D01*
X0090995Y0139509D01*
X0090842Y0139572D01*
X0088387Y0139572D01*
X0086118Y0138633D01*
X0084382Y0136897D01*
X0083443Y0134628D01*
X0083443Y0126230D01*
X0084382Y0123962D01*
X0084814Y0123529D01*
X0084814Y0115931D01*
X0085545Y0114167D01*
X0094994Y0104717D01*
X0094433Y0104950D01*
X0091867Y0104950D01*
X0089496Y0103968D01*
X0087682Y0102154D01*
X0086700Y0099783D01*
X0086700Y0097217D01*
X0087682Y0094846D01*
X0089496Y0093032D01*
X0091867Y0092050D01*
X0094433Y0092050D01*
X0096804Y0093032D01*
X0098200Y0094428D01*
X0098200Y0072545D01*
X0098931Y0070781D01*
X0101100Y0068612D01*
X0101100Y0067127D01*
X0102150Y0064591D01*
X0104091Y0062650D01*
X0106627Y0061600D01*
X0109372Y0061600D01*
X0111909Y0062650D01*
X0113200Y0063942D01*
X0113200Y0043300D01*
X0112958Y0043300D01*
X0111909Y0044350D01*
X0109372Y0045400D01*
X0106627Y0045400D01*
X0104091Y0044350D01*
X0102150Y0042409D01*
X0101100Y0039872D01*
X0101100Y0037127D01*
X0102150Y0034591D01*
X0104091Y0032650D01*
X0106627Y0031600D01*
X0109372Y0031600D01*
X0111909Y0032650D01*
X0112958Y0033700D01*
X0118955Y0033700D01*
X0120719Y0034431D01*
X0122069Y0035781D01*
X0122800Y0037545D01*
X0122800Y0091512D01*
X0124407Y0093119D01*
X0125818Y0093119D01*
X0126994Y0093606D01*
X0127894Y0094506D01*
X0128381Y0095682D01*
X0128381Y0101318D01*
X0127894Y0102494D01*
X0126994Y0103394D01*
X0125818Y0103881D01*
X0120182Y0103881D01*
X0119006Y0103394D01*
X0118106Y0102494D01*
X0118069Y0102403D01*
X0116504Y0103968D01*
X0114133Y0104950D01*
X0111567Y0104950D01*
X0109196Y0103968D01*
X0107800Y0102572D01*
X0107800Y0104455D01*
X0107069Y0106219D01*
X0105719Y0107569D01*
X0104588Y0108700D01*
X0126012Y0108700D01*
X0126100Y0108612D01*
X0126100Y0107127D01*
X0127150Y0104591D01*
X0129091Y0102650D01*
X0131627Y0101600D01*
X0134372Y0101600D01*
X0136909Y0102650D01*
X0138200Y0103942D01*
X0138200Y0080294D01*
X0138097Y0080611D01*
X0137704Y0081383D01*
X0137195Y0082083D01*
X0136583Y0082695D01*
X0135883Y0083204D01*
X0135111Y0083597D01*
X0134288Y0083865D01*
X0133433Y0084000D01*
X0133086Y0084000D01*
X0133086Y0078586D01*
X0132914Y0078586D01*
X0132914Y0084000D01*
X0132567Y0084000D01*
X0131712Y0083865D01*
X0130889Y0083597D01*
X0130117Y0083204D01*
X0129417Y0082695D01*
X0128805Y0082083D01*
X0128296Y0081383D01*
X0127903Y0080611D01*
X0127635Y0079788D01*
X0127500Y0078933D01*
X0127500Y0078586D01*
X0132914Y0078586D01*
X0132914Y0078414D01*
X0133086Y0078414D01*
X0133086Y0073000D01*
X0133433Y0073000D01*
X0134288Y0073135D01*
X0135111Y0073403D01*
X0135883Y0073796D01*
X0136583Y0074305D01*
X0137195Y0074917D01*
X0137704Y0075617D01*
X0138097Y0076389D01*
X0138200Y0076706D01*
X0138200Y0075488D01*
X0125281Y0062569D01*
X0123931Y0061219D01*
X0123200Y0059455D01*
X0123200Y0022545D01*
X0123931Y0020781D01*
X0125281Y0019431D01*
X0127045Y0018700D01*
X0136012Y0018700D01*
X0136100Y0018612D01*
X0136100Y0017127D01*
X0137150Y0014591D01*
X0138442Y0013300D01*
X0129988Y0013300D01*
X0115719Y0027569D01*
X0113955Y0028300D01*
X0099988Y0028300D01*
X0097800Y0030488D01*
X0097800Y0035572D01*
X0098232Y0036004D01*
X0099172Y0038272D01*
X0099172Y0040728D01*
X0098232Y0042996D01*
X0096496Y0044732D01*
X0094228Y0045672D01*
X0091772Y0045672D01*
X0089504Y0044732D01*
X0087768Y0042996D01*
X0086828Y0040728D01*
X0086828Y0038272D01*
X0087768Y0036004D01*
X0088200Y0035572D01*
X0088200Y0027545D01*
X0088931Y0025781D01*
X0093931Y0020781D01*
X0095281Y0019431D01*
X0096527Y0018914D01*
X0096212Y0018865D01*
X0095389Y0018597D01*
X0094617Y0018204D01*
X0093917Y0017695D01*
X0093305Y0017083D01*
X0092796Y0016383D01*
X0092403Y0015611D01*
X0092135Y0014788D01*
X0092000Y0013933D01*
X0092000Y0013700D01*
X0097300Y0013700D01*
X0097300Y0013300D01*
X0097700Y0013300D01*
X0097700Y0008000D01*
X0097933Y0008000D01*
X0098788Y0008135D01*
X0099611Y0008403D01*
X0100383Y0008796D01*
X0101083Y0009305D01*
X0101600Y0009822D01*
X0101600Y0009163D01*
X0102087Y0007987D01*
X0102987Y0007087D01*
X0103922Y0006700D01*
X0006200Y0006700D01*
X0006200Y0143582D01*
X0008805Y0140977D01*
X0012371Y0139500D01*
X0016229Y0139500D01*
X0019795Y0140977D01*
X0022523Y0143705D01*
X0024000Y0147271D01*
X0024000Y0151129D01*
X0022523Y0154695D01*
X0019795Y0157423D01*
X0016229Y0158900D01*
X0012371Y0158900D01*
X0008805Y0157423D01*
X0006200Y0154818D01*
X0006200Y0216700D01*
X0009761Y0220261D01*
X0161239Y0220261D01*
X0163501Y0217999D01*
X0163501Y0074787D01*
X0159900Y0078388D01*
X0159900Y0079872D01*
X0158850Y0082409D01*
X0156909Y0084350D01*
X0154372Y0085400D01*
X0151627Y0085400D01*
X0149091Y0084350D01*
X0147800Y0083058D01*
X0147800Y0103942D01*
X0149091Y0102650D01*
X0151627Y0101600D01*
X0154372Y0101600D01*
X0156909Y0102650D01*
X0158850Y0104591D01*
X0159900Y0107127D01*
X0159900Y0109872D01*
X0158850Y0112409D01*
X0156909Y0114350D01*
X0154372Y0115400D01*
X0151627Y0115400D01*
X0149091Y0114350D01*
X0147800Y0113058D01*
X0147800Y0129433D01*
X0148477Y0127799D01*
X0150291Y0125985D01*
X0152662Y0125003D01*
X0155228Y0125003D01*
X0157599Y0125985D01*
X0159413Y0127799D01*
X0160395Y0130170D01*
X0160395Y0132736D01*
X0159413Y0135106D01*
X0157599Y0136921D01*
X0156771Y0137264D01*
X0157235Y0137601D01*
X0157797Y0138163D01*
X0158264Y0138806D01*
X0158625Y0139514D01*
X0158871Y0140270D01*
X0158995Y0141055D01*
X0158995Y0141453D01*
X0158995Y0141850D01*
X0158871Y0142635D01*
X0158625Y0143391D01*
X0158264Y0144100D01*
X0157797Y0144743D01*
X0157235Y0145305D01*
X0156592Y0145772D01*
X0155883Y0146133D01*
X0155127Y0146378D01*
X0154342Y0146503D01*
X0153945Y0146503D01*
X0153945Y0141453D01*
X0153945Y0141453D01*
X0158995Y0141453D01*
X0153945Y0141453D01*
X0153945Y0141453D01*
X0153945Y0146503D01*
X0153547Y0146503D01*
X0152762Y0146378D01*
X0152006Y0146133D01*
X0151298Y0145772D01*
X0150655Y0145305D01*
X0150093Y0144743D01*
X0149626Y0144100D01*
X0149265Y0143391D01*
X0149019Y0142635D01*
X0148895Y0141850D01*
X0148895Y0141453D01*
X0153945Y0141453D01*
X0153945Y0141453D01*
X0148895Y0141453D01*
X0148895Y0141055D01*
X0149019Y0140270D01*
X0149265Y0139514D01*
X0149626Y0138806D01*
X0150093Y0138163D01*
X0150655Y0137601D01*
X0151119Y0137264D01*
X0150291Y0136921D01*
X0148477Y0135106D01*
X0147800Y0133472D01*
X0147800Y0144455D01*
X0147069Y0146219D01*
X0145719Y0147569D01*
X0137800Y0155488D01*
X0137800Y0158542D01*
X0138850Y0159591D01*
X0139900Y0162127D01*
X0139900Y0164872D01*
X0138850Y0167409D01*
X0136909Y0169350D01*
X0134372Y0170400D01*
X0131627Y0170400D01*
X0129091Y0169350D01*
X0127150Y0167409D01*
X0126100Y0164872D01*
X0126100Y0162127D01*
X0127150Y0159591D01*
X0128200Y0158542D01*
X0128200Y0152545D01*
X0128931Y0150781D01*
X0135100Y0144611D01*
X0134283Y0144950D01*
X0131717Y0144950D01*
X0129346Y0143968D01*
X0128678Y0143300D01*
X0122045Y0143300D01*
X0120281Y0142569D01*
X0118931Y0141219D01*
X0117284Y0139572D01*
X0115158Y0139572D01*
X0115005Y0139509D01*
X0115865Y0141584D01*
X0115865Y0149983D01*
X0114925Y0152251D01*
X0113189Y0153987D01*
X0110921Y0154927D01*
X0108465Y0154927D01*
X0106197Y0153987D01*
X0104461Y0152251D01*
X0103521Y0149983D01*
X0103521Y0141584D01*
X0104461Y0139316D01*
X0106197Y0137580D01*
X0108465Y0136640D01*
X0110921Y0136640D01*
X0111074Y0136704D01*
X0110214Y0134628D01*
X0110214Y0126230D01*
X0111154Y0123962D01*
X0112890Y0122225D01*
X0115158Y0121286D01*
X0117613Y0121286D01*
X0119882Y0122225D01*
X0121618Y0123962D01*
X0122557Y0126230D01*
X0122557Y0131269D01*
X0124988Y0133700D01*
X0128678Y0133700D01*
X0129346Y0133032D01*
X0130174Y0132689D01*
X0129710Y0132352D01*
X0129148Y0131790D01*
X0128681Y0131147D01*
X0128320Y0130439D01*
X0128074Y0129683D01*
X0127950Y0128897D01*
X0127950Y0128500D01*
X0133000Y0128500D01*
X0138050Y0128500D01*
X0138050Y0128897D01*
X0137926Y0129683D01*
X0137680Y0130439D01*
X0137319Y0131147D01*
X0136852Y0131790D01*
X0136290Y0132352D01*
X0135826Y0132689D01*
X0136654Y0133032D01*
X0138200Y0134578D01*
X0138200Y0134578D01*
X0138200Y0113058D01*
X0136909Y0114350D01*
X0134372Y0115400D01*
X0132888Y0115400D01*
X0130719Y0117569D01*
X0128955Y0118300D01*
X0104988Y0118300D01*
X0101107Y0122181D01*
X0101107Y0123067D01*
X0101168Y0123035D01*
X0101883Y0122803D01*
X0102624Y0122686D01*
X0102914Y0122686D01*
X0102914Y0130343D01*
X0103086Y0130343D01*
X0103086Y0122686D01*
X0103376Y0122686D01*
X0104117Y0122803D01*
X0104832Y0123035D01*
X0105501Y0123376D01*
X0106109Y0123818D01*
X0106640Y0124349D01*
X0107081Y0124957D01*
X0107422Y0125626D01*
X0107654Y0126340D01*
X0107772Y0127082D01*
X0107772Y0130343D01*
X0103086Y0130343D01*
X0103086Y0130515D01*
X0107772Y0130515D01*
X0107772Y0133776D01*
X0107654Y0134518D01*
X0107422Y0135232D01*
X0107081Y0135902D01*
X0106640Y0136509D01*
X0106109Y0137040D01*
X0105501Y0137482D01*
X0104832Y0137823D01*
X0104117Y0138055D01*
X0103376Y0138172D01*
X0103086Y0138172D01*
X0103086Y0130515D01*
X0102914Y0130515D01*
X0102914Y0138172D01*
X0102624Y0138172D01*
X0101883Y0138055D01*
X0101168Y0137823D01*
X0101107Y0137792D01*
X0101107Y0138884D01*
X0101539Y0139316D01*
X0102479Y0141584D01*
X0102479Y0149983D01*
X0101539Y0152251D01*
X0099803Y0153987D01*
X0097535Y0154927D01*
X0095079Y0154927D01*
X0092811Y0153987D01*
X0091075Y0152251D01*
X0090135Y0149983D01*
X0091038Y0152162D02*
X0070972Y0152162D01*
X0070310Y0153760D02*
X0092584Y0153760D01*
X0100030Y0153760D02*
X0105970Y0153760D01*
X0104424Y0152162D02*
X0101576Y0152162D01*
X0102238Y0150563D02*
X0103762Y0150563D01*
X0103521Y0148965D02*
X0102479Y0148965D01*
X0102479Y0147366D02*
X0103521Y0147366D01*
X0103521Y0145768D02*
X0102479Y0145768D01*
X0102479Y0144169D02*
X0103521Y0144169D01*
X0103521Y0142570D02*
X0102479Y0142570D01*
X0102225Y0140972D02*
X0103775Y0140972D01*
X0104437Y0139373D02*
X0101563Y0139373D01*
X0102914Y0137775D02*
X0103086Y0137775D01*
X0103086Y0136176D02*
X0102914Y0136176D01*
X0102914Y0134578D02*
X0103086Y0134578D01*
X0103086Y0132979D02*
X0102914Y0132979D01*
X0102914Y0131381D02*
X0103086Y0131381D01*
X0103086Y0129782D02*
X0102914Y0129782D01*
X0102914Y0128184D02*
X0103086Y0128184D01*
X0103086Y0126585D02*
X0102914Y0126585D01*
X0102914Y0124987D02*
X0103086Y0124987D01*
X0103086Y0123388D02*
X0102914Y0123388D01*
X0101498Y0121790D02*
X0113941Y0121790D01*
X0111727Y0123388D02*
X0105517Y0123388D01*
X0107096Y0124987D02*
X0110729Y0124987D01*
X0110214Y0126585D02*
X0107693Y0126585D01*
X0107772Y0128184D02*
X0110214Y0128184D01*
X0110214Y0129782D02*
X0107772Y0129782D01*
X0107772Y0131381D02*
X0110214Y0131381D01*
X0110214Y0132979D02*
X0107772Y0132979D01*
X0107635Y0134578D02*
X0110214Y0134578D01*
X0110855Y0136176D02*
X0106881Y0136176D01*
X0106002Y0137775D02*
X0104926Y0137775D01*
X0114962Y0152162D02*
X0128359Y0152162D01*
X0128200Y0153760D02*
X0113416Y0153760D01*
X0115624Y0150563D02*
X0129149Y0150563D01*
X0130747Y0148965D02*
X0115865Y0148965D01*
X0115865Y0147366D02*
X0132346Y0147366D01*
X0133944Y0145768D02*
X0115865Y0145768D01*
X0115865Y0144169D02*
X0129832Y0144169D01*
X0129473Y0132979D02*
X0124268Y0132979D01*
X0122669Y0131381D02*
X0128851Y0131381D01*
X0128107Y0129782D02*
X0122557Y0129782D01*
X0122557Y0128184D02*
X0127950Y0128184D01*
X0127950Y0128103D02*
X0128074Y0127317D01*
X0128320Y0126561D01*
X0128681Y0125853D01*
X0129148Y0125210D01*
X0129710Y0124648D01*
X0130353Y0124181D01*
X0131061Y0123820D01*
X0131817Y0123574D01*
X0132603Y0123450D01*
X0133000Y0123450D01*
X0133397Y0123450D01*
X0134183Y0123574D01*
X0134939Y0123820D01*
X0135647Y0124181D01*
X0136290Y0124648D01*
X0136852Y0125210D01*
X0137319Y0125853D01*
X0137680Y0126561D01*
X0137926Y0127317D01*
X0138050Y0128103D01*
X0138050Y0128500D01*
X0133000Y0128500D01*
X0133000Y0128500D01*
X0133000Y0123450D01*
X0133000Y0128500D01*
X0133000Y0128500D01*
X0133000Y0128500D01*
X0127950Y0128500D01*
X0127950Y0128103D01*
X0128312Y0126585D02*
X0122557Y0126585D01*
X0122043Y0124987D02*
X0129371Y0124987D01*
X0133000Y0124987D02*
X0133000Y0124987D01*
X0133000Y0126585D02*
X0133000Y0126585D01*
X0133000Y0128184D02*
X0133000Y0128184D01*
X0136629Y0124987D02*
X0138200Y0124987D01*
X0138200Y0126585D02*
X0137688Y0126585D01*
X0138050Y0128184D02*
X0138200Y0128184D01*
X0138200Y0129782D02*
X0137893Y0129782D01*
X0138200Y0131381D02*
X0137149Y0131381D01*
X0136527Y0132979D02*
X0138200Y0132979D01*
X0138200Y0123388D02*
X0121045Y0123388D01*
X0118830Y0121790D02*
X0138200Y0121790D01*
X0138200Y0120191D02*
X0103097Y0120191D01*
X0104695Y0118593D02*
X0138200Y0118593D01*
X0138200Y0116994D02*
X0131294Y0116994D01*
X0134383Y0115396D02*
X0138200Y0115396D01*
X0138200Y0113797D02*
X0137461Y0113797D01*
X0136805Y0102608D02*
X0138200Y0102608D01*
X0138200Y0101009D02*
X0128381Y0101009D01*
X0128381Y0099411D02*
X0138200Y0099411D01*
X0138200Y0097812D02*
X0128381Y0097812D01*
X0128381Y0096214D02*
X0138200Y0096214D01*
X0138200Y0094615D02*
X0127939Y0094615D01*
X0124305Y0093017D02*
X0138200Y0093017D01*
X0138200Y0091418D02*
X0122800Y0091418D01*
X0122800Y0089820D02*
X0138200Y0089820D01*
X0138200Y0088221D02*
X0122800Y0088221D01*
X0122800Y0086623D02*
X0138200Y0086623D01*
X0138200Y0085024D02*
X0122800Y0085024D01*
X0122800Y0083426D02*
X0130552Y0083426D01*
X0128619Y0081827D02*
X0122800Y0081827D01*
X0122800Y0080229D02*
X0127779Y0080229D01*
X0127500Y0078630D02*
X0122800Y0078630D01*
X0122800Y0077032D02*
X0127694Y0077032D01*
X0127635Y0077212D02*
X0127903Y0076389D01*
X0128296Y0075617D01*
X0128805Y0074917D01*
X0129417Y0074305D01*
X0130117Y0073796D01*
X0130889Y0073403D01*
X0131712Y0073135D01*
X0132567Y0073000D01*
X0132914Y0073000D01*
X0132914Y0078414D01*
X0127500Y0078414D01*
X0127500Y0078067D01*
X0127635Y0077212D01*
X0128430Y0075433D02*
X0122800Y0075433D01*
X0122800Y0073834D02*
X0130064Y0073834D01*
X0132914Y0073834D02*
X0133086Y0073834D01*
X0133086Y0075433D02*
X0132914Y0075433D01*
X0132914Y0077032D02*
X0133086Y0077032D01*
X0133086Y0078630D02*
X0132914Y0078630D01*
X0132914Y0080229D02*
X0133086Y0080229D01*
X0133086Y0081827D02*
X0132914Y0081827D01*
X0132914Y0083426D02*
X0133086Y0083426D01*
X0135448Y0083426D02*
X0138200Y0083426D01*
X0138200Y0081827D02*
X0137381Y0081827D01*
X0137570Y0075433D02*
X0138145Y0075433D01*
X0136546Y0073834D02*
X0135936Y0073834D01*
X0134948Y0072236D02*
X0122800Y0072236D01*
X0122800Y0070637D02*
X0133349Y0070637D01*
X0131751Y0069039D02*
X0122800Y0069039D01*
X0122800Y0067440D02*
X0130152Y0067440D01*
X0128554Y0065842D02*
X0122800Y0065842D01*
X0122800Y0064243D02*
X0126955Y0064243D01*
X0125357Y0062645D02*
X0122800Y0062645D01*
X0122800Y0061046D02*
X0123859Y0061046D01*
X0123200Y0059448D02*
X0122800Y0059448D01*
X0122800Y0057849D02*
X0123200Y0057849D01*
X0123200Y0056251D02*
X0122800Y0056251D01*
X0122800Y0054652D02*
X0123200Y0054652D01*
X0123200Y0053054D02*
X0122800Y0053054D01*
X0122800Y0051455D02*
X0123200Y0051455D01*
X0123200Y0049857D02*
X0122800Y0049857D01*
X0122800Y0048258D02*
X0123200Y0048258D01*
X0123200Y0046660D02*
X0122800Y0046660D01*
X0122800Y0045061D02*
X0123200Y0045061D01*
X0123200Y0043463D02*
X0122800Y0043463D01*
X0122800Y0041864D02*
X0123200Y0041864D01*
X0123200Y0040266D02*
X0122800Y0040266D01*
X0122800Y0038667D02*
X0123200Y0038667D01*
X0123200Y0037069D02*
X0122603Y0037069D01*
X0123200Y0035470D02*
X0121758Y0035470D01*
X0123200Y0033872D02*
X0119369Y0033872D01*
X0123200Y0032273D02*
X0110998Y0032273D01*
X0115811Y0027478D02*
X0123200Y0027478D01*
X0123200Y0029076D02*
X0099212Y0029076D01*
X0097800Y0030675D02*
X0123200Y0030675D01*
X0123200Y0025879D02*
X0117409Y0025879D01*
X0119008Y0024281D02*
X0123200Y0024281D01*
X0123200Y0022682D02*
X0120606Y0022682D01*
X0122205Y0021084D02*
X0123805Y0021084D01*
X0123803Y0019485D02*
X0125227Y0019485D01*
X0125402Y0017887D02*
X0136100Y0017887D01*
X0136448Y0016288D02*
X0127000Y0016288D01*
X0128599Y0014690D02*
X0137110Y0014690D01*
X0147558Y0013300D02*
X0148850Y0014591D01*
X0149900Y0017127D01*
X0149900Y0019872D01*
X0148850Y0022409D01*
X0146909Y0024350D01*
X0146710Y0024432D01*
X0147195Y0024917D01*
X0147704Y0025617D01*
X0148097Y0026389D01*
X0148365Y0027212D01*
X0148500Y0028067D01*
X0148500Y0028500D01*
X0148500Y0028933D01*
X0148365Y0029788D01*
X0148097Y0030611D01*
X0147704Y0031383D01*
X0147195Y0032083D01*
X0146583Y0032695D01*
X0145883Y0033204D01*
X0145111Y0033597D01*
X0144288Y0033865D01*
X0143433Y0034000D01*
X0143000Y0034000D01*
X0143000Y0028500D01*
X0143000Y0028500D01*
X0148500Y0028500D01*
X0143000Y0028500D01*
X0143000Y0028500D01*
X0143000Y0028500D01*
X0137500Y0028500D01*
X0137500Y0028933D01*
X0137635Y0029788D01*
X0137903Y0030611D01*
X0138296Y0031383D01*
X0138805Y0032083D01*
X0139417Y0032695D01*
X0140117Y0033204D01*
X0140889Y0033597D01*
X0141712Y0033865D01*
X0142567Y0034000D01*
X0143000Y0034000D01*
X0143000Y0028500D01*
X0137500Y0028500D01*
X0137500Y0028300D01*
X0132800Y0028300D01*
X0132800Y0056512D01*
X0145719Y0069431D01*
X0147069Y0070781D01*
X0147800Y0072545D01*
X0147800Y0073942D01*
X0149091Y0072650D01*
X0151627Y0071600D01*
X0153112Y0071600D01*
X0158200Y0066512D01*
X0158200Y0015488D01*
X0156012Y0013300D01*
X0147558Y0013300D01*
X0148890Y0014690D02*
X0157401Y0014690D01*
X0158200Y0016288D02*
X0149552Y0016288D01*
X0149900Y0017887D02*
X0158200Y0017887D01*
X0158200Y0019485D02*
X0149900Y0019485D01*
X0149398Y0021084D02*
X0158200Y0021084D01*
X0158200Y0022682D02*
X0148576Y0022682D01*
X0146977Y0024281D02*
X0158200Y0024281D01*
X0158200Y0025879D02*
X0147837Y0025879D01*
X0148407Y0027478D02*
X0158200Y0027478D01*
X0158200Y0029076D02*
X0148477Y0029076D01*
X0148065Y0030675D02*
X0158200Y0030675D01*
X0158200Y0032273D02*
X0147005Y0032273D01*
X0144243Y0033872D02*
X0158200Y0033872D01*
X0158200Y0035470D02*
X0132800Y0035470D01*
X0132800Y0033872D02*
X0141757Y0033872D01*
X0143000Y0033872D02*
X0143000Y0033872D01*
X0143000Y0032273D02*
X0143000Y0032273D01*
X0143000Y0030675D02*
X0143000Y0030675D01*
X0143000Y0029076D02*
X0143000Y0029076D01*
X0138995Y0032273D02*
X0132800Y0032273D01*
X0132800Y0030675D02*
X0137935Y0030675D01*
X0137523Y0029076D02*
X0132800Y0029076D01*
X0132800Y0037069D02*
X0158200Y0037069D01*
X0158200Y0038667D02*
X0145630Y0038667D01*
X0145883Y0038796D02*
X0146583Y0039305D01*
X0147195Y0039917D01*
X0147704Y0040617D01*
X0148097Y0041389D01*
X0148365Y0042212D01*
X0148500Y0043067D01*
X0148500Y0043500D01*
X0148500Y0043933D01*
X0148365Y0044788D01*
X0148097Y0045611D01*
X0147704Y0046383D01*
X0147195Y0047083D01*
X0146710Y0047568D01*
X0146909Y0047650D01*
X0148850Y0049591D01*
X0149900Y0052127D01*
X0149900Y0054872D01*
X0148850Y0057409D01*
X0146909Y0059350D01*
X0144372Y0060400D01*
X0141627Y0060400D01*
X0139091Y0059350D01*
X0137150Y0057409D01*
X0136100Y0054872D01*
X0136100Y0052127D01*
X0137150Y0049591D01*
X0139091Y0047650D01*
X0139290Y0047568D01*
X0138805Y0047083D01*
X0138296Y0046383D01*
X0137903Y0045611D01*
X0137635Y0044788D01*
X0137500Y0043933D01*
X0137500Y0043500D01*
X0143000Y0043500D01*
X0148500Y0043500D01*
X0143000Y0043500D01*
X0143000Y0043500D01*
X0143000Y0043500D01*
X0143000Y0038000D01*
X0143433Y0038000D01*
X0144288Y0038135D01*
X0145111Y0038403D01*
X0145883Y0038796D01*
X0147449Y0040266D02*
X0158200Y0040266D01*
X0158200Y0041864D02*
X0148252Y0041864D01*
X0148500Y0043463D02*
X0158200Y0043463D01*
X0158200Y0045061D02*
X0148276Y0045061D01*
X0147503Y0046660D02*
X0158200Y0046660D01*
X0158200Y0048258D02*
X0147516Y0048258D01*
X0148959Y0049857D02*
X0158200Y0049857D01*
X0158200Y0051455D02*
X0149622Y0051455D01*
X0149900Y0053054D02*
X0158200Y0053054D01*
X0158200Y0054652D02*
X0149900Y0054652D01*
X0149329Y0056251D02*
X0158200Y0056251D01*
X0158200Y0057849D02*
X0148409Y0057849D01*
X0146671Y0059448D02*
X0158200Y0059448D01*
X0158200Y0061046D02*
X0137335Y0061046D01*
X0135736Y0059448D02*
X0139329Y0059448D01*
X0137591Y0057849D02*
X0134138Y0057849D01*
X0132800Y0056251D02*
X0136671Y0056251D01*
X0136100Y0054652D02*
X0132800Y0054652D01*
X0132800Y0053054D02*
X0136100Y0053054D01*
X0136378Y0051455D02*
X0132800Y0051455D01*
X0132800Y0049857D02*
X0137041Y0049857D01*
X0138484Y0048258D02*
X0132800Y0048258D01*
X0132800Y0046660D02*
X0138497Y0046660D01*
X0137724Y0045061D02*
X0132800Y0045061D01*
X0132800Y0043463D02*
X0137500Y0043463D01*
X0137500Y0043500D02*
X0137500Y0043067D01*
X0137635Y0042212D01*
X0137903Y0041389D01*
X0138296Y0040617D01*
X0138805Y0039917D01*
X0139417Y0039305D01*
X0140117Y0038796D01*
X0140889Y0038403D01*
X0141712Y0038135D01*
X0142567Y0038000D01*
X0143000Y0038000D01*
X0143000Y0043500D01*
X0143000Y0043500D01*
X0137500Y0043500D01*
X0137748Y0041864D02*
X0132800Y0041864D01*
X0132800Y0040266D02*
X0138551Y0040266D01*
X0140370Y0038667D02*
X0132800Y0038667D01*
X0143000Y0038667D02*
X0143000Y0038667D01*
X0143000Y0040266D02*
X0143000Y0040266D01*
X0143000Y0041864D02*
X0143000Y0041864D01*
X0143000Y0043463D02*
X0143000Y0043463D01*
X0138933Y0062645D02*
X0158200Y0062645D01*
X0158200Y0064243D02*
X0140532Y0064243D01*
X0142130Y0065842D02*
X0158200Y0065842D01*
X0157271Y0067440D02*
X0143729Y0067440D01*
X0145327Y0069039D02*
X0155673Y0069039D01*
X0154074Y0070637D02*
X0146926Y0070637D01*
X0145719Y0069431D02*
X0145719Y0069431D01*
X0147672Y0072236D02*
X0150092Y0072236D01*
X0147907Y0073834D02*
X0147800Y0073834D01*
X0147800Y0083426D02*
X0148168Y0083426D01*
X0147800Y0085024D02*
X0150720Y0085024D01*
X0147800Y0086623D02*
X0163501Y0086623D01*
X0163501Y0088221D02*
X0147800Y0088221D01*
X0147800Y0089820D02*
X0163501Y0089820D01*
X0163501Y0091418D02*
X0147800Y0091418D01*
X0147800Y0093017D02*
X0163501Y0093017D01*
X0163501Y0094615D02*
X0147800Y0094615D01*
X0147800Y0096214D02*
X0163501Y0096214D01*
X0163501Y0097812D02*
X0147800Y0097812D01*
X0147800Y0099411D02*
X0163501Y0099411D01*
X0163501Y0101009D02*
X0147800Y0101009D01*
X0147800Y0102608D02*
X0149195Y0102608D01*
X0156805Y0102608D02*
X0163501Y0102608D01*
X0163501Y0104206D02*
X0158464Y0104206D01*
X0159352Y0105805D02*
X0163501Y0105805D01*
X0163501Y0107403D02*
X0159900Y0107403D01*
X0159900Y0109002D02*
X0163501Y0109002D01*
X0163501Y0110600D02*
X0159599Y0110600D01*
X0158936Y0112199D02*
X0163501Y0112199D01*
X0163501Y0113797D02*
X0157461Y0113797D01*
X0154383Y0115396D02*
X0163501Y0115396D01*
X0163501Y0116994D02*
X0147800Y0116994D01*
X0147800Y0115396D02*
X0151617Y0115396D01*
X0148539Y0113797D02*
X0147800Y0113797D01*
X0147800Y0118593D02*
X0163501Y0118593D01*
X0163501Y0120191D02*
X0147800Y0120191D01*
X0147800Y0121790D02*
X0163501Y0121790D01*
X0163501Y0123388D02*
X0147800Y0123388D01*
X0147800Y0124987D02*
X0163501Y0124987D01*
X0163501Y0126585D02*
X0158199Y0126585D01*
X0159572Y0128184D02*
X0163501Y0128184D01*
X0163501Y0129782D02*
X0160234Y0129782D01*
X0160395Y0131381D02*
X0163501Y0131381D01*
X0163501Y0132979D02*
X0160294Y0132979D01*
X0159632Y0134578D02*
X0163501Y0134578D01*
X0163501Y0136176D02*
X0158343Y0136176D01*
X0157409Y0137775D02*
X0163501Y0137775D01*
X0163501Y0139373D02*
X0158553Y0139373D01*
X0158982Y0140972D02*
X0163501Y0140972D01*
X0163501Y0142570D02*
X0158881Y0142570D01*
X0158214Y0144169D02*
X0163501Y0144169D01*
X0163501Y0145768D02*
X0156598Y0145768D01*
X0153945Y0145768D02*
X0153945Y0145768D01*
X0153945Y0144169D02*
X0153945Y0144169D01*
X0153945Y0142570D02*
X0153945Y0142570D01*
X0151292Y0145768D02*
X0147256Y0145768D01*
X0147800Y0144169D02*
X0149676Y0144169D01*
X0149009Y0142570D02*
X0147800Y0142570D01*
X0147800Y0140972D02*
X0148908Y0140972D01*
X0149337Y0139373D02*
X0147800Y0139373D01*
X0147800Y0137775D02*
X0150481Y0137775D01*
X0149547Y0136176D02*
X0147800Y0136176D01*
X0147800Y0134578D02*
X0148258Y0134578D01*
X0148317Y0128184D02*
X0147800Y0128184D01*
X0147800Y0126585D02*
X0149691Y0126585D01*
X0145922Y0147366D02*
X0163501Y0147366D01*
X0163501Y0148965D02*
X0144324Y0148965D01*
X0142725Y0150563D02*
X0163501Y0150563D01*
X0163501Y0152162D02*
X0141127Y0152162D01*
X0139528Y0153760D02*
X0163501Y0153760D01*
X0163501Y0155359D02*
X0137930Y0155359D01*
X0137800Y0156957D02*
X0150765Y0156957D01*
X0151627Y0156600D02*
X0149091Y0157650D01*
X0147150Y0159591D01*
X0146100Y0162127D01*
X0146100Y0164872D01*
X0147150Y0167409D01*
X0149091Y0169350D01*
X0151627Y0170400D01*
X0154372Y0170400D01*
X0156909Y0169350D01*
X0158850Y0167409D01*
X0159900Y0164872D01*
X0159900Y0162127D01*
X0158850Y0159591D01*
X0156909Y0157650D01*
X0154372Y0156600D01*
X0151627Y0156600D01*
X0155235Y0156957D02*
X0163501Y0156957D01*
X0163501Y0158556D02*
X0157814Y0158556D01*
X0159083Y0160154D02*
X0163501Y0160154D01*
X0163501Y0161753D02*
X0159745Y0161753D01*
X0159900Y0163351D02*
X0163501Y0163351D01*
X0163501Y0164950D02*
X0159868Y0164950D01*
X0159206Y0166548D02*
X0163501Y0166548D01*
X0163501Y0168147D02*
X0158111Y0168147D01*
X0155953Y0169745D02*
X0163501Y0169745D01*
X0163501Y0171344D02*
X0006200Y0171344D01*
X0006200Y0172942D02*
X0163501Y0172942D01*
X0163501Y0174541D02*
X0006200Y0174541D01*
X0006200Y0176139D02*
X0163501Y0176139D01*
X0163501Y0177738D02*
X0006200Y0177738D01*
X0006200Y0179336D02*
X0163501Y0179336D01*
X0163501Y0180935D02*
X0006200Y0180935D01*
X0006200Y0182533D02*
X0163501Y0182533D01*
X0163501Y0184132D02*
X0006200Y0184132D01*
X0006200Y0185730D02*
X0163501Y0185730D01*
X0163501Y0187329D02*
X0156132Y0187329D01*
X0156909Y0187650D02*
X0154372Y0186600D01*
X0151627Y0186600D01*
X0149091Y0187650D01*
X0147150Y0189591D01*
X0146100Y0192127D01*
X0146100Y0194872D01*
X0147150Y0197409D01*
X0149091Y0199350D01*
X0151627Y0200400D01*
X0154372Y0200400D01*
X0156909Y0199350D01*
X0158850Y0197409D01*
X0159900Y0194872D01*
X0159900Y0192127D01*
X0158850Y0189591D01*
X0156909Y0187650D01*
X0158185Y0188927D02*
X0163501Y0188927D01*
X0163501Y0190526D02*
X0159237Y0190526D01*
X0159899Y0192124D02*
X0163501Y0192124D01*
X0163501Y0193723D02*
X0159900Y0193723D01*
X0159714Y0195321D02*
X0163501Y0195321D01*
X0163501Y0196920D02*
X0159052Y0196920D01*
X0157740Y0198518D02*
X0163501Y0198518D01*
X0163501Y0200117D02*
X0155056Y0200117D01*
X0150944Y0200117D02*
X0135056Y0200117D01*
X0134372Y0200400D02*
X0131627Y0200400D01*
X0129091Y0199350D01*
X0127150Y0197409D01*
X0126100Y0194872D01*
X0126100Y0192127D01*
X0127150Y0189591D01*
X0129091Y0187650D01*
X0131627Y0186600D01*
X0134372Y0186600D01*
X0136909Y0187650D01*
X0138850Y0189591D01*
X0139900Y0192127D01*
X0139900Y0194872D01*
X0138850Y0197409D01*
X0136909Y0199350D01*
X0134372Y0200400D01*
X0130944Y0200117D02*
X0006200Y0200117D01*
X0006200Y0201715D02*
X0038885Y0201715D01*
X0039163Y0201600D02*
X0037987Y0202087D01*
X0037087Y0202987D01*
X0036600Y0204163D01*
X0036600Y0204822D01*
X0036083Y0204305D01*
X0035383Y0203796D01*
X0034611Y0203403D01*
X0033788Y0203135D01*
X0032933Y0203000D01*
X0032700Y0203000D01*
X0032700Y0208300D01*
X0032300Y0208300D01*
X0032300Y0203000D01*
X0032067Y0203000D01*
X0031212Y0203135D01*
X0030389Y0203403D01*
X0029617Y0203796D01*
X0028917Y0204305D01*
X0028305Y0204917D01*
X0027796Y0205617D01*
X0027403Y0206389D01*
X0027135Y0207212D01*
X0027000Y0208067D01*
X0027000Y0208300D01*
X0032300Y0208300D01*
X0032300Y0208700D01*
X0032300Y0214000D01*
X0032067Y0214000D01*
X0031212Y0213865D01*
X0030389Y0213597D01*
X0029617Y0213204D01*
X0028917Y0212695D01*
X0028305Y0212083D01*
X0027796Y0211383D01*
X0027403Y0210611D01*
X0027135Y0209788D01*
X0027000Y0208933D01*
X0027000Y0208700D01*
X0032300Y0208700D01*
X0032700Y0208700D01*
X0032700Y0214000D01*
X0032933Y0214000D01*
X0033788Y0213865D01*
X0034611Y0213597D01*
X0035383Y0213204D01*
X0036083Y0212695D01*
X0036600Y0212178D01*
X0036600Y0212837D01*
X0037087Y0214013D01*
X0037987Y0214913D01*
X0039163Y0215400D01*
X0047837Y0215400D01*
X0049013Y0214913D01*
X0049913Y0214013D01*
X0050400Y0212837D01*
X0050400Y0204163D01*
X0049913Y0202987D01*
X0049013Y0202087D01*
X0047837Y0201600D01*
X0039163Y0201600D01*
X0036952Y0203314D02*
X0034337Y0203314D01*
X0032700Y0203314D02*
X0032300Y0203314D01*
X0032300Y0204912D02*
X0032700Y0204912D01*
X0032700Y0206511D02*
X0032300Y0206511D01*
X0032300Y0208109D02*
X0032700Y0208109D01*
X0032700Y0209708D02*
X0032300Y0209708D01*
X0032300Y0211306D02*
X0032700Y0211306D01*
X0032700Y0212905D02*
X0032300Y0212905D01*
X0029206Y0212905D02*
X0006200Y0212905D01*
X0006200Y0214503D02*
X0037578Y0214503D01*
X0036628Y0212905D02*
X0035794Y0212905D01*
X0030663Y0203314D02*
X0006200Y0203314D01*
X0006200Y0204912D02*
X0028309Y0204912D01*
X0027363Y0206511D02*
X0006200Y0206511D01*
X0006200Y0208109D02*
X0027000Y0208109D01*
X0027123Y0209708D02*
X0006200Y0209708D01*
X0006200Y0211306D02*
X0027757Y0211306D01*
X0008799Y0219299D02*
X0162201Y0219299D01*
X0163501Y0217701D02*
X0007201Y0217701D01*
X0006200Y0216102D02*
X0163501Y0216102D01*
X0163501Y0214503D02*
X0049422Y0214503D01*
X0050372Y0212905D02*
X0163501Y0212905D01*
X0163501Y0211306D02*
X0050400Y0211306D01*
X0050400Y0209708D02*
X0163501Y0209708D01*
X0163501Y0208109D02*
X0050400Y0208109D01*
X0050400Y0206511D02*
X0163501Y0206511D01*
X0163501Y0204912D02*
X0050400Y0204912D01*
X0050048Y0203314D02*
X0163501Y0203314D01*
X0163501Y0201715D02*
X0048115Y0201715D01*
X0058939Y0158556D02*
X0017061Y0158556D01*
X0020261Y0156957D02*
X0055739Y0156957D01*
X0054141Y0155359D02*
X0021859Y0155359D01*
X0022910Y0153760D02*
X0053090Y0153760D01*
X0052428Y0152162D02*
X0023572Y0152162D01*
X0024000Y0150563D02*
X0052000Y0150563D01*
X0052000Y0148965D02*
X0024000Y0148965D01*
X0024000Y0147366D02*
X0052000Y0147366D01*
X0052623Y0145768D02*
X0023377Y0145768D01*
X0022715Y0144169D02*
X0039622Y0144169D01*
X0039239Y0144010D02*
X0037411Y0142182D01*
X0037155Y0141565D01*
X0036969Y0141822D01*
X0036401Y0142390D01*
X0035752Y0142862D01*
X0035036Y0143226D01*
X0034273Y0143474D01*
X0033480Y0143600D01*
X0033179Y0143600D01*
X0033179Y0138600D01*
X0032979Y0138600D01*
X0032979Y0143600D01*
X0032677Y0143600D01*
X0031884Y0143474D01*
X0031121Y0143226D01*
X0030406Y0142862D01*
X0029756Y0142390D01*
X0029189Y0141822D01*
X0028717Y0141173D01*
X0028352Y0140458D01*
X0028104Y0139694D01*
X0027979Y0138901D01*
X0027979Y0138600D01*
X0032979Y0138600D01*
X0032979Y0138400D01*
X0027979Y0138400D01*
X0027979Y0138099D01*
X0028104Y0137306D01*
X0028352Y0136542D01*
X0028717Y0135827D01*
X0028842Y0135655D01*
X0027568Y0134382D01*
X0026579Y0131993D01*
X0026579Y0129407D01*
X0027568Y0127018D01*
X0029397Y0125190D01*
X0031786Y0124200D01*
X0034372Y0124200D01*
X0036761Y0125190D01*
X0038000Y0126429D01*
X0039239Y0125190D01*
X0041628Y0124200D01*
X0044214Y0124200D01*
X0046603Y0125190D01*
X0048432Y0127018D01*
X0049421Y0129407D01*
X0049421Y0131993D01*
X0048432Y0134382D01*
X0048214Y0134600D01*
X0048432Y0134818D01*
X0049421Y0137207D01*
X0049421Y0139793D01*
X0048432Y0142182D01*
X0046603Y0144010D01*
X0044214Y0145000D01*
X0041628Y0145000D01*
X0039239Y0144010D01*
X0037799Y0142570D02*
X0036153Y0142570D01*
X0033179Y0142570D02*
X0032979Y0142570D01*
X0032979Y0140972D02*
X0033179Y0140972D01*
X0033179Y0139373D02*
X0032979Y0139373D01*
X0030005Y0142570D02*
X0021388Y0142570D01*
X0019783Y0140972D02*
X0028614Y0140972D01*
X0028054Y0139373D02*
X0006200Y0139373D01*
X0006200Y0137775D02*
X0028030Y0137775D01*
X0028539Y0136176D02*
X0006200Y0136176D01*
X0006200Y0134578D02*
X0027764Y0134578D01*
X0026987Y0132979D02*
X0006200Y0132979D01*
X0006200Y0131381D02*
X0026579Y0131381D01*
X0026579Y0129782D02*
X0006200Y0129782D01*
X0006200Y0128184D02*
X0027085Y0128184D01*
X0028001Y0126585D02*
X0006200Y0126585D01*
X0006200Y0124987D02*
X0029886Y0124987D01*
X0036271Y0124987D02*
X0039729Y0124987D01*
X0046114Y0124987D02*
X0083957Y0124987D01*
X0083443Y0126585D02*
X0047999Y0126585D01*
X0048915Y0128184D02*
X0083443Y0128184D01*
X0083443Y0129782D02*
X0049421Y0129782D01*
X0049421Y0131381D02*
X0083443Y0131381D01*
X0083443Y0132979D02*
X0049013Y0132979D01*
X0048236Y0134578D02*
X0083443Y0134578D01*
X0084084Y0136176D02*
X0048994Y0136176D01*
X0049421Y0137775D02*
X0085260Y0137775D01*
X0087906Y0139373D02*
X0049421Y0139373D01*
X0048933Y0140972D02*
X0056217Y0140972D01*
X0054612Y0142570D02*
X0048043Y0142570D01*
X0046220Y0144169D02*
X0053285Y0144169D01*
X0064461Y0158556D02*
X0128186Y0158556D01*
X0128200Y0156957D02*
X0067661Y0156957D01*
X0069259Y0155359D02*
X0128200Y0155359D01*
X0126917Y0160154D02*
X0006200Y0160154D01*
X0006200Y0158556D02*
X0011539Y0158556D01*
X0008339Y0156957D02*
X0006200Y0156957D01*
X0006200Y0155359D02*
X0006741Y0155359D01*
X0006200Y0161753D02*
X0126255Y0161753D01*
X0126100Y0163351D02*
X0006200Y0163351D01*
X0006200Y0164950D02*
X0126132Y0164950D01*
X0126794Y0166548D02*
X0006200Y0166548D01*
X0006200Y0168147D02*
X0127889Y0168147D01*
X0130047Y0169745D02*
X0006200Y0169745D01*
X0006200Y0187329D02*
X0129868Y0187329D01*
X0127815Y0188927D02*
X0006200Y0188927D01*
X0006200Y0190526D02*
X0126763Y0190526D01*
X0126101Y0192124D02*
X0006200Y0192124D01*
X0006200Y0193723D02*
X0126100Y0193723D01*
X0126286Y0195321D02*
X0006200Y0195321D01*
X0006200Y0196920D02*
X0126948Y0196920D01*
X0128260Y0198518D02*
X0006200Y0198518D01*
X0006200Y0142570D02*
X0007212Y0142570D01*
X0006200Y0140972D02*
X0008817Y0140972D01*
X0006200Y0123388D02*
X0084814Y0123388D01*
X0084814Y0121790D02*
X0006200Y0121790D01*
X0006200Y0120191D02*
X0084814Y0120191D01*
X0084814Y0118593D02*
X0006200Y0118593D01*
X0006200Y0116994D02*
X0084814Y0116994D01*
X0085036Y0115396D02*
X0006200Y0115396D01*
X0006200Y0113797D02*
X0085914Y0113797D01*
X0087513Y0112199D02*
X0006200Y0112199D01*
X0006200Y0110600D02*
X0089112Y0110600D01*
X0090710Y0109002D02*
X0006200Y0109002D01*
X0006200Y0107403D02*
X0092309Y0107403D01*
X0093907Y0105805D02*
X0006200Y0105805D01*
X0006200Y0104206D02*
X0090071Y0104206D01*
X0088136Y0102608D02*
X0006200Y0102608D01*
X0006200Y0101009D02*
X0087208Y0101009D01*
X0086700Y0099411D02*
X0006200Y0099411D01*
X0006200Y0097812D02*
X0086700Y0097812D01*
X0087116Y0096214D02*
X0006200Y0096214D01*
X0006200Y0094615D02*
X0087913Y0094615D01*
X0089533Y0093017D02*
X0006200Y0093017D01*
X0006200Y0091418D02*
X0098200Y0091418D01*
X0098200Y0089820D02*
X0006200Y0089820D01*
X0006200Y0088221D02*
X0098200Y0088221D01*
X0098200Y0086623D02*
X0006200Y0086623D01*
X0006200Y0085024D02*
X0098200Y0085024D01*
X0098200Y0083426D02*
X0006200Y0083426D01*
X0006200Y0081827D02*
X0098200Y0081827D01*
X0098200Y0080229D02*
X0006200Y0080229D01*
X0006200Y0078630D02*
X0098200Y0078630D01*
X0098200Y0077032D02*
X0006200Y0077032D01*
X0006200Y0075433D02*
X0098200Y0075433D01*
X0098200Y0073834D02*
X0006200Y0073834D01*
X0006200Y0072236D02*
X0089008Y0072236D01*
X0089504Y0072732D02*
X0087768Y0070996D01*
X0086828Y0068728D01*
X0086828Y0066272D01*
X0087768Y0064004D01*
X0089504Y0062268D01*
X0091772Y0061328D01*
X0094228Y0061328D01*
X0096496Y0062268D01*
X0098232Y0064004D01*
X0099172Y0066272D01*
X0099172Y0068728D01*
X0098232Y0070996D01*
X0096496Y0072732D01*
X0094228Y0073672D01*
X0091772Y0073672D01*
X0089504Y0072732D01*
X0087619Y0070637D02*
X0006200Y0070637D01*
X0006200Y0069039D02*
X0086957Y0069039D01*
X0086828Y0067440D02*
X0006200Y0067440D01*
X0006200Y0065842D02*
X0087007Y0065842D01*
X0087669Y0064243D02*
X0006200Y0064243D01*
X0006200Y0062645D02*
X0089127Y0062645D01*
X0096873Y0062645D02*
X0104105Y0062645D01*
X0102498Y0064243D02*
X0098331Y0064243D01*
X0098993Y0065842D02*
X0101632Y0065842D01*
X0101100Y0067440D02*
X0099172Y0067440D01*
X0099043Y0069039D02*
X0100673Y0069039D01*
X0099074Y0070637D02*
X0098381Y0070637D01*
X0098328Y0072236D02*
X0096992Y0072236D01*
X0111895Y0062645D02*
X0113200Y0062645D01*
X0113200Y0061046D02*
X0006200Y0061046D01*
X0006200Y0059448D02*
X0113200Y0059448D01*
X0113200Y0057849D02*
X0006200Y0057849D01*
X0006200Y0056251D02*
X0113200Y0056251D01*
X0113200Y0054652D02*
X0006200Y0054652D01*
X0006200Y0053054D02*
X0113200Y0053054D01*
X0113200Y0051455D02*
X0006200Y0051455D01*
X0006200Y0049857D02*
X0113200Y0049857D01*
X0113200Y0048258D02*
X0006200Y0048258D01*
X0006200Y0046660D02*
X0113200Y0046660D01*
X0113200Y0045061D02*
X0110190Y0045061D01*
X0112795Y0043463D02*
X0113200Y0043463D01*
X0105810Y0045061D02*
X0095701Y0045061D01*
X0097765Y0043463D02*
X0103205Y0043463D01*
X0101925Y0041864D02*
X0098701Y0041864D01*
X0099172Y0040266D02*
X0101263Y0040266D01*
X0101100Y0038667D02*
X0099172Y0038667D01*
X0098673Y0037069D02*
X0101124Y0037069D01*
X0101786Y0035470D02*
X0097800Y0035470D01*
X0097800Y0033872D02*
X0102870Y0033872D01*
X0105002Y0032273D02*
X0097800Y0032273D01*
X0090431Y0024281D02*
X0061496Y0024281D01*
X0061550Y0023937D02*
X0061413Y0024800D01*
X0061143Y0025630D01*
X0060747Y0026409D01*
X0060233Y0027116D01*
X0059616Y0027733D01*
X0058909Y0028247D01*
X0058130Y0028643D01*
X0057300Y0028913D01*
X0056437Y0029050D01*
X0056086Y0029050D01*
X0056086Y0023586D01*
X0061550Y0023586D01*
X0061550Y0023937D01*
X0061550Y0023414D02*
X0056086Y0023414D01*
X0056086Y0023586D01*
X0055914Y0023586D01*
X0055914Y0029050D01*
X0055563Y0029050D01*
X0054700Y0028913D01*
X0053870Y0028643D01*
X0053091Y0028247D01*
X0052384Y0027733D01*
X0051767Y0027116D01*
X0051253Y0026409D01*
X0050857Y0025630D01*
X0050587Y0024800D01*
X0050450Y0023937D01*
X0050450Y0023586D01*
X0055914Y0023586D01*
X0055914Y0023414D01*
X0056086Y0023414D01*
X0056086Y0017950D01*
X0056437Y0017950D01*
X0057300Y0018087D01*
X0058130Y0018357D01*
X0058909Y0018753D01*
X0059616Y0019267D01*
X0060233Y0019884D01*
X0060747Y0020591D01*
X0061143Y0021370D01*
X0061413Y0022200D01*
X0061550Y0023063D01*
X0061550Y0023414D01*
X0061490Y0022682D02*
X0092030Y0022682D01*
X0093628Y0021084D02*
X0060998Y0021084D01*
X0059834Y0019485D02*
X0095227Y0019485D01*
X0094180Y0017887D02*
X0023215Y0017887D01*
X0022937Y0017608D02*
X0024892Y0019563D01*
X0025950Y0022118D01*
X0025950Y0024882D01*
X0024892Y0027437D01*
X0022937Y0029392D01*
X0020382Y0030450D01*
X0017618Y0030450D01*
X0015063Y0029392D01*
X0013108Y0027437D01*
X0012050Y0024882D01*
X0012050Y0022118D01*
X0013108Y0019563D01*
X0015063Y0017608D01*
X0017618Y0016550D01*
X0020382Y0016550D01*
X0022937Y0017608D01*
X0024814Y0019485D02*
X0052166Y0019485D01*
X0052384Y0019267D02*
X0053091Y0018753D01*
X0053870Y0018357D01*
X0054700Y0018087D01*
X0055563Y0017950D01*
X0055914Y0017950D01*
X0055914Y0023414D01*
X0050450Y0023414D01*
X0050450Y0023063D01*
X0050587Y0022200D01*
X0050857Y0021370D01*
X0051253Y0020591D01*
X0051767Y0019884D01*
X0052384Y0019267D01*
X0051002Y0021084D02*
X0025522Y0021084D01*
X0025950Y0022682D02*
X0050510Y0022682D01*
X0050504Y0024281D02*
X0025950Y0024281D01*
X0025537Y0025879D02*
X0050983Y0025879D01*
X0052129Y0027478D02*
X0024851Y0027478D01*
X0023253Y0029076D02*
X0088200Y0029076D01*
X0088228Y0027478D02*
X0059871Y0027478D01*
X0061017Y0025879D02*
X0088890Y0025879D01*
X0088200Y0030675D02*
X0006200Y0030675D01*
X0006200Y0032273D02*
X0088200Y0032273D01*
X0088200Y0033872D02*
X0006200Y0033872D01*
X0006200Y0035470D02*
X0088200Y0035470D01*
X0087327Y0037069D02*
X0006200Y0037069D01*
X0006200Y0038667D02*
X0086828Y0038667D01*
X0086828Y0040266D02*
X0006200Y0040266D01*
X0006200Y0041864D02*
X0087299Y0041864D01*
X0088235Y0043463D02*
X0006200Y0043463D01*
X0006200Y0045061D02*
X0090299Y0045061D01*
X0092748Y0016288D02*
X0006200Y0016288D01*
X0006200Y0014690D02*
X0092120Y0014690D01*
X0092000Y0013300D02*
X0092000Y0013067D01*
X0092135Y0012212D01*
X0092403Y0011389D01*
X0092796Y0010617D01*
X0093305Y0009917D01*
X0093917Y0009305D01*
X0094617Y0008796D01*
X0095389Y0008403D01*
X0096212Y0008135D01*
X0097067Y0008000D01*
X0097300Y0008000D01*
X0097300Y0013300D01*
X0092000Y0013300D01*
X0092000Y0013091D02*
X0006200Y0013091D01*
X0006200Y0011493D02*
X0092369Y0011493D01*
X0093328Y0009894D02*
X0006200Y0009894D01*
X0006200Y0008296D02*
X0095719Y0008296D01*
X0097300Y0008296D02*
X0097700Y0008296D01*
X0099281Y0008296D02*
X0101959Y0008296D01*
X0097700Y0009894D02*
X0097300Y0009894D01*
X0097300Y0011493D02*
X0097700Y0011493D01*
X0097700Y0013091D02*
X0097300Y0013091D01*
X0125281Y0062569D02*
X0125281Y0062569D01*
X0098200Y0093017D02*
X0096767Y0093017D01*
X0105885Y0107403D02*
X0126100Y0107403D01*
X0126648Y0105805D02*
X0107241Y0105805D01*
X0107800Y0104206D02*
X0109771Y0104206D01*
X0107836Y0102608D02*
X0107800Y0102608D01*
X0115929Y0104206D02*
X0127536Y0104206D01*
X0127780Y0102608D02*
X0129195Y0102608D01*
X0118220Y0102608D02*
X0117864Y0102608D01*
X0118684Y0140972D02*
X0115611Y0140972D01*
X0115865Y0142570D02*
X0120284Y0142570D01*
X0137814Y0158556D02*
X0148186Y0158556D01*
X0146917Y0160154D02*
X0139083Y0160154D01*
X0139745Y0161753D02*
X0146255Y0161753D01*
X0146100Y0163351D02*
X0139900Y0163351D01*
X0139868Y0164950D02*
X0146132Y0164950D01*
X0146794Y0166548D02*
X0139206Y0166548D01*
X0138111Y0168147D02*
X0147889Y0168147D01*
X0150047Y0169745D02*
X0135953Y0169745D01*
X0136132Y0187329D02*
X0149868Y0187329D01*
X0147815Y0188927D02*
X0138185Y0188927D01*
X0139237Y0190526D02*
X0146763Y0190526D01*
X0146101Y0192124D02*
X0139899Y0192124D01*
X0139900Y0193723D02*
X0146100Y0193723D01*
X0146286Y0195321D02*
X0139714Y0195321D01*
X0139052Y0196920D02*
X0146948Y0196920D01*
X0148260Y0198518D02*
X0137740Y0198518D01*
X0090135Y0144169D02*
X0070115Y0144169D01*
X0068788Y0142570D02*
X0090135Y0142570D01*
X0090389Y0140972D02*
X0067183Y0140972D01*
X0056086Y0027478D02*
X0055914Y0027478D01*
X0055914Y0025879D02*
X0056086Y0025879D01*
X0056086Y0024281D02*
X0055914Y0024281D01*
X0055914Y0022682D02*
X0056086Y0022682D01*
X0056086Y0021084D02*
X0055914Y0021084D01*
X0055914Y0019485D02*
X0056086Y0019485D01*
X0014785Y0017887D02*
X0006200Y0017887D01*
X0006200Y0019485D02*
X0013186Y0019485D01*
X0012478Y0021084D02*
X0006200Y0021084D01*
X0006200Y0022682D02*
X0012050Y0022682D01*
X0012050Y0024281D02*
X0006200Y0024281D01*
X0006200Y0025879D02*
X0012463Y0025879D01*
X0013149Y0027478D02*
X0006200Y0027478D01*
X0006200Y0029076D02*
X0014747Y0029076D01*
X0155280Y0085024D02*
X0163501Y0085024D01*
X0163501Y0083426D02*
X0157832Y0083426D01*
X0159090Y0081827D02*
X0163501Y0081827D01*
X0163501Y0080229D02*
X0159753Y0080229D01*
X0159900Y0078630D02*
X0163501Y0078630D01*
X0163501Y0077032D02*
X0161257Y0077032D01*
X0162855Y0075433D02*
X0163501Y0075433D01*
D21*
X0123000Y0098500D03*
M02*
