%
M48
M72
T01C0.02362
T02C0.02756
T03C0.03200
T04C0.03543
T05C0.03600
T06C0.04000
T07C0.09000
%
T01
X123000Y98500
T02
X133000Y128500
X133000Y138500
X153945Y141453
X153945Y131453
T03
X112850Y98500
X93150Y98500
X143000Y53500
X143000Y43500
X143000Y28500
X143000Y18500
T04
X19000Y23500
X56000Y23500
X93000Y39500
X108000Y38500
X93000Y67500
X108000Y68500
X133000Y78500
X153000Y78500
X153000Y108500
X133000Y108500
X116386Y130429
X109693Y145783
X103000Y130429
X96307Y145783
X89614Y130429
X133000Y163500
X153000Y163500
X153000Y193500
X133000Y193500
T05
X42921Y138500
X42921Y130700
X33079Y130700
X33079Y138500
T06
X32500Y208500
X43500Y208500
X97500Y13500
X108500Y13500
T07
X61700Y149200
X14300Y149200
M30
