G75*
%MOIN*%
%OFA0B0*%
%FSLAX25Y25*%
%IPPOS*%
%LPD*%
%AMOC8*
5,1,8,0,0,1.08239X$1,22.5*
%
%ADD10C,0.00800*%
D10*
X0033027Y0008972D02*
X0033027Y0018814D01*
X0113735Y0018814D01*
X0113735Y0008972D01*
X0033027Y0008972D01*
X0033027Y0095586D02*
X0113735Y0095586D01*
X0113735Y0105428D01*
X0033027Y0105428D01*
X0033027Y0095586D01*
X0019700Y0127200D02*
X0014700Y0127200D01*
X0012200Y0129700D01*
X0012200Y0134700D01*
X0014700Y0137200D01*
X0012200Y0139700D01*
X0012200Y0144700D01*
X0014700Y0147200D01*
X0012200Y0149700D01*
X0012200Y0154700D01*
X0014700Y0157200D01*
X0012200Y0159700D01*
X0012200Y0164700D01*
X0014700Y0167200D01*
X0012200Y0169700D01*
X0012200Y0174700D01*
X0014700Y0177200D01*
X0019700Y0177200D01*
X0022200Y0174700D01*
X0022200Y0169700D01*
X0019700Y0167200D01*
X0022200Y0164700D01*
X0022200Y0159700D01*
X0019700Y0157200D01*
X0022200Y0154700D01*
X0022200Y0149700D01*
X0019700Y0147200D01*
X0022200Y0144700D01*
X0022200Y0139700D01*
X0019700Y0137200D01*
X0022200Y0134700D01*
X0022200Y0129700D01*
X0019700Y0127200D01*
X0007436Y0194483D02*
X0007436Y0229523D01*
X0007436Y0229917D02*
X0236964Y0229917D01*
X0236964Y0194483D01*
X0007436Y0194483D01*
X0024700Y0201275D02*
X0029700Y0201275D01*
X0113539Y0200389D02*
X0113539Y0194483D01*
X0113539Y0200389D02*
X0130861Y0200389D01*
X0130861Y0194483D01*
X0212700Y0179700D02*
X0212700Y0174700D01*
X0215200Y0172200D01*
X0220200Y0172200D01*
X0222700Y0169700D01*
X0222700Y0164700D01*
X0220200Y0162200D01*
X0215200Y0162200D01*
X0212700Y0164700D01*
X0212700Y0169700D01*
X0215200Y0172200D01*
X0220200Y0172200D02*
X0222700Y0174700D01*
X0222700Y0179700D01*
X0220200Y0182200D01*
X0215200Y0182200D01*
X0212700Y0179700D01*
X0215200Y0162200D02*
X0212700Y0159700D01*
X0212700Y0154700D01*
X0215200Y0152200D01*
X0220200Y0152200D01*
X0222700Y0149700D01*
X0222700Y0144700D01*
X0220200Y0142200D01*
X0215200Y0142200D01*
X0212700Y0144700D01*
X0212700Y0149700D01*
X0215200Y0152200D01*
X0220200Y0152200D02*
X0222700Y0154700D01*
X0222700Y0159700D01*
X0220200Y0162200D01*
X0220200Y0142200D02*
X0222700Y0139700D01*
X0222700Y0134700D01*
X0220200Y0132200D01*
X0215200Y0132200D01*
X0212700Y0134700D01*
X0212700Y0139700D01*
X0215200Y0142200D01*
X0215200Y0132200D02*
X0212700Y0129700D01*
X0212700Y0124700D01*
X0215200Y0122200D01*
X0220200Y0122200D01*
X0222700Y0124700D01*
X0222700Y0129700D01*
X0220200Y0132200D01*
X0208814Y0112869D02*
X0233224Y0112869D01*
X0233224Y0085310D01*
X0208814Y0085310D01*
X0208814Y0112869D01*
X0233224Y0112869D02*
X0236373Y0112869D01*
X0236373Y0085310D01*
X0233224Y0085310D01*
X0218696Y0059917D02*
X0205704Y0059917D01*
X0205704Y0024483D01*
X0218696Y0024483D01*
X0218696Y0059917D01*
X0222700Y0056100D02*
X0223800Y0057200D01*
X0227700Y0057200D01*
X0231600Y0057200D01*
X0232700Y0056100D01*
X0227700Y0056200D02*
X0227700Y0057200D01*
X0227700Y0048200D02*
X0227700Y0046200D01*
X0227700Y0038200D02*
X0227700Y0036200D01*
X0227700Y0028200D02*
X0227700Y0027200D01*
X0231600Y0027200D01*
X0232700Y0028300D01*
X0227700Y0027200D02*
X0223800Y0027200D01*
X0222700Y0028300D01*
X0198696Y0024483D02*
X0198696Y0059917D01*
X0185704Y0059917D01*
X0185704Y0024483D01*
X0198696Y0024483D01*
X0178696Y0024483D02*
X0178696Y0059917D01*
X0165704Y0059917D01*
X0165704Y0024483D01*
X0178696Y0024483D01*
X0158696Y0024483D02*
X0145704Y0024483D01*
X0145704Y0059917D01*
X0158696Y0059917D01*
X0158696Y0024483D01*
M02*
