%
M48
M72
T01C0.02000
T02C0.02900
T03C0.03200
T04C0.03543
T05C0.04000
T06C0.04724
%
T01
X67200Y127200
X112200Y147200
X142200Y177200
X57200Y187200
X57200Y197200
X42200Y197200
X42200Y177200
T02
X37948Y13193
X45822Y14593
X53696Y13193
X61570Y14593
X69444Y13193
X77318Y14593
X85192Y13193
X93066Y14593
X100940Y13193
X108814Y14593
X100940Y99807
X93066Y101207
X85192Y99807
X77318Y101207
X69444Y99807
X61570Y101207
X53696Y99807
X45822Y101207
X37948Y99807
X108814Y101207
T03
X107200Y132200
X117200Y132200
X127200Y132200
X137200Y132200
X147200Y132200
X157200Y132200
X167200Y132200
X167200Y162200
X157200Y162200
X147200Y162200
X137200Y162200
X127200Y162200
X117200Y162200
X107200Y162200
X97200Y162200
X97200Y132200
T04
X152200Y67200
X172200Y67200
X192200Y67200
X212200Y67200
X212200Y17200
X192200Y17200
X172200Y17200
X152200Y17200
T05
X227200Y32200
X228200Y42200
X227200Y52200
X217200Y127200
X218200Y137200
X217200Y147200
X218200Y157200
X217200Y167200
X218200Y177200
X217200Y207200
X217200Y217200
X207200Y217200
X207200Y207200
X197200Y207200
X197200Y217200
X187200Y217200
X187200Y207200
X177200Y207200
X177200Y217200
X167200Y217200
X167200Y207200
X157200Y207200
X157200Y217200
X147200Y217200
X147200Y207200
X137200Y207200
X137200Y217200
X127200Y217200
X127200Y207200
X117200Y207200
X117200Y217200
X107200Y217200
X107200Y207200
X97200Y207200
X97200Y217200
X87200Y217200
X87200Y207200
X77200Y207200
X77200Y217200
X67200Y217200
X67200Y207200
X57200Y207200
X57200Y217200
X47200Y217200
X47200Y207200
X37200Y207200
X37200Y217200
X27200Y217200
X27200Y207200
X17700Y172200
X16700Y162200
X17700Y152200
X16700Y142200
X17700Y132200
T06
X222200Y106680
X222200Y91500
M30
