G75*
%MOIN*%
%OFA0B0*%
%FSLAX25Y25*%
%IPPOS*%
%LPD*%
%AMOC8*
5,1,8,0,0,1.08239X$1,22.5*
%
%ADD10C,0.00000*%
%ADD11C,0.07400*%
%ADD12C,0.05600*%
%ADD13OC8,0.07400*%
%ADD14R,0.08000X0.08000*%
%ADD15C,0.08000*%
%ADD16C,0.06400*%
%ADD17C,0.06000*%
%ADD18C,0.02400*%
%ADD19C,0.04000*%
D10*
X0002200Y0002200D02*
X0002200Y0232161D01*
X0235901Y0232161D01*
X0235901Y0002200D01*
X0002200Y0002200D01*
D11*
X0017700Y0132200D03*
X0016700Y0142200D03*
X0017700Y0152200D03*
X0016700Y0162200D03*
X0017700Y0172200D03*
X0152200Y0067200D03*
X0172200Y0067200D03*
X0192200Y0067200D03*
X0212200Y0067200D03*
X0212200Y0017200D03*
X0192200Y0017200D03*
X0172200Y0017200D03*
X0152200Y0017200D03*
X0217200Y0127200D03*
X0218200Y0137200D03*
X0217200Y0147200D03*
X0218200Y0157200D03*
X0217200Y0167200D03*
X0218200Y0177200D03*
X0204995Y0187200D03*
X0179405Y0187200D03*
D12*
X0167200Y0165000D02*
X0167200Y0159400D01*
X0157200Y0159400D02*
X0157200Y0165000D01*
X0147200Y0165000D02*
X0147200Y0159400D01*
X0137200Y0159400D02*
X0137200Y0165000D01*
X0127200Y0165000D02*
X0127200Y0159400D01*
X0117200Y0159400D02*
X0117200Y0165000D01*
X0107200Y0165000D02*
X0107200Y0159400D01*
X0097200Y0159400D02*
X0097200Y0165000D01*
X0097200Y0135000D02*
X0097200Y0129400D01*
X0107200Y0129400D02*
X0107200Y0135000D01*
X0117200Y0135000D02*
X0117200Y0129400D01*
X0127200Y0129400D02*
X0127200Y0135000D01*
X0137200Y0135000D02*
X0137200Y0129400D01*
X0147200Y0129400D02*
X0147200Y0135000D01*
X0157200Y0135000D02*
X0157200Y0129400D01*
X0167200Y0129400D02*
X0167200Y0135000D01*
D13*
X0167200Y0207200D03*
X0167200Y0217200D03*
X0157200Y0217200D03*
X0157200Y0207200D03*
X0147200Y0207200D03*
X0147200Y0217200D03*
X0137200Y0217200D03*
X0137200Y0207200D03*
X0127200Y0207200D03*
X0127200Y0217200D03*
X0117200Y0217200D03*
X0117200Y0207200D03*
X0107200Y0207200D03*
X0107200Y0217200D03*
X0097200Y0217200D03*
X0097200Y0207200D03*
X0087200Y0207200D03*
X0087200Y0217200D03*
X0077200Y0217200D03*
X0077200Y0207200D03*
X0067200Y0207200D03*
X0067200Y0217200D03*
X0057200Y0217200D03*
X0057200Y0207200D03*
X0047200Y0207200D03*
X0047200Y0217200D03*
X0037200Y0217200D03*
X0037200Y0207200D03*
X0027200Y0207200D03*
X0027200Y0217200D03*
X0177200Y0217200D03*
X0177200Y0207200D03*
X0187200Y0207200D03*
X0187200Y0217200D03*
X0197200Y0217200D03*
X0197200Y0207200D03*
X0207200Y0207200D03*
X0207200Y0217200D03*
X0217200Y0217200D03*
X0217200Y0207200D03*
D14*
X0222200Y0091500D03*
D15*
X0222200Y0106680D03*
D16*
X0224000Y0052200D02*
X0230400Y0052200D01*
X0231400Y0042200D02*
X0225000Y0042200D01*
X0224000Y0032200D02*
X0230400Y0032200D01*
D17*
X0108814Y0014593D03*
X0100940Y0013193D03*
X0093066Y0014593D03*
X0085192Y0013193D03*
X0077318Y0014593D03*
X0069444Y0013193D03*
X0061570Y0014593D03*
X0053696Y0013193D03*
X0045822Y0014593D03*
X0037948Y0013193D03*
X0037948Y0099807D03*
X0045822Y0101207D03*
X0053696Y0099807D03*
X0061570Y0101207D03*
X0069444Y0099807D03*
X0077318Y0101207D03*
X0085192Y0099807D03*
X0093066Y0101207D03*
X0100940Y0099807D03*
X0108814Y0101207D03*
D18*
X0116207Y0101207D01*
X0117200Y0102200D01*
X0177200Y0102200D01*
X0177200Y0142200D01*
X0157200Y0142200D01*
X0152200Y0147200D01*
X0152200Y0157200D01*
X0157200Y0162200D01*
X0152200Y0167200D01*
X0152200Y0187200D01*
X0147200Y0192200D01*
X0107200Y0192200D01*
X0107200Y0207200D01*
X0102200Y0202200D01*
X0102200Y0197200D01*
X0057200Y0197200D01*
X0053644Y0200998D02*
X0052792Y0200146D01*
X0052000Y0198234D01*
X0052000Y0196166D01*
X0052792Y0194254D01*
X0054254Y0192792D01*
X0055683Y0192200D01*
X0054254Y0191608D01*
X0052792Y0190146D01*
X0052000Y0188234D01*
X0052000Y0186166D01*
X0052792Y0184254D01*
X0052800Y0184246D01*
X0052800Y0146325D01*
X0053470Y0144708D01*
X0054708Y0143470D01*
X0056325Y0142800D01*
X0109246Y0142800D01*
X0109254Y0142792D01*
X0111166Y0142000D01*
X0113234Y0142000D01*
X0115146Y0142792D01*
X0116608Y0144254D01*
X0117400Y0146166D01*
X0117400Y0148234D01*
X0116608Y0150146D01*
X0115146Y0151608D01*
X0113234Y0152400D01*
X0111166Y0152400D01*
X0109254Y0151608D01*
X0109246Y0151600D01*
X0061600Y0151600D01*
X0061600Y0184246D01*
X0061608Y0184254D01*
X0062400Y0186166D01*
X0062400Y0188234D01*
X0061608Y0190146D01*
X0060146Y0191608D01*
X0058717Y0192200D01*
X0060146Y0192792D01*
X0060154Y0192800D01*
X0102800Y0192800D01*
X0102800Y0191325D01*
X0103470Y0189708D01*
X0104708Y0188470D01*
X0106325Y0187800D01*
X0145377Y0187800D01*
X0147800Y0185377D01*
X0147800Y0169967D01*
X0147594Y0170000D01*
X0147200Y0170000D01*
X0147200Y0162200D01*
X0147200Y0162200D01*
X0147200Y0154400D01*
X0147594Y0154400D01*
X0147800Y0154433D01*
X0147800Y0146325D01*
X0148470Y0144708D01*
X0153446Y0139731D01*
X0152200Y0138485D01*
X0150599Y0140087D01*
X0148393Y0141000D01*
X0146007Y0141000D01*
X0143801Y0140087D01*
X0142200Y0138485D01*
X0140599Y0140087D01*
X0138393Y0141000D01*
X0136007Y0141000D01*
X0133801Y0140087D01*
X0132200Y0138485D01*
X0130599Y0140087D01*
X0128393Y0141000D01*
X0126007Y0141000D01*
X0123801Y0140087D01*
X0122200Y0138485D01*
X0120599Y0140087D01*
X0118393Y0141000D01*
X0116007Y0141000D01*
X0113801Y0140087D01*
X0112200Y0138485D01*
X0110599Y0140087D01*
X0108393Y0141000D01*
X0106007Y0141000D01*
X0103801Y0140087D01*
X0102200Y0138485D01*
X0100599Y0140087D01*
X0098393Y0141000D01*
X0096007Y0141000D01*
X0093801Y0140087D01*
X0092113Y0138399D01*
X0091200Y0136193D01*
X0091200Y0128207D01*
X0092113Y0126001D01*
X0093801Y0124313D01*
X0096007Y0123400D01*
X0098393Y0123400D01*
X0100599Y0124313D01*
X0102200Y0125915D01*
X0103801Y0124313D01*
X0106007Y0123400D01*
X0108393Y0123400D01*
X0110599Y0124313D01*
X0112200Y0125915D01*
X0113801Y0124313D01*
X0116007Y0123400D01*
X0118393Y0123400D01*
X0120599Y0124313D01*
X0122200Y0125915D01*
X0123801Y0124313D01*
X0126007Y0123400D01*
X0128393Y0123400D01*
X0130599Y0124313D01*
X0132200Y0125915D01*
X0133801Y0124313D01*
X0136007Y0123400D01*
X0138393Y0123400D01*
X0140599Y0124313D01*
X0142200Y0125915D01*
X0143801Y0124313D01*
X0146007Y0123400D01*
X0148393Y0123400D01*
X0150599Y0124313D01*
X0152200Y0125915D01*
X0153801Y0124313D01*
X0156007Y0123400D01*
X0158393Y0123400D01*
X0160599Y0124313D01*
X0162200Y0125915D01*
X0163801Y0124313D01*
X0166007Y0123400D01*
X0168393Y0123400D01*
X0170599Y0124313D01*
X0172287Y0126001D01*
X0172800Y0127241D01*
X0172800Y0106600D01*
X0116325Y0106600D01*
X0114708Y0105930D01*
X0114385Y0105607D01*
X0113182Y0105607D01*
X0112326Y0106463D01*
X0110047Y0107407D01*
X0107581Y0107407D01*
X0105340Y0106479D01*
X0105340Y0114335D01*
X0104670Y0115952D01*
X0103433Y0117190D01*
X0099692Y0120930D01*
X0098075Y0121600D01*
X0079023Y0121600D01*
X0072400Y0128223D01*
X0072400Y0128234D01*
X0071608Y0130146D01*
X0070146Y0131608D01*
X0068234Y0132400D01*
X0066166Y0132400D01*
X0064254Y0131608D01*
X0062792Y0130146D01*
X0062000Y0128234D01*
X0062000Y0126166D01*
X0062792Y0124254D01*
X0064254Y0122792D01*
X0066166Y0122000D01*
X0066177Y0122000D01*
X0073470Y0114708D01*
X0074708Y0113470D01*
X0076325Y0112800D01*
X0095377Y0112800D01*
X0096540Y0111637D01*
X0096540Y0106479D01*
X0094299Y0107407D01*
X0091833Y0107407D01*
X0089554Y0106463D01*
X0088315Y0105224D01*
X0086425Y0106007D01*
X0083959Y0106007D01*
X0082069Y0105224D01*
X0080830Y0106463D01*
X0078551Y0107407D01*
X0076085Y0107407D01*
X0073806Y0106463D01*
X0072567Y0105224D01*
X0070677Y0106007D01*
X0068211Y0106007D01*
X0066321Y0105224D01*
X0065082Y0106463D01*
X0062803Y0107407D01*
X0060337Y0107407D01*
X0058058Y0106463D01*
X0056819Y0105224D01*
X0054929Y0106007D01*
X0052463Y0106007D01*
X0050573Y0105224D01*
X0049334Y0106463D01*
X0047055Y0107407D01*
X0044589Y0107407D01*
X0042310Y0106463D01*
X0040566Y0104719D01*
X0040426Y0104381D01*
X0039944Y0104626D01*
X0039166Y0104879D01*
X0038357Y0105007D01*
X0037948Y0105007D01*
X0037539Y0105007D01*
X0036730Y0104879D01*
X0035952Y0104626D01*
X0035223Y0104255D01*
X0034560Y0103773D01*
X0033982Y0103195D01*
X0033501Y0102532D01*
X0033129Y0101803D01*
X0032876Y0101025D01*
X0032748Y0100216D01*
X0032748Y0099807D01*
X0032748Y0099398D01*
X0032876Y0098589D01*
X0033129Y0097811D01*
X0033501Y0097082D01*
X0033982Y0096420D01*
X0034560Y0095841D01*
X0035223Y0095360D01*
X0035952Y0094988D01*
X0036730Y0094735D01*
X0037539Y0094607D01*
X0037948Y0094607D01*
X0037948Y0099807D01*
X0037948Y0099807D01*
X0037948Y0094607D01*
X0038357Y0094607D01*
X0039166Y0094735D01*
X0039944Y0094988D01*
X0040673Y0095360D01*
X0041336Y0095841D01*
X0041878Y0096383D01*
X0042310Y0095951D01*
X0044589Y0095007D01*
X0047055Y0095007D01*
X0048945Y0095790D01*
X0050184Y0094551D01*
X0052463Y0093607D01*
X0054929Y0093607D01*
X0057208Y0094551D01*
X0058447Y0095790D01*
X0060337Y0095007D01*
X0062803Y0095007D01*
X0064693Y0095790D01*
X0065932Y0094551D01*
X0068211Y0093607D01*
X0070677Y0093607D01*
X0072956Y0094551D01*
X0074195Y0095790D01*
X0076085Y0095007D01*
X0078551Y0095007D01*
X0080441Y0095790D01*
X0081680Y0094551D01*
X0083959Y0093607D01*
X0086425Y0093607D01*
X0088704Y0094551D01*
X0089943Y0095790D01*
X0091833Y0095007D01*
X0094299Y0095007D01*
X0096189Y0095790D01*
X0097428Y0094551D01*
X0099707Y0093607D01*
X0102173Y0093607D01*
X0104452Y0094551D01*
X0105691Y0095790D01*
X0107581Y0095007D01*
X0110047Y0095007D01*
X0112326Y0095951D01*
X0113182Y0096807D01*
X0117082Y0096807D01*
X0118699Y0097477D01*
X0119023Y0097800D01*
X0178075Y0097800D01*
X0179692Y0098470D01*
X0180930Y0099708D01*
X0181600Y0101325D01*
X0181600Y0143075D01*
X0180930Y0144692D01*
X0179692Y0145930D01*
X0178075Y0146600D01*
X0159023Y0146600D01*
X0156600Y0149023D01*
X0156600Y0153400D01*
X0158393Y0153400D01*
X0160599Y0154313D01*
X0162200Y0155915D01*
X0163801Y0154313D01*
X0166007Y0153400D01*
X0168393Y0153400D01*
X0170599Y0154313D01*
X0172287Y0156001D01*
X0173032Y0157800D01*
X0180377Y0157800D01*
X0210300Y0127877D01*
X0210300Y0125827D01*
X0211350Y0123291D01*
X0213291Y0121350D01*
X0215827Y0120300D01*
X0218572Y0120300D01*
X0221109Y0121350D01*
X0223050Y0123291D01*
X0224100Y0125827D01*
X0224100Y0128572D01*
X0223050Y0131109D01*
X0221705Y0132453D01*
X0222044Y0132700D01*
X0222700Y0133356D01*
X0223246Y0134108D01*
X0223668Y0134935D01*
X0223955Y0135818D01*
X0224100Y0136736D01*
X0224100Y0137200D01*
X0224100Y0137664D01*
X0223955Y0138582D01*
X0223668Y0139465D01*
X0223246Y0140292D01*
X0222700Y0141044D01*
X0222044Y0141700D01*
X0221705Y0141947D01*
X0223050Y0143291D01*
X0224100Y0145827D01*
X0224100Y0148572D01*
X0223050Y0151109D01*
X0222458Y0151700D01*
X0224050Y0153291D01*
X0225100Y0155827D01*
X0225100Y0158572D01*
X0224050Y0161109D01*
X0222458Y0162700D01*
X0223050Y0163291D01*
X0224100Y0165827D01*
X0224100Y0168572D01*
X0223050Y0171109D01*
X0222458Y0171700D01*
X0224050Y0173291D01*
X0225100Y0175827D01*
X0225100Y0178572D01*
X0224050Y0181109D01*
X0222109Y0183050D01*
X0219572Y0184100D01*
X0216827Y0184100D01*
X0214291Y0183050D01*
X0212350Y0181109D01*
X0211300Y0178572D01*
X0211300Y0175827D01*
X0212350Y0173291D01*
X0212942Y0172700D01*
X0211350Y0171109D01*
X0210300Y0168572D01*
X0210300Y0165827D01*
X0211350Y0163291D01*
X0212942Y0161700D01*
X0212350Y0161109D01*
X0211300Y0158572D01*
X0211300Y0155827D01*
X0212350Y0153291D01*
X0212942Y0152700D01*
X0211350Y0151109D01*
X0210300Y0148572D01*
X0210300Y0145827D01*
X0211350Y0143291D01*
X0213291Y0141350D01*
X0213797Y0141141D01*
X0213700Y0141044D01*
X0213154Y0140292D01*
X0212732Y0139465D01*
X0212445Y0138582D01*
X0212390Y0138233D01*
X0185930Y0164692D01*
X0184692Y0165930D01*
X0183075Y0166600D01*
X0173032Y0166600D01*
X0172287Y0168399D01*
X0170599Y0170087D01*
X0168393Y0171000D01*
X0166007Y0171000D01*
X0163801Y0170087D01*
X0162200Y0168485D01*
X0160599Y0170087D01*
X0158393Y0171000D01*
X0156600Y0171000D01*
X0156600Y0188075D01*
X0155930Y0189692D01*
X0150930Y0194692D01*
X0149692Y0195930D01*
X0148075Y0196600D01*
X0111600Y0196600D01*
X0111600Y0201842D01*
X0112200Y0202442D01*
X0114342Y0200300D01*
X0120058Y0200300D01*
X0122200Y0202442D01*
X0124342Y0200300D01*
X0130058Y0200300D01*
X0132200Y0202442D01*
X0134342Y0200300D01*
X0140058Y0200300D01*
X0142907Y0203149D01*
X0144756Y0201300D01*
X0147200Y0201300D01*
X0149644Y0201300D01*
X0151493Y0203149D01*
X0154342Y0200300D01*
X0160058Y0200300D01*
X0162200Y0202442D01*
X0164342Y0200300D01*
X0170058Y0200300D01*
X0172200Y0202442D01*
X0174342Y0200300D01*
X0180058Y0200300D01*
X0182200Y0202442D01*
X0184342Y0200300D01*
X0190058Y0200300D01*
X0192200Y0202442D01*
X0194342Y0200300D01*
X0200058Y0200300D01*
X0202200Y0202442D01*
X0204342Y0200300D01*
X0210058Y0200300D01*
X0212907Y0203149D01*
X0214756Y0201300D01*
X0217200Y0201300D01*
X0219644Y0201300D01*
X0223100Y0204756D01*
X0223100Y0207200D01*
X0223100Y0209644D01*
X0221251Y0211493D01*
X0224100Y0214342D01*
X0224100Y0220058D01*
X0220058Y0224100D01*
X0214342Y0224100D01*
X0212200Y0221958D01*
X0210058Y0224100D01*
X0204342Y0224100D01*
X0202200Y0221958D01*
X0200058Y0224100D01*
X0194342Y0224100D01*
X0191493Y0221251D01*
X0189644Y0223100D01*
X0187200Y0223100D01*
X0187200Y0217200D01*
X0187200Y0217200D01*
X0187200Y0223100D01*
X0184756Y0223100D01*
X0182907Y0221251D01*
X0180058Y0224100D01*
X0174342Y0224100D01*
X0171493Y0221251D01*
X0169644Y0223100D01*
X0167200Y0223100D01*
X0167200Y0217200D01*
X0167200Y0217200D01*
X0167200Y0223100D01*
X0164756Y0223100D01*
X0162907Y0221251D01*
X0160058Y0224100D01*
X0154342Y0224100D01*
X0152200Y0221958D01*
X0150058Y0224100D01*
X0144342Y0224100D01*
X0142200Y0221958D01*
X0140058Y0224100D01*
X0134342Y0224100D01*
X0132200Y0221958D01*
X0130058Y0224100D01*
X0124342Y0224100D01*
X0121493Y0221251D01*
X0119644Y0223100D01*
X0117200Y0223100D01*
X0117200Y0217200D01*
X0117200Y0217200D01*
X0117200Y0223100D01*
X0114756Y0223100D01*
X0112907Y0221251D01*
X0110058Y0224100D01*
X0104342Y0224100D01*
X0102200Y0221958D01*
X0100058Y0224100D01*
X0094342Y0224100D01*
X0091493Y0221251D01*
X0089644Y0223100D01*
X0087200Y0223100D01*
X0087200Y0217200D01*
X0087200Y0217200D01*
X0087200Y0223100D01*
X0084756Y0223100D01*
X0082907Y0221251D01*
X0080058Y0224100D01*
X0074342Y0224100D01*
X0072200Y0221958D01*
X0070058Y0224100D01*
X0064342Y0224100D01*
X0062200Y0221958D01*
X0060058Y0224100D01*
X0054342Y0224100D01*
X0051493Y0221251D01*
X0049644Y0223100D01*
X0047200Y0223100D01*
X0047200Y0217200D01*
X0047200Y0217200D01*
X0047200Y0223100D01*
X0044756Y0223100D01*
X0042907Y0221251D01*
X0040058Y0224100D01*
X0034342Y0224100D01*
X0032200Y0221958D01*
X0030058Y0224100D01*
X0024342Y0224100D01*
X0020300Y0220058D01*
X0020300Y0214342D01*
X0022442Y0212200D01*
X0020300Y0210058D01*
X0020300Y0204342D01*
X0024342Y0200300D01*
X0030058Y0200300D01*
X0032200Y0202442D01*
X0032800Y0201842D01*
X0032800Y0191600D01*
X0006325Y0191600D01*
X0005400Y0191217D01*
X0005400Y0228961D01*
X0232701Y0228961D01*
X0232701Y0057088D01*
X0232473Y0057204D01*
X0231665Y0057467D01*
X0230825Y0057600D01*
X0227200Y0057600D01*
X0227200Y0052200D01*
X0227200Y0052200D01*
X0227200Y0057600D01*
X0223823Y0057600D01*
X0224692Y0058470D01*
X0225930Y0059708D01*
X0226600Y0061325D01*
X0226600Y0084300D01*
X0226837Y0084300D01*
X0228013Y0084787D01*
X0228913Y0085687D01*
X0229400Y0086863D01*
X0229400Y0096137D01*
X0228913Y0097313D01*
X0228013Y0098213D01*
X0226837Y0098700D01*
X0217563Y0098700D01*
X0216387Y0098213D01*
X0215487Y0097313D01*
X0215000Y0096137D01*
X0215000Y0086863D01*
X0215487Y0085687D01*
X0216387Y0084787D01*
X0217563Y0084300D01*
X0217800Y0084300D01*
X0217800Y0071358D01*
X0216109Y0073050D01*
X0213572Y0074100D01*
X0210827Y0074100D01*
X0208291Y0073050D01*
X0206350Y0071109D01*
X0205300Y0068572D01*
X0205300Y0065827D01*
X0205567Y0065183D01*
X0188781Y0040003D01*
X0188470Y0039692D01*
X0188300Y0039282D01*
X0188053Y0038912D01*
X0187968Y0038481D01*
X0187800Y0038075D01*
X0187800Y0037631D01*
X0187714Y0037195D01*
X0187800Y0036764D01*
X0187800Y0022558D01*
X0186350Y0021109D01*
X0185300Y0018572D01*
X0185300Y0015827D01*
X0186350Y0013291D01*
X0188291Y0011350D01*
X0190827Y0010300D01*
X0193572Y0010300D01*
X0196109Y0011350D01*
X0198050Y0013291D01*
X0199100Y0015827D01*
X0199100Y0018572D01*
X0198050Y0021109D01*
X0196600Y0022558D01*
X0196600Y0035868D01*
X0212888Y0060300D01*
X0213572Y0060300D01*
X0214435Y0060657D01*
X0213470Y0059692D01*
X0212800Y0058075D01*
X0212800Y0037356D01*
X0212749Y0036639D01*
X0212800Y0036486D01*
X0212800Y0036325D01*
X0213075Y0035660D01*
X0213303Y0034978D01*
X0213408Y0034857D01*
X0213470Y0034708D01*
X0213978Y0034199D01*
X0214449Y0033656D01*
X0214594Y0033584D01*
X0196600Y0033584D01*
X0196600Y0031185D02*
X0217600Y0031185D01*
X0217600Y0030927D02*
X0218574Y0028575D01*
X0220375Y0026774D01*
X0222727Y0025800D01*
X0231673Y0025800D01*
X0232701Y0026226D01*
X0232701Y0012701D01*
X0225400Y0005400D01*
X0014000Y0005400D01*
X0005400Y0014000D01*
X0005400Y0143175D01*
X0009800Y0140859D01*
X0009800Y0140827D01*
X0010850Y0138291D01*
X0012442Y0136700D01*
X0011850Y0136109D01*
X0010800Y0133572D01*
X0010800Y0130827D01*
X0011850Y0128291D01*
X0013791Y0126350D01*
X0016327Y0125300D01*
X0019072Y0125300D01*
X0021609Y0126350D01*
X0023550Y0128291D01*
X0024600Y0130827D01*
X0024600Y0133572D01*
X0023550Y0136109D01*
X0021958Y0137700D01*
X0022550Y0138291D01*
X0023600Y0140827D01*
X0023600Y0143572D01*
X0022550Y0146109D01*
X0021958Y0146700D01*
X0023058Y0147800D01*
X0038075Y0147800D01*
X0039692Y0148470D01*
X0049692Y0158470D01*
X0050930Y0159708D01*
X0051600Y0161325D01*
X0051600Y0201842D01*
X0052200Y0202442D01*
X0053644Y0200998D01*
X0053163Y0201479D02*
X0051600Y0201479D01*
X0051600Y0199081D02*
X0052351Y0199081D01*
X0052000Y0196682D02*
X0051600Y0196682D01*
X0051600Y0194284D02*
X0052779Y0194284D01*
X0051600Y0191885D02*
X0054923Y0191885D01*
X0052519Y0189487D02*
X0051600Y0189487D01*
X0051600Y0187088D02*
X0052000Y0187088D01*
X0051600Y0184690D02*
X0052611Y0184690D01*
X0052800Y0182291D02*
X0051600Y0182291D01*
X0051600Y0179893D02*
X0052800Y0179893D01*
X0052800Y0177494D02*
X0051600Y0177494D01*
X0051600Y0175096D02*
X0052800Y0175096D01*
X0052800Y0172697D02*
X0051600Y0172697D01*
X0051600Y0170299D02*
X0052800Y0170299D01*
X0052800Y0167900D02*
X0051600Y0167900D01*
X0051600Y0165502D02*
X0052800Y0165502D01*
X0052800Y0163103D02*
X0051600Y0163103D01*
X0051343Y0160705D02*
X0052800Y0160705D01*
X0052800Y0158306D02*
X0049529Y0158306D01*
X0047130Y0155908D02*
X0052800Y0155908D01*
X0052800Y0153509D02*
X0044732Y0153509D01*
X0042333Y0151111D02*
X0052800Y0151111D01*
X0052800Y0148712D02*
X0039935Y0148712D01*
X0037200Y0152200D02*
X0047200Y0162200D01*
X0047200Y0207200D01*
X0037200Y0207200D02*
X0037200Y0187200D01*
X0007200Y0187200D01*
X0007200Y0147200D01*
X0016700Y0142200D01*
X0010508Y0139118D02*
X0005400Y0139118D01*
X0005400Y0136720D02*
X0012422Y0136720D01*
X0011110Y0134321D02*
X0005400Y0134321D01*
X0005400Y0131923D02*
X0010800Y0131923D01*
X0011340Y0129524D02*
X0005400Y0129524D01*
X0005400Y0127126D02*
X0013016Y0127126D01*
X0005400Y0124727D02*
X0062596Y0124727D01*
X0062000Y0127126D02*
X0022384Y0127126D01*
X0024060Y0129524D02*
X0062534Y0129524D01*
X0065013Y0131923D02*
X0024600Y0131923D01*
X0024290Y0134321D02*
X0091200Y0134321D01*
X0091200Y0131923D02*
X0069387Y0131923D01*
X0071866Y0129524D02*
X0091200Y0129524D01*
X0091648Y0127126D02*
X0073497Y0127126D01*
X0075895Y0124727D02*
X0093388Y0124727D01*
X0101012Y0124727D02*
X0103388Y0124727D01*
X0100692Y0119930D02*
X0172800Y0119930D01*
X0172800Y0117532D02*
X0103091Y0117532D01*
X0105010Y0115133D02*
X0172800Y0115133D01*
X0172800Y0112734D02*
X0105340Y0112734D01*
X0105340Y0110336D02*
X0172800Y0110336D01*
X0172800Y0107937D02*
X0105340Y0107937D01*
X0100940Y0113460D02*
X0100940Y0099807D01*
X0096540Y0107937D02*
X0005400Y0107937D01*
X0005400Y0105539D02*
X0041386Y0105539D01*
X0037948Y0105007D02*
X0037948Y0099807D01*
X0032748Y0099807D01*
X0037948Y0099807D01*
X0037948Y0099807D01*
X0037948Y0105007D01*
X0037948Y0103140D02*
X0037948Y0103140D01*
X0037948Y0100742D02*
X0037948Y0100742D01*
X0037948Y0099807D02*
X0037948Y0099807D01*
X0037948Y0098343D02*
X0037948Y0098343D01*
X0037948Y0095945D02*
X0037948Y0095945D01*
X0034456Y0095945D02*
X0005400Y0095945D01*
X0005400Y0098343D02*
X0032956Y0098343D01*
X0032831Y0100742D02*
X0005400Y0100742D01*
X0005400Y0103140D02*
X0033942Y0103140D01*
X0041440Y0095945D02*
X0042325Y0095945D01*
X0050258Y0105539D02*
X0051333Y0105539D01*
X0056059Y0105539D02*
X0057134Y0105539D01*
X0066006Y0105539D02*
X0067081Y0105539D01*
X0071807Y0105539D02*
X0072882Y0105539D01*
X0081754Y0105539D02*
X0082829Y0105539D01*
X0087555Y0105539D02*
X0088630Y0105539D01*
X0096540Y0110336D02*
X0005400Y0110336D01*
X0005400Y0112734D02*
X0095443Y0112734D01*
X0097200Y0117200D02*
X0100940Y0113460D01*
X0097200Y0117200D02*
X0077200Y0117200D01*
X0067200Y0127200D01*
X0065372Y0122329D02*
X0005400Y0122329D01*
X0005400Y0119930D02*
X0068247Y0119930D01*
X0070646Y0117532D02*
X0005400Y0117532D01*
X0005400Y0115133D02*
X0073044Y0115133D01*
X0078294Y0122329D02*
X0172800Y0122329D01*
X0172800Y0124727D02*
X0171012Y0124727D01*
X0172752Y0127126D02*
X0172800Y0127126D01*
X0181600Y0127126D02*
X0210300Y0127126D01*
X0210756Y0124727D02*
X0181600Y0124727D01*
X0181600Y0122329D02*
X0212313Y0122329D01*
X0217200Y0127200D02*
X0182200Y0162200D01*
X0167200Y0162200D01*
X0157200Y0162200D01*
X0162193Y0155908D02*
X0162207Y0155908D01*
X0165743Y0153509D02*
X0158657Y0153509D01*
X0156600Y0151111D02*
X0187067Y0151111D01*
X0184668Y0153509D02*
X0168657Y0153509D01*
X0172193Y0155908D02*
X0182270Y0155908D01*
X0187519Y0163103D02*
X0211539Y0163103D01*
X0212183Y0160705D02*
X0189918Y0160705D01*
X0192316Y0158306D02*
X0211300Y0158306D01*
X0211300Y0155908D02*
X0194715Y0155908D01*
X0197113Y0153509D02*
X0212260Y0153509D01*
X0211353Y0151111D02*
X0199512Y0151111D01*
X0201910Y0148712D02*
X0210358Y0148712D01*
X0210300Y0146314D02*
X0204309Y0146314D01*
X0206707Y0143915D02*
X0211092Y0143915D01*
X0209106Y0141517D02*
X0213125Y0141517D01*
X0212620Y0139118D02*
X0211504Y0139118D01*
X0218200Y0137200D02*
X0224100Y0137200D01*
X0218200Y0137200D01*
X0218200Y0137200D01*
X0222227Y0141517D02*
X0232701Y0141517D01*
X0232701Y0143915D02*
X0223308Y0143915D01*
X0224100Y0146314D02*
X0232701Y0146314D01*
X0232701Y0148712D02*
X0224042Y0148712D01*
X0223047Y0151111D02*
X0232701Y0151111D01*
X0232701Y0153509D02*
X0224140Y0153509D01*
X0225100Y0155908D02*
X0232701Y0155908D01*
X0232701Y0158306D02*
X0225100Y0158306D01*
X0224217Y0160705D02*
X0232701Y0160705D01*
X0232701Y0163103D02*
X0222861Y0163103D01*
X0223965Y0165502D02*
X0232701Y0165502D01*
X0232701Y0167900D02*
X0224100Y0167900D01*
X0223385Y0170299D02*
X0232701Y0170299D01*
X0232701Y0172697D02*
X0223455Y0172697D01*
X0224797Y0175096D02*
X0232701Y0175096D01*
X0232701Y0177494D02*
X0225100Y0177494D01*
X0224553Y0179893D02*
X0232701Y0179893D01*
X0232701Y0182291D02*
X0222867Y0182291D01*
X0213533Y0182291D02*
X0209845Y0182291D01*
X0208904Y0181350D02*
X0210845Y0183291D01*
X0211895Y0185827D01*
X0211895Y0188572D01*
X0210845Y0191109D01*
X0208904Y0193050D01*
X0206368Y0194100D01*
X0203623Y0194100D01*
X0201087Y0193050D01*
X0199146Y0191109D01*
X0198095Y0188572D01*
X0198095Y0185827D01*
X0199146Y0183291D01*
X0201087Y0181350D01*
X0203623Y0180300D01*
X0206368Y0180300D01*
X0208904Y0181350D01*
X0211424Y0184690D02*
X0232701Y0184690D01*
X0232701Y0187088D02*
X0211895Y0187088D01*
X0211517Y0189487D02*
X0232701Y0189487D01*
X0232701Y0191885D02*
X0210068Y0191885D01*
X0211237Y0201479D02*
X0214577Y0201479D01*
X0217200Y0201479D02*
X0217200Y0201479D01*
X0217200Y0201300D02*
X0217200Y0207200D01*
X0227200Y0207200D01*
X0232200Y0202200D01*
X0232200Y0116680D01*
X0222200Y0106680D01*
X0222200Y0112880D01*
X0221712Y0112880D01*
X0220748Y0112727D01*
X0219820Y0112425D01*
X0218950Y0111982D01*
X0218161Y0111409D01*
X0217471Y0110719D01*
X0216897Y0109929D01*
X0216454Y0109059D01*
X0216153Y0108131D01*
X0216000Y0107167D01*
X0216000Y0106680D01*
X0222200Y0106680D01*
X0222200Y0106680D01*
X0222200Y0112880D01*
X0222688Y0112880D01*
X0223652Y0112727D01*
X0224580Y0112425D01*
X0225450Y0111982D01*
X0226239Y0111409D01*
X0226929Y0110719D01*
X0227503Y0109929D01*
X0227946Y0109059D01*
X0228247Y0108131D01*
X0228400Y0107167D01*
X0228400Y0106680D01*
X0222200Y0106680D01*
X0222200Y0106679D01*
X0222200Y0100480D01*
X0222200Y0106679D01*
X0222200Y0106679D01*
X0216000Y0106679D01*
X0216000Y0106192D01*
X0216153Y0105228D01*
X0216454Y0104300D01*
X0216897Y0103430D01*
X0217471Y0102640D01*
X0218161Y0101950D01*
X0218950Y0101377D01*
X0219820Y0100934D01*
X0220748Y0100632D01*
X0221712Y0100480D01*
X0222200Y0100480D01*
X0222688Y0100480D01*
X0223652Y0100632D01*
X0224580Y0100934D01*
X0225450Y0101377D01*
X0226239Y0101950D01*
X0226929Y0102640D01*
X0227503Y0103430D01*
X0227946Y0104300D01*
X0228247Y0105228D01*
X0228400Y0106192D01*
X0228400Y0106679D01*
X0222200Y0106679D01*
X0222200Y0106680D01*
X0212200Y0092200D01*
X0212200Y0077200D01*
X0202200Y0077200D01*
X0192200Y0067200D01*
X0187200Y0077200D01*
X0137200Y0077200D01*
X0137200Y0017200D01*
X0152200Y0017200D01*
X0152200Y0017200D01*
X0152200Y0023100D01*
X0152664Y0023100D01*
X0153582Y0022955D01*
X0154465Y0022668D01*
X0155292Y0022246D01*
X0156044Y0021700D01*
X0156700Y0021044D01*
X0157246Y0020292D01*
X0157668Y0019465D01*
X0157955Y0018582D01*
X0158100Y0017664D01*
X0158100Y0017200D01*
X0152200Y0017200D01*
X0152200Y0017200D01*
X0152200Y0017200D01*
X0146300Y0017200D01*
X0146300Y0017664D01*
X0146445Y0018582D01*
X0146732Y0019465D01*
X0147154Y0020292D01*
X0147700Y0021044D01*
X0148356Y0021700D01*
X0149108Y0022246D01*
X0149935Y0022668D01*
X0150818Y0022955D01*
X0151736Y0023100D01*
X0152200Y0023100D01*
X0152200Y0017200D01*
X0158100Y0017200D01*
X0158100Y0016736D01*
X0157955Y0015818D01*
X0157668Y0014935D01*
X0157246Y0014108D01*
X0156700Y0013356D01*
X0156044Y0012700D01*
X0155292Y0012154D01*
X0154465Y0011732D01*
X0153582Y0011445D01*
X0152664Y0011300D01*
X0152200Y0011300D01*
X0152200Y0017200D01*
X0152200Y0017200D01*
X0146300Y0017200D01*
X0146300Y0016736D01*
X0146445Y0015818D01*
X0146732Y0014935D01*
X0147154Y0014108D01*
X0147700Y0013356D01*
X0148356Y0012700D01*
X0149108Y0012154D01*
X0149935Y0011732D01*
X0150818Y0011445D01*
X0151736Y0011300D01*
X0152200Y0011300D01*
X0152200Y0017200D01*
X0152200Y0016794D02*
X0152200Y0016794D01*
X0152200Y0014396D02*
X0152200Y0014396D01*
X0152200Y0011997D02*
X0152200Y0011997D01*
X0154984Y0011997D02*
X0167645Y0011997D01*
X0168291Y0011350D02*
X0166350Y0013291D01*
X0165300Y0015827D01*
X0165300Y0018572D01*
X0166350Y0021109D01*
X0168291Y0023050D01*
X0170827Y0024100D01*
X0173572Y0024100D01*
X0176109Y0023050D01*
X0178050Y0021109D01*
X0179100Y0018572D01*
X0179100Y0015827D01*
X0178050Y0013291D01*
X0176109Y0011350D01*
X0173572Y0010300D01*
X0170827Y0010300D01*
X0168291Y0011350D01*
X0165893Y0014396D02*
X0157393Y0014396D01*
X0158100Y0016794D02*
X0165300Y0016794D01*
X0165557Y0019193D02*
X0157756Y0019193D01*
X0156153Y0021591D02*
X0166833Y0021591D01*
X0170561Y0023990D02*
X0005400Y0023990D01*
X0005400Y0026388D02*
X0187800Y0026388D01*
X0187800Y0023990D02*
X0173839Y0023990D01*
X0177567Y0021591D02*
X0186833Y0021591D01*
X0185557Y0019193D02*
X0178843Y0019193D01*
X0179100Y0016794D02*
X0185300Y0016794D01*
X0185893Y0014396D02*
X0178507Y0014396D01*
X0176755Y0011997D02*
X0187645Y0011997D01*
X0192200Y0017200D02*
X0192200Y0037200D01*
X0212200Y0067200D01*
X0217198Y0071960D02*
X0217800Y0071960D01*
X0217800Y0074358D02*
X0005400Y0074358D01*
X0005400Y0071960D02*
X0147202Y0071960D01*
X0146350Y0071109D02*
X0145300Y0068572D01*
X0145300Y0065827D01*
X0146350Y0063291D01*
X0148291Y0061350D01*
X0150827Y0060300D01*
X0153572Y0060300D01*
X0156109Y0061350D01*
X0158050Y0063291D01*
X0159100Y0065827D01*
X0159100Y0068572D01*
X0158050Y0071109D01*
X0156109Y0073050D01*
X0153572Y0074100D01*
X0150827Y0074100D01*
X0148291Y0073050D01*
X0146350Y0071109D01*
X0145710Y0069561D02*
X0005400Y0069561D01*
X0005400Y0067163D02*
X0145300Y0067163D01*
X0145740Y0064764D02*
X0005400Y0064764D01*
X0005400Y0062366D02*
X0147276Y0062366D01*
X0157124Y0062366D02*
X0167276Y0062366D01*
X0166350Y0063291D02*
X0168291Y0061350D01*
X0170827Y0060300D01*
X0173572Y0060300D01*
X0176109Y0061350D01*
X0178050Y0063291D01*
X0179100Y0065827D01*
X0179100Y0068572D01*
X0178050Y0071109D01*
X0176109Y0073050D01*
X0173572Y0074100D01*
X0170827Y0074100D01*
X0168291Y0073050D01*
X0166350Y0071109D01*
X0165300Y0068572D01*
X0165300Y0065827D01*
X0166350Y0063291D01*
X0165740Y0064764D02*
X0158660Y0064764D01*
X0159100Y0067163D02*
X0165300Y0067163D01*
X0165710Y0069561D02*
X0158690Y0069561D01*
X0157198Y0071960D02*
X0167202Y0071960D01*
X0177198Y0071960D02*
X0188714Y0071960D01*
X0188356Y0071700D02*
X0187700Y0071044D01*
X0187154Y0070292D01*
X0186732Y0069465D01*
X0186445Y0068582D01*
X0186300Y0067664D01*
X0186300Y0067200D01*
X0192200Y0067200D01*
X0192200Y0067200D01*
X0192200Y0073100D01*
X0192664Y0073100D01*
X0193582Y0072955D01*
X0194465Y0072668D01*
X0195292Y0072246D01*
X0196044Y0071700D01*
X0196700Y0071044D01*
X0197246Y0070292D01*
X0197668Y0069465D01*
X0197955Y0068582D01*
X0198100Y0067664D01*
X0198100Y0067200D01*
X0192200Y0067200D01*
X0192200Y0067200D01*
X0192200Y0067200D01*
X0192200Y0073100D01*
X0191736Y0073100D01*
X0190818Y0072955D01*
X0189935Y0072668D01*
X0189108Y0072246D01*
X0188356Y0071700D01*
X0186781Y0069561D02*
X0178690Y0069561D01*
X0179100Y0067163D02*
X0186300Y0067163D01*
X0186300Y0067200D02*
X0186300Y0066736D01*
X0186445Y0065818D01*
X0186732Y0064935D01*
X0187154Y0064108D01*
X0187700Y0063356D01*
X0188356Y0062700D01*
X0189108Y0062154D01*
X0189935Y0061732D01*
X0190818Y0061445D01*
X0191736Y0061300D01*
X0192200Y0061300D01*
X0192664Y0061300D01*
X0193582Y0061445D01*
X0194465Y0061732D01*
X0195292Y0062154D01*
X0196044Y0062700D01*
X0196700Y0063356D01*
X0197246Y0064108D01*
X0197668Y0064935D01*
X0197955Y0065818D01*
X0198100Y0066736D01*
X0198100Y0067200D01*
X0192200Y0067200D01*
X0192200Y0061300D01*
X0192200Y0067200D01*
X0192200Y0067200D01*
X0186300Y0067200D01*
X0186819Y0064764D02*
X0178660Y0064764D01*
X0177124Y0062366D02*
X0188816Y0062366D01*
X0192200Y0062366D02*
X0192200Y0062366D01*
X0192200Y0064764D02*
X0192200Y0064764D01*
X0192200Y0067163D02*
X0192200Y0067163D01*
X0192200Y0069561D02*
X0192200Y0069561D01*
X0192200Y0071960D02*
X0192200Y0071960D01*
X0195686Y0071960D02*
X0207202Y0071960D01*
X0205710Y0069561D02*
X0197619Y0069561D01*
X0198100Y0067163D02*
X0205300Y0067163D01*
X0205288Y0064764D02*
X0197581Y0064764D01*
X0195584Y0062366D02*
X0203689Y0062366D01*
X0202090Y0059967D02*
X0005400Y0059967D01*
X0005400Y0057569D02*
X0200491Y0057569D01*
X0198892Y0055170D02*
X0005400Y0055170D01*
X0005400Y0052772D02*
X0197293Y0052772D01*
X0195694Y0050373D02*
X0005400Y0050373D01*
X0005400Y0047975D02*
X0194095Y0047975D01*
X0192496Y0045576D02*
X0005400Y0045576D01*
X0005400Y0043178D02*
X0190897Y0043178D01*
X0189298Y0040779D02*
X0005400Y0040779D01*
X0005400Y0038381D02*
X0187927Y0038381D01*
X0187800Y0035982D02*
X0005400Y0035982D01*
X0005400Y0033584D02*
X0187800Y0033584D01*
X0187800Y0031185D02*
X0005400Y0031185D01*
X0005400Y0028787D02*
X0187800Y0028787D01*
X0196600Y0028787D02*
X0218487Y0028787D01*
X0217600Y0030927D02*
X0217600Y0032081D01*
X0215372Y0033195D01*
X0214708Y0033470D01*
X0214594Y0033584D01*
X0212942Y0035982D02*
X0196676Y0035982D01*
X0198275Y0038381D02*
X0212800Y0038381D01*
X0212800Y0040779D02*
X0199874Y0040779D01*
X0201473Y0043178D02*
X0212800Y0043178D01*
X0212800Y0045576D02*
X0203072Y0045576D01*
X0204671Y0047975D02*
X0212800Y0047975D01*
X0212800Y0050373D02*
X0206270Y0050373D01*
X0207869Y0052772D02*
X0212800Y0052772D01*
X0212800Y0055170D02*
X0209468Y0055170D01*
X0211067Y0057569D02*
X0212800Y0057569D01*
X0212666Y0059967D02*
X0213745Y0059967D01*
X0217200Y0057200D02*
X0222200Y0062200D01*
X0222200Y0091500D01*
X0216703Y0098343D02*
X0179387Y0098343D01*
X0181359Y0100742D02*
X0220410Y0100742D01*
X0222200Y0100742D02*
X0222200Y0100742D01*
X0223990Y0100742D02*
X0232701Y0100742D01*
X0232701Y0098343D02*
X0227697Y0098343D01*
X0229400Y0095945D02*
X0232701Y0095945D01*
X0232701Y0093546D02*
X0229400Y0093546D01*
X0229400Y0091148D02*
X0232701Y0091148D01*
X0232701Y0088749D02*
X0229400Y0088749D01*
X0229188Y0086351D02*
X0232701Y0086351D01*
X0232701Y0083952D02*
X0226600Y0083952D01*
X0226600Y0081554D02*
X0232701Y0081554D01*
X0232701Y0079155D02*
X0226600Y0079155D01*
X0226600Y0076757D02*
X0232701Y0076757D01*
X0232701Y0074358D02*
X0226600Y0074358D01*
X0226600Y0071960D02*
X0232701Y0071960D01*
X0232701Y0069561D02*
X0226600Y0069561D01*
X0226600Y0067163D02*
X0232701Y0067163D01*
X0232701Y0064764D02*
X0226600Y0064764D01*
X0226600Y0062366D02*
X0232701Y0062366D01*
X0232701Y0059967D02*
X0226038Y0059967D01*
X0227200Y0057569D02*
X0227200Y0057569D01*
X0227200Y0055170D02*
X0227200Y0055170D01*
X0227200Y0052772D02*
X0227200Y0052772D01*
X0231022Y0057569D02*
X0232701Y0057569D01*
X0217200Y0057200D02*
X0217200Y0037200D01*
X0227200Y0032200D01*
X0221307Y0026388D02*
X0196600Y0026388D01*
X0196600Y0023990D02*
X0210561Y0023990D01*
X0210827Y0024100D02*
X0208291Y0023050D01*
X0206350Y0021109D01*
X0205300Y0018572D01*
X0205300Y0015827D01*
X0206350Y0013291D01*
X0208291Y0011350D01*
X0210827Y0010300D01*
X0213572Y0010300D01*
X0216109Y0011350D01*
X0218050Y0013291D01*
X0219100Y0015827D01*
X0219100Y0018572D01*
X0218050Y0021109D01*
X0216109Y0023050D01*
X0213572Y0024100D01*
X0210827Y0024100D01*
X0213839Y0023990D02*
X0232701Y0023990D01*
X0232701Y0021591D02*
X0217567Y0021591D01*
X0218843Y0019193D02*
X0232701Y0019193D01*
X0232701Y0016794D02*
X0219100Y0016794D01*
X0218507Y0014396D02*
X0232701Y0014396D01*
X0231997Y0011997D02*
X0216755Y0011997D01*
X0207645Y0011997D02*
X0196755Y0011997D01*
X0198507Y0014396D02*
X0205893Y0014396D01*
X0205300Y0016794D02*
X0199100Y0016794D01*
X0198843Y0019193D02*
X0205557Y0019193D01*
X0206833Y0021591D02*
X0197567Y0021591D01*
X0227200Y0007200D02*
X0102673Y0007200D01*
X0102173Y0006993D02*
X0104452Y0007937D01*
X0105691Y0009176D01*
X0107581Y0008393D01*
X0110047Y0008393D01*
X0112326Y0009337D01*
X0114070Y0011081D01*
X0115014Y0013360D01*
X0115014Y0015826D01*
X0114070Y0018105D01*
X0112326Y0019849D01*
X0110047Y0020793D01*
X0107581Y0020793D01*
X0105302Y0019849D01*
X0104063Y0018610D01*
X0102173Y0019393D01*
X0099707Y0019393D01*
X0097817Y0018610D01*
X0096578Y0019849D01*
X0094299Y0020793D01*
X0091833Y0020793D01*
X0089554Y0019849D01*
X0088315Y0018610D01*
X0086425Y0019393D01*
X0083959Y0019393D01*
X0082069Y0018610D01*
X0080830Y0019849D01*
X0078551Y0020793D01*
X0076085Y0020793D01*
X0073806Y0019849D01*
X0072567Y0018610D01*
X0070677Y0019393D01*
X0068211Y0019393D01*
X0066321Y0018610D01*
X0065082Y0019849D01*
X0062803Y0020793D01*
X0060337Y0020793D01*
X0058058Y0019849D01*
X0056819Y0018610D01*
X0054929Y0019393D01*
X0052463Y0019393D01*
X0050573Y0018610D01*
X0049334Y0019849D01*
X0047055Y0020793D01*
X0044589Y0020793D01*
X0042310Y0019849D01*
X0041071Y0018610D01*
X0039181Y0019393D01*
X0036715Y0019393D01*
X0034436Y0018449D01*
X0032692Y0016705D01*
X0031748Y0014426D01*
X0031748Y0011960D01*
X0032692Y0009681D01*
X0034436Y0007937D01*
X0036715Y0006993D01*
X0039181Y0006993D01*
X0041460Y0007937D01*
X0042699Y0009176D01*
X0044589Y0008393D01*
X0047055Y0008393D01*
X0048945Y0009176D01*
X0050184Y0007937D01*
X0052463Y0006993D01*
X0054929Y0006993D01*
X0057208Y0007937D01*
X0058447Y0009176D01*
X0060337Y0008393D01*
X0062803Y0008393D01*
X0064693Y0009176D01*
X0065932Y0007937D01*
X0068211Y0006993D01*
X0070677Y0006993D01*
X0072956Y0007937D01*
X0074195Y0009176D01*
X0076085Y0008393D01*
X0078551Y0008393D01*
X0080441Y0009176D01*
X0081680Y0007937D01*
X0083959Y0006993D01*
X0086425Y0006993D01*
X0088704Y0007937D01*
X0089943Y0009176D01*
X0091833Y0008393D01*
X0094299Y0008393D01*
X0096189Y0009176D01*
X0097428Y0007937D01*
X0099707Y0006993D01*
X0102173Y0006993D01*
X0099207Y0007200D02*
X0086925Y0007200D01*
X0083459Y0007200D02*
X0071177Y0007200D01*
X0067711Y0007200D02*
X0055429Y0007200D01*
X0051963Y0007200D02*
X0039681Y0007200D01*
X0036215Y0007200D02*
X0012200Y0007200D01*
X0009801Y0009599D02*
X0032774Y0009599D01*
X0031748Y0011997D02*
X0007403Y0011997D01*
X0005400Y0014396D02*
X0031748Y0014396D01*
X0032781Y0016794D02*
X0005400Y0016794D01*
X0005400Y0019193D02*
X0036231Y0019193D01*
X0039665Y0019193D02*
X0041654Y0019193D01*
X0049991Y0019193D02*
X0051979Y0019193D01*
X0055413Y0019193D02*
X0057402Y0019193D01*
X0065739Y0019193D02*
X0067727Y0019193D01*
X0071161Y0019193D02*
X0073150Y0019193D01*
X0081487Y0019193D02*
X0083475Y0019193D01*
X0086909Y0019193D02*
X0088898Y0019193D01*
X0097235Y0019193D02*
X0099223Y0019193D01*
X0102657Y0019193D02*
X0104646Y0019193D01*
X0112983Y0019193D02*
X0146644Y0019193D01*
X0146300Y0016794D02*
X0114613Y0016794D01*
X0115014Y0014396D02*
X0147007Y0014396D01*
X0149416Y0011997D02*
X0114450Y0011997D01*
X0112588Y0009599D02*
X0229599Y0009599D01*
X0217800Y0076757D02*
X0005400Y0076757D01*
X0005400Y0079155D02*
X0217800Y0079155D01*
X0217800Y0081554D02*
X0005400Y0081554D01*
X0005400Y0083952D02*
X0217800Y0083952D01*
X0215212Y0086351D02*
X0005400Y0086351D01*
X0005400Y0088749D02*
X0215000Y0088749D01*
X0215000Y0091148D02*
X0005400Y0091148D01*
X0005400Y0093546D02*
X0215000Y0093546D01*
X0215000Y0095945D02*
X0112312Y0095945D01*
X0113388Y0124727D02*
X0111012Y0124727D01*
X0121012Y0124727D02*
X0123388Y0124727D01*
X0131012Y0124727D02*
X0133388Y0124727D01*
X0141012Y0124727D02*
X0143388Y0124727D01*
X0151012Y0124727D02*
X0153388Y0124727D01*
X0161012Y0124727D02*
X0163388Y0124727D01*
X0152833Y0139118D02*
X0151567Y0139118D01*
X0151661Y0141517D02*
X0023600Y0141517D01*
X0023458Y0143915D02*
X0054262Y0143915D01*
X0052805Y0146314D02*
X0022344Y0146314D01*
X0017700Y0152200D02*
X0037200Y0152200D01*
X0035377Y0156600D02*
X0023058Y0156600D01*
X0021609Y0158050D01*
X0021103Y0158259D01*
X0021200Y0158356D01*
X0021746Y0159108D01*
X0022168Y0159935D01*
X0022455Y0160818D01*
X0022600Y0161736D01*
X0022600Y0162200D01*
X0022600Y0162664D01*
X0022455Y0163582D01*
X0022168Y0164465D01*
X0021746Y0165292D01*
X0021200Y0166044D01*
X0021103Y0166141D01*
X0021609Y0166350D01*
X0023550Y0168291D01*
X0024600Y0170827D01*
X0024600Y0173572D01*
X0023550Y0176109D01*
X0021609Y0178050D01*
X0019072Y0179100D01*
X0016327Y0179100D01*
X0013791Y0178050D01*
X0011850Y0176109D01*
X0011600Y0175504D01*
X0011600Y0182800D01*
X0037800Y0182800D01*
X0037800Y0180154D01*
X0037792Y0180146D01*
X0037000Y0178234D01*
X0037000Y0176166D01*
X0037792Y0174254D01*
X0039254Y0172792D01*
X0041166Y0172000D01*
X0042800Y0172000D01*
X0042800Y0164023D01*
X0035377Y0156600D01*
X0037084Y0158306D02*
X0021150Y0158306D01*
X0022418Y0160705D02*
X0039482Y0160705D01*
X0041881Y0163103D02*
X0022530Y0163103D01*
X0022600Y0162200D02*
X0016700Y0162200D01*
X0016700Y0162200D01*
X0022600Y0162200D01*
X0021594Y0165502D02*
X0042800Y0165502D01*
X0042800Y0167900D02*
X0023158Y0167900D01*
X0024381Y0170299D02*
X0042800Y0170299D01*
X0039482Y0172697D02*
X0024600Y0172697D01*
X0023969Y0175096D02*
X0037443Y0175096D01*
X0037000Y0177494D02*
X0022164Y0177494D01*
X0013236Y0177494D02*
X0011600Y0177494D01*
X0011600Y0179893D02*
X0037687Y0179893D01*
X0037800Y0182291D02*
X0011600Y0182291D01*
X0005400Y0191885D02*
X0032800Y0191885D01*
X0032800Y0194284D02*
X0005400Y0194284D01*
X0005400Y0196682D02*
X0032800Y0196682D01*
X0032800Y0199081D02*
X0005400Y0199081D01*
X0005400Y0201479D02*
X0023163Y0201479D01*
X0020764Y0203878D02*
X0005400Y0203878D01*
X0005400Y0206276D02*
X0020300Y0206276D01*
X0020300Y0208675D02*
X0005400Y0208675D01*
X0005400Y0211073D02*
X0021315Y0211073D01*
X0021170Y0213472D02*
X0005400Y0213472D01*
X0005400Y0215870D02*
X0020300Y0215870D01*
X0020300Y0218269D02*
X0005400Y0218269D01*
X0005400Y0220668D02*
X0020909Y0220668D01*
X0023308Y0223066D02*
X0005400Y0223066D01*
X0005400Y0225465D02*
X0232701Y0225465D01*
X0232701Y0227863D02*
X0005400Y0227863D01*
X0031092Y0223066D02*
X0033308Y0223066D01*
X0041092Y0223066D02*
X0044722Y0223066D01*
X0047200Y0223066D02*
X0047200Y0223066D01*
X0047200Y0220668D02*
X0047200Y0220668D01*
X0047200Y0218269D02*
X0047200Y0218269D01*
X0049678Y0223066D02*
X0053308Y0223066D01*
X0061092Y0223066D02*
X0063308Y0223066D01*
X0071092Y0223066D02*
X0073308Y0223066D01*
X0081092Y0223066D02*
X0084722Y0223066D01*
X0087200Y0223066D02*
X0087200Y0223066D01*
X0087200Y0220668D02*
X0087200Y0220668D01*
X0087200Y0218269D02*
X0087200Y0218269D01*
X0089678Y0223066D02*
X0093308Y0223066D01*
X0101092Y0223066D02*
X0103308Y0223066D01*
X0111092Y0223066D02*
X0114722Y0223066D01*
X0117200Y0223066D02*
X0117200Y0223066D01*
X0117200Y0220668D02*
X0117200Y0220668D01*
X0117200Y0218269D02*
X0117200Y0218269D01*
X0119678Y0223066D02*
X0123308Y0223066D01*
X0131092Y0223066D02*
X0133308Y0223066D01*
X0141092Y0223066D02*
X0143308Y0223066D01*
X0151092Y0223066D02*
X0153308Y0223066D01*
X0161092Y0223066D02*
X0164722Y0223066D01*
X0167200Y0223066D02*
X0167200Y0223066D01*
X0167200Y0220668D02*
X0167200Y0220668D01*
X0167200Y0218269D02*
X0167200Y0218269D01*
X0169678Y0223066D02*
X0173308Y0223066D01*
X0181092Y0223066D02*
X0184722Y0223066D01*
X0187200Y0223066D02*
X0187200Y0223066D01*
X0187200Y0220668D02*
X0187200Y0220668D01*
X0187200Y0218269D02*
X0187200Y0218269D01*
X0189678Y0223066D02*
X0193308Y0223066D01*
X0201092Y0223066D02*
X0203308Y0223066D01*
X0211092Y0223066D02*
X0213308Y0223066D01*
X0221092Y0223066D02*
X0232701Y0223066D01*
X0232701Y0220668D02*
X0223491Y0220668D01*
X0224100Y0218269D02*
X0232701Y0218269D01*
X0232701Y0215870D02*
X0224100Y0215870D01*
X0223230Y0213472D02*
X0232701Y0213472D01*
X0232701Y0211073D02*
X0221670Y0211073D01*
X0223100Y0208675D02*
X0232701Y0208675D01*
X0232701Y0206276D02*
X0223100Y0206276D01*
X0223100Y0207200D02*
X0217200Y0207200D01*
X0223100Y0207200D01*
X0222222Y0203878D02*
X0232701Y0203878D01*
X0232701Y0201479D02*
X0219823Y0201479D01*
X0217200Y0201300D02*
X0217200Y0207200D01*
X0217200Y0207200D01*
X0217200Y0207200D01*
X0217200Y0206276D02*
X0217200Y0206276D01*
X0217200Y0203878D02*
X0217200Y0203878D01*
X0203163Y0201479D02*
X0201237Y0201479D01*
X0193163Y0201479D02*
X0191237Y0201479D01*
X0183163Y0201479D02*
X0181237Y0201479D01*
X0173163Y0201479D02*
X0171237Y0201479D01*
X0163163Y0201479D02*
X0161237Y0201479D01*
X0153163Y0201479D02*
X0149823Y0201479D01*
X0147200Y0201479D02*
X0147200Y0201479D01*
X0147200Y0201300D02*
X0147200Y0207200D01*
X0147200Y0207200D01*
X0147200Y0201300D01*
X0147200Y0203878D02*
X0147200Y0203878D01*
X0144577Y0201479D02*
X0141237Y0201479D01*
X0147200Y0206276D02*
X0147200Y0206276D01*
X0151339Y0194284D02*
X0232701Y0194284D01*
X0232701Y0196682D02*
X0111600Y0196682D01*
X0111600Y0199081D02*
X0232701Y0199081D01*
X0211847Y0179893D02*
X0156600Y0179893D01*
X0156600Y0182291D02*
X0176123Y0182291D01*
X0176312Y0182154D02*
X0177140Y0181732D01*
X0178023Y0181445D01*
X0178940Y0181300D01*
X0179405Y0181300D01*
X0179869Y0181300D01*
X0180786Y0181445D01*
X0181670Y0181732D01*
X0182497Y0182154D01*
X0183248Y0182700D01*
X0183905Y0183356D01*
X0184451Y0184108D01*
X0184872Y0184935D01*
X0185159Y0185818D01*
X0185305Y0186736D01*
X0185305Y0187200D01*
X0185305Y0187664D01*
X0185159Y0188582D01*
X0184872Y0189465D01*
X0184451Y0190292D01*
X0183905Y0191044D01*
X0183248Y0191700D01*
X0182497Y0192246D01*
X0181670Y0192668D01*
X0180786Y0192955D01*
X0179869Y0193100D01*
X0179405Y0193100D01*
X0179405Y0187200D01*
X0185305Y0187200D01*
X0179405Y0187200D01*
X0179405Y0187200D01*
X0179405Y0187200D01*
X0179405Y0181300D01*
X0179405Y0187200D01*
X0179405Y0187200D01*
X0179405Y0193100D01*
X0178940Y0193100D01*
X0178023Y0192955D01*
X0177140Y0192668D01*
X0176312Y0192246D01*
X0175561Y0191700D01*
X0174904Y0191044D01*
X0174359Y0190292D01*
X0173937Y0189465D01*
X0173650Y0188582D01*
X0173505Y0187664D01*
X0173505Y0187200D01*
X0173505Y0186736D01*
X0173650Y0185818D01*
X0173937Y0184935D01*
X0174359Y0184108D01*
X0174904Y0183356D01*
X0175561Y0182700D01*
X0176312Y0182154D01*
X0179405Y0182291D02*
X0179405Y0182291D01*
X0179405Y0184690D02*
X0179405Y0184690D01*
X0179405Y0187088D02*
X0179405Y0187088D01*
X0179405Y0187200D02*
X0173505Y0187200D01*
X0179405Y0187200D01*
X0179405Y0187200D01*
X0179405Y0189487D02*
X0179405Y0189487D01*
X0179405Y0191885D02*
X0179405Y0191885D01*
X0175816Y0191885D02*
X0153737Y0191885D01*
X0156015Y0189487D02*
X0173948Y0189487D01*
X0173505Y0187088D02*
X0156600Y0187088D01*
X0156600Y0184690D02*
X0174062Y0184690D01*
X0182686Y0182291D02*
X0200146Y0182291D01*
X0198566Y0184690D02*
X0184747Y0184690D01*
X0185305Y0187088D02*
X0198095Y0187088D01*
X0198474Y0189487D02*
X0184861Y0189487D01*
X0182994Y0191885D02*
X0199923Y0191885D01*
X0211300Y0177494D02*
X0156600Y0177494D01*
X0156600Y0175096D02*
X0211603Y0175096D01*
X0212939Y0172697D02*
X0156600Y0172697D01*
X0160086Y0170299D02*
X0164314Y0170299D01*
X0170086Y0170299D02*
X0211015Y0170299D01*
X0210300Y0167900D02*
X0172493Y0167900D01*
X0185121Y0165502D02*
X0210435Y0165502D01*
X0191864Y0146314D02*
X0178766Y0146314D01*
X0181252Y0143915D02*
X0194262Y0143915D01*
X0196661Y0141517D02*
X0181600Y0141517D01*
X0181600Y0139118D02*
X0199059Y0139118D01*
X0201458Y0136720D02*
X0181600Y0136720D01*
X0181600Y0134321D02*
X0203856Y0134321D01*
X0206255Y0131923D02*
X0181600Y0131923D01*
X0181600Y0129524D02*
X0208653Y0129524D01*
X0222235Y0131923D02*
X0232701Y0131923D01*
X0232701Y0134321D02*
X0223355Y0134321D01*
X0224097Y0136720D02*
X0232701Y0136720D01*
X0232701Y0139118D02*
X0223780Y0139118D01*
X0223706Y0129524D02*
X0232701Y0129524D01*
X0232701Y0127126D02*
X0224100Y0127126D01*
X0223644Y0124727D02*
X0232701Y0124727D01*
X0232701Y0122329D02*
X0222087Y0122329D01*
X0222200Y0112734D02*
X0222200Y0112734D01*
X0223604Y0112734D02*
X0232701Y0112734D01*
X0232701Y0110336D02*
X0227207Y0110336D01*
X0228278Y0107937D02*
X0232701Y0107937D01*
X0232701Y0105539D02*
X0228297Y0105539D01*
X0227292Y0103140D02*
X0232701Y0103140D01*
X0222200Y0103140D02*
X0222200Y0103140D01*
X0222200Y0105539D02*
X0222200Y0105539D01*
X0222200Y0107937D02*
X0222200Y0107937D01*
X0222200Y0110336D02*
X0222200Y0110336D01*
X0220796Y0112734D02*
X0181600Y0112734D01*
X0181600Y0110336D02*
X0217193Y0110336D01*
X0216122Y0107937D02*
X0181600Y0107937D01*
X0181600Y0105539D02*
X0216103Y0105539D01*
X0217108Y0103140D02*
X0181600Y0103140D01*
X0181600Y0115133D02*
X0232701Y0115133D01*
X0232701Y0117532D02*
X0181600Y0117532D01*
X0181600Y0119930D02*
X0232701Y0119930D01*
X0189465Y0148712D02*
X0156910Y0148712D01*
X0149262Y0143915D02*
X0116269Y0143915D01*
X0117400Y0146314D02*
X0147805Y0146314D01*
X0147800Y0148712D02*
X0117202Y0148712D01*
X0115643Y0151111D02*
X0147800Y0151111D01*
X0147800Y0153509D02*
X0138657Y0153509D01*
X0138393Y0153400D02*
X0140599Y0154313D01*
X0142287Y0156001D01*
X0142750Y0157120D01*
X0142924Y0156779D01*
X0143386Y0156143D01*
X0143943Y0155586D01*
X0144579Y0155124D01*
X0145281Y0154766D01*
X0146029Y0154523D01*
X0146806Y0154400D01*
X0147200Y0154400D01*
X0147200Y0162200D01*
X0147200Y0162200D01*
X0147200Y0170000D01*
X0146806Y0170000D01*
X0146029Y0169877D01*
X0145281Y0169634D01*
X0144579Y0169276D01*
X0143943Y0168814D01*
X0143386Y0168257D01*
X0142924Y0167621D01*
X0142750Y0167280D01*
X0142287Y0168399D01*
X0140599Y0170087D01*
X0138393Y0171000D01*
X0136007Y0171000D01*
X0133801Y0170087D01*
X0132200Y0168485D01*
X0130599Y0170087D01*
X0128393Y0171000D01*
X0126007Y0171000D01*
X0123801Y0170087D01*
X0122200Y0168485D01*
X0120599Y0170087D01*
X0118393Y0171000D01*
X0116007Y0171000D01*
X0113801Y0170087D01*
X0112200Y0168485D01*
X0111600Y0169085D01*
X0111600Y0170377D01*
X0114023Y0172800D01*
X0139246Y0172800D01*
X0139254Y0172792D01*
X0141166Y0172000D01*
X0143234Y0172000D01*
X0145146Y0172792D01*
X0146608Y0174254D01*
X0147400Y0176166D01*
X0147400Y0178234D01*
X0146608Y0180146D01*
X0145146Y0181608D01*
X0143234Y0182400D01*
X0141166Y0182400D01*
X0139254Y0181608D01*
X0139246Y0181600D01*
X0111325Y0181600D01*
X0109708Y0180930D01*
X0108470Y0179692D01*
X0103470Y0174692D01*
X0102800Y0173075D01*
X0102800Y0169085D01*
X0102113Y0168399D01*
X0101650Y0167280D01*
X0101476Y0167621D01*
X0101014Y0168257D01*
X0100457Y0168814D01*
X0099821Y0169276D01*
X0099119Y0169634D01*
X0098371Y0169877D01*
X0097594Y0170000D01*
X0097200Y0170000D01*
X0097200Y0162200D01*
X0097200Y0162200D01*
X0097200Y0154400D01*
X0097594Y0154400D01*
X0098371Y0154523D01*
X0099119Y0154766D01*
X0099821Y0155124D01*
X0100457Y0155586D01*
X0101014Y0156143D01*
X0101476Y0156779D01*
X0101650Y0157120D01*
X0102113Y0156001D01*
X0103801Y0154313D01*
X0106007Y0153400D01*
X0108393Y0153400D01*
X0110599Y0154313D01*
X0112200Y0155915D01*
X0113801Y0154313D01*
X0116007Y0153400D01*
X0118393Y0153400D01*
X0120599Y0154313D01*
X0122200Y0155915D01*
X0123801Y0154313D01*
X0126007Y0153400D01*
X0128393Y0153400D01*
X0130599Y0154313D01*
X0132200Y0155915D01*
X0133801Y0154313D01*
X0136007Y0153400D01*
X0138393Y0153400D01*
X0135743Y0153509D02*
X0128657Y0153509D01*
X0125743Y0153509D02*
X0118657Y0153509D01*
X0115743Y0153509D02*
X0108657Y0153509D01*
X0105743Y0153509D02*
X0061600Y0153509D01*
X0061600Y0155908D02*
X0093621Y0155908D01*
X0093386Y0156143D02*
X0093943Y0155586D01*
X0094579Y0155124D01*
X0095281Y0154766D01*
X0096029Y0154523D01*
X0096806Y0154400D01*
X0097200Y0154400D01*
X0097200Y0162200D01*
X0097200Y0162200D01*
X0097200Y0162200D01*
X0092200Y0162200D01*
X0092200Y0165394D01*
X0092323Y0166171D01*
X0092566Y0166919D01*
X0092924Y0167621D01*
X0093386Y0168257D01*
X0093943Y0168814D01*
X0094579Y0169276D01*
X0095281Y0169634D01*
X0096029Y0169877D01*
X0096806Y0170000D01*
X0097200Y0170000D01*
X0097200Y0162200D01*
X0092200Y0162200D01*
X0092200Y0159006D01*
X0092323Y0158229D01*
X0092566Y0157481D01*
X0092924Y0156779D01*
X0093386Y0156143D01*
X0092311Y0158306D02*
X0061600Y0158306D01*
X0061600Y0160705D02*
X0092200Y0160705D01*
X0092200Y0163103D02*
X0061600Y0163103D01*
X0061600Y0165502D02*
X0092217Y0165502D01*
X0093127Y0167900D02*
X0061600Y0167900D01*
X0061600Y0170299D02*
X0102800Y0170299D01*
X0102800Y0172697D02*
X0061600Y0172697D01*
X0061600Y0175096D02*
X0103873Y0175096D01*
X0106272Y0177494D02*
X0061600Y0177494D01*
X0061600Y0179893D02*
X0108670Y0179893D01*
X0108470Y0179692D02*
X0108470Y0179692D01*
X0112200Y0177200D02*
X0142200Y0177200D01*
X0146957Y0175096D02*
X0147800Y0175096D01*
X0147800Y0177494D02*
X0147400Y0177494D01*
X0147800Y0179893D02*
X0146713Y0179893D01*
X0147800Y0182291D02*
X0143497Y0182291D01*
X0147800Y0184690D02*
X0061789Y0184690D01*
X0061600Y0182291D02*
X0140903Y0182291D01*
X0146089Y0187088D02*
X0062400Y0187088D01*
X0061881Y0189487D02*
X0103691Y0189487D01*
X0102800Y0191885D02*
X0059477Y0191885D01*
X0057200Y0187200D02*
X0057200Y0147200D01*
X0112200Y0147200D01*
X0111567Y0139118D02*
X0112833Y0139118D01*
X0121567Y0139118D02*
X0122833Y0139118D01*
X0131567Y0139118D02*
X0132833Y0139118D01*
X0141567Y0139118D02*
X0142833Y0139118D01*
X0142193Y0155908D02*
X0143621Y0155908D01*
X0147200Y0155908D02*
X0147200Y0155908D01*
X0147200Y0158306D02*
X0147200Y0158306D01*
X0147200Y0160705D02*
X0147200Y0160705D01*
X0147200Y0163103D02*
X0147200Y0163103D01*
X0147200Y0165502D02*
X0147200Y0165502D01*
X0147200Y0167900D02*
X0147200Y0167900D01*
X0147800Y0170299D02*
X0140086Y0170299D01*
X0139482Y0172697D02*
X0113920Y0172697D01*
X0114314Y0170299D02*
X0111600Y0170299D01*
X0107200Y0172200D02*
X0112200Y0177200D01*
X0107200Y0172200D02*
X0107200Y0162200D01*
X0101907Y0167900D02*
X0101273Y0167900D01*
X0097200Y0167900D02*
X0097200Y0167900D01*
X0097200Y0165502D02*
X0097200Y0165502D01*
X0097200Y0163103D02*
X0097200Y0163103D01*
X0097200Y0160705D02*
X0097200Y0160705D01*
X0097200Y0158306D02*
X0097200Y0158306D01*
X0097200Y0155908D02*
X0097200Y0155908D01*
X0100779Y0155908D02*
X0102207Y0155908D01*
X0112193Y0155908D02*
X0112207Y0155908D01*
X0122193Y0155908D02*
X0122207Y0155908D01*
X0132193Y0155908D02*
X0132207Y0155908D01*
X0142493Y0167900D02*
X0143127Y0167900D01*
X0144918Y0172697D02*
X0147800Y0172697D01*
X0134314Y0170299D02*
X0130086Y0170299D01*
X0124314Y0170299D02*
X0120086Y0170299D01*
X0121237Y0201479D02*
X0123163Y0201479D01*
X0131237Y0201479D02*
X0133163Y0201479D01*
X0113163Y0201479D02*
X0111600Y0201479D01*
X0102833Y0139118D02*
X0101567Y0139118D01*
X0092833Y0139118D02*
X0022892Y0139118D01*
X0022938Y0136720D02*
X0091418Y0136720D01*
X0042200Y0177200D02*
X0042200Y0197200D01*
X0032800Y0201479D02*
X0031237Y0201479D01*
X0008551Y0141517D02*
X0005400Y0141517D01*
X0005400Y0021591D02*
X0148247Y0021591D01*
X0152200Y0021591D02*
X0152200Y0021591D01*
X0152200Y0019193D02*
X0152200Y0019193D01*
D19*
X0067200Y0127200D03*
X0112200Y0147200D03*
X0142200Y0177200D03*
X0057200Y0187200D03*
X0057200Y0197200D03*
X0042200Y0197200D03*
X0042200Y0177200D03*
M02*
