G75*
%MOIN*%
%OFA0B0*%
%FSLAX25Y25*%
%IPPOS*%
%LPD*%
%AMOC8*
5,1,8,0,0,1.08239X$1,22.5*
%
%ADD10R,0.01600X0.00100*%
%ADD11R,0.00800X0.00100*%
%ADD12R,0.02300X0.00100*%
%ADD13R,0.01100X0.00100*%
%ADD14R,0.02400X0.00100*%
%ADD15R,0.01300X0.00100*%
%ADD16R,0.02500X0.00100*%
%ADD17R,0.04000X0.00100*%
%ADD18R,0.00300X0.00100*%
%ADD19R,0.04200X0.00100*%
%ADD20R,0.05400X0.00100*%
%ADD21R,0.05500X0.00100*%
%ADD22R,0.05700X0.00100*%
%ADD23R,0.03500X0.00100*%
%ADD24R,0.01400X0.00100*%
%ADD25R,0.03100X0.00100*%
%ADD26R,0.00600X0.00100*%
%ADD27R,0.02800X0.00100*%
%ADD28R,0.01200X0.00100*%
%ADD29R,0.01000X0.00100*%
%ADD30R,0.02000X0.00100*%
%ADD31R,0.00700X0.00100*%
%ADD32R,0.01800X0.00100*%
%ADD33R,0.02700X0.00100*%
%ADD34R,0.03400X0.00100*%
%ADD35R,0.03000X0.00100*%
%ADD36R,0.00500X0.00100*%
%ADD37R,0.03200X0.00100*%
%ADD38R,0.00400X0.00100*%
%ADD39R,0.03700X0.00100*%
%ADD40R,0.00900X0.00100*%
%ADD41R,0.01500X0.00100*%
%ADD42R,0.00200X0.00100*%
%ADD43R,0.03900X0.00100*%
%ADD44R,0.00100X0.00100*%
%ADD45R,0.03800X0.00100*%
%ADD46R,0.01700X0.00100*%
%ADD47R,0.01900X0.00100*%
%ADD48R,0.04300X0.00100*%
%ADD49R,0.02100X0.00100*%
%ADD50R,0.04400X0.00100*%
%ADD51R,0.04100X0.00100*%
%ADD52R,0.02200X0.00100*%
%ADD53R,0.04500X0.00100*%
%ADD54R,0.02900X0.00100*%
%ADD55R,0.04600X0.00100*%
%ADD56R,0.02600X0.00100*%
%ADD57R,0.04700X0.00100*%
%ADD58R,0.03300X0.00100*%
%ADD59R,0.05200X0.00100*%
%ADD60R,0.03600X0.00100*%
%ADD61R,0.04800X0.00100*%
%ADD62R,0.05100X0.00100*%
%ADD63R,0.05000X0.00100*%
%ADD64R,0.04900X0.00100*%
%ADD65R,0.05300X0.00100*%
%ADD66R,0.05600X0.00100*%
%ADD67R,0.05800X0.00100*%
%ADD68R,0.06100X0.00100*%
%ADD69R,0.06000X0.00100*%
%ADD70R,0.05900X0.00100*%
%ADD71R,0.07200X0.00100*%
%ADD72R,0.08000X0.00100*%
%ADD73R,0.09100X0.00100*%
%ADD74R,0.10300X0.00100*%
%ADD75R,0.16600X0.00100*%
%ADD76R,0.11700X0.00100*%
%ADD77R,0.11600X0.00100*%
%ADD78R,0.11500X0.00100*%
%ADD79R,0.11400X0.00100*%
%ADD80R,0.11300X0.00100*%
%ADD81R,0.11200X0.00100*%
%ADD82R,0.11100X0.00100*%
%ADD83R,0.11000X0.00100*%
%ADD84R,0.10900X0.00100*%
%ADD85R,0.10800X0.00100*%
%ADD86R,0.10700X0.00100*%
%ADD87R,0.10600X0.00100*%
%ADD88R,0.10200X0.00100*%
%ADD89R,0.10100X0.00100*%
%ADD90R,0.10000X0.00100*%
%ADD91R,0.09800X0.00100*%
%ADD92R,0.09700X0.00100*%
%ADD93R,0.09500X0.00100*%
%ADD94R,0.09400X0.00100*%
%ADD95R,0.09200X0.00100*%
%ADD96R,0.09000X0.00100*%
%ADD97R,0.08800X0.00100*%
%ADD98R,0.08600X0.00100*%
%ADD99R,0.08400X0.00100*%
%ADD100R,0.08200X0.00100*%
%ADD101R,0.07700X0.00100*%
%ADD102R,0.07500X0.00100*%
%ADD103R,0.07300X0.00100*%
%ADD104R,0.06900X0.00100*%
%ADD105R,0.06800X0.00100*%
%ADD106R,0.06600X0.00100*%
%ADD107R,0.06300X0.00100*%
%ADD108R,0.06400X0.00100*%
%ADD109R,0.06700X0.00100*%
%ADD110R,0.07000X0.00100*%
%ADD111R,0.07100X0.00100*%
%ADD112R,0.07400X0.00100*%
%ADD113R,0.08700X0.00100*%
%ADD114R,0.09300X0.00100*%
%ADD115R,0.08500X0.00100*%
%ADD116R,0.08100X0.00100*%
%ADD117R,0.12600X0.00100*%
%ADD118R,0.12500X0.00100*%
%ADD119R,0.12400X0.00100*%
%ADD120R,0.06200X0.00100*%
%ADD121R,0.06500X0.00100*%
%ADD122R,0.09900X0.00100*%
%ADD123R,0.09600X0.00100*%
%ADD124R,0.07900X0.00100*%
%ADD125R,0.07800X0.00100*%
%ADD126R,0.08300X0.00100*%
%ADD127C,0.00800*%
D10*
X0008150Y0012700D03*
X0008150Y0012800D03*
X0008150Y0012900D03*
X0012950Y0014400D03*
X0012950Y0014500D03*
X0012950Y0014600D03*
X0020750Y0020100D03*
X0023850Y0020900D03*
X0022150Y0023700D03*
X0021750Y0025400D03*
X0019150Y0024200D03*
X0019050Y0024000D03*
X0018950Y0023900D03*
X0019450Y0029400D03*
X0025550Y0024600D03*
X0027150Y0025900D03*
X0027150Y0021500D03*
X0027150Y0021400D03*
X0025250Y0015700D03*
X0028050Y0008900D03*
X0026750Y0008500D03*
X0029850Y0007200D03*
X0030850Y0009200D03*
X0041950Y0023700D03*
X0040250Y0026400D03*
X0041050Y0029500D03*
X0043350Y0027300D03*
X0044750Y0026100D03*
X0044750Y0026000D03*
X0044750Y0025900D03*
X0044750Y0025500D03*
X0044750Y0025400D03*
X0045450Y0028000D03*
X0038250Y0031100D03*
X0036150Y0033400D03*
X0030050Y0032700D03*
X0030250Y0041800D03*
X0030250Y0041900D03*
X0030450Y0045500D03*
X0029150Y0048200D03*
X0029150Y0048300D03*
X0029150Y0048400D03*
X0024350Y0048900D03*
X0021350Y0044400D03*
X0029550Y0054700D03*
X0029650Y0054800D03*
X0042250Y0055800D03*
X0043350Y0053500D03*
X0042850Y0052400D03*
X0050350Y0012800D03*
X0048650Y0011500D03*
D11*
X0049250Y0010400D03*
X0049150Y0010300D03*
X0049050Y0010100D03*
X0049050Y0010000D03*
X0049050Y0009900D03*
X0049050Y0009800D03*
X0049050Y0009700D03*
X0048750Y0015200D03*
X0047450Y0017400D03*
X0046350Y0021800D03*
X0046150Y0022400D03*
X0045050Y0022400D03*
X0046150Y0025700D03*
X0046150Y0025800D03*
X0046150Y0025900D03*
X0046150Y0026000D03*
X0046150Y0026100D03*
X0046150Y0026200D03*
X0046150Y0026300D03*
X0046150Y0026400D03*
X0043750Y0027200D03*
X0041850Y0024100D03*
X0040150Y0030100D03*
X0038450Y0030800D03*
X0035950Y0033600D03*
X0031150Y0035700D03*
X0031150Y0035800D03*
X0030350Y0033500D03*
X0022950Y0025900D03*
X0020450Y0026100D03*
X0020350Y0026000D03*
X0018250Y0026900D03*
X0019450Y0030300D03*
X0018050Y0034800D03*
X0019150Y0038500D03*
X0025750Y0043400D03*
X0025350Y0045400D03*
X0025350Y0045500D03*
X0025350Y0045600D03*
X0025250Y0046800D03*
X0025250Y0046900D03*
X0025350Y0047000D03*
X0025350Y0047100D03*
X0026450Y0046400D03*
X0026250Y0050500D03*
X0030350Y0053800D03*
X0031350Y0053500D03*
X0031950Y0051500D03*
X0031750Y0050000D03*
X0032350Y0049400D03*
X0032350Y0049300D03*
X0032350Y0049200D03*
X0032150Y0048000D03*
X0031250Y0044500D03*
X0031250Y0044400D03*
X0031650Y0043400D03*
X0031650Y0043300D03*
X0031650Y0043200D03*
X0031750Y0043000D03*
X0031750Y0042900D03*
X0031750Y0042800D03*
X0031750Y0042700D03*
X0030550Y0043500D03*
X0042450Y0052000D03*
X0026950Y0025500D03*
X0026250Y0023200D03*
X0026350Y0023000D03*
X0023550Y0022400D03*
X0023550Y0022300D03*
X0021850Y0023400D03*
X0018950Y0015700D03*
X0014150Y0016000D03*
X0013950Y0018600D03*
X0013950Y0018700D03*
X0009550Y0018600D03*
X0008350Y0013800D03*
X0008350Y0013700D03*
X0008350Y0013600D03*
X0024950Y0015300D03*
X0024950Y0015400D03*
X0031250Y0010400D03*
X0031250Y0010300D03*
X0031250Y0010200D03*
X0031250Y0010100D03*
X0027950Y0007300D03*
X0026450Y0009000D03*
D12*
X0028200Y0009100D03*
X0030500Y0008900D03*
X0029900Y0007300D03*
X0027100Y0020800D03*
X0025200Y0024900D03*
X0025100Y0025200D03*
X0025100Y0025300D03*
X0025100Y0025400D03*
X0025100Y0025500D03*
X0019500Y0028700D03*
X0019500Y0028800D03*
X0021100Y0031300D03*
X0022000Y0036600D03*
X0019900Y0038800D03*
X0019400Y0036600D03*
X0025800Y0037300D03*
X0027100Y0041900D03*
X0023700Y0047800D03*
X0023800Y0047900D03*
X0029300Y0050300D03*
X0042700Y0052700D03*
X0041700Y0056000D03*
X0036300Y0033200D03*
X0029800Y0032000D03*
X0027200Y0032400D03*
X0017800Y0022400D03*
X0017700Y0022300D03*
X0016300Y0019900D03*
X0016200Y0019700D03*
X0016100Y0019600D03*
X0016100Y0019500D03*
X0020500Y0019400D03*
X0020500Y0019300D03*
X0016900Y0014900D03*
X0014300Y0010200D03*
X0010400Y0012300D03*
X0010300Y0012500D03*
X0042100Y0023200D03*
X0043200Y0027800D03*
X0043200Y0027900D03*
X0046400Y0018700D03*
X0046400Y0011300D03*
X0046400Y0011200D03*
D13*
X0048200Y0010800D03*
X0048300Y0011000D03*
X0046800Y0009400D03*
X0051200Y0011600D03*
X0044900Y0022600D03*
X0044900Y0024600D03*
X0044900Y0024700D03*
X0044900Y0024800D03*
X0043300Y0026500D03*
X0041700Y0028300D03*
X0040700Y0029100D03*
X0041000Y0031100D03*
X0040200Y0025900D03*
X0040200Y0025800D03*
X0033900Y0033800D03*
X0030200Y0033200D03*
X0021900Y0026200D03*
X0021800Y0026100D03*
X0020600Y0026300D03*
X0020600Y0026400D03*
X0020000Y0025400D03*
X0019900Y0025300D03*
X0018400Y0027200D03*
X0019400Y0029900D03*
X0019400Y0030000D03*
X0023200Y0025400D03*
X0025800Y0024400D03*
X0027000Y0025600D03*
X0026600Y0022600D03*
X0026600Y0022500D03*
X0023700Y0021600D03*
X0020800Y0020300D03*
X0015200Y0018300D03*
X0025100Y0015500D03*
X0031100Y0009600D03*
X0027900Y0007400D03*
X0026500Y0008800D03*
X0028700Y0042500D03*
X0028000Y0042600D03*
X0030400Y0042900D03*
X0030400Y0043000D03*
X0031200Y0044200D03*
X0025700Y0044100D03*
X0025700Y0044000D03*
X0025700Y0043900D03*
X0025600Y0044400D03*
X0025600Y0044500D03*
X0025500Y0047500D03*
X0026400Y0050600D03*
X0031800Y0051700D03*
X0035000Y0052300D03*
X0042900Y0052200D03*
D14*
X0042650Y0052800D03*
X0039250Y0056900D03*
X0028450Y0053700D03*
X0023650Y0047700D03*
X0021050Y0031800D03*
X0021150Y0031200D03*
X0025050Y0025700D03*
X0025050Y0025600D03*
X0022250Y0024000D03*
X0017650Y0022200D03*
X0017550Y0022100D03*
X0016550Y0020400D03*
X0016450Y0020200D03*
X0016350Y0020100D03*
X0016350Y0020000D03*
X0016250Y0019800D03*
X0020450Y0019200D03*
X0027050Y0020700D03*
X0027350Y0015500D03*
X0029950Y0007400D03*
X0042350Y0019500D03*
X0046250Y0018800D03*
X0045850Y0014200D03*
X0048650Y0014400D03*
X0050250Y0012600D03*
X0046450Y0011400D03*
X0041950Y0024500D03*
X0041950Y0024600D03*
X0043150Y0029300D03*
X0042150Y0030300D03*
X0038050Y0031400D03*
X0016850Y0013100D03*
X0016850Y0013000D03*
X0014350Y0010300D03*
X0010350Y0012400D03*
X0010750Y0013800D03*
X0010750Y0013900D03*
X0010750Y0014000D03*
X0010750Y0014100D03*
X0008350Y0011900D03*
D15*
X0013200Y0015100D03*
X0015300Y0018400D03*
X0011300Y0020300D03*
X0009800Y0018700D03*
X0020800Y0020200D03*
X0023700Y0021300D03*
X0023700Y0021400D03*
X0025700Y0024500D03*
X0027100Y0025700D03*
X0026800Y0022200D03*
X0027700Y0015800D03*
X0031000Y0009400D03*
X0027900Y0007500D03*
X0026600Y0008700D03*
X0019500Y0024700D03*
X0019600Y0024800D03*
X0020500Y0026900D03*
X0020500Y0027000D03*
X0018600Y0027400D03*
X0018500Y0027300D03*
X0019400Y0029700D03*
X0018200Y0035100D03*
X0018200Y0035200D03*
X0018200Y0035300D03*
X0018200Y0035400D03*
X0018200Y0035500D03*
X0019200Y0037300D03*
X0021400Y0044500D03*
X0024700Y0049800D03*
X0024800Y0050000D03*
X0024800Y0050100D03*
X0024900Y0050300D03*
X0024900Y0050400D03*
X0025000Y0050600D03*
X0025000Y0050700D03*
X0025100Y0050800D03*
X0025100Y0050900D03*
X0025200Y0051100D03*
X0025200Y0051200D03*
X0025300Y0051300D03*
X0025300Y0051400D03*
X0025400Y0051500D03*
X0025400Y0051600D03*
X0025500Y0051700D03*
X0028800Y0053800D03*
X0031400Y0050300D03*
X0031700Y0051800D03*
X0033400Y0057100D03*
X0041300Y0053400D03*
X0042400Y0055700D03*
X0031000Y0045800D03*
X0031200Y0044100D03*
X0031200Y0044000D03*
X0030400Y0042300D03*
X0030300Y0038300D03*
X0030100Y0033000D03*
X0036100Y0033500D03*
X0038300Y0031000D03*
X0040700Y0029200D03*
X0040200Y0026500D03*
X0043400Y0026900D03*
X0044800Y0025100D03*
X0044800Y0022700D03*
X0047300Y0017700D03*
X0048700Y0015000D03*
X0048400Y0011100D03*
D16*
X0046200Y0010900D03*
X0045800Y0014300D03*
X0046200Y0018900D03*
X0042500Y0019400D03*
X0042200Y0023100D03*
X0036400Y0026000D03*
X0041300Y0030700D03*
X0027300Y0032500D03*
X0025000Y0025900D03*
X0025000Y0025800D03*
X0022300Y0024100D03*
X0019500Y0028500D03*
X0019500Y0028600D03*
X0019400Y0036500D03*
X0023600Y0044400D03*
X0023500Y0047400D03*
X0023600Y0047600D03*
X0030800Y0052300D03*
X0035500Y0052700D03*
X0041400Y0056100D03*
X0020400Y0019100D03*
X0020400Y0019000D03*
X0018800Y0016400D03*
X0016900Y0014800D03*
X0014300Y0010400D03*
X0010700Y0014200D03*
X0008900Y0010200D03*
X0011400Y0020100D03*
X0016500Y0020300D03*
X0016600Y0020500D03*
X0016700Y0020700D03*
X0030400Y0008800D03*
X0030000Y0007500D03*
X0051300Y0011500D03*
D17*
X0051450Y0011200D03*
X0051350Y0009100D03*
X0046950Y0012800D03*
X0046050Y0015200D03*
X0029250Y0007600D03*
X0028450Y0009800D03*
X0027650Y0013900D03*
X0011150Y0015800D03*
X0010450Y0015300D03*
X0028350Y0034300D03*
X0028450Y0034400D03*
X0028550Y0035500D03*
X0028550Y0035600D03*
X0028550Y0035700D03*
X0028550Y0035800D03*
X0028550Y0035900D03*
X0024350Y0036300D03*
X0022850Y0044900D03*
X0029950Y0050800D03*
X0036050Y0053200D03*
D18*
X0032200Y0051000D03*
X0031900Y0047700D03*
X0031800Y0047500D03*
X0031800Y0047400D03*
X0031800Y0047300D03*
X0031700Y0046900D03*
X0031700Y0046800D03*
X0031600Y0046300D03*
X0031500Y0046100D03*
X0025900Y0048000D03*
X0025900Y0048100D03*
X0025900Y0048800D03*
X0025500Y0048700D03*
X0024000Y0049300D03*
X0019000Y0038000D03*
X0019000Y0037900D03*
X0021300Y0036400D03*
X0018700Y0035000D03*
X0018700Y0034900D03*
X0018700Y0034800D03*
X0018700Y0034700D03*
X0018700Y0034600D03*
X0018600Y0033900D03*
X0018600Y0033800D03*
X0019600Y0031000D03*
X0017900Y0026200D03*
X0017900Y0026100D03*
X0017800Y0026000D03*
X0017700Y0025900D03*
X0017700Y0025800D03*
X0017600Y0025700D03*
X0020000Y0021600D03*
X0020200Y0021700D03*
X0021900Y0021600D03*
X0021900Y0022700D03*
X0023500Y0023300D03*
X0023500Y0023400D03*
X0023500Y0023500D03*
X0025700Y0024200D03*
X0025800Y0024000D03*
X0026200Y0024100D03*
X0022800Y0026100D03*
X0030700Y0034100D03*
X0030800Y0034200D03*
X0030900Y0034300D03*
X0031600Y0036100D03*
X0031700Y0036200D03*
X0033700Y0034600D03*
X0034000Y0034500D03*
X0034300Y0034400D03*
X0034600Y0034300D03*
X0034800Y0034200D03*
X0034700Y0034000D03*
X0034500Y0033900D03*
X0034000Y0033500D03*
X0034000Y0033400D03*
X0034500Y0031900D03*
X0034600Y0031800D03*
X0034700Y0031700D03*
X0034900Y0031600D03*
X0035200Y0031400D03*
X0035400Y0031300D03*
X0035600Y0031200D03*
X0035800Y0031100D03*
X0036000Y0031000D03*
X0036200Y0030900D03*
X0036400Y0030800D03*
X0036900Y0030500D03*
X0037300Y0030200D03*
X0037400Y0030100D03*
X0037500Y0030000D03*
X0037600Y0029900D03*
X0039800Y0026800D03*
X0041100Y0024100D03*
X0042800Y0024000D03*
X0042900Y0023900D03*
X0043000Y0023800D03*
X0043300Y0023600D03*
X0043500Y0023400D03*
X0045900Y0022100D03*
X0045600Y0029500D03*
X0032200Y0038800D03*
X0032100Y0039000D03*
X0031700Y0039400D03*
X0041400Y0052500D03*
X0041300Y0052600D03*
X0041200Y0052700D03*
X0041100Y0052800D03*
X0040800Y0053000D03*
X0041700Y0052300D03*
X0016600Y0017500D03*
X0016100Y0017200D03*
X0015900Y0017100D03*
X0013800Y0015400D03*
X0013800Y0015300D03*
X0013700Y0015200D03*
X0008700Y0015900D03*
X0018800Y0015500D03*
X0025200Y0014400D03*
X0025200Y0014300D03*
X0025200Y0014200D03*
X0029100Y0015600D03*
X0029200Y0015400D03*
X0029300Y0015200D03*
X0026200Y0009600D03*
X0026500Y0007700D03*
X0045000Y0009800D03*
X0045000Y0009900D03*
X0044900Y0011400D03*
D19*
X0050150Y0011900D03*
X0052350Y0010400D03*
X0044550Y0017500D03*
X0044850Y0020100D03*
X0035850Y0026300D03*
X0037550Y0032100D03*
X0028650Y0034700D03*
X0028550Y0034600D03*
X0028650Y0035200D03*
X0028550Y0036800D03*
X0028550Y0036900D03*
X0022250Y0037200D03*
X0022250Y0037300D03*
X0036150Y0053300D03*
X0035750Y0054500D03*
X0011150Y0015900D03*
X0010550Y0015400D03*
X0027750Y0013600D03*
X0029250Y0007700D03*
D20*
X0028750Y0007800D03*
X0026150Y0017700D03*
X0026050Y0018000D03*
X0026050Y0018100D03*
X0025950Y0018300D03*
X0025650Y0020400D03*
X0025650Y0020500D03*
X0014950Y0012600D03*
X0011350Y0017500D03*
X0011450Y0017800D03*
X0022450Y0032400D03*
X0028850Y0031800D03*
X0021950Y0037900D03*
X0022450Y0043200D03*
X0028850Y0051300D03*
X0028650Y0053100D03*
X0045650Y0016800D03*
X0051650Y0010600D03*
D21*
X0045600Y0016900D03*
X0028800Y0007900D03*
X0026000Y0018200D03*
X0025900Y0018400D03*
X0025900Y0018500D03*
X0025900Y0018600D03*
X0025600Y0020200D03*
X0025600Y0020300D03*
X0015000Y0012700D03*
X0028900Y0051200D03*
D22*
X0028900Y0051100D03*
X0022400Y0042900D03*
X0029000Y0031700D03*
X0025700Y0019400D03*
X0025700Y0019300D03*
X0025700Y0019200D03*
X0025800Y0018900D03*
X0028800Y0008400D03*
X0028800Y0008300D03*
X0028800Y0008200D03*
X0028800Y0008100D03*
X0028800Y0008000D03*
X0044000Y0020500D03*
X0047600Y0013800D03*
X0047700Y0013600D03*
X0047700Y0013500D03*
X0041400Y0053800D03*
X0041400Y0053900D03*
X0041300Y0054000D03*
X0041300Y0054100D03*
X0041200Y0054300D03*
D23*
X0028500Y0053600D03*
X0022900Y0045900D03*
X0022900Y0045800D03*
X0022300Y0036900D03*
X0021800Y0030500D03*
X0022500Y0029000D03*
X0023100Y0027000D03*
X0029000Y0037300D03*
X0036700Y0032700D03*
X0042200Y0029800D03*
X0042800Y0028600D03*
X0042600Y0022400D03*
X0045300Y0019700D03*
X0043500Y0018400D03*
X0050000Y0012300D03*
X0052300Y0009500D03*
X0052200Y0009400D03*
X0029900Y0008500D03*
X0028400Y0009500D03*
X0027400Y0014600D03*
X0027400Y0014700D03*
X0014400Y0011500D03*
X0010300Y0014700D03*
X0010300Y0014800D03*
X0008900Y0011700D03*
X0011200Y0019200D03*
D24*
X0013150Y0015000D03*
X0013050Y0014900D03*
X0016850Y0015200D03*
X0009850Y0012700D03*
X0008150Y0013100D03*
X0008150Y0013200D03*
X0008150Y0013300D03*
X0008150Y0013400D03*
X0008150Y0013500D03*
X0019350Y0024500D03*
X0019450Y0024600D03*
X0021650Y0025900D03*
X0021650Y0026000D03*
X0020450Y0027100D03*
X0020450Y0027200D03*
X0018650Y0027500D03*
X0019450Y0029600D03*
X0021650Y0036500D03*
X0030050Y0032900D03*
X0030350Y0042100D03*
X0030350Y0042200D03*
X0026850Y0046100D03*
X0024450Y0049100D03*
X0024550Y0049200D03*
X0024650Y0049500D03*
X0024650Y0049600D03*
X0024650Y0049700D03*
X0024750Y0049900D03*
X0024850Y0050200D03*
X0024950Y0050500D03*
X0025150Y0051000D03*
X0026650Y0050700D03*
X0029150Y0049500D03*
X0029350Y0054300D03*
X0029450Y0054400D03*
X0029450Y0054500D03*
X0029750Y0054900D03*
X0029850Y0055000D03*
X0035150Y0052400D03*
X0042550Y0052100D03*
X0045450Y0028400D03*
X0045450Y0028300D03*
X0044950Y0026900D03*
X0044950Y0026800D03*
X0044850Y0026600D03*
X0044850Y0026500D03*
X0044750Y0025300D03*
X0044750Y0025200D03*
X0043150Y0026400D03*
X0041950Y0023800D03*
X0044750Y0022800D03*
X0047150Y0017800D03*
X0048550Y0011300D03*
X0048450Y0011200D03*
X0030950Y0009300D03*
X0026650Y0008600D03*
X0025150Y0015600D03*
X0023750Y0021100D03*
X0023750Y0021200D03*
X0026850Y0022000D03*
X0026850Y0022100D03*
X0026950Y0021900D03*
D25*
X0022800Y0027500D03*
X0022800Y0027600D03*
X0019500Y0027600D03*
X0019500Y0027700D03*
X0019500Y0027800D03*
X0024800Y0036400D03*
X0029300Y0037700D03*
X0023100Y0046500D03*
X0030400Y0052400D03*
X0040000Y0056700D03*
X0042400Y0022700D03*
X0043000Y0018900D03*
X0045700Y0019400D03*
X0045900Y0014700D03*
X0046500Y0012500D03*
X0048600Y0014100D03*
X0051300Y0011400D03*
X0030100Y0008600D03*
X0027200Y0015200D03*
X0018700Y0016700D03*
X0016800Y0014300D03*
X0016800Y0014200D03*
X0016800Y0014100D03*
X0016800Y0014000D03*
X0016800Y0013900D03*
X0016800Y0013800D03*
X0013700Y0013100D03*
X0008900Y0010400D03*
D26*
X0009350Y0013200D03*
X0009050Y0014200D03*
X0008350Y0014200D03*
X0008350Y0014100D03*
X0008350Y0014000D03*
X0008050Y0014800D03*
X0008050Y0014900D03*
X0008750Y0015700D03*
X0013050Y0015300D03*
X0014050Y0015800D03*
X0013950Y0018400D03*
X0012950Y0018900D03*
X0018850Y0015600D03*
X0014350Y0009500D03*
X0025050Y0014900D03*
X0025050Y0015000D03*
X0024950Y0015200D03*
X0027950Y0016000D03*
X0028750Y0016300D03*
X0028850Y0016200D03*
X0031250Y0011100D03*
X0027850Y0008700D03*
X0026350Y0009200D03*
X0026350Y0009300D03*
X0023550Y0022600D03*
X0023550Y0022700D03*
X0023550Y0022800D03*
X0023550Y0022900D03*
X0021850Y0023200D03*
X0022850Y0026000D03*
X0025950Y0023700D03*
X0026050Y0023600D03*
X0026050Y0023500D03*
X0018150Y0026600D03*
X0019550Y0030600D03*
X0019550Y0030700D03*
X0019050Y0038300D03*
X0021550Y0044700D03*
X0025250Y0046000D03*
X0025250Y0046100D03*
X0025250Y0046200D03*
X0025250Y0046300D03*
X0025250Y0046400D03*
X0025250Y0046500D03*
X0026350Y0046500D03*
X0024950Y0049300D03*
X0025950Y0049900D03*
X0025950Y0050000D03*
X0026050Y0050300D03*
X0026150Y0050400D03*
X0028250Y0054300D03*
X0028550Y0055000D03*
X0030750Y0053700D03*
X0031650Y0053300D03*
X0031750Y0053100D03*
X0032050Y0051300D03*
X0031950Y0049800D03*
X0032150Y0049600D03*
X0031350Y0046000D03*
X0031350Y0044700D03*
X0030650Y0043800D03*
X0031150Y0035600D03*
X0030450Y0033700D03*
X0033950Y0033600D03*
X0038450Y0030700D03*
X0040050Y0029900D03*
X0040050Y0025700D03*
X0041150Y0024300D03*
X0045150Y0022200D03*
X0046450Y0021900D03*
X0046150Y0026800D03*
X0046150Y0026900D03*
X0046150Y0027000D03*
X0050550Y0013000D03*
D27*
X0050150Y0012500D03*
X0048650Y0014200D03*
X0046250Y0011600D03*
X0046050Y0010600D03*
X0045950Y0019100D03*
X0045850Y0019200D03*
X0042250Y0022900D03*
X0041950Y0024900D03*
X0041950Y0025000D03*
X0042050Y0025300D03*
X0043050Y0029100D03*
X0042250Y0030100D03*
X0041350Y0030600D03*
X0036450Y0033000D03*
X0029650Y0041300D03*
X0027450Y0041700D03*
X0030250Y0045700D03*
X0023450Y0044700D03*
X0023250Y0046900D03*
X0023350Y0047000D03*
X0023350Y0047100D03*
X0019350Y0036400D03*
X0021350Y0031000D03*
X0022550Y0028000D03*
X0022350Y0025300D03*
X0020250Y0018600D03*
X0020150Y0018500D03*
X0020150Y0018400D03*
X0020050Y0018300D03*
X0019950Y0018100D03*
X0019650Y0017700D03*
X0016850Y0014600D03*
X0013450Y0013700D03*
X0013450Y0013600D03*
X0014350Y0010700D03*
X0010750Y0019000D03*
X0027250Y0015400D03*
X0030250Y0008700D03*
X0041150Y0056200D03*
X0039650Y0056800D03*
D28*
X0041450Y0053300D03*
X0041550Y0053200D03*
X0041650Y0053100D03*
X0042850Y0052300D03*
X0031550Y0050200D03*
X0030350Y0045400D03*
X0030350Y0042800D03*
X0030350Y0042700D03*
X0030450Y0042500D03*
X0030450Y0042400D03*
X0027350Y0045800D03*
X0026650Y0046200D03*
X0019350Y0038700D03*
X0019450Y0029800D03*
X0020550Y0026800D03*
X0020550Y0026700D03*
X0020550Y0026600D03*
X0020550Y0026500D03*
X0019850Y0025200D03*
X0019750Y0025100D03*
X0019750Y0025000D03*
X0019650Y0024900D03*
X0023650Y0021500D03*
X0026650Y0022400D03*
X0026750Y0022300D03*
X0018950Y0015900D03*
X0012650Y0018800D03*
X0014350Y0009600D03*
X0027950Y0008800D03*
X0031050Y0009500D03*
X0041650Y0020100D03*
X0041850Y0023900D03*
X0043350Y0026600D03*
X0043350Y0026700D03*
X0043350Y0026800D03*
X0043450Y0027000D03*
X0044850Y0025000D03*
X0044850Y0024900D03*
X0045450Y0028500D03*
X0045450Y0028600D03*
X0045450Y0028700D03*
X0047350Y0017600D03*
X0048250Y0010900D03*
X0049350Y0009200D03*
X0052550Y0009000D03*
X0030150Y0033100D03*
X0029750Y0055400D03*
D29*
X0009050Y0010000D03*
X0009650Y0012800D03*
X0018950Y0015800D03*
X0023650Y0021700D03*
X0023650Y0021800D03*
X0023650Y0021900D03*
X0021850Y0023600D03*
X0023150Y0025500D03*
X0023150Y0025600D03*
X0023050Y0025700D03*
X0020150Y0025600D03*
X0020050Y0025500D03*
X0018350Y0027100D03*
X0019450Y0030100D03*
X0026450Y0022800D03*
X0026550Y0022700D03*
X0030250Y0033300D03*
X0033850Y0033700D03*
X0038350Y0030900D03*
X0040350Y0030400D03*
X0040450Y0030500D03*
X0040050Y0026600D03*
X0041850Y0024000D03*
X0042650Y0024400D03*
X0044950Y0024400D03*
X0044950Y0024500D03*
X0044950Y0024300D03*
X0044950Y0024200D03*
X0044950Y0024100D03*
X0044950Y0024000D03*
X0044950Y0023900D03*
X0044950Y0023500D03*
X0044950Y0023400D03*
X0044950Y0023300D03*
X0044950Y0023200D03*
X0044950Y0023100D03*
X0044950Y0023000D03*
X0044950Y0022500D03*
X0046250Y0022600D03*
X0046250Y0021700D03*
X0047450Y0017500D03*
X0048750Y0015100D03*
X0050450Y0012900D03*
X0048150Y0010700D03*
X0048150Y0010600D03*
X0048050Y0010400D03*
X0048050Y0010300D03*
X0047950Y0009700D03*
X0047950Y0009600D03*
X0047950Y0009500D03*
X0047950Y0009400D03*
X0049150Y0009400D03*
X0049150Y0009500D03*
X0049250Y0009300D03*
X0031150Y0009700D03*
X0031150Y0009800D03*
X0026450Y0008900D03*
X0045450Y0028800D03*
X0045450Y0028900D03*
X0032050Y0039700D03*
X0032050Y0039800D03*
X0031950Y0040000D03*
X0031950Y0040100D03*
X0031950Y0040200D03*
X0031950Y0040300D03*
X0031950Y0040400D03*
X0031950Y0040500D03*
X0031950Y0040600D03*
X0031950Y0040700D03*
X0031950Y0040800D03*
X0031950Y0040900D03*
X0031950Y0041000D03*
X0031950Y0041100D03*
X0031950Y0041200D03*
X0031850Y0041600D03*
X0031850Y0041700D03*
X0031850Y0041800D03*
X0031850Y0041900D03*
X0031850Y0042000D03*
X0031850Y0042100D03*
X0030450Y0043100D03*
X0030450Y0043200D03*
X0031250Y0044300D03*
X0027250Y0042700D03*
X0025750Y0043800D03*
X0025650Y0044200D03*
X0025650Y0044300D03*
X0025550Y0044600D03*
X0025550Y0044700D03*
X0025550Y0044800D03*
X0025450Y0045000D03*
X0025450Y0045100D03*
X0026550Y0046300D03*
X0025450Y0047300D03*
X0025450Y0047400D03*
X0025550Y0047600D03*
X0025550Y0047700D03*
X0029050Y0049600D03*
X0029850Y0049900D03*
X0031650Y0050100D03*
X0032350Y0048800D03*
X0032350Y0048700D03*
X0032350Y0048600D03*
X0032350Y0048500D03*
X0029350Y0047800D03*
X0021450Y0044600D03*
D30*
X0023950Y0048200D03*
X0024050Y0048300D03*
X0030550Y0045600D03*
X0029950Y0038100D03*
X0025950Y0038000D03*
X0025850Y0037900D03*
X0025850Y0037800D03*
X0025750Y0037700D03*
X0025750Y0037600D03*
X0025750Y0037500D03*
X0025250Y0036700D03*
X0029850Y0032300D03*
X0022150Y0023800D03*
X0023950Y0020600D03*
X0020650Y0019700D03*
X0018150Y0022800D03*
X0018250Y0022900D03*
X0018250Y0023000D03*
X0018350Y0023100D03*
X0015750Y0018900D03*
X0015750Y0018800D03*
X0015650Y0018700D03*
X0011350Y0020200D03*
X0010850Y0013200D03*
X0010450Y0012100D03*
X0025350Y0015800D03*
X0027450Y0015600D03*
X0027150Y0021000D03*
X0019450Y0029000D03*
X0020950Y0031500D03*
X0020850Y0031700D03*
X0043250Y0029500D03*
X0043250Y0027500D03*
X0045350Y0027300D03*
X0042050Y0023400D03*
X0042150Y0019700D03*
X0046650Y0018400D03*
X0048650Y0014600D03*
X0046350Y0010000D03*
X0046350Y0009900D03*
X0046350Y0009800D03*
X0046350Y0009700D03*
X0046350Y0009600D03*
X0030650Y0009000D03*
X0028150Y0009000D03*
X0042750Y0052600D03*
X0029550Y0055200D03*
D31*
X0031100Y0053600D03*
X0031500Y0053400D03*
X0031800Y0053200D03*
X0032000Y0051400D03*
X0031800Y0049900D03*
X0032300Y0049500D03*
X0032100Y0047900D03*
X0031300Y0044600D03*
X0031500Y0043900D03*
X0031500Y0043800D03*
X0031600Y0043700D03*
X0031600Y0043600D03*
X0031600Y0043500D03*
X0030600Y0043600D03*
X0030600Y0043700D03*
X0026900Y0042800D03*
X0025700Y0043200D03*
X0025700Y0043300D03*
X0025300Y0045700D03*
X0025300Y0045800D03*
X0025300Y0045900D03*
X0025200Y0046600D03*
X0025200Y0046700D03*
X0019100Y0038400D03*
X0018000Y0034700D03*
X0018000Y0034600D03*
X0019500Y0030500D03*
X0019500Y0030400D03*
X0018200Y0026800D03*
X0018200Y0026700D03*
X0021900Y0023300D03*
X0023600Y0022500D03*
X0026100Y0023400D03*
X0026200Y0023300D03*
X0020800Y0020400D03*
X0015000Y0018100D03*
X0014000Y0018500D03*
X0013800Y0018900D03*
X0014100Y0015900D03*
X0013000Y0015200D03*
X0009500Y0012900D03*
X0008400Y0013900D03*
X0008100Y0014700D03*
X0025000Y0015100D03*
X0031300Y0011000D03*
X0031300Y0010900D03*
X0031300Y0010800D03*
X0031300Y0010700D03*
X0031300Y0010600D03*
X0031300Y0010500D03*
X0026400Y0009100D03*
X0041200Y0024400D03*
X0042700Y0024300D03*
X0045100Y0022300D03*
X0046100Y0022300D03*
X0046200Y0026500D03*
X0046200Y0026600D03*
X0046200Y0026700D03*
X0045500Y0029200D03*
X0045500Y0029300D03*
X0041600Y0028200D03*
X0040600Y0028900D03*
X0040100Y0030000D03*
X0041000Y0031200D03*
X0030400Y0033600D03*
X0034900Y0052200D03*
X0048800Y0015300D03*
X0049100Y0010200D03*
X0045000Y0010200D03*
D32*
X0046450Y0009500D03*
X0048650Y0014700D03*
X0046850Y0018200D03*
X0046750Y0018300D03*
X0042050Y0019800D03*
X0043250Y0027400D03*
X0043550Y0028300D03*
X0043650Y0028400D03*
X0045450Y0027700D03*
X0042050Y0030500D03*
X0041150Y0030900D03*
X0029950Y0032500D03*
X0025350Y0036900D03*
X0025350Y0037000D03*
X0019250Y0037000D03*
X0024150Y0048500D03*
X0024150Y0048600D03*
X0024250Y0048700D03*
X0026850Y0050800D03*
X0025950Y0052100D03*
X0029650Y0053900D03*
X0029650Y0055300D03*
X0035250Y0052500D03*
X0029150Y0049000D03*
X0029150Y0048900D03*
X0029150Y0048800D03*
X0029150Y0048700D03*
X0042750Y0052500D03*
X0043250Y0053300D03*
X0025450Y0024700D03*
X0027150Y0021200D03*
X0020650Y0019900D03*
X0018550Y0023400D03*
X0018650Y0023500D03*
X0018750Y0023600D03*
X0016850Y0015100D03*
X0012950Y0014200D03*
X0012950Y0014100D03*
X0010950Y0013000D03*
X0008150Y0012200D03*
X0030750Y0009100D03*
D33*
X0028300Y0009200D03*
X0018800Y0016500D03*
X0016900Y0014700D03*
X0016800Y0013300D03*
X0013400Y0013800D03*
X0013400Y0013900D03*
X0014300Y0010600D03*
X0020300Y0018700D03*
X0020300Y0018800D03*
X0017100Y0021500D03*
X0017200Y0021700D03*
X0017300Y0021900D03*
X0017400Y0022000D03*
X0017000Y0021300D03*
X0022400Y0024400D03*
X0022400Y0024500D03*
X0024900Y0026100D03*
X0022500Y0028100D03*
X0019500Y0028200D03*
X0019500Y0028300D03*
X0019500Y0028400D03*
X0027400Y0032700D03*
X0029900Y0031900D03*
X0038000Y0031500D03*
X0043100Y0029200D03*
X0042300Y0025900D03*
X0042300Y0025800D03*
X0042300Y0025700D03*
X0042200Y0025500D03*
X0042200Y0023000D03*
X0042700Y0019200D03*
X0046100Y0010700D03*
X0046000Y0010500D03*
X0046000Y0010400D03*
X0046000Y0010300D03*
X0023500Y0044600D03*
X0023400Y0047200D03*
X0026600Y0052400D03*
X0035600Y0052800D03*
X0042600Y0053000D03*
D34*
X0035850Y0053000D03*
X0022950Y0046000D03*
X0023150Y0044800D03*
X0029050Y0037400D03*
X0027650Y0033300D03*
X0027650Y0033200D03*
X0022550Y0028900D03*
X0022550Y0028800D03*
X0022950Y0027200D03*
X0023050Y0027100D03*
X0021750Y0030600D03*
X0011350Y0019500D03*
X0011250Y0019300D03*
X0010350Y0014600D03*
X0008950Y0010700D03*
X0014350Y0011300D03*
X0014350Y0011400D03*
X0027350Y0014800D03*
X0043350Y0018600D03*
X0043450Y0018500D03*
X0045450Y0019600D03*
X0045950Y0014900D03*
X0046650Y0012600D03*
X0051850Y0009200D03*
X0052050Y0009300D03*
X0042850Y0028700D03*
X0042250Y0029900D03*
X0037950Y0031700D03*
D35*
X0037950Y0031600D03*
X0036550Y0032900D03*
X0042250Y0030000D03*
X0042950Y0029000D03*
X0036250Y0026100D03*
X0027450Y0032900D03*
X0026450Y0038100D03*
X0022250Y0036700D03*
X0020250Y0038900D03*
X0019350Y0036300D03*
X0021550Y0030800D03*
X0022550Y0028400D03*
X0022650Y0027800D03*
X0022750Y0027700D03*
X0019250Y0017200D03*
X0019150Y0017100D03*
X0019050Y0017000D03*
X0018950Y0016900D03*
X0016850Y0014400D03*
X0016750Y0013700D03*
X0013650Y0013200D03*
X0013550Y0013400D03*
X0014350Y0011000D03*
X0014350Y0010900D03*
X0008650Y0011800D03*
X0011450Y0019900D03*
X0027150Y0015300D03*
X0028350Y0009300D03*
X0045750Y0019300D03*
X0046450Y0012400D03*
X0046450Y0012300D03*
X0046350Y0012100D03*
X0046350Y0012000D03*
X0023150Y0046600D03*
X0023150Y0046700D03*
X0035750Y0052900D03*
X0040250Y0056600D03*
X0040450Y0056500D03*
X0040650Y0056400D03*
D36*
X0038900Y0053700D03*
X0032100Y0051200D03*
X0032000Y0049700D03*
X0030100Y0049800D03*
X0026000Y0050100D03*
X0026000Y0050200D03*
X0025900Y0049800D03*
X0025900Y0049700D03*
X0025900Y0049600D03*
X0025900Y0049500D03*
X0025900Y0049400D03*
X0025900Y0049300D03*
X0025900Y0049200D03*
X0025900Y0049100D03*
X0025000Y0049400D03*
X0025400Y0048100D03*
X0025400Y0048000D03*
X0027700Y0045600D03*
X0028500Y0045800D03*
X0030700Y0043900D03*
X0029200Y0042300D03*
X0026100Y0042000D03*
X0026000Y0042200D03*
X0025900Y0042400D03*
X0025800Y0042600D03*
X0025700Y0042800D03*
X0025700Y0042900D03*
X0025700Y0043000D03*
X0025700Y0043100D03*
X0031100Y0038800D03*
X0031800Y0039500D03*
X0031100Y0035500D03*
X0030600Y0033900D03*
X0030500Y0033800D03*
X0040000Y0029800D03*
X0040600Y0028800D03*
X0039900Y0026700D03*
X0040100Y0025600D03*
X0040200Y0025500D03*
X0041900Y0024200D03*
X0042700Y0024200D03*
X0043800Y0027100D03*
X0045500Y0029400D03*
X0046000Y0022200D03*
X0046500Y0022000D03*
X0047500Y0017300D03*
X0048000Y0017000D03*
X0048800Y0015400D03*
X0045000Y0010100D03*
X0045000Y0010000D03*
X0031200Y0011200D03*
X0031200Y0011300D03*
X0031200Y0011400D03*
X0031200Y0011500D03*
X0031200Y0011600D03*
X0029000Y0015800D03*
X0028900Y0016000D03*
X0028900Y0016100D03*
X0025100Y0014800D03*
X0025100Y0014700D03*
X0026300Y0009400D03*
X0014900Y0018000D03*
X0014000Y0018200D03*
X0014000Y0018300D03*
X0014000Y0016300D03*
X0014000Y0016200D03*
X0014000Y0015700D03*
X0009100Y0014100D03*
X0009100Y0014000D03*
X0009100Y0013900D03*
X0009200Y0013800D03*
X0009200Y0013700D03*
X0009200Y0013600D03*
X0009200Y0013500D03*
X0009300Y0013400D03*
X0009300Y0013300D03*
X0009400Y0013100D03*
X0009400Y0013000D03*
X0008300Y0014300D03*
X0008300Y0014400D03*
X0008300Y0014500D03*
X0011300Y0020400D03*
X0018100Y0026500D03*
X0019600Y0030800D03*
X0019600Y0030900D03*
X0018600Y0034100D03*
X0018600Y0034200D03*
X0018000Y0034500D03*
X0019100Y0038200D03*
X0025900Y0023800D03*
X0023500Y0023200D03*
X0023500Y0023100D03*
X0023500Y0023000D03*
X0021900Y0023000D03*
X0021900Y0023100D03*
X0021900Y0022900D03*
X0020500Y0021800D03*
X0028200Y0054400D03*
X0028200Y0054500D03*
X0028200Y0054600D03*
X0028200Y0054700D03*
X0028300Y0054800D03*
X0028400Y0054900D03*
D37*
X0028550Y0051900D03*
X0033750Y0057000D03*
X0023050Y0046400D03*
X0023050Y0046300D03*
X0029450Y0041400D03*
X0029150Y0037600D03*
X0027550Y0033000D03*
X0022550Y0028600D03*
X0022550Y0028500D03*
X0022850Y0027400D03*
X0019350Y0036200D03*
X0011450Y0019800D03*
X0011050Y0019100D03*
X0010350Y0014300D03*
X0013750Y0013000D03*
X0014350Y0011200D03*
X0014350Y0011100D03*
X0008950Y0010500D03*
X0018750Y0016800D03*
X0027250Y0015100D03*
X0027250Y0015000D03*
X0028350Y0009400D03*
X0043150Y0018800D03*
X0043250Y0018700D03*
X0045550Y0019500D03*
X0042450Y0022600D03*
X0042950Y0028900D03*
X0050050Y0012400D03*
D38*
X0048850Y0015500D03*
X0048050Y0017100D03*
X0046550Y0022100D03*
X0045250Y0022100D03*
X0044050Y0023000D03*
X0043850Y0023100D03*
X0043750Y0023200D03*
X0043650Y0023300D03*
X0043350Y0023500D03*
X0043150Y0023700D03*
X0042750Y0024100D03*
X0041150Y0024200D03*
X0040350Y0025400D03*
X0037150Y0025700D03*
X0040550Y0028700D03*
X0039950Y0029700D03*
X0038550Y0030600D03*
X0035050Y0031500D03*
X0034950Y0034100D03*
X0033350Y0034700D03*
X0031550Y0036000D03*
X0031050Y0035400D03*
X0030650Y0034000D03*
X0032150Y0038900D03*
X0031350Y0044800D03*
X0031350Y0044900D03*
X0031850Y0047600D03*
X0031950Y0047800D03*
X0032150Y0051100D03*
X0025950Y0049000D03*
X0025950Y0048900D03*
X0025450Y0048600D03*
X0025450Y0048500D03*
X0025450Y0048400D03*
X0025450Y0048300D03*
X0025450Y0048200D03*
X0026650Y0042900D03*
X0025850Y0042500D03*
X0025750Y0042700D03*
X0025950Y0042300D03*
X0026050Y0042100D03*
X0019050Y0038100D03*
X0018650Y0034500D03*
X0018650Y0034400D03*
X0018650Y0034300D03*
X0018650Y0034000D03*
X0018050Y0026400D03*
X0017950Y0026300D03*
X0021850Y0022800D03*
X0021450Y0021800D03*
X0025850Y0023900D03*
X0025750Y0024100D03*
X0026150Y0024200D03*
X0028950Y0015900D03*
X0029050Y0015700D03*
X0029150Y0015500D03*
X0025150Y0014600D03*
X0025150Y0014500D03*
X0026250Y0009500D03*
X0031150Y0011700D03*
X0013950Y0015600D03*
X0013850Y0015500D03*
X0013150Y0015400D03*
X0013950Y0016400D03*
X0008750Y0015800D03*
X0008050Y0015000D03*
X0008250Y0014600D03*
X0040950Y0052900D03*
X0041550Y0052400D03*
X0041850Y0052200D03*
D39*
X0028600Y0051800D03*
X0022900Y0045600D03*
X0026900Y0038300D03*
X0022300Y0037000D03*
X0027900Y0033600D03*
X0022000Y0030200D03*
X0022000Y0030100D03*
X0022100Y0029900D03*
X0022100Y0029800D03*
X0022200Y0029700D03*
X0022200Y0029600D03*
X0022300Y0029500D03*
X0022300Y0029400D03*
X0023200Y0026900D03*
X0026000Y0016300D03*
X0027500Y0014400D03*
X0027500Y0014300D03*
X0028400Y0009600D03*
X0014400Y0011600D03*
X0011200Y0015700D03*
X0009000Y0011000D03*
X0009000Y0010900D03*
X0036000Y0026200D03*
X0046000Y0015000D03*
X0046800Y0012700D03*
X0052400Y0009600D03*
D40*
X0049300Y0010500D03*
X0049100Y0009600D03*
X0048000Y0009800D03*
X0048000Y0009900D03*
X0048000Y0010000D03*
X0048000Y0010100D03*
X0048000Y0010200D03*
X0048100Y0010500D03*
X0041400Y0020200D03*
X0046200Y0022500D03*
X0046200Y0022700D03*
X0046200Y0022800D03*
X0046200Y0022900D03*
X0046200Y0023000D03*
X0046200Y0023100D03*
X0046200Y0023200D03*
X0046200Y0023300D03*
X0046200Y0023400D03*
X0046200Y0023500D03*
X0046200Y0023600D03*
X0046200Y0023700D03*
X0046200Y0023800D03*
X0046200Y0023900D03*
X0046200Y0024000D03*
X0046200Y0024100D03*
X0046200Y0024200D03*
X0046200Y0024300D03*
X0046200Y0024400D03*
X0046200Y0024500D03*
X0046200Y0024600D03*
X0046200Y0024700D03*
X0046200Y0024800D03*
X0046200Y0024900D03*
X0046200Y0025000D03*
X0046200Y0025100D03*
X0046200Y0025200D03*
X0046200Y0025300D03*
X0046200Y0025400D03*
X0046200Y0025500D03*
X0046200Y0025600D03*
X0045000Y0023800D03*
X0045000Y0023700D03*
X0045000Y0023600D03*
X0045500Y0029000D03*
X0045500Y0029100D03*
X0040600Y0029000D03*
X0040200Y0030200D03*
X0040300Y0030300D03*
X0036800Y0025800D03*
X0030300Y0033400D03*
X0031200Y0035900D03*
X0030400Y0038400D03*
X0032000Y0039600D03*
X0032000Y0039900D03*
X0031900Y0041300D03*
X0031900Y0041400D03*
X0031900Y0041500D03*
X0031800Y0042200D03*
X0031800Y0042300D03*
X0031800Y0042400D03*
X0031800Y0042500D03*
X0031800Y0042600D03*
X0031700Y0043100D03*
X0030500Y0043300D03*
X0030500Y0043400D03*
X0029100Y0042400D03*
X0025700Y0043500D03*
X0025700Y0043600D03*
X0025700Y0043700D03*
X0025500Y0044900D03*
X0025400Y0045200D03*
X0025400Y0045300D03*
X0025400Y0047200D03*
X0025600Y0047800D03*
X0025600Y0047900D03*
X0027500Y0045700D03*
X0031200Y0045900D03*
X0032200Y0048100D03*
X0032300Y0048200D03*
X0032300Y0048300D03*
X0032300Y0048400D03*
X0032400Y0048900D03*
X0032400Y0049000D03*
X0032400Y0049100D03*
X0031900Y0051600D03*
X0038400Y0057100D03*
X0019200Y0038600D03*
X0019200Y0037400D03*
X0018000Y0035000D03*
X0018000Y0034900D03*
X0019400Y0030200D03*
X0018300Y0027000D03*
X0020300Y0025900D03*
X0020300Y0025800D03*
X0020200Y0025700D03*
X0020500Y0026200D03*
X0023000Y0025800D03*
X0021900Y0023500D03*
X0023600Y0022200D03*
X0023600Y0022100D03*
X0023600Y0022000D03*
X0026300Y0023100D03*
X0026400Y0022900D03*
X0025900Y0024300D03*
X0027800Y0015900D03*
X0031200Y0010000D03*
X0031200Y0009900D03*
X0016900Y0015300D03*
X0014200Y0016100D03*
X0015100Y0018200D03*
X0013900Y0018800D03*
X0010900Y0011900D03*
D41*
X0010600Y0012000D03*
X0011100Y0012900D03*
X0013000Y0014700D03*
X0013000Y0014800D03*
X0015400Y0018500D03*
X0018900Y0016000D03*
X0023800Y0021000D03*
X0027000Y0021700D03*
X0027000Y0021800D03*
X0027100Y0021600D03*
X0027100Y0025800D03*
X0030000Y0032800D03*
X0030300Y0042000D03*
X0030300Y0042600D03*
X0027100Y0046000D03*
X0029100Y0047900D03*
X0029100Y0048000D03*
X0029100Y0048100D03*
X0024400Y0049000D03*
X0025600Y0051800D03*
X0025700Y0051900D03*
X0029500Y0054600D03*
X0031600Y0051900D03*
X0041200Y0053500D03*
X0043400Y0053400D03*
X0041100Y0031000D03*
X0040900Y0029400D03*
X0040800Y0029300D03*
X0041800Y0028400D03*
X0043300Y0029700D03*
X0045400Y0028200D03*
X0045400Y0028100D03*
X0045000Y0027000D03*
X0044900Y0026700D03*
X0044800Y0026400D03*
X0044800Y0026300D03*
X0044800Y0026200D03*
X0044700Y0022900D03*
X0041800Y0020000D03*
X0047000Y0018000D03*
X0047100Y0017900D03*
X0048700Y0014900D03*
X0048600Y0011400D03*
X0021700Y0025500D03*
X0021700Y0025600D03*
X0021700Y0025700D03*
X0021700Y0025800D03*
X0020400Y0027300D03*
X0020400Y0027400D03*
X0020300Y0027500D03*
X0019500Y0029500D03*
X0019300Y0024400D03*
X0019200Y0024300D03*
X0019100Y0024100D03*
X0019200Y0037200D03*
X0008100Y0013000D03*
X0014300Y0009700D03*
D42*
X0011050Y0011800D03*
X0007650Y0013600D03*
X0007650Y0014000D03*
X0007650Y0014100D03*
X0007750Y0014500D03*
X0007750Y0014600D03*
X0008050Y0015100D03*
X0013250Y0015500D03*
X0013950Y0016500D03*
X0014650Y0016200D03*
X0014750Y0016300D03*
X0014850Y0016400D03*
X0015050Y0016500D03*
X0015150Y0016600D03*
X0015250Y0016700D03*
X0015450Y0016800D03*
X0015550Y0016900D03*
X0015750Y0017000D03*
X0016250Y0017300D03*
X0016450Y0017400D03*
X0016750Y0017600D03*
X0016850Y0017700D03*
X0016950Y0017800D03*
X0017050Y0017900D03*
X0017350Y0018300D03*
X0017550Y0018600D03*
X0017750Y0018900D03*
X0017950Y0019200D03*
X0018050Y0019300D03*
X0018150Y0019500D03*
X0018350Y0019800D03*
X0018450Y0019900D03*
X0018550Y0020100D03*
X0018650Y0020200D03*
X0018850Y0020500D03*
X0018950Y0020600D03*
X0019050Y0020700D03*
X0019250Y0021000D03*
X0019350Y0021100D03*
X0019450Y0021200D03*
X0019550Y0021300D03*
X0019750Y0021400D03*
X0019850Y0021500D03*
X0021750Y0021700D03*
X0022050Y0021500D03*
X0022150Y0021300D03*
X0022250Y0021200D03*
X0022350Y0021000D03*
X0022350Y0020900D03*
X0022350Y0020800D03*
X0022350Y0020700D03*
X0022450Y0020600D03*
X0022450Y0020500D03*
X0022450Y0020400D03*
X0022450Y0020300D03*
X0022450Y0020200D03*
X0021850Y0022600D03*
X0023450Y0023600D03*
X0026250Y0024000D03*
X0017550Y0025500D03*
X0017550Y0025600D03*
X0017450Y0025400D03*
X0017350Y0025200D03*
X0017250Y0025100D03*
X0017250Y0025000D03*
X0019650Y0031100D03*
X0019650Y0031200D03*
X0018050Y0034400D03*
X0018950Y0037800D03*
X0026550Y0043000D03*
X0026950Y0042600D03*
X0029250Y0042200D03*
X0029550Y0042500D03*
X0031350Y0045000D03*
X0031350Y0045100D03*
X0031450Y0045300D03*
X0031450Y0045500D03*
X0031550Y0046200D03*
X0031650Y0046400D03*
X0031650Y0046500D03*
X0031650Y0046600D03*
X0031650Y0046700D03*
X0031750Y0047000D03*
X0031750Y0047100D03*
X0031750Y0047200D03*
X0030150Y0049700D03*
X0032250Y0050700D03*
X0032250Y0050800D03*
X0032250Y0050900D03*
X0032550Y0052200D03*
X0038850Y0053600D03*
X0025950Y0048700D03*
X0025950Y0048600D03*
X0025950Y0048500D03*
X0025950Y0048400D03*
X0025950Y0048300D03*
X0025950Y0048200D03*
X0025450Y0048800D03*
X0025450Y0048900D03*
X0025450Y0049000D03*
X0026250Y0046600D03*
X0030550Y0038500D03*
X0031150Y0038700D03*
X0032250Y0038700D03*
X0032250Y0038600D03*
X0032250Y0038500D03*
X0032250Y0038400D03*
X0032250Y0038300D03*
X0032250Y0038200D03*
X0032250Y0038100D03*
X0032250Y0038000D03*
X0032250Y0037900D03*
X0032150Y0037500D03*
X0032150Y0037400D03*
X0032050Y0037100D03*
X0032050Y0037000D03*
X0031950Y0036800D03*
X0031950Y0036700D03*
X0031850Y0036600D03*
X0031850Y0036500D03*
X0031750Y0036400D03*
X0031750Y0036300D03*
X0030850Y0036100D03*
X0030850Y0036000D03*
X0031250Y0034900D03*
X0031150Y0034700D03*
X0031050Y0034500D03*
X0030950Y0034400D03*
X0033050Y0034800D03*
X0033950Y0033300D03*
X0033850Y0033000D03*
X0033850Y0032900D03*
X0033850Y0032800D03*
X0033950Y0032700D03*
X0033950Y0032600D03*
X0033950Y0032500D03*
X0034050Y0032400D03*
X0034050Y0032300D03*
X0034150Y0032200D03*
X0034250Y0032100D03*
X0034350Y0032000D03*
X0036550Y0030700D03*
X0036750Y0030600D03*
X0037050Y0030400D03*
X0037150Y0030300D03*
X0037650Y0029800D03*
X0037750Y0029700D03*
X0037850Y0029600D03*
X0037950Y0029500D03*
X0038050Y0029400D03*
X0038050Y0029300D03*
X0038150Y0029200D03*
X0038250Y0029100D03*
X0038350Y0028900D03*
X0038550Y0028600D03*
X0038750Y0028300D03*
X0038950Y0028000D03*
X0039050Y0027900D03*
X0039150Y0027700D03*
X0039250Y0027600D03*
X0039450Y0027300D03*
X0039750Y0026900D03*
X0041250Y0027500D03*
X0041350Y0027300D03*
X0041350Y0027200D03*
X0040750Y0028200D03*
X0040550Y0028500D03*
X0040550Y0028600D03*
X0039950Y0029600D03*
X0038650Y0030400D03*
X0038650Y0030500D03*
X0045350Y0022000D03*
X0045850Y0022000D03*
X0046650Y0022200D03*
X0048050Y0017200D03*
X0044850Y0011300D03*
X0031150Y0011800D03*
X0029550Y0014700D03*
X0029450Y0014800D03*
X0029450Y0014900D03*
X0029350Y0015000D03*
X0029350Y0015100D03*
X0029250Y0015300D03*
X0028050Y0016100D03*
X0025250Y0014100D03*
X0025250Y0014000D03*
X0026150Y0009700D03*
X0014450Y0014100D03*
D43*
X0014500Y0011800D03*
X0010400Y0015200D03*
X0009100Y0011500D03*
X0009100Y0011400D03*
X0027600Y0014000D03*
X0028400Y0009700D03*
X0042800Y0022100D03*
X0045000Y0020000D03*
X0044100Y0017900D03*
X0044200Y0017800D03*
X0050100Y0012100D03*
X0052500Y0009900D03*
X0052500Y0009800D03*
X0037100Y0032400D03*
X0028300Y0034200D03*
X0028200Y0034100D03*
X0028100Y0033900D03*
X0022300Y0037100D03*
X0029100Y0041500D03*
X0022800Y0045000D03*
X0022800Y0045100D03*
X0022800Y0045200D03*
X0030100Y0050400D03*
X0030100Y0050500D03*
X0030100Y0050600D03*
D44*
X0028300Y0049900D03*
X0028300Y0049800D03*
X0028300Y0049500D03*
X0024500Y0049400D03*
X0024000Y0049400D03*
X0026400Y0043100D03*
X0027400Y0038000D03*
X0030800Y0036400D03*
X0030800Y0036300D03*
X0030800Y0036200D03*
X0031400Y0035200D03*
X0031400Y0035100D03*
X0031300Y0035000D03*
X0031200Y0034800D03*
X0031100Y0034600D03*
X0032000Y0036900D03*
X0032100Y0037200D03*
X0032100Y0037300D03*
X0032200Y0037600D03*
X0032200Y0037700D03*
X0032200Y0037800D03*
X0033900Y0033200D03*
X0033900Y0033100D03*
X0038700Y0030300D03*
X0038300Y0029000D03*
X0038400Y0028800D03*
X0038500Y0028700D03*
X0038600Y0028500D03*
X0038700Y0028400D03*
X0038800Y0028200D03*
X0038900Y0028100D03*
X0039100Y0027800D03*
X0039300Y0027500D03*
X0039400Y0027400D03*
X0039500Y0027200D03*
X0039600Y0027100D03*
X0039700Y0027000D03*
X0041000Y0027800D03*
X0041000Y0027900D03*
X0040900Y0028000D03*
X0040800Y0028100D03*
X0040700Y0028300D03*
X0040600Y0028400D03*
X0041100Y0027700D03*
X0041200Y0027600D03*
X0041300Y0027400D03*
X0040600Y0025700D03*
X0041100Y0024000D03*
X0045800Y0021900D03*
X0046700Y0022300D03*
X0045000Y0009700D03*
X0031100Y0011900D03*
X0029800Y0014200D03*
X0029700Y0014300D03*
X0029700Y0014400D03*
X0029600Y0014500D03*
X0029600Y0014600D03*
X0025300Y0013900D03*
X0025300Y0013800D03*
X0026100Y0009800D03*
X0017300Y0018200D03*
X0017200Y0018100D03*
X0017100Y0018000D03*
X0017400Y0018400D03*
X0017500Y0018500D03*
X0017600Y0018700D03*
X0017700Y0018800D03*
X0017800Y0019000D03*
X0017900Y0019100D03*
X0018100Y0019400D03*
X0018200Y0019600D03*
X0018300Y0019700D03*
X0018500Y0020000D03*
X0018700Y0020300D03*
X0018800Y0020400D03*
X0019100Y0020800D03*
X0019200Y0020900D03*
X0020800Y0021900D03*
X0021900Y0022500D03*
X0022100Y0021400D03*
X0022300Y0021100D03*
X0022400Y0019500D03*
X0022400Y0019400D03*
X0024100Y0024800D03*
X0026400Y0023900D03*
X0017400Y0025300D03*
X0017200Y0024900D03*
X0017100Y0024800D03*
X0017100Y0024700D03*
X0017000Y0024600D03*
X0013600Y0019000D03*
X0008700Y0016000D03*
X0007700Y0014400D03*
X0007700Y0014300D03*
X0007700Y0014200D03*
X0007600Y0013900D03*
X0007600Y0013800D03*
X0007600Y0013700D03*
X0019200Y0037500D03*
X0019400Y0037500D03*
X0031400Y0045200D03*
X0031500Y0045400D03*
X0032300Y0050600D03*
X0034800Y0052100D03*
D45*
X0030050Y0050700D03*
X0022850Y0045500D03*
X0022850Y0045400D03*
X0022850Y0045300D03*
X0020550Y0039100D03*
X0028150Y0034000D03*
X0028050Y0033800D03*
X0027950Y0033700D03*
X0022050Y0030000D03*
X0036950Y0032500D03*
X0037950Y0031800D03*
X0042750Y0022200D03*
X0045150Y0019900D03*
X0043850Y0018100D03*
X0043950Y0018000D03*
X0046050Y0015100D03*
X0050050Y0012200D03*
X0052450Y0009700D03*
X0027550Y0014100D03*
X0027550Y0014200D03*
X0014450Y0011700D03*
X0010350Y0015000D03*
X0010350Y0015100D03*
X0009050Y0011600D03*
X0009050Y0011300D03*
X0009050Y0011200D03*
X0009050Y0011100D03*
D46*
X0008100Y0012300D03*
X0008100Y0012400D03*
X0008100Y0012500D03*
X0008100Y0012600D03*
X0012900Y0014300D03*
X0015500Y0018600D03*
X0018900Y0016100D03*
X0020700Y0020000D03*
X0023800Y0020800D03*
X0027200Y0021300D03*
X0027200Y0026000D03*
X0030000Y0032600D03*
X0025400Y0037100D03*
X0025400Y0037200D03*
X0030100Y0038200D03*
X0030200Y0041700D03*
X0027400Y0045900D03*
X0029100Y0048500D03*
X0029100Y0048600D03*
X0029100Y0049300D03*
X0029100Y0049400D03*
X0031500Y0052000D03*
X0025800Y0052000D03*
X0024300Y0048800D03*
X0019200Y0037100D03*
X0019500Y0029300D03*
X0018900Y0023800D03*
X0018800Y0023700D03*
X0010100Y0018800D03*
X0014300Y0009800D03*
X0027600Y0015700D03*
X0036600Y0025900D03*
X0040300Y0026300D03*
X0042000Y0023600D03*
X0044700Y0025600D03*
X0044700Y0025700D03*
X0044700Y0025800D03*
X0045400Y0027800D03*
X0045400Y0027900D03*
X0043300Y0029600D03*
X0041200Y0029600D03*
X0041900Y0019900D03*
X0046900Y0018100D03*
X0048700Y0014800D03*
X0048800Y0011600D03*
X0043200Y0053100D03*
X0043200Y0053200D03*
X0038800Y0057000D03*
D47*
X0042000Y0055900D03*
X0029200Y0049200D03*
X0029200Y0049100D03*
X0028400Y0052100D03*
X0026100Y0052200D03*
X0024100Y0048400D03*
X0025300Y0036800D03*
X0029900Y0032400D03*
X0036200Y0033300D03*
X0038200Y0031200D03*
X0041400Y0029700D03*
X0043500Y0028200D03*
X0045400Y0027600D03*
X0045400Y0027500D03*
X0045400Y0027400D03*
X0042000Y0023500D03*
X0050300Y0012700D03*
X0046400Y0010200D03*
X0046400Y0010100D03*
X0027200Y0021100D03*
X0023900Y0020700D03*
X0020700Y0019800D03*
X0018400Y0023200D03*
X0018500Y0023300D03*
X0012400Y0018700D03*
X0010900Y0013100D03*
X0010100Y0012600D03*
X0008200Y0012100D03*
X0014300Y0009900D03*
X0018900Y0016200D03*
X0027300Y0026100D03*
X0019500Y0029100D03*
X0019500Y0029200D03*
X0019300Y0036900D03*
D48*
X0028500Y0037000D03*
X0028500Y0037100D03*
X0028500Y0037200D03*
X0028700Y0035100D03*
X0028700Y0034800D03*
X0041600Y0026200D03*
X0043000Y0021900D03*
X0044600Y0017400D03*
X0046100Y0015400D03*
X0047100Y0012900D03*
X0052200Y0010500D03*
X0028500Y0009900D03*
X0027800Y0013400D03*
X0027800Y0013500D03*
X0014600Y0012000D03*
X0036200Y0053400D03*
X0035900Y0054300D03*
X0035800Y0054400D03*
D49*
X0035400Y0052600D03*
X0031400Y0052100D03*
X0031000Y0052200D03*
X0029300Y0050100D03*
X0029300Y0050000D03*
X0029000Y0054200D03*
X0023900Y0048100D03*
X0019300Y0036800D03*
X0020900Y0031600D03*
X0019500Y0028900D03*
X0025300Y0024800D03*
X0027100Y0020900D03*
X0020600Y0019600D03*
X0017900Y0022500D03*
X0018100Y0022700D03*
X0015900Y0019100D03*
X0015800Y0019000D03*
X0016900Y0015000D03*
X0014300Y0010100D03*
X0014300Y0010000D03*
X0010800Y0013300D03*
X0010800Y0013400D03*
X0008200Y0012000D03*
X0027200Y0031900D03*
X0027200Y0032000D03*
X0027200Y0032100D03*
X0027200Y0032200D03*
X0027200Y0032300D03*
X0029800Y0032200D03*
X0038100Y0031300D03*
X0042100Y0030400D03*
X0043200Y0027600D03*
X0042800Y0026300D03*
X0045400Y0027100D03*
X0045400Y0027200D03*
X0046600Y0018500D03*
X0045800Y0014000D03*
D50*
X0044750Y0017300D03*
X0043150Y0021800D03*
X0027850Y0013300D03*
X0028450Y0010100D03*
X0028450Y0010000D03*
X0011150Y0016000D03*
X0010650Y0015500D03*
X0011250Y0018400D03*
X0011250Y0018500D03*
X0028750Y0034900D03*
X0028750Y0035000D03*
X0022250Y0037400D03*
X0020850Y0039200D03*
X0036150Y0053700D03*
X0036050Y0053900D03*
X0036050Y0054000D03*
X0035950Y0054100D03*
X0035950Y0054200D03*
D51*
X0035700Y0054600D03*
X0042100Y0053600D03*
X0028600Y0053500D03*
X0028700Y0051700D03*
X0028500Y0036700D03*
X0028500Y0036600D03*
X0028500Y0036500D03*
X0028500Y0036400D03*
X0028500Y0036300D03*
X0028500Y0036200D03*
X0028500Y0036100D03*
X0028500Y0036000D03*
X0028600Y0035400D03*
X0028600Y0035300D03*
X0028500Y0034500D03*
X0021900Y0032000D03*
X0037200Y0032300D03*
X0037400Y0032200D03*
X0037700Y0032000D03*
X0037900Y0031900D03*
X0041700Y0026100D03*
X0041700Y0026000D03*
X0042900Y0022000D03*
X0044300Y0017700D03*
X0044400Y0017600D03*
X0046100Y0015300D03*
X0050100Y0012000D03*
X0052400Y0010300D03*
X0052500Y0010200D03*
X0052600Y0010100D03*
X0052600Y0010000D03*
X0027700Y0013700D03*
X0027700Y0013800D03*
X0014500Y0011900D03*
D52*
X0016850Y0012900D03*
X0018850Y0016300D03*
X0020550Y0019500D03*
X0017950Y0022600D03*
X0016050Y0019400D03*
X0015950Y0019300D03*
X0015950Y0019200D03*
X0010450Y0018900D03*
X0010750Y0013700D03*
X0010750Y0013600D03*
X0010750Y0013500D03*
X0010350Y0012200D03*
X0008950Y0010100D03*
X0022250Y0023900D03*
X0025150Y0025000D03*
X0025150Y0025100D03*
X0021050Y0031400D03*
X0019350Y0036700D03*
X0025150Y0036600D03*
X0025750Y0037400D03*
X0029750Y0038000D03*
X0029850Y0032100D03*
X0041250Y0030800D03*
X0043150Y0029400D03*
X0043350Y0028100D03*
X0043250Y0028000D03*
X0043150Y0027700D03*
X0042050Y0023300D03*
X0042250Y0019600D03*
X0046450Y0018600D03*
X0045750Y0014100D03*
X0048650Y0014500D03*
X0049050Y0011700D03*
X0025450Y0015900D03*
X0023850Y0048000D03*
X0026250Y0052300D03*
X0029050Y0054100D03*
X0029250Y0054000D03*
X0029450Y0055100D03*
X0029250Y0050200D03*
D53*
X0028700Y0051600D03*
X0028600Y0053400D03*
X0036100Y0053800D03*
X0036200Y0053600D03*
X0036200Y0053500D03*
X0042000Y0053700D03*
X0022700Y0044300D03*
X0022700Y0044200D03*
X0022100Y0032100D03*
X0011300Y0018300D03*
X0011200Y0016100D03*
X0010700Y0015600D03*
X0014700Y0012100D03*
X0027900Y0013100D03*
X0027900Y0013200D03*
X0028400Y0010300D03*
X0028400Y0010200D03*
X0044900Y0017200D03*
X0045000Y0017100D03*
X0045100Y0017000D03*
X0044700Y0020200D03*
D54*
X0042900Y0019000D03*
X0042800Y0019100D03*
X0042300Y0022800D03*
X0041900Y0025100D03*
X0042000Y0025200D03*
X0045900Y0014600D03*
X0045900Y0014500D03*
X0046400Y0012200D03*
X0046300Y0011900D03*
X0046300Y0011800D03*
X0046300Y0011700D03*
X0046200Y0011500D03*
X0025700Y0016100D03*
X0020000Y0018200D03*
X0019900Y0018000D03*
X0019800Y0017900D03*
X0019700Y0017800D03*
X0019600Y0017600D03*
X0019500Y0017500D03*
X0019400Y0017400D03*
X0019300Y0017300D03*
X0018800Y0016600D03*
X0016800Y0014500D03*
X0016800Y0013600D03*
X0016800Y0013500D03*
X0016800Y0013400D03*
X0013600Y0013300D03*
X0013500Y0013500D03*
X0014300Y0010800D03*
X0008900Y0010300D03*
X0011500Y0020000D03*
X0019500Y0027900D03*
X0019500Y0028000D03*
X0019500Y0028100D03*
X0022500Y0028200D03*
X0022500Y0028300D03*
X0022600Y0027900D03*
X0022400Y0025200D03*
X0022400Y0025100D03*
X0022400Y0025000D03*
X0022400Y0024900D03*
X0022400Y0024800D03*
X0022400Y0024700D03*
X0022400Y0024600D03*
X0021400Y0030900D03*
X0027400Y0032800D03*
X0029400Y0037800D03*
X0023200Y0046800D03*
X0040900Y0056300D03*
D55*
X0034150Y0056900D03*
X0022650Y0044100D03*
X0022150Y0037500D03*
X0011250Y0018200D03*
X0011150Y0016200D03*
X0027950Y0013000D03*
X0028350Y0010400D03*
X0043250Y0021700D03*
X0046150Y0015500D03*
X0047250Y0013000D03*
X0051650Y0011100D03*
D56*
X0048650Y0014300D03*
X0045850Y0014400D03*
X0046250Y0011100D03*
X0046250Y0011000D03*
X0046150Y0010800D03*
X0046050Y0019000D03*
X0042550Y0019300D03*
X0041950Y0024700D03*
X0041950Y0024800D03*
X0042150Y0025400D03*
X0042250Y0025600D03*
X0042250Y0030200D03*
X0036350Y0033100D03*
X0029550Y0037900D03*
X0027250Y0041800D03*
X0023550Y0044500D03*
X0023450Y0047300D03*
X0023550Y0047500D03*
X0028450Y0052000D03*
X0042650Y0052900D03*
X0025050Y0036500D03*
X0027350Y0032600D03*
X0024950Y0026000D03*
X0022350Y0024300D03*
X0022350Y0024200D03*
X0017250Y0021800D03*
X0017150Y0021600D03*
X0017050Y0021400D03*
X0016950Y0021200D03*
X0016850Y0021100D03*
X0016850Y0021000D03*
X0016750Y0020900D03*
X0016750Y0020800D03*
X0016650Y0020600D03*
X0020350Y0018900D03*
X0025550Y0016000D03*
X0026950Y0020600D03*
X0021250Y0031100D03*
X0012050Y0018600D03*
X0013350Y0014000D03*
X0016850Y0013200D03*
X0014350Y0010500D03*
D57*
X0011200Y0016300D03*
X0028000Y0012900D03*
X0028000Y0012800D03*
X0028300Y0010700D03*
X0028300Y0010600D03*
X0028300Y0010500D03*
X0046200Y0015600D03*
X0044500Y0020300D03*
X0022100Y0037600D03*
X0022600Y0043900D03*
X0022600Y0044000D03*
D58*
X0023000Y0046100D03*
X0023000Y0046200D03*
X0020400Y0039000D03*
X0022300Y0036800D03*
X0026700Y0038200D03*
X0029100Y0037500D03*
X0027600Y0033100D03*
X0022600Y0028700D03*
X0022900Y0027300D03*
X0021700Y0030700D03*
X0011400Y0019700D03*
X0011400Y0019600D03*
X0011300Y0019400D03*
X0010300Y0014500D03*
X0010300Y0014400D03*
X0013800Y0012900D03*
X0008900Y0010600D03*
X0025800Y0016200D03*
X0027300Y0014900D03*
X0042500Y0022500D03*
X0042900Y0028800D03*
X0036600Y0032800D03*
X0046000Y0014800D03*
X0048600Y0014000D03*
D59*
X0046250Y0015900D03*
X0046150Y0016000D03*
X0046050Y0016100D03*
X0051650Y0010700D03*
X0026350Y0017100D03*
X0026250Y0017300D03*
X0026250Y0017400D03*
X0011250Y0017200D03*
X0011250Y0017100D03*
X0011250Y0017000D03*
X0022350Y0032300D03*
X0021950Y0037800D03*
X0022050Y0038100D03*
X0022150Y0038200D03*
X0022250Y0038300D03*
D60*
X0027750Y0033400D03*
X0027850Y0033500D03*
X0021950Y0030300D03*
X0021850Y0030400D03*
X0022350Y0029300D03*
X0022450Y0029200D03*
X0022450Y0029100D03*
X0021650Y0031900D03*
X0022850Y0045700D03*
X0035950Y0053100D03*
X0036850Y0032600D03*
X0042750Y0028500D03*
X0042650Y0022300D03*
X0045250Y0019800D03*
X0043650Y0018300D03*
X0043750Y0018200D03*
X0049750Y0011800D03*
X0051350Y0011300D03*
X0027450Y0014500D03*
X0010350Y0014900D03*
X0008950Y0010800D03*
D61*
X0011150Y0016400D03*
X0014750Y0012200D03*
X0028050Y0012700D03*
X0028250Y0011100D03*
X0028250Y0011000D03*
X0028250Y0010900D03*
X0028250Y0010800D03*
X0035550Y0026400D03*
X0047350Y0013100D03*
X0051650Y0011000D03*
X0028750Y0051500D03*
X0028650Y0053300D03*
D62*
X0028600Y0053200D03*
X0028800Y0051400D03*
X0022500Y0043500D03*
X0025800Y0026200D03*
X0026300Y0017200D03*
X0026400Y0017000D03*
X0026400Y0016900D03*
X0026400Y0016800D03*
X0026500Y0016600D03*
X0014900Y0012400D03*
X0011200Y0016800D03*
X0011200Y0016900D03*
X0044300Y0020400D03*
X0046200Y0015800D03*
X0047500Y0013200D03*
X0051600Y0010800D03*
D63*
X0051650Y0010900D03*
X0028150Y0011800D03*
X0028150Y0011900D03*
X0028150Y0012000D03*
X0028150Y0012100D03*
X0028150Y0012200D03*
X0028150Y0012300D03*
X0028150Y0012400D03*
X0026550Y0016400D03*
X0026550Y0016500D03*
X0026450Y0016700D03*
X0011150Y0016700D03*
X0011150Y0016600D03*
X0022050Y0037700D03*
X0022550Y0043600D03*
X0022550Y0043700D03*
D64*
X0022600Y0043800D03*
X0028600Y0041600D03*
X0023900Y0036200D03*
X0022200Y0032200D03*
X0011200Y0016500D03*
X0014800Y0012300D03*
X0028100Y0012500D03*
X0028100Y0012600D03*
X0028200Y0011700D03*
X0028200Y0011600D03*
X0028200Y0011500D03*
X0028200Y0011400D03*
X0028200Y0011300D03*
X0028200Y0011200D03*
X0046200Y0015700D03*
D65*
X0046000Y0016200D03*
X0046000Y0016300D03*
X0045900Y0016400D03*
X0045800Y0016500D03*
X0045800Y0016600D03*
X0045700Y0016700D03*
X0047600Y0013300D03*
X0035300Y0026500D03*
X0026100Y0017900D03*
X0026100Y0017800D03*
X0026200Y0017600D03*
X0026200Y0017500D03*
X0014900Y0012500D03*
X0011300Y0017300D03*
X0011300Y0017400D03*
X0011400Y0017600D03*
X0011400Y0017700D03*
X0011500Y0017900D03*
X0011500Y0018000D03*
X0011600Y0018100D03*
X0022000Y0038000D03*
X0022500Y0043300D03*
X0022500Y0043400D03*
D66*
X0022450Y0043100D03*
X0022450Y0043000D03*
X0022550Y0032500D03*
X0025750Y0019100D03*
X0025750Y0019000D03*
X0025850Y0018800D03*
X0025850Y0018700D03*
X0015050Y0012800D03*
X0047550Y0013900D03*
X0047650Y0013700D03*
X0047650Y0013400D03*
D67*
X0043850Y0021000D03*
X0043850Y0021100D03*
X0043850Y0021200D03*
X0043850Y0021300D03*
X0043850Y0021400D03*
X0043850Y0021500D03*
X0043850Y0021600D03*
X0035050Y0026600D03*
X0025650Y0019500D03*
X0022550Y0032600D03*
X0022450Y0042800D03*
X0028950Y0051000D03*
X0041050Y0054500D03*
X0041150Y0054400D03*
X0041250Y0054200D03*
D68*
X0028900Y0053000D03*
X0028800Y0052900D03*
X0028700Y0052800D03*
X0022400Y0042500D03*
X0022600Y0033000D03*
X0022600Y0032900D03*
X0029100Y0031600D03*
X0025400Y0020000D03*
X0025400Y0019900D03*
X0025400Y0019800D03*
X0025400Y0019700D03*
X0025400Y0019600D03*
D69*
X0025350Y0020100D03*
X0022650Y0032800D03*
X0022350Y0042600D03*
X0034450Y0056800D03*
X0040950Y0054600D03*
D70*
X0028900Y0050900D03*
X0022400Y0042700D03*
X0022600Y0032700D03*
X0043900Y0020900D03*
X0043900Y0020800D03*
X0043900Y0020700D03*
X0043900Y0020600D03*
D71*
X0029950Y0031100D03*
X0024950Y0026300D03*
X0022650Y0034400D03*
X0022650Y0034500D03*
D72*
X0027350Y0039200D03*
X0030450Y0030700D03*
X0025350Y0026400D03*
D73*
X0025900Y0026500D03*
X0035200Y0056000D03*
D74*
X0031700Y0029300D03*
X0026500Y0026600D03*
D75*
X0029650Y0026700D03*
X0029650Y0026800D03*
D76*
X0032100Y0026900D03*
D77*
X0032150Y0027000D03*
X0032150Y0027100D03*
D78*
X0032100Y0027200D03*
D79*
X0032150Y0027300D03*
X0032150Y0027400D03*
X0032150Y0027500D03*
D80*
X0032100Y0027600D03*
X0032100Y0027700D03*
X0032100Y0027800D03*
D81*
X0032050Y0027900D03*
D82*
X0032100Y0028000D03*
D83*
X0032050Y0028100D03*
X0032050Y0028200D03*
X0031650Y0028900D03*
D84*
X0032000Y0028400D03*
X0032000Y0028300D03*
D85*
X0031950Y0028500D03*
X0031950Y0028600D03*
X0031550Y0029100D03*
X0031550Y0029200D03*
D86*
X0031700Y0029000D03*
X0031900Y0028700D03*
D87*
X0031850Y0028800D03*
D88*
X0031650Y0029400D03*
X0038650Y0054700D03*
D89*
X0038600Y0054800D03*
X0031600Y0029500D03*
D90*
X0031550Y0029600D03*
X0038150Y0055600D03*
D91*
X0038250Y0055400D03*
X0031450Y0029700D03*
D92*
X0031400Y0029800D03*
X0038400Y0055000D03*
X0038300Y0055100D03*
D93*
X0038200Y0055200D03*
X0024600Y0038500D03*
X0031300Y0029900D03*
D94*
X0031150Y0030000D03*
X0025050Y0038600D03*
D95*
X0031050Y0030100D03*
X0035450Y0055900D03*
D96*
X0030950Y0030200D03*
D97*
X0030850Y0030300D03*
X0021950Y0035600D03*
X0021950Y0035700D03*
X0026950Y0038900D03*
X0035050Y0056100D03*
D98*
X0034850Y0056200D03*
X0025850Y0038700D03*
X0030750Y0030400D03*
D99*
X0030650Y0030500D03*
X0026350Y0038800D03*
D100*
X0030550Y0030600D03*
D101*
X0030300Y0030800D03*
D102*
X0030200Y0030900D03*
D103*
X0030100Y0031000D03*
X0022700Y0034600D03*
X0022700Y0034700D03*
X0022700Y0034800D03*
X0022700Y0034900D03*
D104*
X0022500Y0033800D03*
X0022500Y0033700D03*
X0029800Y0031200D03*
D105*
X0029650Y0031300D03*
X0022350Y0041700D03*
X0022350Y0041800D03*
X0034550Y0056700D03*
D106*
X0022350Y0042000D03*
X0022350Y0041900D03*
X0022550Y0033400D03*
X0029450Y0031400D03*
D107*
X0029300Y0031500D03*
X0022600Y0033100D03*
D108*
X0022550Y0033200D03*
X0022550Y0033300D03*
X0022350Y0042100D03*
X0022350Y0042200D03*
X0028650Y0052600D03*
D109*
X0022500Y0033600D03*
X0022500Y0033500D03*
D110*
X0022550Y0033900D03*
X0022550Y0034000D03*
X0022550Y0034100D03*
X0022350Y0041600D03*
D111*
X0022400Y0041500D03*
X0022600Y0034300D03*
X0022600Y0034200D03*
D112*
X0022650Y0035000D03*
X0022650Y0035100D03*
X0022650Y0035200D03*
X0022650Y0035300D03*
X0022650Y0035400D03*
X0022650Y0035500D03*
X0022450Y0041400D03*
X0034550Y0056600D03*
D113*
X0023100Y0041300D03*
X0022000Y0036100D03*
X0022000Y0036000D03*
X0022000Y0035900D03*
X0022000Y0035800D03*
D114*
X0024400Y0038400D03*
D115*
X0027100Y0039000D03*
X0034700Y0056300D03*
D116*
X0027300Y0039100D03*
D117*
X0024950Y0039300D03*
X0024950Y0039400D03*
X0024950Y0039500D03*
X0024950Y0039600D03*
X0024950Y0039700D03*
X0024850Y0040700D03*
D118*
X0024900Y0040800D03*
X0024900Y0040900D03*
X0024900Y0040600D03*
X0024900Y0040500D03*
X0024900Y0040400D03*
X0024900Y0040300D03*
X0024900Y0040200D03*
X0024900Y0040100D03*
X0024900Y0040000D03*
X0024900Y0039900D03*
X0024900Y0039800D03*
D119*
X0024850Y0041000D03*
X0024850Y0041100D03*
X0024850Y0041200D03*
D120*
X0022350Y0042300D03*
X0022350Y0042400D03*
X0028650Y0052700D03*
D121*
X0028600Y0052500D03*
D122*
X0038200Y0055500D03*
X0038500Y0054900D03*
D123*
X0038250Y0055300D03*
D124*
X0036900Y0055700D03*
X0034600Y0056500D03*
D125*
X0036450Y0055800D03*
D126*
X0034600Y0056400D03*
D127*
X0033027Y0018814D02*
X0113735Y0018814D01*
X0113735Y0008972D01*
X0033027Y0008972D01*
X0033027Y0018814D01*
X0033027Y0095586D02*
X0113735Y0095586D01*
X0113735Y0105428D01*
X0033027Y0105428D01*
X0033027Y0095586D01*
X0019700Y0127200D02*
X0014700Y0127200D01*
X0012200Y0129700D01*
X0012200Y0134700D01*
X0014700Y0137200D01*
X0012200Y0139700D01*
X0012200Y0144700D01*
X0014700Y0147200D01*
X0012200Y0149700D01*
X0012200Y0154700D01*
X0014700Y0157200D01*
X0012200Y0159700D01*
X0012200Y0164700D01*
X0014700Y0167200D01*
X0012200Y0169700D01*
X0012200Y0174700D01*
X0014700Y0177200D01*
X0019700Y0177200D01*
X0022200Y0174700D01*
X0022200Y0169700D01*
X0019700Y0167200D01*
X0022200Y0164700D01*
X0022200Y0159700D01*
X0019700Y0157200D01*
X0022200Y0154700D01*
X0022200Y0149700D01*
X0019700Y0147200D01*
X0022200Y0144700D01*
X0022200Y0139700D01*
X0019700Y0137200D01*
X0022200Y0134700D01*
X0022200Y0129700D01*
X0019700Y0127200D01*
X0007436Y0194483D02*
X0007436Y0229523D01*
X0007436Y0229917D02*
X0236964Y0229917D01*
X0236964Y0194483D01*
X0007436Y0194483D01*
X0024700Y0201275D02*
X0029700Y0201275D01*
X0113539Y0200389D02*
X0113539Y0194483D01*
X0113539Y0200389D02*
X0130861Y0200389D01*
X0130861Y0194483D01*
X0212700Y0179700D02*
X0212700Y0174700D01*
X0215200Y0172200D01*
X0220200Y0172200D01*
X0222700Y0169700D01*
X0222700Y0164700D01*
X0220200Y0162200D01*
X0215200Y0162200D01*
X0212700Y0164700D01*
X0212700Y0169700D01*
X0215200Y0172200D01*
X0220200Y0172200D02*
X0222700Y0174700D01*
X0222700Y0179700D01*
X0220200Y0182200D01*
X0215200Y0182200D01*
X0212700Y0179700D01*
X0215200Y0162200D02*
X0212700Y0159700D01*
X0212700Y0154700D01*
X0215200Y0152200D01*
X0220200Y0152200D01*
X0222700Y0149700D01*
X0222700Y0144700D01*
X0220200Y0142200D01*
X0215200Y0142200D01*
X0212700Y0144700D01*
X0212700Y0149700D01*
X0215200Y0152200D01*
X0220200Y0152200D02*
X0222700Y0154700D01*
X0222700Y0159700D01*
X0220200Y0162200D01*
X0220200Y0142200D02*
X0222700Y0139700D01*
X0222700Y0134700D01*
X0220200Y0132200D01*
X0215200Y0132200D01*
X0212700Y0134700D01*
X0212700Y0139700D01*
X0215200Y0142200D01*
X0215200Y0132200D02*
X0212700Y0129700D01*
X0212700Y0124700D01*
X0215200Y0122200D01*
X0220200Y0122200D01*
X0222700Y0124700D01*
X0222700Y0129700D01*
X0220200Y0132200D01*
X0208814Y0112869D02*
X0233224Y0112869D01*
X0233224Y0085310D01*
X0208814Y0085310D01*
X0208814Y0112869D01*
X0233224Y0112869D02*
X0236373Y0112869D01*
X0236373Y0085310D01*
X0233224Y0085310D01*
X0218696Y0059917D02*
X0205704Y0059917D01*
X0205704Y0024483D01*
X0218696Y0024483D01*
X0218696Y0059917D01*
X0222700Y0056100D02*
X0223800Y0057200D01*
X0227700Y0057200D01*
X0231600Y0057200D01*
X0232700Y0056100D01*
X0227700Y0056200D02*
X0227700Y0057200D01*
X0227700Y0048200D02*
X0227700Y0046200D01*
X0227700Y0038200D02*
X0227700Y0036200D01*
X0227700Y0028200D02*
X0227700Y0027200D01*
X0231600Y0027200D01*
X0232700Y0028300D01*
X0227700Y0027200D02*
X0223800Y0027200D01*
X0222700Y0028300D01*
X0198696Y0024483D02*
X0198696Y0059917D01*
X0185704Y0059917D01*
X0185704Y0024483D01*
X0198696Y0024483D01*
X0178696Y0024483D02*
X0178696Y0059917D01*
X0165704Y0059917D01*
X0165704Y0024483D01*
X0178696Y0024483D01*
X0158696Y0024483D02*
X0145704Y0024483D01*
X0145704Y0059917D01*
X0158696Y0059917D01*
X0158696Y0024483D01*
M02*
