G75*
%MOIN*%
%OFA0B0*%
%FSLAX25Y25*%
%IPPOS*%
%LPD*%
%AMOC8*
5,1,8,0,0,1.08239X$1,22.5*
%
%ADD10C,0.08200*%
%ADD11C,0.06400*%
%ADD12OC8,0.08200*%
%ADD13R,0.08800X0.08800*%
%ADD14C,0.08800*%
%ADD15C,0.07200*%
%ADD16C,0.06800*%
%ADD17C,0.00500*%
D10*
X0017700Y0132200D03*
X0016700Y0142200D03*
X0017700Y0152200D03*
X0016700Y0162200D03*
X0017700Y0172200D03*
X0152200Y0067200D03*
X0172200Y0067200D03*
X0192200Y0067200D03*
X0212200Y0067200D03*
X0212200Y0017200D03*
X0192200Y0017200D03*
X0172200Y0017200D03*
X0152200Y0017200D03*
X0217200Y0127200D03*
X0218200Y0137200D03*
X0217200Y0147200D03*
X0218200Y0157200D03*
X0217200Y0167200D03*
X0218200Y0177200D03*
D11*
X0167200Y0165000D02*
X0167200Y0159400D01*
X0157200Y0159400D02*
X0157200Y0165000D01*
X0147200Y0165000D02*
X0147200Y0159400D01*
X0137200Y0159400D02*
X0137200Y0165000D01*
X0127200Y0165000D02*
X0127200Y0159400D01*
X0117200Y0159400D02*
X0117200Y0165000D01*
X0107200Y0165000D02*
X0107200Y0159400D01*
X0097200Y0159400D02*
X0097200Y0165000D01*
X0097200Y0135000D02*
X0097200Y0129400D01*
X0107200Y0129400D02*
X0107200Y0135000D01*
X0117200Y0135000D02*
X0117200Y0129400D01*
X0127200Y0129400D02*
X0127200Y0135000D01*
X0137200Y0135000D02*
X0137200Y0129400D01*
X0147200Y0129400D02*
X0147200Y0135000D01*
X0157200Y0135000D02*
X0157200Y0129400D01*
X0167200Y0129400D02*
X0167200Y0135000D01*
D12*
X0167200Y0207200D03*
X0167200Y0217200D03*
X0157200Y0217200D03*
X0157200Y0207200D03*
X0147200Y0207200D03*
X0147200Y0217200D03*
X0137200Y0217200D03*
X0137200Y0207200D03*
X0127200Y0207200D03*
X0127200Y0217200D03*
X0117200Y0217200D03*
X0117200Y0207200D03*
X0107200Y0207200D03*
X0107200Y0217200D03*
X0097200Y0217200D03*
X0097200Y0207200D03*
X0087200Y0207200D03*
X0087200Y0217200D03*
X0077200Y0217200D03*
X0077200Y0207200D03*
X0067200Y0207200D03*
X0067200Y0217200D03*
X0057200Y0217200D03*
X0057200Y0207200D03*
X0047200Y0207200D03*
X0047200Y0217200D03*
X0037200Y0217200D03*
X0037200Y0207200D03*
X0027200Y0207200D03*
X0027200Y0217200D03*
X0177200Y0217200D03*
X0177200Y0207200D03*
X0187200Y0207200D03*
X0187200Y0217200D03*
X0197200Y0217200D03*
X0197200Y0207200D03*
X0207200Y0207200D03*
X0207200Y0217200D03*
X0217200Y0217200D03*
X0217200Y0207200D03*
D13*
X0222200Y0091500D03*
D14*
X0222200Y0106680D03*
D15*
X0224000Y0052200D02*
X0230400Y0052200D01*
X0231400Y0042200D02*
X0225000Y0042200D01*
X0224000Y0032200D02*
X0230400Y0032200D01*
D16*
X0037948Y0013193D03*
X0045822Y0014593D03*
X0053696Y0013193D03*
X0061570Y0014593D03*
X0069444Y0013193D03*
X0077318Y0014593D03*
X0085192Y0013193D03*
X0093066Y0014593D03*
X0100940Y0013193D03*
X0108814Y0014593D03*
X0100940Y0099807D03*
X0093066Y0101207D03*
X0085192Y0099807D03*
X0077318Y0101207D03*
X0069444Y0099807D03*
X0061570Y0101207D03*
X0053696Y0099807D03*
X0045822Y0101207D03*
X0037948Y0099807D03*
X0108814Y0101207D03*
D17*
X0178321Y0185817D02*
X0178650Y0185614D01*
X0179016Y0185490D01*
X0179400Y0185450D01*
X0179782Y0185484D01*
X0180146Y0185602D01*
X0180475Y0185798D01*
X0180752Y0186063D01*
X0180963Y0186382D01*
X0181098Y0186741D01*
X0181150Y0187120D01*
X0181115Y0187521D01*
X0180992Y0187903D01*
X0180786Y0188249D01*
X0180509Y0188540D01*
X0180174Y0188763D01*
X0179798Y0188905D01*
X0179400Y0188960D01*
X0179007Y0188909D01*
X0178635Y0188772D01*
X0178303Y0188555D01*
X0178028Y0188270D01*
X0177823Y0187931D01*
X0177698Y0187555D01*
X0177660Y0187160D01*
X0177707Y0186777D01*
X0177837Y0186413D01*
X0178046Y0186088D01*
X0178321Y0185817D01*
X0178565Y0185667D02*
X0180255Y0185667D01*
X0180820Y0186166D02*
X0177996Y0186166D01*
X0177747Y0186664D02*
X0181069Y0186664D01*
X0181146Y0187163D02*
X0177660Y0187163D01*
X0177733Y0187661D02*
X0181070Y0187661D01*
X0180839Y0188160D02*
X0177961Y0188160D01*
X0178461Y0188658D02*
X0180332Y0188658D01*
X0203260Y0187160D02*
X0203307Y0186777D01*
X0203437Y0186413D01*
X0203646Y0186088D01*
X0203921Y0185817D01*
X0204250Y0185614D01*
X0204616Y0185490D01*
X0205000Y0185450D01*
X0205382Y0185484D01*
X0205746Y0185602D01*
X0206075Y0185798D01*
X0206352Y0186063D01*
X0206563Y0186382D01*
X0206698Y0186741D01*
X0206750Y0187120D01*
X0206715Y0187521D01*
X0206592Y0187903D01*
X0206386Y0188249D01*
X0206109Y0188540D01*
X0205774Y0188763D01*
X0205398Y0188905D01*
X0205000Y0188960D01*
X0204607Y0188909D01*
X0204235Y0188772D01*
X0203903Y0188555D01*
X0203628Y0188270D01*
X0203423Y0187931D01*
X0203298Y0187555D01*
X0203260Y0187160D01*
X0203260Y0187163D02*
X0206746Y0187163D01*
X0206670Y0187661D02*
X0203333Y0187661D01*
X0203561Y0188160D02*
X0206439Y0188160D01*
X0205932Y0188658D02*
X0204061Y0188658D01*
X0203347Y0186664D02*
X0206669Y0186664D01*
X0206420Y0186166D02*
X0203596Y0186166D01*
X0204165Y0185667D02*
X0205855Y0185667D01*
M02*
