G75*
%MOIN*%
%OFA0B0*%
%FSLAX25Y25*%
%IPPOS*%
%LPD*%
%AMOC8*
5,1,8,0,0,1.08239X$1,22.5*
%
%ADD10C,0.08200*%
%ADD11C,0.06400*%
%ADD12OC8,0.08200*%
%ADD13R,0.08800X0.08800*%
%ADD14C,0.08800*%
%ADD15C,0.07200*%
%ADD16C,0.06800*%
%ADD17C,0.00500*%
D10*
X0017700Y0132200D03*
X0016700Y0142200D03*
X0017700Y0152200D03*
X0016700Y0162200D03*
X0017700Y0172200D03*
X0152200Y0067200D03*
X0172200Y0067200D03*
X0192200Y0067200D03*
X0212200Y0067200D03*
X0212200Y0017200D03*
X0192200Y0017200D03*
X0172200Y0017200D03*
X0152200Y0017200D03*
X0217200Y0127200D03*
X0218200Y0137200D03*
X0217200Y0147200D03*
X0218200Y0157200D03*
X0217200Y0167200D03*
X0218200Y0177200D03*
D11*
X0167200Y0165000D02*
X0167200Y0159400D01*
X0157200Y0159400D02*
X0157200Y0165000D01*
X0147200Y0165000D02*
X0147200Y0159400D01*
X0137200Y0159400D02*
X0137200Y0165000D01*
X0127200Y0165000D02*
X0127200Y0159400D01*
X0117200Y0159400D02*
X0117200Y0165000D01*
X0107200Y0165000D02*
X0107200Y0159400D01*
X0097200Y0159400D02*
X0097200Y0165000D01*
X0097200Y0135000D02*
X0097200Y0129400D01*
X0107200Y0129400D02*
X0107200Y0135000D01*
X0117200Y0135000D02*
X0117200Y0129400D01*
X0127200Y0129400D02*
X0127200Y0135000D01*
X0137200Y0135000D02*
X0137200Y0129400D01*
X0147200Y0129400D02*
X0147200Y0135000D01*
X0157200Y0135000D02*
X0157200Y0129400D01*
X0167200Y0129400D02*
X0167200Y0135000D01*
D12*
X0167200Y0207200D03*
X0167200Y0217200D03*
X0157200Y0217200D03*
X0157200Y0207200D03*
X0147200Y0207200D03*
X0147200Y0217200D03*
X0137200Y0217200D03*
X0137200Y0207200D03*
X0127200Y0207200D03*
X0127200Y0217200D03*
X0117200Y0217200D03*
X0117200Y0207200D03*
X0107200Y0207200D03*
X0107200Y0217200D03*
X0097200Y0217200D03*
X0097200Y0207200D03*
X0087200Y0207200D03*
X0087200Y0217200D03*
X0077200Y0217200D03*
X0077200Y0207200D03*
X0067200Y0207200D03*
X0067200Y0217200D03*
X0057200Y0217200D03*
X0057200Y0207200D03*
X0047200Y0207200D03*
X0047200Y0217200D03*
X0037200Y0217200D03*
X0037200Y0207200D03*
X0027200Y0207200D03*
X0027200Y0217200D03*
X0177200Y0217200D03*
X0177200Y0207200D03*
X0187200Y0207200D03*
X0187200Y0217200D03*
X0197200Y0217200D03*
X0197200Y0207200D03*
X0207200Y0207200D03*
X0207200Y0217200D03*
X0217200Y0217200D03*
X0217200Y0207200D03*
D13*
X0222200Y0091500D03*
D14*
X0222200Y0106680D03*
D15*
X0224000Y0052200D02*
X0230400Y0052200D01*
X0231400Y0042200D02*
X0225000Y0042200D01*
X0224000Y0032200D02*
X0230400Y0032200D01*
D16*
X0037948Y0013193D03*
X0045822Y0014593D03*
X0053696Y0013193D03*
X0061570Y0014593D03*
X0069444Y0013193D03*
X0077318Y0014593D03*
X0085192Y0013193D03*
X0093066Y0014593D03*
X0100940Y0013193D03*
X0108814Y0014593D03*
X0100940Y0099807D03*
X0093066Y0101207D03*
X0085192Y0099807D03*
X0077318Y0101207D03*
X0069444Y0099807D03*
X0061570Y0101207D03*
X0053696Y0099807D03*
X0045822Y0101207D03*
X0037948Y0099807D03*
X0108814Y0101207D03*
D17*
X0176769Y0184502D02*
X0177333Y0184049D01*
X0177975Y0183715D01*
X0178669Y0183513D01*
X0179390Y0183450D01*
X0180115Y0183512D01*
X0180814Y0183713D01*
X0181460Y0184048D01*
X0182028Y0184502D01*
X0182497Y0185058D01*
X0182848Y0185694D01*
X0183069Y0186387D01*
X0183150Y0187110D01*
X0183100Y0187770D01*
X0182936Y0188411D01*
X0182664Y0189014D01*
X0182291Y0189560D01*
X0181829Y0190034D01*
X0181291Y0190419D01*
X0180695Y0190706D01*
X0180058Y0190885D01*
X0179400Y0190950D01*
X0178742Y0190883D01*
X0178105Y0190703D01*
X0177510Y0190414D01*
X0176973Y0190027D01*
X0176512Y0189552D01*
X0176141Y0189005D01*
X0175870Y0188401D01*
X0175708Y0187760D01*
X0175660Y0187100D01*
X0175738Y0186381D01*
X0175956Y0185691D01*
X0176304Y0185056D01*
X0176769Y0184502D01*
X0176628Y0184670D02*
X0182170Y0184670D01*
X0182558Y0185169D02*
X0176242Y0185169D01*
X0175969Y0185667D02*
X0182833Y0185667D01*
X0182998Y0186166D02*
X0175806Y0186166D01*
X0175707Y0186664D02*
X0183100Y0186664D01*
X0183146Y0187163D02*
X0175664Y0187163D01*
X0175701Y0187661D02*
X0183108Y0187661D01*
X0183000Y0188160D02*
X0175809Y0188160D01*
X0175985Y0188658D02*
X0182825Y0188658D01*
X0182566Y0189157D02*
X0176244Y0189157D01*
X0176612Y0189655D02*
X0182198Y0189655D01*
X0181662Y0190154D02*
X0177149Y0190154D01*
X0178001Y0190652D02*
X0180808Y0190652D01*
X0181615Y0184172D02*
X0177181Y0184172D01*
X0178120Y0183673D02*
X0180674Y0183673D01*
X0201338Y0186381D02*
X0201556Y0185691D01*
X0201904Y0185056D01*
X0202369Y0184502D01*
X0202933Y0184049D01*
X0203575Y0183715D01*
X0204269Y0183513D01*
X0204990Y0183450D01*
X0205715Y0183512D01*
X0206414Y0183713D01*
X0207060Y0184048D01*
X0207628Y0184502D01*
X0208097Y0185058D01*
X0208448Y0185694D01*
X0208669Y0186387D01*
X0208750Y0187110D01*
X0208700Y0187770D01*
X0208536Y0188411D01*
X0208264Y0189014D01*
X0207891Y0189560D01*
X0207429Y0190034D01*
X0206891Y0190419D01*
X0206295Y0190706D01*
X0205658Y0190885D01*
X0205000Y0190950D01*
X0204342Y0190883D01*
X0203705Y0190703D01*
X0203110Y0190414D01*
X0202573Y0190027D01*
X0202112Y0189552D01*
X0201741Y0189005D01*
X0201470Y0188401D01*
X0201308Y0187760D01*
X0201260Y0187100D01*
X0201338Y0186381D01*
X0201406Y0186166D02*
X0208598Y0186166D01*
X0208700Y0186664D02*
X0201307Y0186664D01*
X0201264Y0187163D02*
X0208746Y0187163D01*
X0208708Y0187661D02*
X0201301Y0187661D01*
X0201409Y0188160D02*
X0208600Y0188160D01*
X0208425Y0188658D02*
X0201585Y0188658D01*
X0201844Y0189157D02*
X0208166Y0189157D01*
X0207798Y0189655D02*
X0202212Y0189655D01*
X0202749Y0190154D02*
X0207262Y0190154D01*
X0206408Y0190652D02*
X0203601Y0190652D01*
X0201569Y0185667D02*
X0208433Y0185667D01*
X0208158Y0185169D02*
X0201842Y0185169D01*
X0202228Y0184670D02*
X0207770Y0184670D01*
X0207215Y0184172D02*
X0202781Y0184172D01*
X0203720Y0183673D02*
X0206274Y0183673D01*
M02*
