%
M48
M72
T01C0.02362
T02C0.02756
T03C0.03200
T04C0.03543
T05C0.03600
T06C0.04000
T07C0.09000
%
T01
X121800Y96800
T02
X131800Y126800
X131800Y136800
X152745Y139753
X152745Y129753
T03
X111650Y96800
X91950Y96800
X141800Y51800
X141800Y41800
X141800Y26800
X141800Y16800
T04
X17800Y21800
X54800Y21800
X91800Y37800
X106800Y36800
X106800Y66800
X91800Y65800
X131800Y76800
X151800Y76800
X151800Y106800
X131800Y106800
X115186Y128729
X108493Y144083
X101800Y128729
X95107Y144083
X88414Y128729
X131800Y161800
X151800Y161800
X151800Y191800
X131800Y191800
T05
X41721Y136800
X41721Y129000
X31879Y129000
X31879Y136800
T06
X31300Y206800
X42300Y206800
X96300Y11800
X107300Y11800
T07
X60500Y147500
X13100Y147500
M30
